<?xml version="1.0" encoding="utf-8"?><svg xmlns="http://www.w3.org/2000/svg" xmlns:xlink="http://www.w3.org/1999/xlink"><symbol fill="none" viewBox="0 0 7 10" id="arrow" xmlns="http://www.w3.org/2000/svg"><path fill-rule="evenodd" clip-rule="evenodd" d="M7 7l-3.5 3L0 7h3V0h1v7h3z" fill="currentcolor"/></symbol><symbol fill="none" viewBox="0 0 24 24" id="calories" xmlns="http://www.w3.org/2000/svg"><path d="M7.779 10.758a15.52 15.52 0 011.915-2.71l.05.205c.162.635.43 1.465.853 2.042l.855 1.17.048-1.449a9.645 9.645 0 01.871-3.606c.254-.539.544-.995.852-1.332l.028-.03c-.155 1.423.261 2.92 1.35 4.265.166.208.354.425.553.655C16.183 11.154 17.5 12.675 17.5 15c0 1.306-.696 2.42-1.757 3.227-1.065.81-2.459 1.273-3.743 1.273-1.274 0-2.668-.463-3.736-1.273C7.2 17.42 6.5 16.305 6.5 15c0-1.383.52-2.87 1.279-4.242z" stroke="currentcolor"/></symbol><symbol fill="none" viewBox="0 0 32 32" id="car-32" xmlns="http://www.w3.org/2000/svg"><path d="M29 17c0-.5-.5-1-1-1l-3-1-4-4h-5V9c0-.696-.306-1-1-1H5c-.5 0-1 .5-1 1v2H3v1h9v-1H5V9h10v2h-1v1h1v8h1v-8h4.5l4 4 3.5 1v4h-2c0-1-1-2-2.5-2S21 20 21 21.5s1 2.5 2.5 2.5 2.5-1 2.5-2h2c.5 0 1-.5 1-1v-4zm-5.5 6c-1 0-1.5-.5-1.5-1.5s.5-1.5 1.5-1.5 1.5.5 1.5 1.5-.5 1.5-1.5 1.5z" fill="currentcolor"/><path d="M20 21h-9c0-1-1-2-2.5-2S6 20 6 21H5v-2H4v2c0 .5.5 1 1 1h1c0 1 1 2 2.5 2s2.5-1 2.5-2h9v-1zM8.5 23c-.95 0-1.5-.555-1.5-1.5S7.55 20 8.5 20s1.5.555 1.5 1.5S9.45 23 8.5 23zm5.5-8v-1H6v1h8z" fill="currentcolor"/><path d="M10 18v-1H5v-4H4v4H3v1h7zm12-2v-1l-2-2h-3v3h5zm-4-2h2l1 1h-3v-1z" fill="currentcolor"/></symbol><symbol fill="none" viewBox="0 0 26 16" id="car-delivery" xmlns="http://www.w3.org/2000/svg"><path d="M26 9c0-.5-.5-1-1-1l-3-1-4-4h-5V1c0-.696-.306-1-1-1H2c-.5 0-1 .5-1 1v2H0v1h9V3H2V1h10v2h-1v1h1v8h1V4h4.5l4 4L25 9v4h-2c0-1-1-2-2.5-2S18 12 18 13.5s1 2.5 2.5 2.5 2.5-1 2.5-2h2c.5 0 1-.5 1-1V9zm-5.5 6c-1 0-1.5-.5-1.5-1.5s.5-1.5 1.5-1.5 1.5.5 1.5 1.5-.5 1.5-1.5 1.5z" fill="currentcolor"/><path d="M17 13H8c0-1-1-2-2.5-2S3 12 3 13H2v-2H1v2c0 .5.5 1 1 1h1c0 1 1 2 2.5 2S8 15 8 14h9v-1zM5.5 15c-.95 0-1.5-.555-1.5-1.5S4.55 12 5.5 12s1.5.555 1.5 1.5S6.45 15 5.5 15zM11 7V6H3v1h8z" fill="currentcolor"/><path d="M7 10V9H2V5H1v4H0v1h7zm12-2V7l-2-2h-3v3h5zm-4-2h2l1 1h-3V6z" fill="currentcolor"/></symbol><symbol fill="none" viewBox="0 0 30 26" id="cart" xmlns="http://www.w3.org/2000/svg"><rect x="5" y="21" width="4" height="4" rx="2" fill="currentcolor"/><rect x="16" y="21" width="4" height="4" rx="2" fill="currentcolor"/><path fill-rule="evenodd" clip-rule="evenodd" d="M20 18H5c-.5 0-.887-.578-1-1L1 7V6a1 1 0 011-1h21a1 1 0 011 1v1l-3 10c-.107.398-.5 1-1 1zm2-11H3l2.5 9h14L22 7z" fill="currentcolor"/><rect x="24" y="1" width="5" height="2" rx="1" fill="currentcolor"/><path d="M23.187 7.975c-.723.153-1.364-.424-1.142-1.027l1.967-5.343c.133-.36.526-.605.97-.605.695 0 1.184.577.965 1.136l-2.086 5.31c-.103.262-.357.462-.674.529z" fill="currentcolor"/></symbol><symbol fill="none" viewBox="0 0 20 18" id="cart-small" xmlns="http://www.w3.org/2000/svg"><rect x="3" y="15" width="3" height="3" rx="1.5" fill="currentcolor"/><rect x="10" y="15" width="3" height="3" rx="1.5" fill="currentcolor"/><path fill-rule="evenodd" clip-rule="evenodd" d="M13 13H3c-.5 0-.887-.578-1-1L0 5V4a1 1 0 011-1h14a1 1 0 011 1v1l-2 7c-.107.398-.5 1-1 1zm1-8H2l1.5 6h9L14 5z" fill="currentcolor"/><path d="M15.724.553A1 1 0 0116.618 0H19a1 1 0 110 2h-2.382a1 1 0 01-.894-1.447z" fill="currentcolor"/><path d="M14.643 8.027C13.92 8.181 13.278 7.604 13.5 7L15 1c.133-.36 1.056-1 1.5-1 .694 0 .655.971.435 1.53l-1.618 5.968c-.103.262-.358.462-.674.53z" fill="currentcolor"/></symbol><symbol fill="none" viewBox="0 0 12 12" id="chevron" xmlns="http://www.w3.org/2000/svg"><path fill-rule="evenodd" clip-rule="evenodd" d="M11.27 6.367L6.75 2.28a1.145 1.145 0 00-1.5 0L.73 6.367a.891.891 0 000 1.353 1.145 1.145 0 001.5 0L6 4.31l3.77 3.41a1.145 1.145 0 001.5 0 .891.891 0 000-1.353z" fill="currentcolor"/></symbol><symbol fill="none" viewBox="0 0 24 24" id="clocks-24" xmlns="http://www.w3.org/2000/svg"><path fill-rule="evenodd" clip-rule="evenodd" d="M12 19a7 7 0 100-14 7 7 0 000 14zm0 1a8 8 0 100-16 8 8 0 000 16z" fill="currentcolor"/><path fill-rule="evenodd" clip-rule="evenodd" d="M14.82 15.884a.5.5 0 01-.704-.064L11.5 12.681V7a.5.5 0 111 0v5.319l2.384 2.86a.5.5 0 01-.064.705z" fill="currentcolor"/></symbol><symbol fill="none" viewBox="0 0 32 32" id="clocks-32" xmlns="http://www.w3.org/2000/svg"><circle cx="15.5" cy="15.5" r="9" stroke="currentcolor"/><path fill="currentcolor" d="M15 9h1v7h-1z"/><path fill="currentcolor" d="M20 15v1h-5v-1z"/></symbol><symbol fill="none" viewBox="0 0 24 24" id="download-24" xmlns="http://www.w3.org/2000/svg"><path fill="currentcolor" d="M6 19h12v1H6z"/><path d="M9.5 12V4.5h5v8h2.293L12 17.293 7.207 12.5H9.5V12z" stroke="currentcolor"/></symbol><symbol fill="none" viewBox="0 0 24 24" id="filter-24" xmlns="http://www.w3.org/2000/svg"><path d="M4.136 5.235l5.885 7.75v5.666c0 .17.097.315.218.412l2.98 1.864a.489.489 0 00.508 0 .5.5 0 00.242-.411v-7.532l5.885-7.749.024-.024c.145-.242.17-.557.024-.8-.145-.241-.411-.411-.678-.411H4.766c-.29 0-.557.145-.678.412-.121.266-.121.557.024.799l.024.024zm14.677-.266l-5.716 7.58c-.072.072-.097.193-.097.29v6.805l-2.01-1.26V12.84c0-.097-.024-.218-.097-.29l-5.74-7.58h13.66z" fill="currentcolor"/></symbol><symbol fill="none" viewBox="0 0 32 32" id="flag-32" xmlns="http://www.w3.org/2000/svg"><path d="M10.5 8.5h11v8h-11v-8z" stroke="currentcolor"/><path fill="currentcolor" d="M10 8h1v16h-1zm1 1h3v2h-3zm3 2h4v3h-4zm-3 3h3v2h-3zm7 0h3v2h-3zm0-5h3v2h-3z"/></symbol><symbol fill="none" viewBox="0 0 27 23" id="heart" xmlns="http://www.w3.org/2000/svg"><path d="M7.805 0a7.494 7.494 0 00-5.686 2.58C.761 4.127 0 6.187 0 8.34c0 3.581 1.541 6.241 3.922 8.42 2.38 2.18 5.568 3.956 9.08 6.102a.966.966 0 00.997 0c3.511-2.146 6.7-3.922 9.08-6.101C25.458 14.58 27 11.92 27 8.34c0-2.152-.76-4.212-2.119-5.76A7.494 7.494 0 0019.195 0C16.692 0 14.71 1.037 13.5 1.968 12.29 1.037 10.308 0 7.805 0zm0 1.725c2.295 0 4.33 1.303 5.033 1.978a.974.974 0 001.323 0c.705-.675 2.74-1.978 5.034-1.978 1.769 0 3.207.741 4.267 1.95 1.06 1.21 1.697 2.896 1.697 4.665 0 3.138-1.22 5.216-3.365 7.18-2.037 1.865-4.972 3.57-8.294 5.59-3.322-2.02-6.257-3.725-8.294-5.59-2.145-1.964-3.365-4.042-3.365-7.18 0-1.769.637-3.455 1.697-4.664 1.06-1.21 2.498-1.95 4.267-1.95z" fill="currentcolor"/></symbol><symbol viewBox="0 0 18 16" id="heart-small" xmlns="http://www.w3.org/2000/svg"><path stroke="currentcolor" d="M13 1h0c-.5 0-1.1.2-1.7.5-.6.3-1.2.8-1.6 1.2l-.7.7-.7-.7c-.4-.4-1-.9-1.6-1.2C6.1 1.2 5.5 1 5 1h0c-1.2 0-2.2.4-2.9 1.1C1.4 2.8 1 3.7 1 5c0 3 2 5.5 4.1 7.3 1.1.9 2.1 1.6 3 2.1.4.2.7.4.9.5.2-.1.5-.3.9-.5.8-.5 1.9-1.2 3-2.1C15 10.5 17 8 17 5v0c0-1.3-.4-2.2-1.1-2.9C15.2 1.4 14.2 1 13 1z" stroke-width="2"/></symbol><symbol fill="none" viewBox="0 0 16 16" id="info" xmlns="http://www.w3.org/2000/svg"><circle cx="8" cy="8" r="8" fill="currentcolor"/><rect x="7" y="7" width="2" height="6" rx="1" fill="#fff"/><rect x="7" y="3" width="2" height="2" rx="1" fill="#fff"/></symbol><symbol fill="none" viewBox="0 0 24 24" id="logo-moscow-24" xmlns="http://www.w3.org/2000/svg"><path d="M7 14H6v1H5v-1H4v6h4v-5H7v-1zm4-7l1-1 1 1V6l1-1h-1l-1-1-1 1h-1l1 1v1zm8 7v1h-1v-1h-1v1h-1v5h4v-6h-1zm-7-7l-2 5H9v8h2v-3h2v3h2v-8h-1l-2-5zm1 7h-2v-2h2v2z" fill="currentcolor"/></symbol><symbol fill="none" viewBox="0 0 24 24" id="logo-murmansk-24" xmlns="http://www.w3.org/2000/svg"><path d="M17 8h-2c0-.323.268-1 0-1h-1V5h-1v1c.054-.03-.034.052 0 0 .062-.002-.054.03 0 0h-2v2h-1V4H9v4c-.215 0-.848.184-1 0V7H4c0 1.226 1.012 4 2 4h13c.41 0 1-.505 1-1V8h-3zm1 9s1.5-1.5 1-3c0 0-.125 1.604-5 1-1.864-.522-5-1-5-1H8c-1.155 0-2.966.359-4 1 0 0 1 4 4.5 4 1.5-1.5.488-3 .5-3 1.5 1 0 3 0 3 5.312-.15 6.5-1 6.5-1l.5.5s.552-.724 1-.5c2 1 3-.5 3-.5s-1.683-.144-2-.5zM7 17c-.242 0-1-.708-1-1 0-.292 1 0 1 0s.242 1 0 1z" fill="currentcolor"/></symbol><symbol fill="none" viewBox="0 0 16 12" id="mail" xmlns="http://www.w3.org/2000/svg"><rect x=".5" y=".5" width="15" height="11" rx="1.5" stroke="currentcolor"/><path fill-rule="evenodd" clip-rule="evenodd" d="M2.1 2.7a.5.5 0 11.6-.8l4.7 3.525a1 1 0 001.2 0L13.3 1.9a.5.5 0 11.6.8L8.6 6.675a1 1 0 01-1.2 0L2.1 2.7z" fill="currentcolor"/></symbol><symbol fill="none" viewBox="0 0 24 24" id="mail-24" xmlns="http://www.w3.org/2000/svg"><rect x="4.5" y="6.5" width="15" height="11" rx="1.5" stroke="currentcolor"/><path fill-rule="evenodd" clip-rule="evenodd" d="M6.1 8.7a.5.5 0 11.6-.8l4.7 3.525a1 1 0 001.2 0L17.3 7.9a.5.5 0 01.6.8l-5.3 3.975a1 1 0 01-1.2 0L6.1 8.7z" fill="currentcolor"/></symbol><symbol fill="none" viewBox="0 0 24 24" id="phone-24" xmlns="http://www.w3.org/2000/svg"><path d="M12 4H8a2 2 0 00-2 2v12a2 2 0 002 2h8a2 2 0 002-2v-8h-1v8a1 1 0 01-1 1H8a1 1 0 01-1-1V6a1 1 0 011-1h4V4z" fill="currentcolor"/><path d="M12 16a1 1 0 100 2 1 1 0 000-2z" fill="currentcolor"/><path d="M12 4h4a2 2 0 012 2v12a2 2 0 01-2 2H8a2 2 0 01-2-2v-8h1v8a1 1 0 001 1h8a1 1 0 001-1V6a1 1 0 00-1-1h-4V4z" fill="currentcolor"/><path d="M12 16a1 1 0 110 2 1 1 0 010-2z" fill="currentcolor"/></symbol><symbol fill="none" viewBox="0 0 14 18" id="phone-callback" xmlns="http://www.w3.org/2000/svg"><path d="M6 2H2a2 2 0 00-2 2v12a2 2 0 002 2h8a2 2 0 002-2V8h-1v8a1 1 0 01-1 1H2a1 1 0 01-1-1V4a1 1 0 011-1h4V2z" fill="currentcolor"/><path d="M6 14a1 1 0 100 2 1 1 0 000-2zm2-8V1h1v3.5L13.5 0l.5.5L9.5 5H13v1H8z" fill="currentcolor"/></symbol><symbol fill="none" viewBox="0 0 24 24" id="phone-callback-24" xmlns="http://www.w3.org/2000/svg"><path d="M11 5H7a2 2 0 00-2 2v12a2 2 0 002 2h8a2 2 0 002-2v-8h-1v8a1 1 0 01-1 1H7a1 1 0 01-1-1V7a1 1 0 011-1h4V5z" fill="currentcolor"/><path d="M11 17a1 1 0 100 2 1 1 0 000-2zm2-8V4h1v3.5L18.5 3l.5.5L14.5 8H18v1h-5z" fill="currentcolor"/></symbol><symbol fill="none" viewBox="0 0 12 16" id="pin" xmlns="http://www.w3.org/2000/svg"><path d="M11.5 6c0 .703-.327 1.653-.882 2.732-.547 1.062-1.281 2.186-2.024 3.219A49.513 49.513 0 016 15.24a49.513 49.513 0 01-2.594-3.289c-.743-1.033-1.477-2.157-2.024-3.22C.827 7.654.5 6.704.5 6a5.5 5.5 0 1111 0z" stroke="currentcolor"/></symbol><symbol fill="none" viewBox="0 0 30 39" id="play" xmlns="http://www.w3.org/2000/svg"><path d="M27.28 15.427c2.8 1.994 2.8 6.152 0 8.146L7.9 37.374c-3.31 2.357-7.9-.01-7.9-4.073V5.7C0 1.636 4.59-.73 7.9 1.627l19.38 13.801z" fill="currentcolor"/></symbol><symbol fill="none" viewBox="0 0 20 24" id="profile" xmlns="http://www.w3.org/2000/svg"><path d="M20 23c0 .602-.386 1-1 1s-1-.398-1-1c0-4.217-3.704-7-8-7-4.296 0-8 2.783-8 7 0 .602-.386 1-1 1s-1-.398-1-1c0-5.422 4.477-9 10-9s10 3.578 10 9zM10 12c-3.375 0-6-2.686-6-6s2.625-6 6-6 6 2.686 6 6-2.625 6-6 6zm0-2c2.148 0 4-1.891 4-4s-1.852-4-4-4C7.852 2 6 3.891 6 6s1.852 4 4 4z" fill="currentcolor"/></symbol><symbol fill="none" viewBox="0 0 24 24" id="profile-24" xmlns="http://www.w3.org/2000/svg"><path fill-rule="evenodd" clip-rule="evenodd" d="M12 12a4 4 0 100-8 4 4 0 000 8zm0-1a3 3 0 100-6 3 3 0 000 6z" fill="currentcolor"/><path d="M18.5 20a.474.474 0 00.482-.5 7 7 0 00-13.964 0c-.02.275.206.5.482.5a.534.534 0 00.52-.5 6 6 0 0111.96 0c.022.275.244.5.52.5z" fill="currentcolor"/></symbol><symbol fill="none" viewBox="0 0 24 24" id="requisites-24" xmlns="http://www.w3.org/2000/svg"><rect x="5.5" y="4.5" width="13" height="15" rx="1.5" stroke="currentcolor"/><path fill="currentcolor" d="M10 7h6v1h-6zm0 3h6v1h-6zm0 3h6v1h-6zm0 3h6v1h-6zM8 7h1v1H8zm0 3h1v1H8zm0 3h1v1H8zm0 3h1v1H8z"/></symbol><symbol fill="none" viewBox="0 0 16 16" id="search" xmlns="http://www.w3.org/2000/svg"><path d="M15.734 14.486l-3.924-3.93a6.549 6.549 0 00-.592-8.625A6.517 6.517 0 006.571 0a6.517 6.517 0 00-4.647 1.931 6.59 6.59 0 000 9.306A6.517 6.517 0 006.57 13.17a6.46 6.46 0 003.968-1.34l3.946 3.908a.877.877 0 00.635.263c.22 0 .46-.088.636-.263.329-.33.329-.9-.022-1.251zM6.593 11.39c-1.293 0-2.477-.505-3.398-1.405-1.863-1.865-1.863-4.916 0-6.804a4.771 4.771 0 013.398-1.404c1.293 0 2.477.505 3.398 1.404.92.9 1.403 2.107 1.403 3.402s-.505 2.48-1.403 3.402c-.9.922-2.127 1.405-3.398 1.405z" fill="currentcolor"/></symbol><symbol fill="none" viewBox="0 0 56 56" id="shipping" xmlns="http://www.w3.org/2000/svg"><path d="M51.563 21.498l-.009.166.093.138L55.31 27.3c.252.45.252.952-.001 1.403l-3.58 5.5-.088.136.009.163.35 6.548a1.375 1.375 0 01-.7 1.21l-5.851 2.97-.146.073-.074.146-2.969 5.85c-.287.496-.729.759-1.16.705l-.018-.002-.018-.001-6.562-.35-.163-.009-.137.089-5.512 3.587-.005.004c-.162.107-.41.178-.685.178-.276 0-.523-.07-.685-.178h0l-.005-.004-5.512-3.587-.137-.089-.163.009-6.562.35h-.018l-.018.003c-.431.054-.873-.209-1.16-.704l-2.97-5.851-.073-.146-.146-.074-5.85-2.969a1.375 1.375 0 01-.7-1.21l.348-6.548.009-.163-.089-.137-3.579-5.5a1.395 1.395 0 010-1.405l3.58-5.5.088-.136-.009-.163L4 14.95c.004-.513.255-.951.7-1.21l5.851-2.97.146-.073.074-.146 2.969-5.85c.287-.496.729-.759 1.16-.705l.018.002.018.001 6.474.35.163.01.137-.09L27.21.69a1.395 1.395 0 011.405 0l5.5 3.58.136.088.163-.009L40.977 4h.017l.018-.003c.431-.054.873.209 1.16.704l2.97 5.851.074.146.145.074 5.85 2.969c.446.259.697.697.702 1.21l-.35 6.548z" stroke="currentcolor"/><path d="M42 29c0-.5-.5-1-1-1l-3-1-4-4h-5v-2c0-.696-.306-1-1-1H18c-.5 0-1 .5-1 1v2h-1v1h9v-1h-7v-2h10v2h-1v1h1v8h1v-8h4.5l4 4 3.5 1v4h-2c0-1-1-2-2.5-2S34 32 34 33.5s1 2.5 2.5 2.5 2.5-1 2.5-2h2c.5 0 1-.5 1-1v-4zm-5.5 6c-1 0-1.5-.5-1.5-1.5s.5-1.5 1.5-1.5 1.5.5 1.5 1.5-.5 1.5-1.5 1.5z" fill="currentcolor"/><path d="M33 33h-9c0-1-1-2-2.5-2S19 32 19 33h-1v-2h-1v2c0 .5.5 1 1 1h1c0 1 1 2 2.5 2s2.5-1 2.5-2h9v-1zm-11.5 2c-.95 0-1.5-.555-1.5-1.5s.55-1.5 1.5-1.5 1.5.555 1.5 1.5-.55 1.5-1.5 1.5zm5.5-8v-1h-8v1h8z" fill="currentcolor"/><path d="M23 30v-1h-5v-4h-1v4h-1v1h7zm12-2v-1l-2-2h-3v3h5zm-4-2h2l1 1h-3v-1z" fill="currentcolor"/></symbol><symbol fill="none" viewBox="0 0 40 40" id="social-facebook" xmlns="http://www.w3.org/2000/svg"><path fill-rule="evenodd" clip-rule="evenodd" d="M21.374 29.167v-9.168h2.466l.326-3.16h-2.792l.005-1.58c0-.825.076-1.266 1.229-1.266h1.54v-3.16h-2.465c-2.961 0-4.004 1.533-4.004 4.11v1.897h-1.846V20h1.846v9.167h3.695z" fill="currentcolor"/><rect x=".5" y=".5" width="39" height="39" rx="19.5" stroke="currentcolor"/></symbol><symbol fill="none" viewBox="0 0 40 40" id="social-instagram" xmlns="http://www.w3.org/2000/svg"><path fill-rule="evenodd" clip-rule="evenodd" d="M16.22 10.889c.979-.045 1.291-.056 3.78-.056h-.002c2.49 0 2.801.011 3.779.056.976.044 1.642.199 2.227.426a4.48 4.48 0 011.623 1.056 4.5 4.5 0 011.058 1.624c.225.583.38 1.25.426 2.225.044.978.055 1.29.055 3.78 0 2.49-.011 2.801-.055 3.779-.046.975-.2 1.642-.426 2.225a4.5 4.5 0 01-1.058 1.623c-.51.51-1.02.824-1.623 1.058-.583.227-1.25.382-2.226.426-.977.045-1.289.056-3.779.056-2.489 0-2.801-.011-3.779-.056-.976-.044-1.642-.199-2.225-.426a4.488 4.488 0 01-1.623-1.058 4.491 4.491 0 01-1.058-1.623c-.226-.583-.38-1.25-.426-2.225-.044-.978-.055-1.29-.055-3.78 0-2.489.011-2.801.055-3.779.044-.975.199-1.642.426-2.225a4.5 4.5 0 011.058-1.623 4.487 4.487 0 011.624-1.057c.583-.227 1.249-.382 2.225-.426zm3.475 1.596h-.517v-.002c-1.708.002-2.036.013-2.882.051-.893.041-1.379.19-1.702.316a2.844 2.844 0 00-1.054.687c-.32.32-.52.626-.686 1.054-.125.323-.275.808-.316 1.702-.044.966-.052 1.255-.052 3.703 0 2.447.008 2.738.052 3.704.041.894.19 1.379.316 1.702.167.427.365.732.686 1.053.32.321.626.52 1.054.686.324.125.809.275 1.702.316.967.044 1.257.053 3.704.053 2.448 0 2.738-.01 3.705-.053.893-.041 1.379-.19 1.702-.316a2.833 2.833 0 001.053-.686c.32-.32.52-.625.686-1.053.125-.322.275-.808.316-1.701.044-.967.053-1.257.053-3.703 0-2.447-.01-2.737-.053-3.703-.041-.894-.19-1.379-.316-1.702a2.844 2.844 0 00-.686-1.054 2.83 2.83 0 00-1.053-.685c-.324-.126-.809-.275-1.702-.316-.967-.044-1.257-.053-3.705-.053h-.305z" fill="currentcolor"/><path fill-rule="evenodd" clip-rule="evenodd" d="M24.894 14.007a1.1 1.1 0 100 2.2 1.1 1.1 0 000-2.2zM15.293 20a4.708 4.708 0 119.415 0 4.708 4.708 0 01-9.415 0zm7.763 0a3.056 3.056 0 10-6.11 0 3.056 3.056 0 006.11 0z" fill="currentcolor"/><rect x=".5" y=".5" width="39" height="39" rx="19.5" stroke="currentcolor"/></symbol><symbol fill="none" viewBox="0 0 40 40" id="social-vk" xmlns="http://www.w3.org/2000/svg"><path fill-rule="evenodd" clip-rule="evenodd" d="M20.899 24.958s.33-.035.5-.209c.155-.16.15-.46.15-.46s-.02-1.405.662-1.613c.672-.204 1.536 1.359 2.452 1.96.692.454 1.218.355 1.218.355l2.449-.033s1.28-.075.673-1.038c-.05-.079-.354-.712-1.82-2.014-1.536-1.362-1.33-1.142.519-3.499 1.126-1.435 1.576-2.31 1.435-2.686-.133-.358-.962-.263-.962-.263l-2.756.017s-.204-.027-.356.06c-.148.084-.244.283-.244.283s-.436 1.11-1.018 2.054c-1.227 1.993-1.718 2.098-1.919 1.975-.467-.29-.35-1.16-.35-1.777 0-1.932.306-2.737-.596-2.945-.3-.07-.52-.115-1.287-.123-.984-.01-1.816.004-2.288.224-.314.146-.556.474-.408.493.182.023.595.106.814.39.282.369.272 1.193.272 1.193s.162 2.274-.38 2.556c-.37.194-.88-.201-1.974-2.01-.56-.925-.984-1.95-.984-1.95s-.082-.19-.228-.293a1.159 1.159 0 00-.423-.163l-2.62.016s-.393.01-.537.174c-.129.145-.01.446-.01.446s2.05 4.588 4.373 6.9c2.13 2.12 4.547 1.98 4.547 1.98h1.096z" fill="currentcolor"/><rect x=".5" y=".5" width="39" height="39" rx="19.5" stroke="currentcolor"/></symbol><symbol fill="none" viewBox="0 0 40 40" id="social-youtube" xmlns="http://www.w3.org/2000/svg"><path fill-rule="evenodd" clip-rule="evenodd" d="M27.162 13.731c.79.22 1.41.865 1.621 1.684.383 1.486.383 4.585.383 4.585s0 3.1-.383 4.584a2.344 2.344 0 01-1.62 1.685c-1.43.398-7.163.398-7.163.398s-5.733 0-7.163-.398a2.345 2.345 0 01-1.621-1.684c-.383-1.486-.383-4.585-.383-4.585s0-3.1.383-4.585a2.34 2.34 0 011.621-1.684c1.43-.398 7.163-.398 7.163-.398s5.733 0 7.162.398zm-8.881 3.66v5.797l4.583-2.898-4.583-2.899z" fill="currentcolor"/><rect x=".5" y=".5" width="39" height="39" rx="19.5" stroke="currentcolor"/></symbol><symbol fill="none" viewBox="0 0 13 13" id="star" xmlns="http://www.w3.org/2000/svg"><path d="M6.5 0L8 5h5L9 8l2 5-4.5-3L2 13l2-5-4-3h5l1.5-5z" fill="currentcolor"/></symbol><symbol fill="none" viewBox="0 0 16 16" id="status-ok" xmlns="http://www.w3.org/2000/svg"><circle cx="8" cy="8" r="8" fill="currentcolor"/><path d="M4 7l3 2.5L12 4l1 1-6 7-4-4 1-1z" fill="#fff"/></symbol><symbol fill="none" viewBox="0 0 24 24" id="timer" xmlns="http://www.w3.org/2000/svg"><path fill-rule="evenodd" clip-rule="evenodd" d="M11.5 19a6.5 6.5 0 100-13 6.5 6.5 0 000 13zm0 1a7.5 7.5 0 100-15 7.5 7.5 0 000 15z" fill="currentcolor"/><rect x="10" y="3" width="4" height="1" rx=".5" fill="currentcolor"/><path d="M11 8h1v5l-1-.137V8z" fill="currentcolor"/><path fill="currentcolor" d="M15.297 14.192l-.5.866L11 12.866l.5-.866z"/></symbol><symbol fill="none" viewBox="0 0 24 24" id="view-24" xmlns="http://www.w3.org/2000/svg"><path d="M11.915 10.109h.102c.591 0 1.103.203 1.535.61.432.406.648.888.648 1.444v.128l-2.285-2.182zm-3.139.545c-.273.514-.41 1.017-.41 1.509 0 .941.353 1.755 1.058 2.44.728.663 1.592.995 2.593.995.523 0 1.058-.129 1.604-.386l-1.126-1.059a2.123 2.123 0 01-.478.064 2.165 2.165 0 01-1.535-.61c-.432-.406-.648-.888-.648-1.444 0-.128.022-.278.068-.45l-1.126-1.059zM4.751 6.867L5.67 6l12.896 12.133-.92.867c-.115-.107-.479-.439-1.093-.995L15.19 16.72c-.978.385-2.036.578-3.173.578-1.797 0-3.423-.471-4.878-1.413-1.456-.941-2.502-2.182-3.139-3.723.569-1.327 1.478-2.46 2.73-3.403-.274-.256-.66-.62-1.16-1.09-.478-.472-.751-.74-.82-.803zm7.266 1.861c-.455 0-.898.086-1.33.257L9.117 7.51c.887-.321 1.854-.482 2.9-.482 1.797 0 3.412.47 4.844 1.413 1.456.941 2.502 2.182 3.139 3.723-.546 1.262-1.376 2.343-2.49 3.242l-2.116-1.99c.182-.407.273-.824.273-1.252 0-.942-.364-1.744-1.091-2.407-.705-.685-1.558-1.028-2.559-1.028z" fill="currentcolor"/></symbol><symbol fill="none" viewBox="0 0 30 7" id="wave" xmlns="http://www.w3.org/2000/svg"><g clip-path="url(#blclip0)"><path d="M27.94 6.716a7.755 7.755 0 01-5.432-1.98c-.778-.622-1.155-.898-1.92-.898-.827 0-1.181.312-1.902 1.018-.802.785-1.901 1.86-3.98 1.86-2.08 0-3.18-1.075-3.982-1.86-.72-.706-1.075-1.018-1.9-1.018-.766 0-1.143.276-1.922.898a7.755 7.755 0 01-5.431 1.98c-.39 0-.765-.151-1.04-.421C.155 6.025 0 4.699 0 4.317 0 3.936.155 3.57.43 3.3c.276-.27.65-.422 1.04-.422 1.905 0 2.677-.617 3.572-1.332C5.904.857 6.977 0 8.823 0c2.08 0 3.179 1.075 3.98 1.86.722.706 1.076 1.018 1.902 1.018.827 0 1.18-.312 1.902-1.017.802-.786 1.9-1.861 3.98-1.861 1.846 0 2.919.857 3.781 1.546.895.715 1.667 1.332 3.572 1.332.39 0 .764.152 1.04.422.275.27.43.636.43 1.017 0 .382-.155 1.708-.43 1.978-.276.27-.65.421-1.04.421z" fill="currentcolor"/></g><defs><clipPath id="blclip0"><path fill="#fff" d="M0 0h29.41v6.72H0z"/></clipPath></defs></symbol><symbol fill="none" viewBox="0 0 32 24" id="waves" xmlns="http://www.w3.org/2000/svg"><path d="M29.64 23.996a8.317 8.317 0 01-5.762-2.063c-.826-.648-1.226-.935-2.038-.935-.877 0-1.252.325-2.017 1.06-.85.818-2.017 1.938-4.223 1.938s-3.372-1.12-4.223-1.938c-.765-.735-1.14-1.06-2.017-1.06-.812 0-1.212.287-2.037.935a8.317 8.317 0 01-5.763 2.063c-.414 0-.81-.158-1.103-.439A1.47 1.47 0 010 22.497c0-.398.165-.779.457-1.06.293-.281.69-.439 1.103-.439 2.02 0 2.84-.643 3.789-1.388C6.264 18.893 7.402 18 9.36 18c2.206 0 3.372 1.12 4.223 1.938.765.735 1.14 1.06 2.017 1.06s1.252-.325 2.017-1.06C18.468 19.12 19.634 18 21.84 18c1.959 0 3.097.893 4.011 1.61.95.745 1.769 1.388 3.79 1.388.413 0 .81.158 1.102.44.293.28.457.662.457 1.06 0 .397-.164.778-.457 1.059-.292.281-.69.44-1.103.44zm0-9a8.317 8.317 0 01-5.762-2.063c-.826-.648-1.226-.935-2.038-.935-.877 0-1.252.325-2.017 1.06-.85.818-2.017 1.938-4.223 1.938s-3.372-1.12-4.223-1.938c-.765-.735-1.14-1.06-2.017-1.06-.812 0-1.212.287-2.037.936a8.317 8.317 0 01-5.763 2.062c-.414 0-.81-.158-1.103-.439A1.47 1.47 0 010 13.497c0-.397.165-.779.457-1.06.293-.281.69-.439 1.103-.439 2.02 0 2.84-.643 3.789-1.388C6.264 9.893 7.402 9 9.36 9c2.206 0 3.372 1.12 4.223 1.938.765.735 1.14 1.06 2.017 1.06s1.252-.325 2.017-1.06C18.468 10.12 19.634 9 21.84 9c1.959 0 3.097.893 4.011 1.61.95.745 1.769 1.388 3.79 1.388.413 0 .81.158 1.102.44.293.28.457.662.457 1.06 0 .397-.164.778-.457 1.059-.292.281-.69.44-1.103.44zm0-9a8.317 8.317 0 01-5.762-2.063c-.826-.648-1.226-.935-2.038-.935-.877 0-1.252.325-2.017 1.06-.85.818-2.017 1.938-4.223 1.938s-3.372-1.12-4.223-1.938c-.765-.735-1.14-1.06-2.017-1.06-.812 0-1.212.287-2.037.935A8.317 8.317 0 011.56 5.996c-.414 0-.81-.158-1.103-.439A1.47 1.47 0 010 4.497c0-.397.165-.779.457-1.06.293-.281.69-.439 1.103-.439 2.02 0 2.84-.643 3.789-1.388C6.264.893 7.402 0 9.36 0c2.206 0 3.372 1.12 4.223 1.938.765.735 1.14 1.06 2.017 1.06s1.252-.325 2.017-1.06C18.468 1.12 19.634 0 21.84 0c1.959 0 3.097.893 4.011 1.61.95.745 1.769 1.388 3.79 1.388.413 0 .81.158 1.102.44.293.28.457.662.457 1.06 0 .397-.164.778-.457 1.059-.292.281-.69.44-1.103.44z" fill="currentcolor"/></symbol><symbol fill="none" viewBox="0 0 24 24" id="wholesaler-24" xmlns="http://www.w3.org/2000/svg"><path d="M21 14a1 1 0 00-1-1h-6v-2a1 1 0 00-1-1h-1V4a1 1 0 00-1-1H6a1 1 0 00-1 1v6H4a1 1 0 00-1 1v9a1 1 0 001 1h16a1 1 0 001-1v-6zM9 5H8V4h1v1zM6 4h1v2h3V4h1v6H6V4zm3 8H8v-1h1v1zm-5-1h3v2h3v-2h3v9H4v-9zm16 9h-6v-6h2v2h2v-2h2v6z" fill="currentcolor"/></symbol></svg>