<svg width="86" height="31" viewBox="0 0 86 31" fill="none" xmlns="http://www.w3.org/2000/svg">
<path fill-rule="evenodd" clip-rule="evenodd" d="M45.8156 0.04894C38.0652 0.413935 31.5059 1.97188 25.4614 4.88348C21.3817 6.8486 18.3091 8.97833 15.361 11.8847L14.0522 13.1749L13.866 12.9135C12.4804 10.9699 10.2917 9.41584 7.72055 8.55025C6.17785 8.03087 5.50577 7.92409 3.83233 7.9329C2.22017 7.94136 1.48839 8.07447 0.476661 8.5433L0.00662408 8.76104L0.187746 9.22605C1.08016 11.5175 3.58061 13.8025 6.34807 14.8556C6.61958 14.9589 6.8458 15.0835 6.85099 15.1324C6.85609 15.1814 6.67356 15.2857 6.44531 15.3641C5.07345 15.8361 3.32844 16.9099 2.25262 17.9441C1.3915 18.7719 0.807427 19.5568 0.30776 20.5575C-0.149088 21.4728 -0.159638 21.4407 0.70447 21.7679C3.3819 22.7818 6.55074 22.4605 9.7128 20.8545C11.4084 19.9934 12.8604 18.8025 13.706 17.5794C13.9259 17.2613 14.137 16.9645 14.1751 16.9199C14.2134 16.8751 14.7278 17.3291 15.3248 17.9344C19.862 22.5351 25.5564 25.9639 32.5925 28.3314C38.0495 30.1677 44.6674 31.1147 51.1645 30.9889C59.9036 30.8197 67.0274 29.1436 73.9757 25.6218C78.4122 23.373 82.3416 20.4378 85.0992 17.3124C86.2506 16.0076 86.2164 16.2093 85.4581 15.1976C85.1013 14.7214 84.1764 13.6758 83.4027 12.874C80.389 9.75094 77.2328 7.45606 73.1157 5.3944C67.8649 2.76505 62.4827 1.19046 56.2345 0.455844C52.991 0.074477 48.7715 -0.0903133 45.8156 0.04894Z" fill="white" fill-opacity="0.04"/>
</svg>
