<svg width="24" height="24" viewBox="0 0 24 24" fill="none" xmlns="http://www.w3.org/2000/svg">
<path d="M11 5H7C5.89539 5 5 5.89543 5 7V19C5 20.1046 5.89539 21 7 21H15C16.1046 21 17 20.1046 17 19V11H16V19C16 19.5523 15.5522 20 15 20H7C6.44775 20 6 19.5523 6 19V7C6 6.44772 6.44775 6 7 6H11V5Z" fill="white"/>
<path d="M11 17C10.4478 17 10 17.4477 10 18C10 18.5523 10.4478 19 11 19C11.5522 19 12 18.5523 12 18C12 17.4477 11.5522 17 11 17Z" fill="white"/>
<path d="M13 9V4H14V7.5L18.5 3L19 3.5L14.5 8H18V9H13Z" fill="white"/>
</svg>
