<svg width="48" height="35" viewBox="0 0 48 35" fill="none" xmlns="http://www.w3.org/2000/svg">
<path d="M10.7996 21.7134C16.764 21.7134 21.5991 16.8527 21.5991 10.8567C21.5991 4.86071 16.764 0 10.7996 0C4.83513 0 0 4.86071 0 10.8567C0 16.8527 4.83513 21.7134 10.7996 21.7134Z" fill="#BDD5F2"/>
<path fill-rule="evenodd" clip-rule="evenodd" d="M18.1902 7.00261C19.6255 6.63322 21.0868 7.50342 21.4543 8.94625L18.8556 9.61509C21.4543 8.94625 21.455 8.94896 21.455 8.94896L21.4558 8.95211L21.4577 8.95973L21.4628 8.98021C21.4667 8.99617 21.4717 9.01674 21.4777 9.04179C21.4896 9.09188 21.5054 9.15993 21.5241 9.24487C21.5615 9.41466 21.6109 9.6525 21.665 9.94986C21.773 10.5436 21.9009 11.3803 21.9899 12.391C22.1665 14.3976 22.1966 17.1672 21.5635 20.1117C20.9279 23.0681 19.607 26.2701 17.0344 29.0135C14.4457 31.7742 10.7431 33.9054 5.62834 34.9459C4.17625 35.2413 2.76089 34.2974 2.46705 32.8376C2.17322 31.3778 3.11218 29.955 4.56427 29.6596C8.73696 28.8107 11.398 27.1614 13.1305 25.3139C14.8792 23.4491 15.8372 21.2154 16.3195 18.9722C16.8044 16.7172 16.7915 14.5233 16.6457 12.8664C16.5734 12.0453 16.4702 11.3752 16.3874 10.9201C16.3461 10.693 16.3101 10.5209 16.2861 10.4119C16.2741 10.3574 16.2651 10.3188 16.2599 10.2971L16.2552 10.2774L16.2563 10.2817C15.8903 8.83956 16.7557 7.37181 18.1902 7.00261Z" fill="#BDD5F2"/>
<path d="M36.7 21.7134C42.6644 21.7134 47.4995 16.8527 47.4995 10.8567C47.4995 4.86071 42.6644 0 36.7 0C30.7355 0 25.9004 4.86071 25.9004 10.8567C25.9004 16.8527 30.7355 21.7134 36.7 21.7134Z" fill="#BDD5F2"/>
<path fill-rule="evenodd" clip-rule="evenodd" d="M44.0906 7.00261C45.5259 6.63322 46.9873 7.50342 47.3547 8.94625L44.756 9.61509C47.3547 8.94625 47.3554 8.94896 47.3554 8.94896L47.3562 8.95211L47.3581 8.95973L47.3632 8.98021C47.3671 8.99617 47.3721 9.01674 47.3781 9.04179C47.39 9.09188 47.4058 9.15993 47.4245 9.24487C47.4619 9.41466 47.5113 9.6525 47.5654 9.94986C47.6734 10.5436 47.8013 11.3803 47.8903 12.391C48.0669 14.3976 48.097 17.1672 47.4639 20.1117C46.8283 23.0681 45.5074 26.2701 42.9348 29.0135C40.3461 31.7742 36.6435 33.9054 31.5288 34.9459C30.0767 35.2413 28.6613 34.2974 28.3675 32.8376C28.0736 31.3778 29.0126 29.955 30.4647 29.6596C34.6374 28.8107 37.2984 27.1614 39.0309 25.3139C40.7796 23.4491 41.7376 21.2154 42.2199 18.9722C42.7048 16.7172 42.6919 14.5233 42.5461 12.8664C42.4738 12.0453 42.3706 11.3752 42.2878 10.9201C42.2465 10.693 42.2106 10.5209 42.1865 10.4119C42.1745 10.3574 42.1655 10.3188 42.1603 10.2971L42.1556 10.2774L42.1567 10.2817C41.7907 8.83956 42.6562 7.37181 44.0906 7.00261Z" fill="#BDD5F2"/>
</svg>
