<svg width="48" height="48" viewBox="0 0 48 48" fill="none" xmlns="http://www.w3.org/2000/svg">
<rect width="48" height="48" rx="24" fill="url(#paint0_linear)"/>
<path fill-rule="evenodd" clip-rule="evenodd" d="M19.4657 13.0665C20.639 13.0131 21.0139 13 24.0014 13H23.998C26.9863 13 27.3599 13.0131 28.5332 13.0665C29.7043 13.1201 30.5041 13.3055 31.2053 13.5775C31.9295 13.8582 32.5414 14.2341 33.1533 14.8459C33.7651 15.4574 34.141 16.0711 34.4229 16.7945C34.6933 17.494 34.8789 18.2933 34.9339 19.4643C34.9866 20.6377 35.0004 21.0126 35.0004 24C35.0004 26.9874 34.9866 27.3614 34.9339 28.5348C34.8789 29.7053 34.6933 30.5049 34.4229 31.2045C34.141 31.9278 33.7651 32.5415 33.1533 33.1529C32.5421 33.7648 31.9293 34.1415 31.206 34.4225C30.5061 34.6945 29.7059 34.8799 28.5348 34.9335C27.3615 34.9869 26.9877 35 24 35C21.0128 35 20.6381 34.9869 19.4648 34.9335C18.2939 34.8799 17.4944 34.6945 16.7945 34.4225C16.0715 34.1415 15.4577 33.7648 14.8466 33.1529C14.2349 32.5415 13.8591 31.9278 13.5779 31.2043C13.3061 30.5049 13.1207 29.7056 13.0668 28.5345C13.0137 27.3612 13.0004 26.9874 13.0004 24C13.0004 21.0126 13.0141 20.6374 13.0666 19.4641C13.1193 18.2935 13.3049 17.494 13.5776 16.7943C13.8595 16.0711 14.2354 15.4574 14.8472 14.8459C15.4587 14.2343 16.0724 13.8585 16.7959 13.5775C17.4953 13.3055 18.2946 13.1201 19.4657 13.0665ZM23.6347 14.9822C23.4122 14.9821 23.2061 14.982 23.0145 14.9823V14.9795C20.9643 14.9818 20.5711 14.9956 19.5563 15.0414C18.4838 15.0907 17.9015 15.2694 17.5137 15.4207C17.0004 15.6205 16.6337 15.8588 16.2487 16.2438C15.8637 16.6288 15.6249 16.9955 15.4255 17.5088C15.275 17.8966 15.0958 18.4787 15.0467 19.5512C14.994 20.7108 14.9835 21.0573 14.9835 23.9947C14.9835 26.9322 14.994 27.2805 15.0467 28.4401C15.0955 29.5126 15.275 30.0947 15.4255 30.482C15.6254 30.9955 15.8637 31.3613 16.2487 31.7463C16.6337 32.1313 17.0004 32.3696 17.5137 32.569C17.9017 32.7196 18.4838 32.8988 19.5563 32.9483C20.7159 33.001 21.064 33.0124 24.0013 33.0124C26.9383 33.0124 27.2866 33.001 28.4462 32.9483C29.5188 32.8992 30.1013 32.7205 30.4886 32.5692C31.0022 32.3699 31.3677 32.1315 31.7527 31.7465C32.1377 31.3617 32.3765 30.9962 32.5759 30.4829C32.7264 30.0956 32.9056 29.5135 32.9547 28.441C33.0074 27.2814 33.0189 26.9331 33.0189 23.9975C33.0189 21.0618 33.0074 20.7135 32.9547 19.5539C32.9059 18.4814 32.7264 17.8993 32.5759 17.5121C32.376 16.9987 32.1377 16.6321 31.7527 16.2471C31.3679 15.8621 31.0019 15.6237 30.4886 15.4243C30.1008 15.2738 29.5188 15.0946 28.4462 15.0455C27.2864 14.9928 26.9383 14.9823 24.0013 14.9823C23.8743 14.9823 23.7522 14.9822 23.6347 14.9822Z" fill="white"/>
<path fill-rule="evenodd" clip-rule="evenodd" d="M29.8732 16.8087C29.1445 16.8087 28.5532 17.3993 28.5532 18.1283C28.5532 18.857 29.1445 19.4483 29.8732 19.4483C30.602 19.4483 31.1932 18.857 31.1932 18.1283C31.1932 17.3995 30.602 16.8087 29.8732 16.8087Z" fill="white"/>
<path fill-rule="evenodd" clip-rule="evenodd" d="M18.3524 24C18.3524 20.8803 20.8817 18.351 24.0014 18.351C27.1211 18.351 29.6495 20.8803 29.6495 24C29.6495 27.1196 27.1211 29.6478 24.0014 29.6478C20.8817 29.6478 18.3524 27.1196 18.3524 24ZM27.6682 24C27.6682 21.9749 26.0264 20.3333 24.0015 20.3333C21.9763 20.3333 20.3348 21.9749 20.3348 24C20.3348 26.0249 21.9763 27.6667 24.0015 27.6667C26.0264 27.6667 27.6682 26.0249 27.6682 24Z" fill="white"/>
<defs>
<linearGradient id="paint0_linear" x1="48" y1="0" x2="0" y2="48" gradientUnits="userSpaceOnUse">
<stop stop-color="#4264C8"/>
<stop offset="0.5" stop-color="#D73F8C"/>
<stop offset="0.875" stop-color="#FBCE50"/>
</linearGradient>
</defs>
</svg>
