<svg width="80" height="64" viewBox="0 0 80 64" fill="none" xmlns="http://www.w3.org/2000/svg">
<path d="M76 63.9896C70.5439 64.1619 65.2382 62.1868 61.2246 58.4893C59.1074 56.7599 58.082 55.9948 56 55.9948C53.752 55.9948 52.7891 56.8614 50.8281 58.8211C48.6465 61.0032 45.6563 63.9896 40 63.9896C34.3437 63.9896 31.3535 61.0032 29.1719 58.8211C27.2109 56.8614 26.248 55.9948 24 55.9948C21.918 55.9948 20.8926 56.7599 18.7754 58.4893C14.7618 62.1868 9.45608 64.1619 4 63.9896C2.93913 63.9896 1.92172 63.5684 1.17157 62.8188C0.421429 62.0691 8.59663e-09 61.0524 0 59.9922C-8.59663e-09 58.932 0.42143 57.9153 1.17158 57.1656C1.92172 56.416 2.93913 55.9948 4 55.9948C9.18 55.9948 11.2813 54.2811 13.7148 52.2941C16.0605 50.3812 18.9785 48 24 48C29.6563 48 32.6465 50.9864 34.8281 53.1685C36.7891 55.1282 37.752 55.9948 40 55.9948C42.248 55.9948 43.2109 55.1282 45.1719 53.1685C47.3535 50.9864 50.3438 48 56 48C61.0215 48 63.9395 50.3812 66.2852 52.2941C68.7188 54.2811 70.82 55.9948 76 55.9948C77.0609 55.9948 78.0783 56.416 78.8284 57.1656C79.5786 57.9153 80 58.932 80 59.9922C80 61.0524 79.5786 62.0691 78.8284 62.8188C78.0783 63.5684 77.0609 63.9896 76 63.9896Z" fill="url(#paint0_radial)"/>
<path d="M76 39.9896C70.5439 40.1619 65.2382 38.1868 61.2246 34.4893C59.1074 32.7599 58.082 31.9948 56 31.9948C53.752 31.9948 52.7891 32.8614 50.8281 34.8211C48.6465 37.0032 45.6563 39.9896 40 39.9896C34.3437 39.9896 31.3535 37.0032 29.1719 34.8211C27.2109 32.8614 26.248 31.9948 24 31.9948C21.918 31.9948 20.8926 32.7599 18.7754 34.4893C14.7618 38.1868 9.45608 40.1619 4 39.9896C2.93913 39.9896 1.92172 39.5684 1.17157 38.8188C0.421429 38.0691 8.59663e-09 37.0524 0 35.9922C-8.59663e-09 34.932 0.42143 33.9153 1.17158 33.1656C1.92172 32.416 2.93913 31.9948 4 31.9948C9.18 31.9948 11.2813 30.2811 13.7148 28.2941C16.0605 26.3812 18.9785 24 24 24C29.6563 24 32.6465 26.9864 34.8281 29.1685C36.7891 31.1282 37.752 31.9948 40 31.9948C42.248 31.9948 43.2109 31.1282 45.1719 29.1685C47.3535 26.9864 50.3438 24 56 24C61.0215 24 63.9395 26.3812 66.2852 28.2941C68.7188 30.2811 70.82 31.9948 76 31.9948C77.0609 31.9948 78.0783 32.416 78.8284 33.1656C79.5786 33.9153 80 34.932 80 35.9922C80 37.0524 79.5786 38.0691 78.8284 38.8188C78.0783 39.5684 77.0609 39.9896 76 39.9896Z" fill="url(#paint1_radial)"/>
<path d="M76 15.9896C70.5439 16.1619 65.2382 14.1868 61.2246 10.4893C59.1074 8.75991 58.082 7.9948 56 7.9948C53.752 7.9948 52.7891 8.86144 50.8281 10.8211C48.6465 13.0032 45.6563 15.9896 40 15.9896C34.3437 15.9896 31.3535 13.0032 29.1719 10.8211C27.2109 8.86144 26.248 7.9948 24 7.9948C21.918 7.9948 20.8926 8.7599 18.7754 10.4893C14.7618 14.1868 9.45608 16.1619 4 15.9896C2.93913 15.9896 1.92172 15.5684 1.17157 14.8188C0.421429 14.0691 8.59663e-09 13.0524 0 11.9922C-8.59663e-09 10.932 0.42143 9.91527 1.17158 9.16561C1.92172 8.41595 2.93913 7.9948 4 7.9948C9.18 7.9948 11.2813 6.28111 13.7148 4.2941C16.0605 2.38125 18.9785 -3.5571e-08 24 0C29.6563 4.00678e-08 32.6465 2.98636 34.8281 5.16854C36.7891 7.12816 37.752 7.9948 40 7.9948C42.248 7.9948 43.2109 7.12816 45.1719 5.16854C47.3535 2.98636 50.3438 1.86614e-07 56 2.26681e-07C61.0215 2.62252e-07 63.9395 2.38125 66.2852 4.29411C68.7188 6.28111 70.82 7.9948 76 7.9948C77.0609 7.9948 78.0783 8.41595 78.8284 9.16561C79.5786 9.91527 80 10.932 80 11.9922C80 13.0524 79.5786 14.0691 78.8284 14.8188C78.0783 15.5684 77.0609 15.9896 76 15.9896Z" fill="url(#paint2_radial)"/>
<defs>
<radialGradient id="paint0_radial" cx="0" cy="0" r="1" gradientUnits="userSpaceOnUse" gradientTransform="translate(57.0345 36.3921) rotate(180) scale(57.0345 129.725)">
<stop stop-color="#FCAA17"/>
<stop offset="1" stop-color="#F15526"/>
</radialGradient>
<radialGradient id="paint1_radial" cx="0" cy="0" r="1" gradientUnits="userSpaceOnUse" gradientTransform="translate(57.0345 36.3921) rotate(180) scale(57.0345 129.725)">
<stop stop-color="#FCAA17"/>
<stop offset="1" stop-color="#F15526"/>
</radialGradient>
<radialGradient id="paint2_radial" cx="0" cy="0" r="1" gradientUnits="userSpaceOnUse" gradientTransform="translate(57.0345 36.3921) rotate(180) scale(57.0345 129.725)">
<stop stop-color="#FCAA17"/>
<stop offset="1" stop-color="#F15526"/>
</radialGradient>
</defs>
</svg>
