<?xml version="1.0" encoding="utf-8"?><svg xmlns="http://www.w3.org/2000/svg" xmlns:xlink="http://www.w3.org/1999/xlink"><symbol fill="none" viewBox="0 0 15 16" id="arrow-right-16" xmlns="http://www.w3.org/2000/svg"><path d="M11.608 10.052C11.2 9.58 10.775 8.896 10.332 8h.772c.908 1.042 1.873 1.813 2.896 2.313v.374c-1.023.5-1.988 1.271-2.896 2.313h-.772c.443-.896.868-1.58 1.276-2.052H1v-.896h10.608z" fill="currentcolor"/></symbol><symbol fill="none" viewBox="0 0 32 32" id="burger-32" xmlns="http://www.w3.org/2000/svg"><rect x="5" y="22" width="22" height="2" rx="1" fill="currentcolor"/><rect x="5" y="15" width="22" height="2" rx="1" fill="currentcolor"/><rect x="5" y="8" width="22" height="2" rx="1" fill="currentcolor"/></symbol><symbol fill="none" viewBox="0 0 32 32" id="car-32" xmlns="http://www.w3.org/2000/svg"><path d="M29 17c0-.5-.5-1-1-1l-3-1-4-4h-5V9c0-.696-.306-1-1-1H5c-.5 0-1 .5-1 1v2H3v1h9v-1H5V9h10v2h-1v1h1v8h1v-8h4.5l4 4 3.5 1v4h-2c0-1-1-2-2.5-2S21 20 21 21.5s1 2.5 2.5 2.5 2.5-1 2.5-2h2c.5 0 1-.5 1-1v-4zm-5.5 6c-1 0-1.5-.5-1.5-1.5s.5-1.5 1.5-1.5 1.5.5 1.5 1.5-.5 1.5-1.5 1.5z" fill="currentcolor"/><path d="M20 21h-9c0-1-1-2-2.5-2S6 20 6 21H5v-2H4v2c0 .5.5 1 1 1h1c0 1 1 2 2.5 2s2.5-1 2.5-2h9v-1zM8.5 23c-.95 0-1.5-.555-1.5-1.5S7.55 20 8.5 20s1.5.555 1.5 1.5S9.45 23 8.5 23zm5.5-8v-1H6v1h8z" fill="currentcolor"/><path d="M10 18v-1H5v-4H4v4H3v1h7zm12-2v-1l-2-2h-3v3h5zm-4-2h2l1 1h-3v-1z" fill="currentcolor"/></symbol><symbol fill="none" viewBox="0 0 24 24" id="cart-24" xmlns="http://www.w3.org/2000/svg"><rect x="5" y="18" width="3" height="3" rx="1.5" fill="currentcolor"/><rect x="12" y="18" width="3" height="3" rx="1.5" fill="currentcolor"/><path fill-rule="evenodd" clip-rule="evenodd" d="M15 16H5c-.5 0-.887-.578-1-1L2 8V7a1 1 0 011-1h14a1 1 0 011 1v1l-2 7c-.107.398-.5 1-1 1zm1-8H4l1.5 6h9L16 8z" fill="currentcolor"/><path d="M17.724 3.553A1 1 0 0118.618 3H21a1 1 0 110 2h-2.382a1 1 0 01-.894-1.447z" fill="currentcolor"/><path d="M16.643 11.027c-.723.154-1.365-.423-1.143-1.027L17 4c.133-.36 1.056-1 1.5-1 .694 0 .655.971.435 1.53l-1.618 5.968c-.103.263-.358.462-.674.53z" fill="currentcolor"/></symbol><symbol fill="none" viewBox="0 0 80 80" id="footer-cat-1-80" xmlns="http://www.w3.org/2000/svg"><path d="M65.615 32.01c-1.02-7.56-6.24-14.39-14.32-18.73-.38-.2-.76-.39-1.15-.57-2.49-1.13-10.98-1.63-13.12-1.7h-.11c-.09 0-.18-.01-.27-.01-.05 0-.11.01-.16.01-.18-.01-.34-.01-.47-.01l-1.36.02.03.1c-.06.01-.13.02-.19.02-.6.08-1.2.2-1.8.35h-.01c-.6.15-1.2.33-1.79.55-4.96 1.81-9.1 4.83-12.04 8.57h-.01l-.17.23c-.12.16-.22.32-.34.48-.18.25-.37.5-.54.75-.19.28-.36.56-.53.85-.12.2-.24.39-.36.59-.19.34-.37.68-.54 1.02-.08.16-.17.32-.25.48-.18.37-.33.75-.49 1.12-.06.15-.13.29-.19.44-.15.39-.28.78-.4 1.17-.05.15-.1.29-.15.44-.12.39-.21.79-.31 1.18l-.12.47c-.09.4-.15.81-.21 1.22-.02.15-.06.3-.08.46-.07.55-.12 1.1-.15 1.66v.04c-.02.52-.02 1.04 0 1.56l.03 1.3.06-.03c.29 2.91 1.23 5.84 2.77 8.61.97 1.74 1.83 3.38 2.58 4.91l.33.68c1.4 2.91 2.35 5.34 2.82 7.21l.1.41c.19.84.28 1.56.23 2.11-.07.97-.01 1.78.2 2.49.13.46.29.9.47 1.33.01.02.02.05.03.07.17.4.37.78.58 1.14.02.04.04.07.06.11.21.35.43.67.67.98l.09.12a8.36 8.36 0 001.72 1.58c.05.03.09.06.14.09.29.19.6.35.91.5.05.02.1.04.15.07a6.64 6.64 0 001.14.37c.34.08.69.13 1.05.16.02 0 .04.01.06.01h.15c.1 0 .19.01.29.01.04 0 .07-.01.11-.01l4.34.01c1.61 0 2.92-1.31 2.92-2.92v-7.93c0-.86.19-1.64.55-2.25 1.05-1.8.87-3.37.66-5.18-.13-1.12-.28-2.39-.17-3.98.05-.71.7-.75.83-.75.23 0 .6.09.7.56.03.23.06.46.06.7l-1.03 7-.95 6.51-.32 2.17c-.05.31-.07.62-.07.93v.16c.01.3.04.61.09.9 0 .02.01.05.01.07.18.93.57 1.81 1.16 2.51.82.97 1.93 1.51 3.11 1.51.35 0 .69-.03 1.02-.08l5.33.07h.02c3.38 0 5.91-2.32 7.13-6.53.17-.58.23-1.22.2-1.96-.11-2.41 2.28-8.07 6.55-15.52 2.34-4.08 3.31-8.69 2.72-12.98zm-12.22 15.17c-3.78 2.49-7.63 4.19-11.46 5.08l.54-3.68c3.95-.52 7.91-1.55 11.84-3.07-.32.55-.62 1.1-.92 1.67zm-10.01 19.75l-1.23-.02c-.32-.09-.61-.26-.86-.49-.11-.1-.21-.22-.31-.34-.07-.09-.13-.19-.19-.28-.05-.08-.1-.16-.15-.25 2.31-.4 4.63-1.08 6.94-2.03-.95 1.94-2.43 3.15-4.2 3.41zm4.96-6.32c.01.14 0 .26-.01.39-2.67 1.25-5.37 2.1-8.04 2.56.01-.11 0-.22.02-.33l.41-2.8c2.67-.47 5.34-1.3 7.98-2.48-.26 1.01-.39 1.92-.36 2.66zm1.21-5.28c-2.81 1.44-5.66 2.45-8.51 3.02l.58-3.96c3.35-.69 6.71-1.96 10.02-3.8-.81 1.63-1.53 3.24-2.09 4.74zm-9.72-14.01a3.818 3.818 0 00-.55-.36c-.09-.05-.17-.1-.26-.15l-.33-.15c-.08-.03-.16-.07-.24-.1-.12-.05-.24-.08-.37-.12-.08-.02-.15-.05-.22-.07-.12-.03-.24-.05-.37-.07-.08-.01-.16-.03-.25-.04-.1-.01-.2-.01-.3-.02-.11-.01-.21-.02-.32-.02-.11 0-.21.01-.32.02-.1.01-.2.01-.3.02-.08.01-.16.03-.24.04-.12.02-.25.04-.37.07-.07.02-.15.05-.22.07-.12.04-.25.07-.37.12-.08.03-.15.07-.23.1l-.33.15c-.08.04-.17.09-.25.14-.1.06-.19.11-.28.17-.09.06-.18.13-.27.19-.08.06-.16.12-.23.18l-.27.24c-.07.06-.13.12-.19.18-.09.09-.18.19-.26.28-.06.06-.11.13-.17.2-.04.05-.09.1-.13.16-.36-.63-.55-1.33-.55-2.05 0-2.48 2.24-4.5 5-4.5s5 2.02 5 4.5c0 .72-.19 1.42-.55 2.05-.04-.05-.09-.1-.13-.16-.05-.07-.11-.13-.17-.19-.09-.1-.18-.2-.27-.29a3.32 3.32 0 00-.19-.18c-.09-.08-.18-.17-.28-.25-.07-.05-.14-.11-.22-.16zm-8.96 25.64l-.23.04c-1.79 0-3.33-.94-4.42-2.57 2.06.69 4.16 1.13 6.28 1.36-.09.14-.16.29-.27.41-.31.37-.69.61-1.09.72l-.27.04zm-11-20.98c3.53 1.34 7.21 2.24 10.97 2.68l.58 3.98c-4.23-.67-7.68-2.23-9.96-3.54-.52-1.05-1.06-2.1-1.59-3.12zm11.84 8.74l.58 3.96c-2.68-.33-5.32-1.07-7.88-2.19v-.01c-.38-1.36-.94-2.87-1.61-4.42 2.86 1.34 5.89 2.25 8.91 2.66zm.89 6l.37 2.52c.03.2.03.39.04.59-2.7-.27-5.37-.92-7.95-1.98-.12-.47-.17-1.03-.11-1.72.03-.39.01-.82-.04-1.28 2.49.97 5.07 1.6 7.69 1.87zm-14.46-35.3c.16-.31.32-.63.5-.93.1-.17.2-.33.3-.5.16-.26.32-.52.49-.77l.42-.6c.08-.12.17-.23.26-.35 5.14-2.02 10.37-3.07 15.53-3.22v3.04c-5.39.14-11.39 1.29-17.85 4.07.05-.11.1-.23.15-.34.06-.13.14-.26.2-.4zm19.5-1.32c8.39.17 15.06 2.81 19.3 5.09.02.07.05.15.07.22.03.09.06.18.08.27.09.32.16.64.24.96.03.11.06.22.08.33.09.43.17.87.22 1.3v.01c.04.31.06.63.09.95-4.12-2.19-11.15-5.04-20.08-5.21V24.1zm0-2v-3.05c5.34.1 10.6 1.19 15.58 3.28a22.92 22.92 0 012.59 4.06c-4.43-2.1-10.64-4.15-18.17-4.29zm-21.51 10.06c.02-.19.03-.37.06-.56.05-.38.12-.75.2-1.12l.06-.34c.1-.45.22-.89.34-1.33 6.85-3.24 13.2-4.55 18.85-4.7v3.94c-6.55.17-13.12 1.77-19.57 4.8.01-.24.03-.46.06-.69zm39.69 10.57c-4.37 1.92-8.81 3.2-13.22 3.82 0-.02-.01-.04-.01-.06v-.07c0-.03-.01-.06-.02-.08a8.2 8.2 0 00-.43-1.82c.96-1.14 1.49-2.54 1.49-4 0-3.27-2.61-5.97-6-6.43v-4.04c9.26.19 16.37 3.38 20.1 5.5-.14 2.41-.79 4.86-1.91 7.18zm-18.18-25.68v-3.99c1.85.14 3.8.63 5.68 1.48.35.16.69.33 1.03.51 2.17 1.17 4.11 2.52 5.8 4.03a43.943 43.943 0 00-12.51-2.03zm-6.07-3.12c1.05-.38 2.13-.65 3.19-.8h.01c.29-.04.57-.05.86-.07v4c-4.23.11-8.52.82-12.76 2.14 2.4-2.23 5.35-4.05 8.7-5.27zm-15.52 21.15c6.46-3.17 13.04-4.86 19.59-5.03v4.02c-3.39.45-6 3.16-6 6.43 0 1.46.53 2.86 1.49 4-.24.66-.4 1.38-.46 2.12a44.58 44.58 0 01-12.29-3.41c-1.38-2.63-2.18-5.4-2.33-8.13zm21.01 11.5c-.13 1.78.04 3.21.17 4.36.19 1.63.32 2.71-.4 3.94-.54.93-.82 2.05-.82 3.27v7.93c0 .51-.41.92-.92.92h-.98c.75-1.15 1.06-2.63.83-4.06l-.3-2.04-1.17-7.98-.59-4.02-.24-1.65c.01-.97.24-1.86.62-2.62.06-.12.12-.23.19-.34.07-.12.14-.22.22-.33.11-.16.23-.31.36-.46.09-.1.17-.19.27-.28.09-.08.18-.16.28-.23.11-.08.22-.16.33-.23.1-.06.19-.12.3-.17.17-.09.35-.16.54-.21.07-.02.13-.04.2-.05.23-.05.46-.09.7-.09.24 0 .47.04.7.09.07.02.13.03.2.05.19.05.37.13.55.21.1.05.19.1.28.16.12.07.23.15.35.24a4.107 4.107 0 01.56.53 3.392 3.392 0 01.38.5c-1.26.07-2.5.95-2.61 2.56zM61.155 44c-3.2 5.58-6.98 13-6.81 16.61.02.51-.02.94-.12 1.31-.67 2.31-2.12 5.08-5.21 5.08l-1.48-.02c1.16-1.11 2.07-2.65 2.61-4.51.17-.58.23-1.22.2-1.96-.05-.99.36-2.58 1.14-4.62.09-.23.18-.47.28-.71.14-.35.29-.71.45-1.08.13-.3.27-.61.41-.93.1-.22.19-.43.3-.65.25-.54.53-1.1.82-1.68l.18-.36c.33-.66.69-1.35 1.07-2.06.59-1.1 1.22-2.25 1.9-3.44 1.51-2.64 2.44-5.49 2.76-8.34l.07.04.03-1.31c.01-.12.01-.24.01-.36v-.15c.01-.47.01-.94-.01-1.4-.02-.51-.07-1-.13-1.48-.07-.48-.15-.97-.25-1.44-.03-.17-.08-.33-.12-.5-.07-.31-.14-.62-.23-.93-.05-.17-.11-.33-.16-.5-.1-.31-.19-.62-.3-.92-.04-.12-.1-.25-.14-.37-.14-.36-.28-.72-.44-1.07-.02-.06-.05-.11-.08-.17-2.2-4.86-6.22-9.14-11.63-12.27 1.38.21 2.49.45 3.05.7.35.19.69.36 1.03.54 7.51 4.03 12.35 10.31 13.29 17.23.52 3.86-.37 8.02-2.49 11.72z" fill="currentcolor" opacity=".32"/></symbol><symbol fill="none" viewBox="0 0 80 80" id="footer-cat-2-80" xmlns="http://www.w3.org/2000/svg"><g opacity=".32"><mask id="fa" maskUnits="userSpaceOnUse" x="3" y="7" width="70" height="66" fill="#000"><path fill="currentcolor" d="M3 7h70v66H3z"/><path d="M31.8 13.645c-.53 0-1.01-.294-1.299-.736-.289-.442-.289-.982 0-1.472.144-.246.481-.344.722-.197a.56.56 0 01.192.736c-.096.148-.096.246 0 .393.096.147.289.196.433.245.145 0 .24-.098.289-.196a.61.61 0 01.722-.245c.24.147.336.49.24.736-.289.442-.77.736-1.299.736z"/><path d="M62.351 49.129c-1.058 0-2.117-.49-2.742-1.423-1.395-1.914-3.945-3.534-7.169-5.546-5.87-3.681-13.856-8.687-20.832-19.484-1.829-2.896-3.513-5.203-4.812-7.019-2.309-3.19-3.175-4.368-2.646-5.153.385-.54 1.203-.49 2.358-.147h.048c.048-.05.096-.393.096-.589.048-.54.096-1.276.77-1.62.77-.392 2.357-.245 8.227 3.485 12.124 7.754 17.272 15.852 21.41 22.33 2.358 3.682 4.378 6.92 7.12 8.884.915.687 1.444 1.718 1.492 2.896 0 1.08-.53 2.11-1.395 2.748-.626.442-1.251.638-1.925.638zM25.112 11.191c.193.59 1.3 2.16 2.502 3.828 1.348 1.865 2.983 4.123 4.86 7.068 6.832 10.65 14.722 15.558 20.447 19.19 3.32 2.11 5.966 3.73 7.458 5.84.721 1.03 2.165 1.276 3.175.54a2.254 2.254 0 00.962-1.865c0-.786-.385-1.522-1.01-2.013-2.935-2.11-5.004-5.398-7.41-9.177-4.04-6.43-9.14-14.43-21.072-22.036-5.34-3.436-6.784-3.632-7.17-3.436-.095.049-.143.393-.192.736-.048.54-.096 1.57-1.202 1.57h-.097l-.048-.048c-.721-.197-1.058-.197-1.203-.197z"/><path d="M29.395 26.896a1.24 1.24 0 01-.915-.392c-1.154-1.325.097-5.497 1.059-7.46l.144-.295.289-.049c.192 0 4.86-.589 5.918-6.085a.545.545 0 01.625-.442c.289.049.481.343.433.638-1.058 5.448-5.34 6.674-6.543 6.92-1.059 2.307-1.636 5.399-1.107 5.987.097.099.289.05.433 0 1.155-.441 2.743-1.03 4.234-1.08.289 0 .53.197.577.492a.58.58 0 01-.48.588c-1.396.05-2.791.59-3.898 1.031-.337.098-.529.147-.77.147z"/><path d="M33.1 32.688c-.434 0-.723-.197-.915-.393-1.203-1.325.577-5.84 1.25-7.264.145-.245.434-.392.723-.245.24.147.384.442.24.736-1.203 2.454-1.924 5.546-1.443 6.086.048.049.24.049.48-.05.963-.392 3.61-1.128 5.245-1.226.289 0 .53.196.578.49a.58.58 0 01-.482.59c-1.395.098-3.897.736-4.907 1.129-.337.098-.577.147-.77.147zm17.56-6.478c-.192 0-.385-.148-.481-.344-.096-.295 0-.59.289-.687l.914-.393c.529-.245.914-.736.962-1.325.096-.589-.144-1.129-.577-1.521l-.385-.246.192-.442c.289-.54.337-.981.24-1.374-.192-.589-.817-.883-.817-.883l-.578-.246.337-.54c.578-.883-.144-1.815-.288-1.963-4.09-2.895-10.296-.54-10.393-.54a.533.533 0 01-.673-.294c-.096-.294.048-.589.288-.687.29-.098 6.88-2.601 11.403.687l.048.05c.481.49 1.155 1.668.722 2.846.337.245.722.638.914 1.227.192.589.144 1.227-.096 1.865.529.589.818 1.423.673 2.208-.144.982-.721 1.767-1.635 2.16l-.915.392c0 .05-.096.05-.144.05zm1.54 19.974c-.53 0-1.059-.196-1.492-.589-.529.197-1.01.246-1.491.05-.433-.148-.77-.491-.962-.737-.963.295-1.877-.245-2.262-.638l-.048-.049c-1.684-2.454-1.491-5.448-1.058-7.558a.481.481 0 01.625-.393c.289.05.481.344.385.638-.385 1.865-.577 4.565.866 6.675.144.147.77.638 1.395.245l.53-.343.24.589s.193.49.626.638c.288.098.625.049 1.01-.196l.385-.246.288.344c.29.343.674.54 1.107.49.433-.048.77-.343.962-.736l.53-1.767a.518.518 0 01.673-.343.533.533 0 01.337.687l-.53 1.816c-.336.736-1.01 1.276-1.78 1.374-.144.05-.24.05-.336.05zM63.65 56c-.673 0-1.443-.245-2.165-.736-1.924-1.276-3.752-4.22-3.127-8.736.048-.295.289-.49.626-.442.288.05.48.295.432.638-.577 3.976 1.01 6.577 2.647 7.656.818.54 1.732.737 2.213.393.385-.245.433-.834.337-1.227 0-.098-.049-.49.192-.736.289-.245.577-.147.818-.05.433.148 1.203.394 2.406-.834 1.154-1.177.914-1.963.818-2.453-.049-.246-.193-.59.048-.835.24-.294.577-.245.721-.196.433.049 1.01.049 1.251-.344.289-.49.145-1.374-.385-2.208-1.058-1.718-3.608-3.337-7.553-2.749a.545.545 0 01-.626-.441c-.048-.295.145-.59.433-.638 4.427-.638 7.313 1.227 8.564 3.239.77 1.227.914 2.503.385 3.386-.24.344-.722.884-1.78.884h-.048c.144.687.192 1.816-1.155 3.19-1.347 1.374-2.453 1.374-3.127 1.178 0 1.08-.53 1.57-.866 1.816-.193.147-.578.245-1.059.245zM44.2 66.355c.53 0 1.01.294 1.299.736.289.442.289.982 0 1.472-.144.246-.481.344-.722.197a.56.56 0 01-.192-.737c.096-.147.096-.245 0-.392-.096-.147-.289-.196-.433-.246-.145 0-.24.099-.289.197a.61.61 0 01-.721.245c-.241-.147-.337-.49-.241-.736.289-.442.77-.736 1.299-.736z"/><path d="M13.649 30.871c1.058 0 2.117.49 2.742 1.423 1.395 1.914 3.945 3.534 7.169 5.546 5.87 3.681 13.856 8.687 20.832 19.484 1.829 2.896 3.513 5.203 4.812 7.019 2.309 3.19 3.175 4.368 2.646 5.153-.385.54-1.203.49-2.358.147h-.048c-.048.05-.096.393-.096.589-.048.54-.096 1.276-.77 1.62-.77.392-2.357.245-8.227-3.485-12.124-7.754-17.272-15.852-21.41-22.33-2.357-3.682-4.378-6.92-7.12-8.884-.915-.687-1.444-1.718-1.492-2.896 0-1.08.53-2.11 1.395-2.748.626-.442 1.251-.638 1.925-.638zm37.239 37.938c-.193-.59-1.3-2.16-2.502-3.828-1.348-1.865-2.983-4.123-4.86-7.068-6.832-10.65-14.722-15.558-20.447-19.19-3.32-2.11-5.966-3.73-7.458-5.84-.721-1.03-2.165-1.276-3.175-.54a2.254 2.254 0 00-.962 1.865c0 .786.384 1.522 1.01 2.013 2.935 2.11 5.004 5.398 7.41 9.177 4.04 6.43 9.14 14.43 21.072 22.036 5.34 3.436 6.784 3.632 7.17 3.436.095-.049.143-.393.192-.736.048-.54.096-1.57 1.202-1.57h.097l.048.048c.721.197 1.058.197 1.203.197z"/><path d="M46.605 53.104c.482 0 .77.245.915.392 1.154 1.325-.097 5.497-1.059 7.46l-.144.295-.289.049c-.192 0-4.86.589-5.918 6.085a.545.545 0 01-.625.442c-.289-.049-.481-.343-.433-.638 1.058-5.448 5.34-6.674 6.543-6.92 1.059-2.307 1.636-5.399 1.107-5.987-.096-.099-.289-.05-.433 0-1.155.441-2.743 1.03-4.234 1.08a.575.575 0 01-.577-.492.58.58 0 01.48-.588c1.396-.05 2.791-.59 3.898-1.031.337-.098.529-.147.77-.147z"/><path d="M42.9 47.312c.434 0 .723.197.915.393 1.203 1.325-.577 5.84-1.25 7.264-.145.245-.434.392-.723.245-.24-.147-.384-.442-.24-.736 1.203-2.454 1.924-5.546 1.443-6.086-.048-.049-.24-.049-.48.05-.963.392-3.61 1.128-5.245 1.226a.575.575 0 01-.578-.49.58.58 0 01.482-.59c1.395-.098 3.897-.736 4.907-1.129.337-.098.577-.147.77-.147zM25.34 53.79c.192 0 .385.148.481.344.096.295 0 .59-.289.687l-.914.393c-.529.245-.914.736-.962 1.325-.096.589.144 1.129.577 1.521l.385.246-.192.442c-.289.54-.337.981-.24 1.374.192.589.817.883.817.883l.578.246-.337.54c-.578.883.144 1.815.288 1.963 4.09 2.895 10.296.54 10.393.54a.533.533 0 01.673.294c.096.294-.048.589-.288.687-.29.098-6.88 2.601-11.403-.687l-.048-.05c-.481-.49-1.155-1.668-.722-2.846a2.47 2.47 0 01-.914-1.227c-.192-.589-.144-1.227.096-1.865-.529-.589-.818-1.423-.673-2.208.144-.982.721-1.767 1.635-2.16l.915-.392c0-.05.096-.05.144-.05zM23.8 33.816c.53 0 1.059.196 1.492.589.529-.197 1.01-.246 1.491-.05.433.148.77.491.962.737.963-.295 1.877.245 2.262.638l.048.049c1.684 2.454 1.491 5.448 1.058 7.558a.481.481 0 01-.625.393.491.491 0 01-.385-.638c.385-1.865.577-4.565-.866-6.675-.144-.147-.77-.638-1.395-.245l-.53.343-.24-.589s-.192-.49-.625-.638c-.29-.098-.626-.049-1.01.196l-.386.246-.288-.344c-.29-.343-.674-.54-1.107-.49-.433.048-.77.343-.962.736l-.53 1.767a.518.518 0 01-.673.343.533.533 0 01-.337-.687l.53-1.816c.336-.736 1.01-1.276 1.78-1.374.144-.05.24-.05.336-.05zM12.35 24c.673 0 1.443.245 2.165.736 1.924 1.276 3.752 4.22 3.127 8.736-.048.295-.289.49-.625.442-.29-.05-.482-.295-.433-.638.577-3.976-1.01-6.577-2.647-7.656-.818-.54-1.732-.737-2.213-.393-.385.245-.433.834-.337 1.227 0 .098.048.49-.192.736-.289.245-.577.147-.818.05-.433-.148-1.203-.393-2.406.834-1.154 1.177-.914 1.963-.818 2.453.049.246.193.59-.048.835-.24.294-.577.245-.721.196-.433-.049-1.01-.049-1.251.344-.289.49-.145 1.374.385 2.208 1.058 1.718 3.608 3.337 7.553 2.749a.545.545 0 01.626.441c.048.295-.145.59-.433.638-4.427.638-7.313-1.227-8.564-3.239-.77-1.227-.914-2.503-.385-3.386.24-.344.722-.884 1.78-.884h.048c-.144-.687-.192-1.816 1.155-3.19 1.347-1.374 2.454-1.374 3.127-1.178 0-1.08.53-1.57.866-1.816.193-.147.577-.245 1.059-.245z"/></mask><path d="M31.8 13.645c-.53 0-1.01-.294-1.299-.736-.289-.442-.289-.982 0-1.472.144-.246.481-.344.722-.197a.56.56 0 01.192.736c-.096.148-.096.246 0 .393.096.147.289.196.433.245.145 0 .24-.098.289-.196a.61.61 0 01.722-.245c.24.147.336.49.24.736-.289.442-.77.736-1.299.736z" fill="currentcolor"/><path d="M62.351 49.129c-1.058 0-2.117-.49-2.742-1.423-1.395-1.914-3.945-3.534-7.169-5.546-5.87-3.681-13.856-8.687-20.832-19.484-1.829-2.896-3.513-5.203-4.812-7.019-2.309-3.19-3.175-4.368-2.646-5.153.385-.54 1.203-.49 2.358-.147h.048c.048-.05.096-.393.096-.589.048-.54.096-1.276.77-1.62.77-.392 2.357-.245 8.227 3.485 12.124 7.754 17.272 15.852 21.41 22.33 2.358 3.682 4.378 6.92 7.12 8.884.915.687 1.444 1.718 1.492 2.896 0 1.08-.53 2.11-1.395 2.748-.626.442-1.251.638-1.925.638zM25.112 11.191c.193.59 1.3 2.16 2.502 3.828 1.348 1.865 2.983 4.123 4.86 7.068 6.832 10.65 14.722 15.558 20.447 19.19 3.32 2.11 5.966 3.73 7.458 5.84.721 1.03 2.165 1.276 3.175.54a2.254 2.254 0 00.962-1.865c0-.786-.385-1.522-1.01-2.013-2.935-2.11-5.004-5.398-7.41-9.177-4.04-6.43-9.14-14.43-21.072-22.036-5.34-3.436-6.784-3.632-7.17-3.436-.095.049-.143.393-.192.736-.048.54-.096 1.57-1.202 1.57h-.097l-.048-.048c-.721-.197-1.058-.197-1.203-.197z" fill="currentcolor"/><path d="M29.395 26.896a1.24 1.24 0 01-.915-.392c-1.154-1.325.097-5.497 1.059-7.46l.144-.295.289-.049c.192 0 4.86-.589 5.918-6.085a.545.545 0 01.625-.442c.289.049.481.343.433.638-1.058 5.448-5.34 6.674-6.543 6.92-1.059 2.307-1.636 5.399-1.107 5.987.097.099.289.05.433 0 1.155-.441 2.743-1.03 4.234-1.08.289 0 .53.197.577.492a.58.58 0 01-.48.588c-1.396.05-2.791.59-3.898 1.031-.337.098-.529.147-.77.147z" fill="currentcolor"/><path d="M33.1 32.688c-.434 0-.723-.197-.915-.393-1.203-1.325.577-5.84 1.25-7.264.145-.245.434-.392.723-.245.24.147.384.442.24.736-1.203 2.454-1.924 5.546-1.443 6.086.048.049.24.049.48-.05.963-.392 3.61-1.128 5.245-1.226.289 0 .53.196.578.49a.58.58 0 01-.482.59c-1.395.098-3.897.736-4.907 1.129-.337.098-.577.147-.77.147zm17.56-6.478c-.192 0-.385-.148-.481-.344-.096-.295 0-.59.289-.687l.914-.393c.529-.245.914-.736.962-1.325.096-.589-.144-1.129-.577-1.521l-.385-.246.192-.442c.289-.54.337-.981.24-1.374-.192-.589-.817-.883-.817-.883l-.578-.246.337-.54c.578-.883-.144-1.815-.288-1.963-4.09-2.895-10.296-.54-10.393-.54a.533.533 0 01-.673-.294c-.096-.294.048-.589.288-.687.29-.098 6.88-2.601 11.403.687l.048.05c.481.49 1.155 1.668.722 2.846.337.245.722.638.914 1.227.192.589.144 1.227-.096 1.865.529.589.818 1.423.673 2.208-.144.982-.721 1.767-1.635 2.16l-.915.392c0 .05-.096.05-.144.05zm1.54 19.974c-.53 0-1.059-.196-1.492-.589-.529.197-1.01.246-1.491.05-.433-.148-.77-.491-.962-.737-.963.295-1.877-.245-2.262-.638l-.048-.049c-1.684-2.454-1.491-5.448-1.058-7.558a.481.481 0 01.625-.393c.289.05.481.344.385.638-.385 1.865-.577 4.565.866 6.675.144.147.77.638 1.395.245l.53-.343.24.589s.193.49.626.638c.288.098.625.049 1.01-.196l.385-.246.288.344c.29.343.674.54 1.107.49.433-.048.77-.343.962-.736l.53-1.767a.518.518 0 01.673-.343.533.533 0 01.337.687l-.53 1.816c-.336.736-1.01 1.276-1.78 1.374-.144.05-.24.05-.336.05zM63.65 56c-.673 0-1.443-.245-2.165-.736-1.924-1.276-3.752-4.22-3.127-8.736.048-.295.289-.49.626-.442.288.05.48.295.432.638-.577 3.976 1.01 6.577 2.647 7.656.818.54 1.732.737 2.213.393.385-.245.433-.834.337-1.227 0-.098-.049-.49.192-.736.289-.245.577-.147.818-.05.433.148 1.203.394 2.406-.834 1.154-1.177.914-1.963.818-2.453-.049-.246-.193-.59.048-.835.24-.294.577-.245.721-.196.433.049 1.01.049 1.251-.344.289-.49.145-1.374-.385-2.208-1.058-1.718-3.608-3.337-7.553-2.749a.545.545 0 01-.626-.441c-.048-.295.145-.59.433-.638 4.427-.638 7.313 1.227 8.564 3.239.77 1.227.914 2.503.385 3.386-.24.344-.722.884-1.78.884h-.048c.144.687.192 1.816-1.155 3.19-1.347 1.374-2.453 1.374-3.127 1.178 0 1.08-.53 1.57-.866 1.816-.193.147-.578.245-1.059.245zM44.2 66.355c.53 0 1.01.294 1.299.736.289.442.289.982 0 1.472-.144.246-.481.344-.722.197a.56.56 0 01-.192-.737c.096-.147.096-.245 0-.392-.096-.147-.289-.196-.433-.246-.145 0-.24.099-.289.197a.61.61 0 01-.721.245c-.241-.147-.337-.49-.241-.736.289-.442.77-.736 1.299-.736z" fill="currentcolor"/><path d="M13.649 30.871c1.058 0 2.117.49 2.742 1.423 1.395 1.914 3.945 3.534 7.169 5.546 5.87 3.681 13.856 8.687 20.832 19.484 1.829 2.896 3.513 5.203 4.812 7.019 2.309 3.19 3.175 4.368 2.646 5.153-.385.54-1.203.49-2.358.147h-.048c-.048.05-.096.393-.096.589-.048.54-.096 1.276-.77 1.62-.77.392-2.357.245-8.227-3.485-12.124-7.754-17.272-15.852-21.41-22.33-2.357-3.682-4.378-6.92-7.12-8.884-.915-.687-1.444-1.718-1.492-2.896 0-1.08.53-2.11 1.395-2.748.626-.442 1.251-.638 1.925-.638zm37.239 37.938c-.193-.59-1.3-2.16-2.502-3.828-1.348-1.865-2.983-4.123-4.86-7.068-6.832-10.65-14.722-15.558-20.447-19.19-3.32-2.11-5.966-3.73-7.458-5.84-.721-1.03-2.165-1.276-3.175-.54a2.254 2.254 0 00-.962 1.865c0 .786.384 1.522 1.01 2.013 2.935 2.11 5.004 5.398 7.41 9.177 4.04 6.43 9.14 14.43 21.072 22.036 5.34 3.436 6.784 3.632 7.17 3.436.095-.049.143-.393.192-.736.048-.54.096-1.57 1.202-1.57h.097l.048.048c.721.197 1.058.197 1.203.197z" fill="currentcolor"/><path d="M46.605 53.104c.482 0 .77.245.915.392 1.154 1.325-.097 5.497-1.059 7.46l-.144.295-.289.049c-.192 0-4.86.589-5.918 6.085a.545.545 0 01-.625.442c-.289-.049-.481-.343-.433-.638 1.058-5.448 5.34-6.674 6.543-6.92 1.059-2.307 1.636-5.399 1.107-5.987-.096-.099-.289-.05-.433 0-1.155.441-2.743 1.03-4.234 1.08a.575.575 0 01-.577-.492.58.58 0 01.48-.588c1.396-.05 2.791-.59 3.898-1.031.337-.098.529-.147.77-.147z" fill="currentcolor"/><path d="M42.9 47.312c.434 0 .723.197.915.393 1.203 1.325-.577 5.84-1.25 7.264-.145.245-.434.392-.723.245-.24-.147-.384-.442-.24-.736 1.203-2.454 1.924-5.546 1.443-6.086-.048-.049-.24-.049-.48.05-.963.392-3.61 1.128-5.245 1.226a.575.575 0 01-.578-.49.58.58 0 01.482-.59c1.395-.098 3.897-.736 4.907-1.129.337-.098.577-.147.77-.147zM25.34 53.79c.192 0 .385.148.481.344.096.295 0 .59-.289.687l-.914.393c-.529.245-.914.736-.962 1.325-.096.589.144 1.129.577 1.521l.385.246-.192.442c-.289.54-.337.981-.24 1.374.192.589.817.883.817.883l.578.246-.337.54c-.578.883.144 1.815.288 1.963 4.09 2.895 10.296.54 10.393.54a.533.533 0 01.673.294c.096.294-.048.589-.288.687-.29.098-6.88 2.601-11.403-.687l-.048-.05c-.481-.49-1.155-1.668-.722-2.846a2.47 2.47 0 01-.914-1.227c-.192-.589-.144-1.227.096-1.865-.529-.589-.818-1.423-.673-2.208.144-.982.721-1.767 1.635-2.16l.915-.392c0-.05.096-.05.144-.05zM23.8 33.816c.53 0 1.059.196 1.492.589.529-.197 1.01-.246 1.491-.05.433.148.77.491.962.737.963-.295 1.877.245 2.262.638l.048.049c1.684 2.454 1.491 5.448 1.058 7.558a.481.481 0 01-.625.393.491.491 0 01-.385-.638c.385-1.865.577-4.565-.866-6.675-.144-.147-.77-.638-1.395-.245l-.53.343-.24-.589s-.192-.49-.625-.638c-.29-.098-.626-.049-1.01.196l-.386.246-.288-.344c-.29-.343-.674-.54-1.107-.49-.433.048-.77.343-.962.736l-.53 1.767a.518.518 0 01-.673.343.533.533 0 01-.337-.687l.53-1.816c.336-.736 1.01-1.276 1.78-1.374.144-.05.24-.05.336-.05zM12.35 24c.673 0 1.443.245 2.165.736 1.924 1.276 3.752 4.22 3.127 8.736-.048.295-.289.49-.625.442-.29-.05-.482-.295-.433-.638.577-3.976-1.01-6.577-2.647-7.656-.818-.54-1.732-.737-2.213-.393-.385.245-.433.834-.337 1.227 0 .098.048.49-.192.736-.289.245-.577.147-.818.05-.433-.148-1.203-.393-2.406.834-1.154 1.177-.914 1.963-.818 2.453.049.246.193.59-.048.835-.24.294-.577.245-.721.196-.433-.049-1.01-.049-1.251.344-.289.49-.145 1.374.385 2.208 1.058 1.718 3.608 3.337 7.553 2.749a.545.545 0 01.626.441c.048.295-.145.59-.433.638-4.427.638-7.313-1.227-8.564-3.239-.77-1.227-.914-2.503-.385-3.386.24-.344.722-.884 1.78-.884h.048c-.144-.687-.192-1.816 1.155-3.19 1.347-1.374 2.454-1.374 3.127-1.178 0-1.08.53-1.57.866-1.816.193-.147.577-.245 1.059-.245z" fill="currentcolor"/><path d="M31.8 13.645c-.53 0-1.01-.294-1.299-.736-.289-.442-.289-.982 0-1.472.144-.246.481-.344.722-.197a.56.56 0 01.192.736c-.096.148-.096.246 0 .393.096.147.289.196.433.245.145 0 .24-.098.289-.196a.61.61 0 01.722-.245c.24.147.336.49.24.736-.289.442-.77.736-1.299.736z" stroke="currentcolor" mask="url(#fa)"/><path d="M62.351 49.129c-1.058 0-2.117-.49-2.742-1.423-1.395-1.914-3.945-3.534-7.169-5.546-5.87-3.681-13.856-8.687-20.832-19.484-1.829-2.896-3.513-5.203-4.812-7.019-2.309-3.19-3.175-4.368-2.646-5.153.385-.54 1.203-.49 2.358-.147h.048c.048-.05.096-.393.096-.589.048-.54.096-1.276.77-1.62.77-.392 2.357-.245 8.227 3.485 12.124 7.754 17.272 15.852 21.41 22.33 2.358 3.682 4.378 6.92 7.12 8.884.915.687 1.444 1.718 1.492 2.896 0 1.08-.53 2.11-1.395 2.748-.626.442-1.251.638-1.925.638zM25.112 11.191c.193.59 1.3 2.16 2.502 3.828 1.348 1.865 2.983 4.123 4.86 7.068 6.832 10.65 14.722 15.558 20.447 19.19 3.32 2.11 5.966 3.73 7.458 5.84.721 1.03 2.165 1.276 3.175.54a2.254 2.254 0 00.962-1.865c0-.786-.385-1.522-1.01-2.013-2.935-2.11-5.004-5.398-7.41-9.177-4.04-6.43-9.14-14.43-21.072-22.036-5.34-3.436-6.784-3.632-7.17-3.436-.095.049-.143.393-.192.736-.048.54-.096 1.57-1.202 1.57h-.097l-.048-.048c-.721-.197-1.058-.197-1.203-.197z" stroke="currentcolor" mask="url(#fa)"/><path d="M29.395 26.896a1.24 1.24 0 01-.915-.392c-1.154-1.325.097-5.497 1.059-7.46l.144-.295.289-.049c.192 0 4.86-.589 5.918-6.085a.545.545 0 01.625-.442c.289.049.481.343.433.638-1.058 5.448-5.34 6.674-6.543 6.92-1.059 2.307-1.636 5.399-1.107 5.987.097.099.289.05.433 0 1.155-.441 2.743-1.03 4.234-1.08.289 0 .53.197.577.492a.58.58 0 01-.48.588c-1.396.05-2.791.59-3.898 1.031-.337.098-.529.147-.77.147z" stroke="currentcolor" mask="url(#fa)"/><path d="M33.1 32.688c-.434 0-.723-.197-.915-.393-1.203-1.325.577-5.84 1.25-7.264.145-.245.434-.392.723-.245.24.147.384.442.24.736-1.203 2.454-1.924 5.546-1.443 6.086.048.049.24.049.48-.05.963-.392 3.61-1.128 5.245-1.226.289 0 .53.196.578.49a.58.58 0 01-.482.59c-1.395.098-3.897.736-4.907 1.129-.337.098-.577.147-.77.147zm17.56-6.478c-.192 0-.385-.148-.481-.344-.096-.295 0-.59.289-.687l.914-.393c.529-.245.914-.736.962-1.325.096-.589-.144-1.129-.577-1.521l-.385-.246.192-.442c.289-.54.337-.981.24-1.374-.192-.589-.817-.883-.817-.883l-.578-.246.337-.54c.578-.883-.144-1.815-.288-1.963-4.09-2.895-10.296-.54-10.393-.54a.533.533 0 01-.673-.294c-.096-.294.048-.589.288-.687.29-.098 6.88-2.601 11.403.687l.048.05c.481.49 1.155 1.668.722 2.846.337.245.722.638.914 1.227.192.589.144 1.227-.096 1.865.529.589.818 1.423.673 2.208-.144.982-.721 1.767-1.635 2.16l-.915.392c0 .05-.096.05-.144.05zm1.54 19.974c-.53 0-1.059-.196-1.492-.589-.529.197-1.01.246-1.491.05-.433-.148-.77-.491-.962-.737-.963.295-1.877-.245-2.262-.638l-.048-.049c-1.684-2.454-1.491-5.448-1.058-7.558a.481.481 0 01.625-.393c.289.05.481.344.385.638-.385 1.865-.577 4.565.866 6.675.144.147.77.638 1.395.245l.53-.343.24.589s.193.49.626.638c.288.098.625.049 1.01-.196l.385-.246.288.344c.29.343.674.54 1.107.49.433-.048.77-.343.962-.736l.53-1.767a.518.518 0 01.673-.343.533.533 0 01.337.687l-.53 1.816c-.336.736-1.01 1.276-1.78 1.374-.144.05-.24.05-.336.05zM63.65 56c-.673 0-1.443-.245-2.165-.736-1.924-1.276-3.752-4.22-3.127-8.736.048-.295.289-.49.626-.442.288.05.48.295.432.638-.577 3.976 1.01 6.577 2.647 7.656.818.54 1.732.737 2.213.393.385-.245.433-.834.337-1.227 0-.098-.049-.49.192-.736.289-.245.577-.147.818-.05.433.148 1.203.394 2.406-.834 1.154-1.177.914-1.963.818-2.453-.049-.246-.193-.59.048-.835.24-.294.577-.245.721-.196.433.049 1.01.049 1.251-.344.289-.49.145-1.374-.385-2.208-1.058-1.718-3.608-3.337-7.553-2.749a.545.545 0 01-.626-.441c-.048-.295.145-.59.433-.638 4.427-.638 7.313 1.227 8.564 3.239.77 1.227.914 2.503.385 3.386-.24.344-.722.884-1.78.884h-.048c.144.687.192 1.816-1.155 3.19-1.347 1.374-2.453 1.374-3.127 1.178 0 1.08-.53 1.57-.866 1.816-.193.147-.578.245-1.059.245zM44.2 66.355c.53 0 1.01.294 1.299.736.289.442.289.982 0 1.472-.144.246-.481.344-.722.197a.56.56 0 01-.192-.737c.096-.147.096-.245 0-.392-.096-.147-.289-.196-.433-.246-.145 0-.24.099-.289.197a.61.61 0 01-.721.245c-.241-.147-.337-.49-.241-.736.289-.442.77-.736 1.299-.736z" stroke="currentcolor" mask="url(#fa)"/><path d="M13.649 30.871c1.058 0 2.117.49 2.742 1.423 1.395 1.914 3.945 3.534 7.169 5.546 5.87 3.681 13.856 8.687 20.832 19.484 1.829 2.896 3.513 5.203 4.812 7.019 2.309 3.19 3.175 4.368 2.646 5.153-.385.54-1.203.49-2.358.147h-.048c-.048.05-.096.393-.096.589-.048.54-.096 1.276-.77 1.62-.77.392-2.357.245-8.227-3.485-12.124-7.754-17.272-15.852-21.41-22.33-2.357-3.682-4.378-6.92-7.12-8.884-.915-.687-1.444-1.718-1.492-2.896 0-1.08.53-2.11 1.395-2.748.626-.442 1.251-.638 1.925-.638zm37.239 37.938c-.193-.59-1.3-2.16-2.502-3.828-1.348-1.865-2.983-4.123-4.86-7.068-6.832-10.65-14.722-15.558-20.447-19.19-3.32-2.11-5.966-3.73-7.458-5.84-.721-1.03-2.165-1.276-3.175-.54a2.254 2.254 0 00-.962 1.865c0 .786.384 1.522 1.01 2.013 2.935 2.11 5.004 5.398 7.41 9.177 4.04 6.43 9.14 14.43 21.072 22.036 5.34 3.436 6.784 3.632 7.17 3.436.095-.049.143-.393.192-.736.048-.54.096-1.57 1.202-1.57h.097l.048.048c.721.197 1.058.197 1.203.197z" stroke="currentcolor" mask="url(#fa)"/><path d="M46.605 53.104c.482 0 .77.245.915.392 1.154 1.325-.097 5.497-1.059 7.46l-.144.295-.289.049c-.192 0-4.86.589-5.918 6.085a.545.545 0 01-.625.442c-.289-.049-.481-.343-.433-.638 1.058-5.448 5.34-6.674 6.543-6.92 1.059-2.307 1.636-5.399 1.107-5.987-.096-.099-.289-.05-.433 0-1.155.441-2.743 1.03-4.234 1.08a.575.575 0 01-.577-.492.58.58 0 01.48-.588c1.396-.05 2.791-.59 3.898-1.031.337-.098.529-.147.77-.147z" stroke="currentcolor" mask="url(#fa)"/><path d="M42.9 47.312c.434 0 .723.197.915.393 1.203 1.325-.577 5.84-1.25 7.264-.145.245-.434.392-.723.245-.24-.147-.384-.442-.24-.736 1.203-2.454 1.924-5.546 1.443-6.086-.048-.049-.24-.049-.48.05-.963.392-3.61 1.128-5.245 1.226a.575.575 0 01-.578-.49.58.58 0 01.482-.59c1.395-.098 3.897-.736 4.907-1.129.337-.098.577-.147.77-.147zM25.34 53.79c.192 0 .385.148.481.344.096.295 0 .59-.289.687l-.914.393c-.529.245-.914.736-.962 1.325-.096.589.144 1.129.577 1.521l.385.246-.192.442c-.289.54-.337.981-.24 1.374.192.589.817.883.817.883l.578.246-.337.54c-.578.883.144 1.815.288 1.963 4.09 2.895 10.296.54 10.393.54a.533.533 0 01.673.294c.096.294-.048.589-.288.687-.29.098-6.88 2.601-11.403-.687l-.048-.05c-.481-.49-1.155-1.668-.722-2.846a2.47 2.47 0 01-.914-1.227c-.192-.589-.144-1.227.096-1.865-.529-.589-.818-1.423-.673-2.208.144-.982.721-1.767 1.635-2.16l.915-.392c0-.05.096-.05.144-.05zM23.8 33.816c.53 0 1.059.196 1.492.589.529-.197 1.01-.246 1.491-.05.433.148.77.491.962.737.963-.295 1.877.245 2.262.638l.048.049c1.684 2.454 1.491 5.448 1.058 7.558a.481.481 0 01-.625.393.491.491 0 01-.385-.638c.385-1.865.577-4.565-.866-6.675-.144-.147-.77-.638-1.395-.245l-.53.343-.24-.589s-.192-.49-.625-.638c-.29-.098-.626-.049-1.01.196l-.386.246-.288-.344c-.29-.343-.674-.54-1.107-.49-.433.048-.77.343-.962.736l-.53 1.767a.518.518 0 01-.673.343.533.533 0 01-.337-.687l.53-1.816c.336-.736 1.01-1.276 1.78-1.374.144-.05.24-.05.336-.05zM12.35 24c.673 0 1.443.245 2.165.736 1.924 1.276 3.752 4.22 3.127 8.736-.048.295-.289.49-.625.442-.29-.05-.482-.295-.433-.638.577-3.976-1.01-6.577-2.647-7.656-.818-.54-1.732-.737-2.213-.393-.385.245-.433.834-.337 1.227 0 .098.048.49-.192.736-.289.245-.577.147-.818.05-.433-.148-1.203-.393-2.406.834-1.154 1.177-.914 1.963-.818 2.453.049.246.193.59-.048.835-.24.294-.577.245-.721.196-.433-.049-1.01-.049-1.251.344-.289.49-.145 1.374.385 2.208 1.058 1.718 3.608 3.337 7.553 2.749a.545.545 0 01.626.441c.048.295-.145.59-.433.638-4.427.638-7.313-1.227-8.564-3.239-.77-1.227-.914-2.503-.385-3.386.24-.344.722-.884 1.78-.884h.048c-.144-.687-.192-1.816 1.155-3.19 1.347-1.374 2.454-1.374 3.127-1.178 0-1.08.53-1.57.866-1.816.193-.147.577-.245 1.059-.245z" stroke="currentcolor" mask="url(#fa)"/></g></symbol><symbol fill="none" viewBox="0 0 80 80" id="footer-cat-3-80" xmlns="http://www.w3.org/2000/svg"><g opacity=".32" fill="currentcolor"><path d="M66.434 42.955a.97.97 0 00-.251-.72l-5.639-6.182c-.006-.006-.014-.01-.02-.017-.004-.005-.005-.01-.01-.014L32.842 8.284a.97.97 0 00-1.635.482 34.472 34.472 0 00-.645 4.434c-2.183-.387-9.297-1.312-13.949 2.027a.97.97 0 001.131 1.576c3.295-2.365 8.302-2.209 11.06-1.893-3.152 1.937-10.505 7.108-14.942 15.501a.97.97 0 001.715.907c4.51-8.532 12.444-13.693 14.883-15.133.178 18.35 15.674 29.812 15.851 29.94.011.008.025.011.036.019.013.008.022.02.034.028.748.448 1.521.815 2.314 1.117.773 2.234 1.747 4.122 2.83 5.73a15.018 15.018 0 00-1.707 4.077 17.63 17.63 0 00-3.372 2.076c-1.932-1.633-4.402-2.467-7.364-2.467-1.409 0-2.75.191-3.919.443l.018-15.387a.97.97 0 00-.697-.932l-9.8-2.873a.972.972 0 00-1.14 1.366l8.257 16.42L21.7 43.763a.97.97 0 00-1.162-.25l-6.425 3.09a.97.97 0 00-.066 1.715l17.32 10.012c-.353.152-.62.35-.696.774a.97.97 0 00.267.857l9.28 9.302c-.097.499-.21.935.178 1.332a.97.97 0 00.788.288l10.417-1.001a16.39 16.39 0 00.962 1.697.973.973 0 001.496.124l9.724-10.077c.802.19 1.322.253 1.417.263a.97.97 0 001.073-.994L65.746 43.9c.35-.266.654-.464.688-.946zm-49.826 4.602l4.095-1.968 7.133 8.46-11.228-6.492zm30.487-3.275c-2.489-1.965-17.272-14.535-14.323-33.322l25.77 25.83c-2.864 3.53-6.55 6.149-11.447 7.492zM59.94 38.27l4.047 4.436c-2.906 2.823-10.41 4.269-14.35 2.868 3.408-1.197 7.781-3.882 10.303-7.304zM33.226 54.261L26.28 40.445l6.961 2.041-.014 11.775zm7.391 12.656l-7.25-7.267c3.81-1.28 8.429-1.662 11.601.812-1.39 1.382-3.611 4.23-4.35 6.455zm1.69 1.912c1.032-3.9 3.611-7.282 7.002-9.288-.244 2.076-.284 5.432 1.253 8.494l-8.255.794zm11.242.612c-1.298-2.41-3.947-8.643-.758-14.726a20.676 20.676 0 008.904 6.283l-8.146 8.443zm10.714-9.703c-.359-.348-9.05-1.696-13.207-11.688 6.104.313 10.097-.914 12.794-2.74l.448 14.437-.035-.01z"/><circle cx="43.5" cy="25.5" r="3.5"/></g></symbol><symbol fill="none" viewBox="0 0 80 80" id="footer-cat-4-80" xmlns="http://www.w3.org/2000/svg"><g opacity=".32" fill="currentcolor"><path d="M8 57.672c.323-1.348.69-2.679 1.433-3.885 1.299-2.095 3.172-3.407 5.47-4.192 3.674-1.252 6.764-3.358 9.398-6.208 2.199-2.376 4.406-4.767 6.81-6.928 4.314-3.875 9.351-4.769 14.761-2.717 6.383 2.423 12.697 5.023 19.037 7.558a11.577 11.577 0 013.95 2.54c3.763 3.779 2.375 9.897-2.67 11.629-5.815 1.994-11.655 3.911-17.488 5.853-6.595 2.192-13.198 4.365-19.787 6.576a3.23 3.23 0 01-2.412-.046c-6.156-2.493-12.327-4.945-18.495-7.402 0-.925-.002-1.851-.007-2.778zM46.48 36.1c-1.278-.614-2.493-1.379-3.763-1.083-3.86.9-7.091 2.86-9.181 6.338-2.368 3.93-2.725 8.242-2.127 12.685.234 1.74.254 1.725-1.414 2.29-3.658 1.237-5.61 3.846-6.125 7.606-.056.398-.048.75.392.926.77.297 1.505.7 2.316.862.25-.27.234-.594.293-.89.069-.332.085-.674.186-.998.956-3.408 3.183-5.625 6.523-6.763 1.324-.452 1.273-.46 1.186-1.806-.228-3.594.019-7.14 1.242-10.568 1.299-3.655 3.712-6.267 7.359-7.677.954-.374 1.98-.593 3.114-.922zM21.822 63.873c.08-.187.147-.379.2-.575.702-4.123 2.89-7.07 6.856-8.597.52-.2.618-.518.557-.998a21.696 21.696 0 01-.185-3.505c.16-4.472 1.238-8.62 4.31-12.059.838-.94 1.838-1.712 2.751-2.59a8.674 8.674 0 00-3.426 1.89c-2.004 1.792-3.712 3.887-5.658 5.726-1.7 1.614-2.708 3.48-2.886 5.809-.099 1.263-.145 2.527.083 3.778.141.78-.074 1.323-.803 1.666-.25.123-.49.267-.715.43-2.461 1.724-3.933 4.009-4.039 7.071-.012.37-.08.759.372.938.835.322 1.663.652 2.583 1.016zM58.235 51.01c.107-.775-.117-1.665-.41-2.554-.929-2.76-3.588-3.935-6.25-2.744a9.238 9.238 0 00-4.303 3.936c-1.691 2.96-2.426 6.046-1.038 9.363.291.698.663.905 1.422.64 2.8-.97 5.616-1.896 8.437-2.808a1.584 1.584 0 001.061-.926c.661-1.515 1.129-3.068 1.08-4.907zm-21.48 4.476c.691-.231 1.202-.644 1.773-.89.954-.41 1.014-1.09.975-1.935-.024-.74-.008-1.482.046-2.22.334-5.465 2.812-8.698 8.224-10.09 2.041-.521 4.094-.573 6.169-.508.673.02 1.343.075 2.041.118-2.852-1.826-6.002-2.067-9.146-1.819-3.34.263-6.052 1.884-7.858 4.782-1.592 2.555-2.147 5.427-2.333 8.377-.083 1.37-.139 2.755.11 4.185zM22.42 47.928c-.999.126-1.409 1.007-2.168 1.295-1.203.463-1.552 1.414-1.472 2.58.054.775-.25 1.245-.939 1.615-1.99 1.072-3.21 2.719-3.604 4.969-.371 2.107-.175 2.453 1.793 3.203.64.242.896.118.989-.555.458-3.314 2.014-5.962 4.825-7.833.221-.146.557-.244.557-.568.028-1.545.019-3.092.019-4.706zm39.37-5.418c2.805 3.516 2.931 7.444 2.261 11.525.728.016 1.255-.274 1.795-.469 2.412-.858 3.75-3.543 3.03-5.997-.72-2.454-4.274-5.031-7.086-5.059zm-9.093-.68c-8.4-.132-11.608 3.887-11.194 10.634 1.836-1.9 3.592-3.701 5.325-5.518 1.733-1.818 3.415-3.79 5.868-5.119v.004zm6.66 13.866c.732-.213 1.229-.37 1.732-.501.503-.132.763-.46.883-.951.386-1.597.648-3.215.496-4.856-.217-2.356-.852-4.554-2.745-6.175-1.422-1.218-3.734-1.177-5.261.12 2.748.544 4.478 2.18 5.267 4.79.742 2.47.48 4.934-.377 7.57l.005.003zm-24.61 3.135c-3.438.592-6.72 4.585-5.764 7.011l7.07-2.376a9.811 9.811 0 01-1.31-4.639l.005.004zm-22.51 1.123c-.031-3.493 1.3-6.177 4.243-7.979.31-.185.466-.49.228-.885-.635.028-1.182.348-1.743.556-2.92 1.12-4.912 3.669-5.042 6.99-.011.308.044.556.36.67.609.215 1.164.58 1.954.648zm31.564-7.004c-.819.703-1.457 1.26-2.107 1.804a1.08 1.08 0 00-.426.687c-.25 1.834-.186 3.629.718 5.305.145.268.295.622.67.509.694-.21 1.438-.313 2.099-.812-.503-1.146-.928-2.29-1.09-3.516-.161-1.227.067-2.496.14-3.977H43.8zm-4.562 3.73c-2.81 1.281-2.784.907-2.33 3.76.038.181.087.36.148.534.593 1.937.703 1.995 2.61 1.295.222-.083.5-.074.686-.424-.858-1.52-1.142-3.253-1.11-5.164h-.004z"/><path d="M47.377 53.65c.029-2.81 1.842-5.39 4.268-6.07a3.44 3.44 0 012.514.218 3.427 3.427 0 011.685 1.873c.71 1.795.385 3.5-.436 5.174-.301.607-.806.875-1.415.588-.61-.288-.686-.86-.361-1.462a4.633 4.633 0 00.545-2.77c-.192-1.641-1.421-2.228-2.803-1.33a4.369 4.369 0 00-1.408 5.781c.29.502.342.984-.123 1.377-.514.435-1.033.263-1.442-.18-.832-.906-1.05-2.018-1.024-3.198z"/><circle cx="26.5" cy="27.5" r="2.5"/><circle cx="38.5" cy="27.5" r="2.5"/><circle cx="32.5" cy="20.5" r="2.5"/><circle cx="50.5" cy="27.5" r="2.5"/><circle cx="44.5" cy="20.5" r="2.5"/><circle cx="38.5" cy="13.5" r="2.5"/></g></symbol><symbol fill="none" viewBox="0 0 80 80" id="footer-cat-5-80" xmlns="http://www.w3.org/2000/svg"><g opacity=".32" fill="currentcolor"><path fill-rule="evenodd" clip-rule="evenodd" d="M62.577 69a1 1 0 001 1h.34a1 1 0 001-1V10.338h.41a1.17 1.17 0 001.17-1.169A1.17 1.17 0 0065.327 8h-50.48a1.17 1.17 0 000 2.338h.802V69a1 1 0 001 1h.338a1 1 0 001-1v-5.443h44.59V69zM29.174 14.156l-.022-3.818H17.987v50.878h44.59V10.338H49.993l.02 3.803a6.343 6.343 0 01-.873 3.242 1.71 1.71 0 00.104 1.902l.05-.052c.237-.238.577-.362.905-.343.215.014.417.085.592.205a1.17 1.17 0 011.456.102 2.01 2.01 0 00.437-1.251c0-.41-.123-.805-.354-1.147a1.167 1.167 0 01.305-1.624 1.165 1.165 0 011.625.305 4.352 4.352 0 01-.456 5.49c2.668 3.337 7.564 10.943 4.039 18.394a92.82 92.82 0 01-3.152 6.106l2.718 5.125c.231.434.163.968-.166 1.333-.331.363-.85.489-1.31.297L50.79 50.13l-5.14 2.096c-.143.06-.294.089-.442.089a1.173 1.173 0 01-1.034-1.719l2.715-5.125a92.796 92.796 0 01-3.152-6.106c-3.488-7.378 1.275-14.905 3.959-18.292a4.12 4.12 0 01-.607-.815 4.017 4.017 0 01.034-4.058c.363-.62.554-1.325.548-2.043l-.02-3.818H31.49l.022 3.803a6.333 6.333 0 01-.87 3.241 1.7 1.7 0 00.102 1.903l.05-.051a1.173 1.173 0 011.496-.139 1.17 1.17 0 01.591-.205 1.14 1.14 0 01.865.307 2.023 2.023 0 00.084-2.396 1.168 1.168 0 111.928-1.322c.5.727.764 1.58.764 2.467a4.353 4.353 0 01-1.22 3.023c2.668 3.337 7.565 10.943 4.042 18.395a92.367 92.367 0 01-3.154 6.106l2.717 5.125a1.17 1.17 0 01-1.475 1.63L32.29 50.13l-5.142 2.095c-.142.06-.293.089-.44.089a1.173 1.173 0 01-1.034-1.719l2.718-5.125a92.787 92.787 0 01-3.155-6.106c-3.488-7.377 1.275-14.905 3.96-18.292a4.103 4.103 0 01-.607-.816 4.017 4.017 0 01.034-4.059 3.99 3.99 0 00.55-2.041zm4.083 8.018a4.357 4.357 0 01-1.105.142 4.41 4.41 0 01-.865-.092 27.308 27.308 0 00-2.857 4.307c2.044 1.073 5.766.995 7.648-.152a27.32 27.32 0 00-2.821-4.205zm.587 22.688a88.705 88.705 0 003.384-6.497c1.59-3.36 1.055-6.864-.143-9.846-1.332.78-3.08 1.224-4.959 1.224-1.726 0-3.38-.389-4.682-1.073-1.157 2.952-1.65 6.397-.091 9.695a88.512 88.512 0 003.386 6.497c.201.348.21.776.021 1.133l-1.51 2.85 2.6-1.06a1.127 1.127 0 01.881 0l2.602 1.06-1.51-2.85a1.172 1.172 0 01.02-1.133zm17.913-22.688a4.364 4.364 0 01-1.103.142 4.407 4.407 0 01-.866-.092 27.325 27.325 0 00-2.857 4.307c2.047 1.073 5.765.99 7.647-.153a27.287 27.287 0 00-2.82-4.204zm.584 22.688a88.62 88.62 0 003.389-6.497c1.587-3.36 1.053-6.864-.144-9.846-1.332.78-3.082 1.224-4.96 1.224-1.725 0-3.38-.39-4.68-1.073-1.16 2.952-1.654 6.397-.095 9.695a88.54 88.54 0 003.39 6.497c.2.348.208.776.02 1.133l-1.511 2.85 2.598-1.06a1.135 1.135 0 01.885 0l2.598 1.06-1.51-2.85a1.176 1.176 0 01.02-1.133z"/><path d="M51.696 25.365a.978.978 0 10-1.807-.748.978.978 0 001.807.748zm-19.406.605a.978.978 0 100-1.956.978.978 0 000 1.955z"/></g></symbol><symbol fill="none" viewBox="0 0 80 80" id="footer-cat-6-80" xmlns="http://www.w3.org/2000/svg"><g opacity=".32" fill="currentcolor"><path d="M39.879 68l-.428-.002h-.215l-.428.002a1.02 1.02 0 01-.133-.009c-19.194-.257-24.262-6.642-24.469-6.914a1.012 1.012 0 01-.206-.613V28.88a1.013 1.013 0 011.517-.878c7.474 4.297 19.44 4.703 23.157 4.72a.982.982 0 01.164-.01c.006 0 .183.005.505.008.322-.003.5-.008.505-.008a.965.965 0 01.169.01c3.72-.017 15.681-.424 23.152-4.72a1.013 1.013 0 011.517.878v31.585c0 .221-.072.437-.206.613-.207.272-5.276 6.658-24.47 6.914a.998.998 0 01-.131.009zm-.542-2.027h.128l.296.002a.946.946 0 01.105-.006c9.493-.115 15.253-1.782 18.413-3.16 2.606-1.137 3.91-2.265 4.382-2.736V30.554c-7.994 3.848-19.328 4.185-22.78 4.191-.039-.002-.082-.002-.122-.007l-.407.006h-.017a37.722 37.722 0 01-.41-.006.968.968 0 01-.117.007h-.002c-3.452-.007-14.787-.343-22.78-4.19v29.519c.465.465 1.77 1.596 4.38 2.734 3.162 1.379 8.922 3.046 18.414 3.16.036 0 .07.003.106.007l.295-.001.116-.001z"/><path d="M41.763 53.067a13.968 13.968 0 01-3.962-.565 14.748 14.748 0 01-5.578-3.102c-1.999 2.026-6.142 2.901-6.68 3.008a1.012 1.012 0 01-1.042-.432 1.037 1.037 0 01-.014-1.136c.016-.026 1.653-2.632 1.653-4.737 0-1.794-1.229-4.603-1.702-5.535a1.038 1.038 0 01.408-1.37c.152-.086.324-.131.5-.131 2.251 0 5.51 2.633 6.866 3.82 7.517-4.566 13.277-3.55 16.821-1.85 3.954 1.895 6.01 4.977 6.097 5.107a1.04 1.04 0 01-.203 1.366c-5.158 4.285-9.65 5.557-13.164 5.557zM32.1 46.803a1.013 1.013 0 01.778.364 12.436 12.436 0 005.588 3.382c4.501 1.288 9.338-.06 14.387-4.004a14.57 14.57 0 00-4.774-3.683c-4.61-2.172-9.801-1.44-15.43 2.177a1.013 1.013 0 01-1.244-.114c-1.05-.986-2.762-2.36-4.217-3.157.491 1.292.993 2.95.993 4.336 0 1.278-.42 2.621-.873 3.698 1.686-.567 3.42-1.42 3.864-2.397a1.027 1.027 0 01.928-.601z"/><path d="M43.78 49.333a1.27 1.27 0 01-.59-.145c-2.656-1.392-2.098-4.813-1.35-6.615.056-.135.14-.258.248-.362.107-.105.236-.19.38-.248a1.285 1.285 0 011.308.202c.114.099.206.217.27.349a1.02 1.02 0 01.027.838c-.33.807-.985 3.26.3 3.934.23.12.408.306.51.53.101.222.12.47.052.703-.068.234-.218.44-.427.587a1.265 1.265 0 01-.728.227zm-4.027 11.2c-20.285 0-25.307-5.568-25.511-5.805a.998.998 0 01.11-1.411 1.018 1.018 0 011.423.1c.087.093 4.936 5.109 23.978 5.109 18.994 0 23.053-4.976 23.088-5.027a1.009 1.009 0 01.655-.417 1.023 1.023 0 01.76.167 1.006 1.006 0 01.416.652.996.996 0 01-.174.752c-.117.165-1.246 1.651-4.895 3.083-4.728 1.856-11.406 2.797-19.85 2.797zm-24.732-30.8a1.015 1.015 0 01-.898-.54 1.037 1.037 0 01.044-1.054l.23-.355a3.535 3.535 0 01.071-3.388 3.498 3.498 0 011.216-1.248 3.462 3.462 0 011.662-.503v-.081a4.648 4.648 0 011.293-3.214 4.574 4.574 0 013.145-1.406 3.52 3.52 0 01.73-1.308 3.467 3.467 0 014.112-.836 3.483 3.483 0 011.74-1.352c.71-.249 1.48-.26 2.196-.03a3.466 3.466 0 013.597-1.664c.462.081.903.257 1.296.516a4.38 4.38 0 015.97-.181 3.46 3.46 0 012.62-.687 3.456 3.456 0 012.312 1.418 3.457 3.457 0 012.385-.147 3.485 3.485 0 011.918 1.438 3.453 3.453 0 012.586-.017 3.49 3.49 0 011.883 1.787 3.46 3.46 0 012.564.235 3.504 3.504 0 011.704 1.945 3.476 3.476 0 012.742 1.02 3.533 3.533 0 011.015 2.715c.53.161 1.014.448 1.411.836.398.388.698.867.876 1.395a3.535 3.535 0 01-.47 3.174 1.038 1.038 0 01-.277 1.323 1.016 1.016 0 01-1.429-.198 18.495 18.495 0 00-.42-.48 1.032 1.032 0 01.15-1.52 1.441 1.441 0 00.59-1.17 1.47 1.47 0 00-.424-1.028 1.44 1.44 0 00-1.188-.418 1.013 1.013 0 01-.945-.443 1.035 1.035 0 01-.066-1.049 1.464 1.464 0 00-.266-1.685 1.44 1.44 0 00-1.021-.427c-.223 0-.442.053-.64.155a1.014 1.014 0 01-1.35-.418 1.036 1.036 0 01-.124-.615 1.462 1.462 0 00-.88-1.32 1.432 1.432 0 00-1.554.283 1.018 1.018 0 01-1.574-.224 1.037 1.037 0 01-.142-.586l.002-.039a1.463 1.463 0 00-.43-1.015 1.44 1.44 0 00-1.586-.3 1.43 1.43 0 00-.477.34 1.02 1.02 0 01-1.046.276 1.02 1.02 0 01-.706-.826 1.457 1.457 0 00-.334-.73 1.44 1.44 0 00-1.463-.453c-.262.07-.498.214-.683.414a1.019 1.019 0 01-1.016.289 1.02 1.02 0 01-.726-.773 1.464 1.464 0 00-.506-.82 1.443 1.443 0 00-.903-.322 1.423 1.423 0 00-1.25.732 1.025 1.025 0 01-.868.514h-.015a1.014 1.014 0 01-.868-.488 2.362 2.362 0 00-.884-.839 2.34 2.34 0 00-2.345.063c-.351.216-.64.521-.838.885a1.026 1.026 0 01-.84.531 1.014 1.014 0 01-.892-.44 1.43 1.43 0 00-2.255-.144 1.46 1.46 0 00-.357.78 1.032 1.032 0 01-.649.825 1.014 1.014 0 01-1.028-.181 1.415 1.415 0 00-.938-.35c-.35 0-.69.129-.953.363a1.459 1.459 0 00-.477.907 1.033 1.033 0 01-.744.864 1.013 1.013 0 01-1.077-.364 1.442 1.442 0 00-1.6-.494 1.443 1.443 0 00-.71.524 1.463 1.463 0 00-.273.933 1.035 1.035 0 01-.377.799 1.018 1.018 0 01-.851.209 2.527 2.527 0 00-2.483.885 2.578 2.578 0 00-.378 2.627 1.037 1.037 0 01-.252 1.162 1.018 1.018 0 01-1.17.146 1.409 1.409 0 00-.68-.171c-.382 0-.75.154-1.02.427s-.423.643-.424 1.029c0 .349.125.687.353.95a1.034 1.034 0 01.08 1.236l-.572.882a1.027 1.027 0 01-.881.508v.001z"/><path d="M28.549 27.867a3.3 3.3 0 01-1.825-.55 3.27 3.27 0 01-1.21-1.467 3.25 3.25 0 01.712-3.56 3.302 3.302 0 013.58-.708c.6.247 1.113.666 1.474 1.203a3.253 3.253 0 01-.41 4.124 3.299 3.299 0 01-2.321.958zm0-4.475a1.22 1.22 0 00-1.122.746 1.201 1.201 0 00.263 1.316 1.216 1.216 0 002.073-.854c0-.32-.128-.627-.356-.854a1.22 1.22 0 00-.858-.354zm22.527 6.341c-.65 0-1.285-.191-1.825-.55a3.27 3.27 0 01-1.21-1.466 3.25 3.25 0 01.712-3.56 3.302 3.302 0 013.58-.708c.6.247 1.114.666 1.475 1.203a3.253 3.253 0 01-.41 4.123 3.298 3.298 0 01-2.322.958zm0-4.474a1.22 1.22 0 00-1.122.746 1.202 1.202 0 00.263 1.316 1.217 1.217 0 002.074-.854c0-.32-.129-.628-.356-.854a1.22 1.22 0 00-.859-.354zm-11.263-1.126c-.65 0-1.285-.191-1.826-.55a3.272 3.272 0 01-1.21-1.466 3.25 3.25 0 01.712-3.56 3.303 3.303 0 013.58-.708 3.279 3.279 0 011.475 1.203 3.254 3.254 0 01-.41 4.123 3.298 3.298 0 01-2.322.958zm0-4.474a1.22 1.22 0 00-1.123.746 1.202 1.202 0 00.264 1.316 1.217 1.217 0 002.073-.854c0-.32-.129-.627-.357-.853a1.219 1.219 0 00-.858-.354z"/></g></symbol><symbol fill="none" viewBox="0 0 80 80" id="footer-cat-7-80" xmlns="http://www.w3.org/2000/svg"><g opacity=".32" fill="currentcolor"><path d="M41.455 67.734c-1.296.425-2.584.877-3.888 1.265-.676.202-1.368.341-2.07.417-2.173.234-4.365.675-6.538.568-4.123-.2-8.238-.64-12.335-1.15-1.23-.154-2.377-.913-3.577-1.36a8.847 8.847 0 00-1.23-.292c-.312-.176-.612-.383-.931-.529-.923-.448-1.923-.767-2.758-1.345-1.988-1.426-3.888-2.974-5.82-4.473 0-.073-.034-.145-.05-.222a11.974 11.974 0 01-1.21-6.408c.072-1.184-.05-2.388.084-3.564.112-.959.258-2.035.77-2.794a5.814 5.814 0 001.01-3.614c.632-.545 1.232-1.15 1.924-1.625 1.665-1.2 3.265-2.557 5.088-3.45 1.735-.866 3.716-1.226 5.581-1.84.242-.125.462-.29.65-.486l4.615-.629 3.747-.295 5.561-.019 4.823.295c1.762.506 3.52 1.039 5.293 1.514 1.538.41 3.269.433 4.569 1.207 2.308 1.384 4.384 3.2 6.558 4.837l.43.472.735-.296v-.15l.577-.068.288 1.587h-1.665c2.023 2.77 2.234 5.587 1.977 8.516-.123 1.375-.077 2.767-.108 4.15-.33.609-.619 1.239-.865 1.886-.608 1.95-1.985 3.116-3.773 3.947-.423.2-.727.652-1.085.989-1.373.793-2.508 1.997-4.323 1.966-.68-.004-1.37.648-2.054.993zM3.44 49.69h-.023l.6.863c.28.965.562 1.93.85 2.893l.3.299h-.023l1.761 1.1v.02l1.727 1.394c.554.406 1.058.924 1.673 1.192.858.383 1.873.406 2.692.836 4.231 2.226 8.908 2.153 13.462 2.529 2.82.234 5.704-.287 8.558-.514a9.994 9.994 0 002.207-.433c1.22-.383 2.381-1.05 3.62-1.222 3.365-.475 5.819-2.438 8.203-4.6 1.623-.214 1.647-1.417 1.643-2.636l.05-.307c1.5-1.881 1.619-2.157.165-3.633a1.392 1.392 0 01-.184-.383l-.031-.307-.489-1.475c-.065-.173-.084-.418-.211-.506-1.923-1.391-3.846-2.855-5.877-4.1-.977-.595-2.212-.767-3.327-1.15-2.596-.863-5.127-1.917-7.985-1.698-1.05.08-2.134-.422-3.2-.414-1.611 0-3.223.23-4.834.36l-5.727.364c-2.693.84-5.42 1.533-8.02 2.568-1.48.594-2.653 1.916-4.103 2.61-1.704.827-2.47 2.146-2.893 3.855a16.75 16.75 0 01-.854 2.173l.27.322zm-.308 7.769c.154.674.077 1.606.496 1.985 2.058 1.859 4.23 3.58 6.404 5.327.17.134.461.104.692.173 1.496.444 3.046.766 4.477 1.372 2.058.866 4.116 1.502 6.377 1.44a30.759 30.759 0 013.304.154c1.362.107 2.727.406 4.085.364 1.988-.065 3.973-.36 5.957-.567.332-.031.659-.095.977-.192 2.104-.663 4.166-1.533 6.316-1.966 3.357-.655 5.384-3.269 8.019-4.982.258-.211.44-.5.52-.824.43-1.533.822-3.066 1.226-4.6 1.008-1.003.327-2.107.192-3.176-.284.858-.565 1.717-.85 2.575-.446.383-.873.816-1.35 1.17-.788.59-1.688 1.057-2.407 1.72-1.323 1.226-2.87 1.851-4.593 2.33-2.069.575-4.05 1.468-6.069 2.227l-6.204.303c-.647.149-1.306.242-1.969.28-1.923-.039-3.846-.415-5.73-.208-4.616.51-8.462-1.847-12.55-3.139-2.335-.735-4.278-2.71-6.397-4.127L2.351 51.82c0 1.732-.034 3.315.035 4.894.011.265.484.498.746.744z"/><path d="M53.351 45.294l-.288-1.586c2.8-.227 5.6-.445 8.404-.679a3.88 3.88 0 00.823-.191c1.661-.518 3.33-1.02 4.977-1.58 1.834-.62 3.811-.885 5.204-2.517.588-.694 1.576-1.035 2.307-1.614a6.427 6.427 0 001.639-1.598c.965-1.61 1.177-3.415 1.227-5.48-1.539.97-2.789 1.774-4.05 2.583-1.135.728-2.223 1.533-3.416 2.173-.65.34-1.538.245-2.204.551-4.665 2.09-9.657 2.3-14.615 2.495-2.308.085-4.615-.421-6.946-.513-1.82-.073-3.6-.054-5.254-1.039-.7-.417-1.608-.475-2.389-.766-1.619-.629-3.292-1.15-4.796-2.005-1.596-.885-3.019-2.07-4.515-3.123l-.82-1.135-.534.192.692 3.334.427 2.035c-1.577.338-2.454-.199-2.546-2.322a44.386 44.386 0 01.465-7.918c.181-1.3 1.277-2.464 1.508-3.768.293-1.663 1.47-2.257 2.612-3.108 1.215-.904 2.261-2.039 3.384-3.066 1.558-.383 3.15-.666 4.67-1.15 2.946-.97 5.807-2.142 9.023-2.004 1.304.058 2.654-.605 3.938-.479 5.058.495 10.266.104 15.035 2.499 1.365.686 3.104.686 4.4 1.456a39.568 39.568 0 015.558 4.181c.488.422.5 1.376.788 2.063.562 1.333 1.154 2.655 1.746 3.982.077.172.215.383.192.532-.542 3.81.054 7.86-2.307 11.295a6.168 6.168 0 01-1.477 1.337c-1.127.851-2.216 1.794-3.462 2.453-1.604.85-3.338 1.472-5.023 2.17-.48.198-1.015.275-1.484.49a14.826 14.826 0 01-6.797 1.376c-1.353-.043-2.723.34-4.084.536l-2.012-.092zm17.023-28.717h.039l-1.192-.56-2.281-.59-.916-.479-.565-.107-.889-.494-.519-.066c-.211-.168-.407-.456-.638-.486-1.557-.22-3.117-.405-4.681-.556-.954-.092-1.977.096-2.865-.176-3.462-1.066-6.785.482-10.193.383-1.273-.035-2.592.479-3.846.89-1.004.332-1.923 1.226-2.9 1.275-2.192.104-3.665 1.2-5.327 2.46-1.857 1.403-3.415 2.683-4.127 5.052-.384 1.276-.734 2.154.458 3.024l.065.514c-.115 2.218 1.312 3.157 3.143 3.763 1.154.92 2.211 2.066 3.511 2.683 1.396.674 3.023.874 4.55 1.276l1.443.652 2.88.479 3.685.092.235.264c-.02.042-.062.096-.05.123a.157.157 0 00.123.065l7.692-.13c2.442-.564 5.088.126 7.412-1.185l2.253-.916 4.616-1.709 1.757-1.694c1.193-.487 2.612-.69 2.85-2.33.312-.767.45-1.683.966-2.273.973-1.115.696-1.866-.354-2.61-.215-.858-.43-1.72-.642-2.58l-.031-.313-.212-.223-.296-.061-.869-.579-.323-.276-.854-.333a.124.124 0 00-.138 0l-1.581-1.66-.296-.295-1.093-.314zM8.844 54.086c-.254-.268-.689-.525-.677-.766a1.376 1.376 0 01.557-1.008c1.704-.928 3.462-1.782 5.181-2.649 6.739-3.36 13.482-6.712 20.23-10.056.428-.207 1.359-.265 1.497-.046.508.816-.18 1.31-.835 1.644-2.269 1.169-4.557 2.3-6.842 3.45a9866.048 9866.048 0 01-18.077 8.963c-.292.139-.592.265-1.034.468zm9.169 3.963c-.189-.203-.631-.471-.635-.747a1.26 1.26 0 01.593-.955c3.765-1.885 7.561-3.717 11.338-5.584 4.818-2.381 9.63-4.77 14.438-7.166a.825.825 0 01.25-.12c.474-.041.95-.068 1.427-.099-.234.487-.338 1.211-.723 1.418-2.569 1.403-5.192 2.683-7.807 4.017A6351.556 6351.556 0 0123.7 55.438c-1.596.805-3.18 1.629-4.777 2.426a4.18 4.18 0 01-.911.184zm23.55-16.215c-1.539.816-2.946 1.617-4.4 2.341a3898.984 3898.984 0 01-22.692 11.21c-.47.23-1.154 0-1.762-.034.323-.456.542-1.115.985-1.334 8.623-4.323 17.288-8.573 25.903-12.912.908-.444 1.316-.253 1.966.729zM6.124 51.622l-.361-1.376 23.196-11.839.865 1.472c-3.177 1.629-6.23 3.215-9.304 4.768-4.561 2.3-9.129 4.58-13.703 6.845a2.702 2.702 0 01-.693.13zm36.566-3.384a31.62 31.62 0 003.23-1.365c.654-.36 1.224-.567 1.489.196.096.28-.435 1-.838 1.2a1796.26 1796.26 0 01-17.385 8.58c-.997.53-2.024 1-3.077 1.407-.539.188-1.196.042-1.8.05.342-.48.58-1.15 1.05-1.407 3.442-1.79 6.923-3.491 10.385-5.224a12.688 12.688 0 001.692-.613c1.77-.916 3.511-1.878 5.254-2.824zm5.261 3.265c-.173.184-.365.533-.657.678-4.097 2.05-8.197 4.094-12.308 6.083-.385.18-.923 0-1.392-.027.223-.483.315-1.215.688-1.41a588.938 588.938 0 0112.012-6.133c.634-.322 1.415-.475 1.657.809zM20.467 39.02l1.154.05.515 1.081c-3.146 1.567-6.239 3.097-9.32 4.649-1.223.613-2.423 1.28-3.63 1.916-.17.092-.35.288-.492.26-.474-.091-.931-.26-1.393-.383.22-.383.343-.965.677-1.15 1.923-1.034 3.9-1.958 5.842-2.95 2.22-1.146 4.435-2.319 6.647-3.473z"/><path d="M66.617 16.056l.769.62h.027l-1.439 1.645-3.404 1.728-4.534 1.997.17.226a2.47 2.47 0 00-.24.077l-1.234.544-1.07.602-.892.314-.28.253-6.027 2.913c-2.47 1.188-4.935 2.38-7.412 3.552a9.605 9.605 0 01-1.95.736c-.246.054-.83-.318-.827-.486a1.227 1.227 0 01.523-.94c2.308-1.207 4.643-2.356 6.974-3.514 5.807-2.884 11.615-5.77 17.423-8.657.197-.131.377-.287.534-.464l1.431-.625.588-.02.666-.463a.39.39 0 00.204-.038zM34.109 29.22c-.173-.816.115-1.306.896-1.697 4.812-2.403 9.592-4.86 14.389-7.282a2690.51 2690.51 0 0110.592-5.339l1.154-.053.534.072a.97.97 0 00.066.273c-.35.46-.6 1.119-1.066 1.352a3019.642 3019.642 0 01-24.792 12.357c-.52.245-1.18.214-1.773.318zm35.708-8.523c-6.631 3.28-13.258 6.563-19.881 9.846-.15.076-.23.287-.342.437l-4.358 1.916c-.173.077-.33.299-.48.288a13.998 13.998 0 01-1.42-.265c.246-.406.385-.996.77-1.188 1.984-1.07 4.022-2.035 6.038-3.047.32-.183.63-.383.927-.602l5.496-2.828a.97.97 0 00.257-.03l.881-.553 4.616-2.3c.096 0 .192-.014.284-.041.677-.3 1.339-.636 2.03-.886 2.143-.766 3.89-2.521 6.328-2.567l.588.333c0 .188 0 .383-.019.567l-.296.3v-.02l-1.42.64zM51.332 32.114c3.054-1.494 6.096-3.008 9.162-4.48 3.434-1.648 6.888-3.254 10.33-4.89.159-.106.3-.235.42-.384l1.923-.52c.018.08.046.16.08.237l.058.295c0 .383-.042.766-.065 1.15-5.67 2.716-11.336 5.437-17 8.163-.143.069-.212.287-.316.433-1.453.617-2.904 1.25-4.369 1.832-.404.113-.82.181-1.238.203-.043-.494-.081-.992-.123-1.49l.665-.468.473-.08zm16.677-1.744l-3.462 1.733a.537.537 0 00-.234.03c-1.07.49-2.116 1.054-3.223 1.434-.473.16-1.081-.065-1.627-.115.277-.456.454-1.043.854-1.338.717-.456 1.47-.856 2.25-1.196.115-.141.234-.28.35-.417l4.653-2.334a.518.518 0 00.216-.031l4.465-2.204c.327-.16.67-.291 1.004-.437l.496.33c.043.18.089.364.131.548-.023.188-.046.383-.073.571l-.612.564c-.103.183-.203.383-.307.547l-1.381.568-3.48 1.755-.02-.008zm.892-3.219v-.088l.085.046-.085.042zM32.309 25.25c7.077-3.549 14.15-7.113 21.25-10.624.458-.226 1.13-.023 1.7-.019-.296.464-.48 1.15-.904 1.357-7.073 3.572-14.184 7.07-21.258 10.635-1.046.53-1.423.383-1.369-.766l.585-.58-.004-.003zm.735-4.016c1.75-.913 3.484-1.852 5.25-2.73 2.534-1.26 5.115-2.429 7.619-3.744.723-.383 1.296-.548 1.638.211.108.245-.384.981-.746 1.18-3.973 2.066-7.961 4.105-11.996 6.052-.438.215-1.177-.184-1.773-.295l.008-.674z"/><path d="M73.878 26.373a23.846 23.846 0 00-.13-.548c.042.18.084.364.13.548z"/></g></symbol><symbol fill="none" viewBox="0 0 80 80" id="footer-cat-8-80" xmlns="http://www.w3.org/2000/svg"><g opacity=".32" fill="currentcolor"><path d="M50 45a25.474 25.474 0 00-11 2.155V39c0-.197-.059-.39-.168-.555l-1.227-1.84A15.456 15.456 0 0135.037 29H36a1 1 0 001-1v-6a1 1 0 00-1-1h-1v-3a1 1 0 00-1-1h-3.382L26.9 9.553A1 1 0 0026 9h-4a1 1 0 00-.895.553L17.382 17H14a1 1 0 00-1 1v3h-1a1 1 0 00-1 1v6a1 1 0 001 1h.963a15.456 15.456 0 01-2.563 7.605l-1.227 1.84A1.006 1.006 0 009 39v28a4 4 0 004 4h22a4 4 0 004-4v-.837A14.976 14.976 0 0065 56v-4c0-3.991-6.449-7-15-7zm-15 7v4a14.9 14.9 0 001.744 7H11V43h26v5.417A4.7 4.7 0 0035 52zM15 19h3a1 1 0 00.895-.553L22.618 11h2.764l3.723 7.447A1 1 0 0030 19h3v2H15v-2zm-2 4h22v4H13v-4zm-.941 14.715A17.44 17.44 0 0014.963 29h18.074a17.44 17.44 0 002.9 8.715L37 39.3V41H11v-1.7l1.059-1.585zM35 69H13a2 2 0 01-2-2v-2h26v2a2 2 0 01-2 2zm15 0a13.015 13.015 0 01-13-13v-.417C39.544 57.658 44.3 59 50 59s10.456-1.342 13-3.417V56a13.015 13.015 0 01-13 13zM38.378 54.13C39.6 52.622 43.8 51 50 51s10.4 1.622 11.622 3.13C59.565 55.712 55.354 57 50 57s-9.565-1.288-11.622-2.87zm24.514-1.572C60.622 50.235 55.192 49 50 49c-5.192 0-10.622 1.235-12.892 3.558A1.736 1.736 0 0137 52c0-2.365 5.339-5 13-5s13 2.635 13 5c-.005.19-.042.38-.108.558z"/><path d="M46.707 52.293l-1.414 1.414 2 2 1.414-1.415-2-2zm5.585 0l-2 2 1.415 1.414 2-2-1.415-1.414zm-21.737-3.125l-6-4a1 1 0 00-1.11 0l-6 4A1 1 0 0017 50v6a1 1 0 00.445.832l6 4a1 1 0 001.11 0l6-4A1 1 0 0031 56v-6a1 1 0 00-.445-.832zM29 55.465L24 58.8l-5-3.333v-4.93l5-3.337 5 3.333v4.932zm41.316-17.414A4.738 4.738 0 0167.2 34.69l-.233-.932a1 1 0 00-1.94 0l-.233.931a4.738 4.738 0 01-3.113 3.362 1 1 0 000 1.9A4.738 4.738 0 0164.8 43.31l.233.932a1 1 0 001.94 0l.233-.931a4.738 4.738 0 013.113-3.362 1 1 0 000-1.9l-.003.002zM66 41.022A6.711 6.711 0 0064.164 39 6.711 6.711 0 0066 36.978 6.711 6.711 0 0067.836 39 6.711 6.711 0 0066 41.022zM41.684 29.949A4.737 4.737 0 0144.8 33.31l.233.932a1 1 0 001.94 0l.233-.931a4.738 4.738 0 013.113-3.362 1 1 0 000-1.9A4.739 4.739 0 0147.2 24.69l-.233-.932a1 1 0 00-1.94 0l-.233.931a4.738 4.738 0 01-3.113 3.362 1 1 0 000 1.9l.003-.002zM46 26.978A6.711 6.711 0 0047.836 29 6.711 6.711 0 0046 31.022 6.711 6.711 0 0044.164 29 6.711 6.711 0 0046 26.978z"/></g></symbol><symbol fill="none" viewBox="0 0 80 80" id="footer-cat-9-80" xmlns="http://www.w3.org/2000/svg"><g opacity=".32" fill="currentcolor"><path d="M47.517 72a3.873 3.873 0 01-1.958-.53l-4.717-2.716a1.723 1.723 0 00-1.708 0l-4.717 2.716a3.927 3.927 0 01-5.35-1.435l-2.724-4.726a1.716 1.716 0 00-1.479-.854h-5.402a3.923 3.923 0 01-3.915-3.916v-5.41c0-.611-.331-1.178-.854-1.48l-4.732-2.724a3.883 3.883 0 01-1.825-2.377 3.887 3.887 0 01.39-2.974l2.716-4.718a1.724 1.724 0 000-1.708l-2.716-4.719a3.892 3.892 0 01-.39-2.973 3.883 3.883 0 011.825-2.378l4.725-2.723c.523-.302.854-.87.854-1.48v-5.41a3.923 3.923 0 013.915-3.916h5.41c.61 0 1.177-.332 1.479-.854l2.723-4.733a3.882 3.882 0 012.377-1.826 3.885 3.885 0 012.973.39l4.717 2.716c.53.302 1.185.302 1.708 0l4.717-2.716c1.877-1.075 4.276-.434 5.35 1.436l2.724 4.725c.301.523.868.854 1.479.854h5.409a3.923 3.923 0 013.915 3.916v5.41c0 .612.331 1.178.854 1.48l4.732 2.724a3.92 3.92 0 011.45 5.351l-2.716 4.711a1.757 1.757 0 00.008 1.715l2.715 4.719a3.89 3.89 0 01.383 2.974 3.888 3.888 0 01-1.832 2.377l-4.733 2.724c-.53.309-.86.876-.86 1.48v5.402a3.923 3.923 0 01-3.916 3.916h-5.41c-.61 0-1.177.332-1.478.854l-2.724 4.733a3.882 3.882 0 01-2.377 1.826 3.39 3.39 0 01-1.015.147zm-7.522-5.683a3.94 3.94 0 011.958.523l4.717 2.716c.398.228.861.295 1.303.17.442-.118.81-.398 1.038-.796l2.723-4.733a3.91 3.91 0 013.392-1.965h5.402c.942 0 1.708-.765 1.708-1.708v-5.41A3.93 3.93 0 0164.2 51.72l4.732-2.724c.397-.228.677-.596.795-1.038a1.716 1.716 0 00-.17-1.303l-2.715-4.718a3.963 3.963 0 01-.022-3.902l.007-.014 2.716-4.719a1.711 1.711 0 00-.633-2.333l-4.732-2.724a3.912 3.912 0 01-1.965-3.393V19.45a1.71 1.71 0 00-1.708-1.708h-5.409a3.928 3.928 0 01-3.393-1.958l-2.723-4.726a1.684 1.684 0 00-1.037-.795 1.714 1.714 0 00-1.303.17l-4.718 2.716a3.952 3.952 0 01-3.915 0l-4.717-2.716a1.717 1.717 0 00-1.303-.177c-.441.118-.81.397-1.037.795l-2.724 4.733a3.91 3.91 0 01-3.392 1.966h-5.41c-.942 0-1.707.765-1.707 1.707v5.41a3.93 3.93 0 01-1.957 3.394l-4.725 2.724a1.685 1.685 0 00-.795 1.038c-.118.441-.059.905.17 1.302l2.715 4.719a3.954 3.954 0 010 3.916l-2.716 4.718a1.718 1.718 0 00-.177 1.303c.118.442.398.81.795 1.038l4.732 2.724a3.912 3.912 0 011.966 3.393v5.41c0 .943.765 1.708 1.707 1.708h5.41c1.397 0 2.693.75 3.392 1.958l2.723 4.726a1.708 1.708 0 002.333.626l4.717-2.717a4.06 4.06 0 011.987-.53z"/><path d="M51.756 29.785l-1.561-1.562-21.96 21.965 1.56 1.562 21.961-21.965zm-20.084 7.361a5.488 5.488 0 01-5.483-5.484 5.488 5.488 0 015.483-5.484 5.488 5.488 0 015.483 5.484 5.488 5.488 0 01-5.483 5.484zm0-8.76a3.283 3.283 0 00-3.275 3.276 3.283 3.283 0 003.275 3.276 3.283 3.283 0 003.275-3.276 3.283 3.283 0 00-3.275-3.276zm16.654 25.403a5.488 5.488 0 01-5.483-5.484 5.488 5.488 0 015.483-5.484 5.488 5.488 0 015.483 5.484 5.488 5.488 0 01-5.483 5.484zm0-8.76a3.283 3.283 0 00-3.275 3.276 3.283 3.283 0 003.275 3.276 3.283 3.283 0 003.275-3.276 3.283 3.283 0 00-3.275-3.276z"/></g></symbol><symbol fill="none" viewBox="0 0 32 32" id="star" xmlns="http://www.w3.org/2000/svg"><path d="M6.464 30l3.682-10.717-8.813-5.76h10.733L16 2l3.934 11.522h10.733l-8.813 5.761L25.474 30 16 23.124 6.464 30z" fill="currentcolor"/><path d="M6.464 30l3.682-10.717-8.813-5.76h10.733L16 2l3.934 11.522h10.733l-8.813 5.761L25.474 30 16 23.124 6.464 30zm3.462-4.677L16 20.801l6.075 4.522-2.487-6.752 5.54-3.531h-6.641L16 7.575l-2.518 7.465H6.81l5.602 3.53-2.486 6.753z" fill="#F15526"/></symbol></svg>