<svg width="552" height="224" viewBox="0 0 552 224" fill="none" xmlns="http://www.w3.org/2000/svg">
<g clip-path="url(#clip0)">
<mask id="path-1-inside-1" fill="white">
<path fill-rule="evenodd" clip-rule="evenodd" d="M371 5C373.209 5 375 3.20914 375 1C375 0.6547 374.956 0.31962 374.874 0H552V224H374.874C374.43 222.275 372.864 221 371 221C369.136 221 367.57 222.275 367.126 224H0V0H367.126C367.044 0.31962 367 0.6547 367 1C367 3.20914 368.791 5 371 5ZM375 17C375 19.2091 373.209 21 371 21C368.791 21 367 19.2091 367 17C367 14.7909 368.791 13 371 13C373.209 13 375 14.7909 375 17ZM371 37C373.209 37 375 35.2091 375 33C375 30.7909 373.209 29 371 29C368.791 29 367 30.7909 367 33C367 35.2091 368.791 37 371 37ZM375 49C375 51.2091 373.209 53 371 53C368.791 53 367 51.2091 367 49C367 46.7909 368.791 45 371 45C373.209 45 375 46.7909 375 49ZM371 69C373.209 69 375 67.2091 375 65C375 62.7909 373.209 61 371 61C368.791 61 367 62.7909 367 65C367 67.2091 368.791 69 371 69ZM375 81C375 83.2091 373.209 85 371 85C368.791 85 367 83.2091 367 81C367 78.7909 368.791 77 371 77C373.209 77 375 78.7909 375 81ZM371 101C373.209 101 375 99.2091 375 97C375 94.7909 373.209 93 371 93C368.791 93 367 94.7909 367 97C367 99.2091 368.791 101 371 101ZM375 113C375 115.209 373.209 117 371 117C368.791 117 367 115.209 367 113C367 110.791 368.791 109 371 109C373.209 109 375 110.791 375 113ZM371 133C373.209 133 375 131.209 375 129C375 126.791 373.209 125 371 125C368.791 125 367 126.791 367 129C367 131.209 368.791 133 371 133ZM375 145C375 147.209 373.209 149 371 149C368.791 149 367 147.209 367 145C367 142.791 368.791 141 371 141C373.209 141 375 142.791 375 145ZM371 165C373.209 165 375 163.209 375 161C375 158.791 373.209 157 371 157C368.791 157 367 158.791 367 161C367 163.209 368.791 165 371 165ZM375 177C375 179.209 373.209 181 371 181C368.791 181 367 179.209 367 177C367 174.791 368.791 173 371 173C373.209 173 375 174.791 375 177ZM371 197C373.209 197 375 195.209 375 193C375 190.791 373.209 189 371 189C368.791 189 367 190.791 367 193C367 195.209 368.791 197 371 197ZM375 209C375 211.209 373.209 213 371 213C368.791 213 367 211.209 367 209C367 206.791 368.791 205 371 205C373.209 205 375 206.791 375 209Z"/>
</mask>
<path fill-rule="evenodd" clip-rule="evenodd" d="M371 5C373.209 5 375 3.20914 375 1C375 0.6547 374.956 0.31962 374.874 0H552V224H374.874C374.43 222.275 372.864 221 371 221C369.136 221 367.57 222.275 367.126 224H0V0H367.126C367.044 0.31962 367 0.6547 367 1C367 3.20914 368.791 5 371 5ZM375 17C375 19.2091 373.209 21 371 21C368.791 21 367 19.2091 367 17C367 14.7909 368.791 13 371 13C373.209 13 375 14.7909 375 17ZM371 37C373.209 37 375 35.2091 375 33C375 30.7909 373.209 29 371 29C368.791 29 367 30.7909 367 33C367 35.2091 368.791 37 371 37ZM375 49C375 51.2091 373.209 53 371 53C368.791 53 367 51.2091 367 49C367 46.7909 368.791 45 371 45C373.209 45 375 46.7909 375 49ZM371 69C373.209 69 375 67.2091 375 65C375 62.7909 373.209 61 371 61C368.791 61 367 62.7909 367 65C367 67.2091 368.791 69 371 69ZM375 81C375 83.2091 373.209 85 371 85C368.791 85 367 83.2091 367 81C367 78.7909 368.791 77 371 77C373.209 77 375 78.7909 375 81ZM371 101C373.209 101 375 99.2091 375 97C375 94.7909 373.209 93 371 93C368.791 93 367 94.7909 367 97C367 99.2091 368.791 101 371 101ZM375 113C375 115.209 373.209 117 371 117C368.791 117 367 115.209 367 113C367 110.791 368.791 109 371 109C373.209 109 375 110.791 375 113ZM371 133C373.209 133 375 131.209 375 129C375 126.791 373.209 125 371 125C368.791 125 367 126.791 367 129C367 131.209 368.791 133 371 133ZM375 145C375 147.209 373.209 149 371 149C368.791 149 367 147.209 367 145C367 142.791 368.791 141 371 141C373.209 141 375 142.791 375 145ZM371 165C373.209 165 375 163.209 375 161C375 158.791 373.209 157 371 157C368.791 157 367 158.791 367 161C367 163.209 368.791 165 371 165ZM375 177C375 179.209 373.209 181 371 181C368.791 181 367 179.209 367 177C367 174.791 368.791 173 371 173C373.209 173 375 174.791 375 177ZM371 197C373.209 197 375 195.209 375 193C375 190.791 373.209 189 371 189C368.791 189 367 190.791 367 193C367 195.209 368.791 197 371 197ZM375 209C375 211.209 373.209 213 371 213C368.791 213 367 211.209 367 209C367 206.791 368.791 205 371 205C373.209 205 375 206.791 375 209Z" fill="#FFF8F5"/>
<path d="M374.874 0V-1H373.584L373.906 0.249289L374.874 0ZM552 0H553V-1H552V0ZM552 224V225H553V224H552ZM374.874 224L373.906 224.249L374.099 225H374.874V224ZM367.126 224V225H367.901L368.094 224.249L367.126 224ZM0 224H-1V225H0V224ZM0 0V-1H-1V0H0ZM367.126 0L368.094 0.249289L368.416 -1H367.126V0ZM374 1C374 2.65685 372.657 4 371 4V6C373.761 6 376 3.76142 376 1H374ZM373.906 0.249289C373.967 0.488104 374 0.739445 374 1H376C376 0.569955 375.945 0.151135 375.842 -0.249289L373.906 0.249289ZM552 -1H374.874V1H552V-1ZM553 224V0H551V224H553ZM374.874 225H552V223H374.874V225ZM371 222C372.397 222 373.572 222.955 373.906 224.249L375.842 223.751C375.287 221.594 373.331 220 371 220V222ZM368.094 224.249C368.428 222.955 369.603 222 371 222V220C368.669 220 366.713 221.594 366.158 223.751L368.094 224.249ZM0 225H367.126V223H0V225ZM-1 0V224H1V0H-1ZM367.126 -1H0V1H367.126V-1ZM368 1C368 0.739445 368.033 0.488104 368.094 0.249289L366.158 -0.249289C366.055 0.151135 366 0.569955 366 1H368ZM371 4C369.343 4 368 2.65685 368 1H366C366 3.76142 368.239 6 371 6V4ZM371 22C373.761 22 376 19.7614 376 17H374C374 18.6569 372.657 20 371 20V22ZM366 17C366 19.7614 368.239 22 371 22V20C369.343 20 368 18.6569 368 17H366ZM371 12C368.239 12 366 14.2386 366 17H368C368 15.3431 369.343 14 371 14V12ZM376 17C376 14.2386 373.761 12 371 12V14C372.657 14 374 15.3431 374 17H376ZM374 33C374 34.6569 372.657 36 371 36V38C373.761 38 376 35.7614 376 33H374ZM371 30C372.657 30 374 31.3431 374 33H376C376 30.2386 373.761 28 371 28V30ZM368 33C368 31.3431 369.343 30 371 30V28C368.239 28 366 30.2386 366 33H368ZM371 36C369.343 36 368 34.6569 368 33H366C366 35.7614 368.239 38 371 38V36ZM371 54C373.761 54 376 51.7614 376 49H374C374 50.6569 372.657 52 371 52V54ZM366 49C366 51.7614 368.239 54 371 54V52C369.343 52 368 50.6569 368 49H366ZM371 44C368.239 44 366 46.2386 366 49H368C368 47.3431 369.343 46 371 46V44ZM376 49C376 46.2386 373.761 44 371 44V46C372.657 46 374 47.3431 374 49H376ZM374 65C374 66.6569 372.657 68 371 68V70C373.761 70 376 67.7614 376 65H374ZM371 62C372.657 62 374 63.3431 374 65H376C376 62.2386 373.761 60 371 60V62ZM368 65C368 63.3431 369.343 62 371 62V60C368.239 60 366 62.2386 366 65H368ZM371 68C369.343 68 368 66.6569 368 65H366C366 67.7614 368.239 70 371 70V68ZM371 86C373.761 86 376 83.7614 376 81H374C374 82.6569 372.657 84 371 84V86ZM366 81C366 83.7614 368.239 86 371 86V84C369.343 84 368 82.6569 368 81H366ZM371 76C368.239 76 366 78.2386 366 81H368C368 79.3431 369.343 78 371 78V76ZM376 81C376 78.2386 373.761 76 371 76V78C372.657 78 374 79.3431 374 81H376ZM374 97C374 98.6569 372.657 100 371 100V102C373.761 102 376 99.7614 376 97H374ZM371 94C372.657 94 374 95.3431 374 97H376C376 94.2386 373.761 92 371 92V94ZM368 97C368 95.3431 369.343 94 371 94V92C368.239 92 366 94.2386 366 97H368ZM371 100C369.343 100 368 98.6569 368 97H366C366 99.7614 368.239 102 371 102V100ZM371 118C373.761 118 376 115.761 376 113H374C374 114.657 372.657 116 371 116V118ZM366 113C366 115.761 368.239 118 371 118V116C369.343 116 368 114.657 368 113H366ZM371 108C368.239 108 366 110.239 366 113H368C368 111.343 369.343 110 371 110V108ZM376 113C376 110.239 373.761 108 371 108V110C372.657 110 374 111.343 374 113H376ZM374 129C374 130.657 372.657 132 371 132V134C373.761 134 376 131.761 376 129H374ZM371 126C372.657 126 374 127.343 374 129H376C376 126.239 373.761 124 371 124V126ZM368 129C368 127.343 369.343 126 371 126V124C368.239 124 366 126.239 366 129H368ZM371 132C369.343 132 368 130.657 368 129H366C366 131.761 368.239 134 371 134V132ZM371 150C373.761 150 376 147.761 376 145H374C374 146.657 372.657 148 371 148V150ZM366 145C366 147.761 368.239 150 371 150V148C369.343 148 368 146.657 368 145H366ZM371 140C368.239 140 366 142.239 366 145H368C368 143.343 369.343 142 371 142V140ZM376 145C376 142.239 373.761 140 371 140V142C372.657 142 374 143.343 374 145H376ZM374 161C374 162.657 372.657 164 371 164V166C373.761 166 376 163.761 376 161H374ZM371 158C372.657 158 374 159.343 374 161H376C376 158.239 373.761 156 371 156V158ZM368 161C368 159.343 369.343 158 371 158V156C368.239 156 366 158.239 366 161H368ZM371 164C369.343 164 368 162.657 368 161H366C366 163.761 368.239 166 371 166V164ZM371 182C373.761 182 376 179.761 376 177H374C374 178.657 372.657 180 371 180V182ZM366 177C366 179.761 368.239 182 371 182V180C369.343 180 368 178.657 368 177H366ZM371 172C368.239 172 366 174.239 366 177H368C368 175.343 369.343 174 371 174V172ZM376 177C376 174.239 373.761 172 371 172V174C372.657 174 374 175.343 374 177H376ZM374 193C374 194.657 372.657 196 371 196V198C373.761 198 376 195.761 376 193H374ZM371 190C372.657 190 374 191.343 374 193H376C376 190.239 373.761 188 371 188V190ZM368 193C368 191.343 369.343 190 371 190V188C368.239 188 366 190.239 366 193H368ZM371 196C369.343 196 368 194.657 368 193H366C366 195.761 368.239 198 371 198V196ZM371 214C373.761 214 376 211.761 376 209H374C374 210.657 372.657 212 371 212V214ZM366 209C366 211.761 368.239 214 371 214V212C369.343 212 368 210.657 368 209H366ZM371 204C368.239 204 366 206.239 366 209H368C368 207.343 369.343 206 371 206V204ZM376 209C376 206.239 373.761 204 371 204V206C372.657 206 374 207.343 374 209H376Z" fill="#F15526" mask="url(#path-1-inside-1)"/>
<g opacity="0.08">
<path d="M143.1 183.977C130.96 184.359 119.155 179.977 110.225 171.773C105.514 167.936 103.232 166.238 98.6 166.238C93.5982 166.238 91.4557 168.161 87.0925 172.509C82.2385 177.351 75.5853 183.977 63 183.977C50.4147 183.977 43.7615 177.351 38.9075 172.509C34.5443 168.161 32.4018 166.238 27.4 166.238C22.7676 166.238 20.486 167.936 15.7753 171.773C6.84499 179.977 -4.96022 184.359 -17.1 183.977C-19.4604 183.977 -21.7242 183.042 -23.3932 181.379C-25.0623 179.716 -26 177.46 -26 175.108C-26 172.755 -25.0623 170.499 -23.3932 168.836C-21.7242 167.173 -19.4604 166.238 -17.1 166.238C-5.5745 166.238 -0.89911 162.436 4.51543 158.028C9.73461 153.783 16.2272 148.5 27.4 148.5C39.9853 148.5 46.6385 155.126 51.4925 159.968C55.8557 164.316 57.9982 166.238 63 166.238C68.0018 166.238 70.1443 164.316 74.5075 159.968C79.3615 155.126 86.015 148.5 98.6 148.5C109.773 148.5 116.265 153.783 121.485 158.028C126.899 162.436 131.575 166.238 143.1 166.238C145.46 166.238 147.724 167.173 149.393 168.836C151.062 170.499 152 172.755 152 175.108C152 177.46 151.062 179.716 149.393 181.379C147.724 183.042 145.46 183.977 143.1 183.977Z" fill="#F15526"/>
<path d="M143.1 130.727C130.96 131.109 119.155 126.727 110.225 118.523C105.514 114.686 103.232 112.988 98.6 112.988C93.5982 112.988 91.4557 114.911 87.0925 119.259C82.2385 124.101 75.5853 130.727 63 130.727C50.4147 130.727 43.7615 124.101 38.9075 119.259C34.5443 114.911 32.4018 112.988 27.4 112.988C22.7676 112.988 20.486 114.686 15.7753 118.523C6.84499 126.727 -4.96022 131.109 -17.1 130.727C-19.4604 130.727 -21.7242 129.792 -23.3932 128.129C-25.0623 126.466 -26 124.21 -26 121.858C-26 119.505 -25.0623 117.249 -23.3932 115.586C-21.7242 113.923 -19.4604 112.988 -17.1 112.988C-5.5745 112.988 -0.89911 109.186 4.51543 104.778C9.73461 100.533 16.2272 95.25 27.4 95.25C39.9853 95.25 46.6385 101.876 51.4925 106.718C55.8557 111.066 57.9982 112.988 63 112.988C68.0018 112.988 70.1443 111.066 74.5075 106.718C79.3615 101.876 86.015 95.25 98.6 95.25C109.773 95.25 116.265 100.533 121.485 104.778C126.899 109.186 131.575 112.988 143.1 112.988C145.46 112.988 147.724 113.923 149.393 115.586C151.062 117.249 152 119.505 152 121.858C152 124.21 151.062 126.466 149.393 128.129C147.724 129.792 145.46 130.727 143.1 130.727Z" fill="#F15526"/>
<path d="M143.1 77.4769C130.96 77.8592 119.155 73.4769 110.225 65.2731C105.514 61.436 103.232 59.7385 98.6 59.7385C93.5982 59.7385 91.4557 61.6613 87.0925 66.0092C82.2385 70.851 75.5853 77.4769 63 77.4769C50.4147 77.4769 43.7615 70.851 38.9075 66.0092C34.5443 61.6613 32.4018 59.7385 27.4 59.7385C22.7676 59.7385 20.486 61.436 15.7753 65.2731C6.84499 73.477 -4.96022 77.8593 -17.1 77.4769C-19.4604 77.4769 -21.7242 76.5425 -23.3932 74.8792C-25.0623 73.2159 -26 70.96 -26 68.6077C-26 66.2554 -25.0623 63.9995 -23.3932 62.3362C-21.7242 60.6729 -19.4604 59.7385 -17.1 59.7385C-5.5745 59.7385 -0.89911 55.9362 4.51543 51.5275C9.73461 47.2834 16.2272 42 27.4 42C39.9853 42 46.6385 48.626 51.4925 53.4677C55.8557 57.8156 57.9982 59.7385 63 59.7385C68.0018 59.7385 70.1443 57.8156 74.5075 53.4677C79.3615 48.626 86.015 42 98.6 42C109.773 42 116.265 47.2834 121.485 51.5275C126.899 55.9362 131.575 59.7385 143.1 59.7385C145.46 59.7385 147.724 60.6729 149.393 62.3362C151.062 63.9995 152 66.2554 152 68.6077C152 70.96 151.062 73.2159 149.393 74.8792C147.724 76.5425 145.46 77.4769 143.1 77.4769Z" fill="#F15526"/>
</g>
</g>
<defs>
<clipPath id="clip0">
<rect width="552" height="224" fill="white"/>
</clipPath>
</defs>
</svg>
