<svg width="180" height="64" viewBox="0 0 180 64" fill="none" xmlns="http://www.w3.org/2000/svg">
<rect x="101.034" y="17.2673" width="55.2939" height="31.9639" fill="#FFD553"/>
<path d="M54.9255 14.1456L63.1002 8.54272H83.9502V19.4729H102.504V47.6709H126.844V39.1289L131.345 38.4859C138.785 36.7408 139.428 43.6295 138.693 45.0073L141.724 47.6709V55.9375H126.293V48.865H54.9255V14.1456Z" fill="white"/>
<path fill-rule="evenodd" clip-rule="evenodd" d="M95.724 0.101038C79.5308 0.854577 65.8264 4.07099 53.1973 10.082C44.6735 14.1391 38.2539 18.5359 32.0942 24.5361L29.3598 27.1998L28.9707 26.6603C26.0758 22.6475 21.5028 19.4392 16.1308 17.6522C12.9076 16.5799 11.5034 16.3595 8.00702 16.3776C4.63868 16.3951 3.10975 16.6699 0.995903 17.6378L0.0138399 18.0873L0.392263 19.0474C2.25682 23.778 7.48108 28.4954 13.2632 30.6697C13.8305 30.883 14.3032 31.1402 14.314 31.2412C14.3247 31.3422 13.9433 31.5575 13.4664 31.7196C10.6001 32.6939 6.95423 34.9108 4.70647 37.046C2.90731 38.7549 1.68698 40.3754 0.643014 42.4414C-0.311494 44.331 -0.333537 44.2648 1.47187 44.9403C7.06592 47.0334 13.6867 46.3701 20.2933 43.0546C23.8359 41.2768 26.8698 38.8181 28.6364 36.293C29.0958 35.6362 29.5369 35.0236 29.6164 34.9316C29.6965 34.839 30.7714 35.7762 32.0187 37.0259C41.4984 46.5242 53.3959 53.6029 68.0966 58.4908C79.4981 62.2818 93.3251 64.237 106.9 63.9772C125.159 63.628 140.043 60.1676 154.56 52.8968C163.829 48.2541 172.039 42.1942 177.801 35.7419C180.206 33.0479 180.135 33.4644 178.551 31.3757C177.805 30.3927 175.873 28.234 174.256 26.5787C167.959 20.131 161.365 15.3932 152.763 11.1368C141.792 5.7085 130.547 2.45773 117.493 0.9411C110.716 0.153759 101.9 -0.186454 95.724 0.101038ZM70.0978 9.81677C70.9116 10.0817 71.0442 10.1994 71.2617 10.8505C71.6038 11.875 71.4666 14.5202 71.0499 14.9371C70.7826 15.2043 70.6349 15.2154 69.9124 15.0221C68.7882 14.7214 67.7102 14.7427 67.0607 15.0787C66.1677 15.5405 65.907 16.2911 65.8179 18.6577L65.7382 20.7703L68.561 20.7223C72.298 20.6588 72.3022 20.661 72.3022 22.6437C72.3022 24.0304 72.2631 24.184 71.7465 24.8218C70.8109 25.9769 70.21 26.1894 67.88 26.1894H65.84L65.7186 31.4549C65.6517 34.3507 65.5971 38.5508 65.5971 40.7885C65.5971 43.8407 65.5374 44.9385 65.3578 45.1839C64.8111 45.9316 60.1286 46.0157 59.2584 45.2934C59.0214 45.0966 58.9839 43.7773 58.9839 35.6276V26.1894L57.5602 26.1867C55.9997 26.1836 55.8487 26.1303 55.4853 25.4546C55.1435 24.8187 55.1569 22.0387 55.5054 21.3214C55.771 20.7749 55.787 20.7699 57.4704 20.7174L59.1676 20.6647L59.1707 18.6967C59.1814 12.1804 62.1697 9.00353 67.8934 9.42366C68.6006 9.47546 69.5926 9.65255 70.0978 9.81677ZM79.7384 9.61085C80.8336 10.161 81.2117 10.9458 81.2113 12.6687C81.2109 15.4182 80.4115 16.1803 77.5349 16.1739C76.1195 16.1708 75.6663 16.0997 75.1532 15.8001C74.1515 15.215 73.7957 14.4266 73.7975 12.7962C73.8005 10.1085 74.6637 9.30021 77.5377 9.29341C78.6639 9.29066 79.2773 9.37902 79.7384 9.61085ZM147.436 19.8567C149.403 20.3942 150.839 21.202 152.135 22.4991C153.509 23.8759 154.294 25.313 154.903 27.5672C155.481 29.7121 155.484 34.4499 154.908 36.5685C153.7 41.0093 150.866 43.9311 146.701 45.0279C145.08 45.4547 141.474 45.5739 139.947 45.2511L138.705 44.9884L138.299 45.8303C138.046 46.355 136.98 47.5887 135.469 49.1061L133.044 51.5401H136.051C138.949 51.5401 139.067 51.5548 139.342 51.9485C139.709 52.4722 139.718 54.0862 139.357 54.6022C139.087 54.9862 139.026 54.9895 133.616 54.8974C129.716 54.8313 128.08 54.7411 127.911 54.5833C127.548 54.242 127.445 53.1751 127.69 52.2685C127.874 51.5838 128.331 51.0217 130.458 48.8618C133.155 46.123 133.739 45.2403 133.746 43.891C133.755 42.2386 132.357 41.7357 130.246 42.6318C128.506 43.37 128.204 43.3451 128.01 42.4469C127.602 40.5594 128.285 39.4934 130.277 38.908C130.873 38.7327 131.361 38.5066 131.36 38.4055C131.358 38.3045 131.229 37.7672 131.071 37.2115C130.903 36.6189 130.744 35.0997 130.687 33.5375C130.606 31.2978 130.651 30.5815 130.97 29.0368C132.032 23.8961 135.271 20.6285 140.271 19.6521C141.931 19.3281 145.917 19.4419 147.436 19.8567ZM98.0756 20.9492C98.9764 21.2363 99.8409 21.65 100.188 21.9603L100.776 22.4853V24.4441C100.776 26.1503 100.731 26.4354 100.43 26.6557C100.134 26.8723 99.9881 26.8666 99.4195 26.616C96.1993 25.1973 94.6172 24.8653 92.9031 25.2489C91.5584 25.55 90.9478 26.2277 90.9478 27.4191C90.9478 28.656 91.7901 29.4169 94.1626 30.3229C99.6212 32.4073 101.433 33.9997 101.998 37.21C102.369 39.316 101.648 41.8576 100.236 43.4206C99.3042 44.452 97.9973 45.2489 96.3199 45.8087C95.0596 46.2292 94.5935 46.2845 92.2337 46.2927C89.9904 46.3006 89.3377 46.2358 88.0979 45.8816C86.3538 45.3836 85.3381 44.8431 84.8111 44.1329C84.5032 43.718 84.416 43.2967 84.3741 42.0204C84.3177 40.3067 84.5409 39.5616 85.1454 39.4451C85.3337 39.4087 86.2122 39.7234 87.0976 40.1443C89.0981 41.0949 90.337 41.4316 91.845 41.4344C94.2026 41.4388 95.5403 40.5447 95.5403 38.9643C95.5403 37.5236 94.8507 36.9684 91.3251 35.5709C87.7512 34.1543 86.1896 32.9877 85.214 31.0057C84.6528 29.866 84.6101 29.6493 84.6111 27.9385C84.612 26.3256 84.6733 25.9666 85.1063 25.0408C86.1492 22.811 88.2805 21.2167 91.0397 20.602C92.9825 20.1694 96.1124 20.3237 98.0756 20.9492ZM79.8001 21.0758C80.6701 21.5393 80.6486 21.2312 80.6547 33.32C80.6584 40.4474 80.5928 44.8942 80.4807 45.1034C80.2 45.6279 79.2872 45.8454 77.3725 45.8443C75.2701 45.8432 74.2823 45.6093 74.0317 45.0535C73.9138 44.7919 73.9009 40.652 73.9948 33.2L74.1392 21.7485L74.6547 21.3054C75.1349 20.8924 75.3145 20.8621 77.2845 20.8621C78.5396 20.8621 79.5619 20.949 79.8001 21.0758ZM111.409 21.8418L111.89 22.1565V26.4692V30.782H115.196H118.503V26.5853C118.503 21.6588 118.42 21.8639 120.537 21.5705C122.154 21.3464 124.638 21.6238 125.148 22.085C125.461 22.3685 125.484 22.8345 125.483 29.1112C125.483 32.8085 125.428 38.1346 125.361 40.9468L125.24 46.0598L124.773 46.366C124.396 46.6125 123.834 46.6721 121.877 46.6721C119.693 46.6721 119.396 46.6331 118.93 46.2846L118.411 45.897V41.2786V36.6602H115.15L111.89 36.6604V40.4924C111.89 42.6001 111.836 44.7175 111.77 45.1979C111.599 46.4479 111.08 46.6351 108.015 46.5517C106.035 46.4979 105.624 46.4355 105.296 46.1384C104.91 45.7897 104.909 45.7477 104.909 34.0886C104.909 22.7035 104.919 22.3799 105.269 22.063C105.825 21.5602 106.661 21.4248 108.884 21.4781C110.444 21.5156 111.043 21.6017 111.409 21.8418ZM141.543 24.8925C140.525 25.1363 139.438 25.8841 138.881 26.7253C136.921 29.6836 137.045 36.2463 139.104 38.5918C140.013 39.6264 141.125 40.0462 142.935 40.0377C144.765 40.0293 145.882 39.5981 146.809 38.5429C148.088 37.0864 148.531 35.1465 148.403 31.5642C148.294 28.5134 147.918 27.3045 146.694 26.0809C145.523 24.9103 143.46 24.4342 141.543 24.8925Z" fill="#E65C41"/>
</svg>
