<svg width="48" height="48" viewBox="0 0 48 48" fill="none" xmlns="http://www.w3.org/2000/svg">
<rect width="48" height="48" rx="24" fill="white"/>
<path fill-rule="evenodd" clip-rule="evenodd" d="M26.7 26.7C24.5 28.97 24.35 31.8 24.15 38C29.93 38 33.92 37.98 35.98 35.98C37.98 33.92 38 29.74 38 24.15C31.8 24.35 28.97 24.5 26.7 26.7ZM23.85 38C18.07 38 14.08 37.98 12.02 35.98C10.02 33.92 10 29.74 10 24.15C16.2 24.35 19.03 24.5 21.3 26.7C23.5 28.97 23.65 31.8 23.85 38ZM21.3 21.3C19.03 23.5 16.2 23.65 10 23.85C10 18.26 10.02 14.08 12.02 12.02C14.08 10.02 18.08 10 23.85 10C23.65 16.2 23.5 19.03 21.3 21.3ZM24.15 10C24.34 16.2 24.5 19.03 26.7 21.3C28.97 23.5 31.8 23.65 38 23.85C38 18.26 37.98 14.08 35.98 12.02C33.92 10.02 29.93 10 24.15 10Z" fill="#414141"/>
</svg>
