<svg width="41" height="40" viewBox="0 0 41 40" fill="none" xmlns="http://www.w3.org/2000/svg">
<path fill-rule="evenodd" clip-rule="evenodd" d="M24.1347 8C26.65 8 28.5 8 32 10C35.5 12 41 20 41 20C41 20 36 32 24.1347 32H22.7481C20.2113 32 18.0292 31.813 16.2019 31.439C14.396 31.0442 12.8697 30.5351 11.6228 29.9117C10.3759 29.2675 9.36548 28.5403 8.59154 27.7299C7.83911 26.9195 7.25866 26.0883 6.85019 25.2364C6.44172 24.3636 6.17297 23.5117 6.04399 22.6805C6.04399 22.6805 3.4254 27.6083 0.962311 28.7591C0.461945 28.9929 0 28.5497 0 27.9974V11.8156C0 11.2633 0.462124 10.8203 0.961655 11.0559C3.42493 12.2175 6.04399 17.1948 6.04399 17.1948C6.17297 16.3429 6.44172 15.5013 6.85019 14.6701C7.25866 13.8182 7.83911 12.9974 8.59154 12.2078C9.36548 11.3974 10.3759 10.6805 11.6228 10.0571C12.8697 9.43377 14.396 8.93507 16.2019 8.56104C18.0292 8.18701 20.2113 8 22.7481 8H24.1347ZM29.5 20C30.8807 20 32 18.8807 32 17.5C32 16.1193 30.8807 15 29.5 15C28.1193 15 27 16.1193 27 17.5C27 18.8807 28.1193 20 29.5 20Z" fill="#F15526"/>
</svg>
