<svg width="285" height="27" viewBox="0 0 285 27" fill="none" xmlns="http://www.w3.org/2000/svg">
<path d="M284.073 20.4299V26.6455H0C0 26.6455 69.5182 17.4834 77.4667 17.4834C85.421 17.4834 89.9899 21.3684 96.8136 20.3972C103.638 19.4259 106.562 16.5122 115.336 13.3265C124.103 10.1343 127.027 7.771 131.966 7.771C136.899 7.771 157.988 13.3265 157.988 13.3265C157.988 13.3265 162.121 12.6272 189.325 4.12532C216.524 -4.37658 202.089 11.656 206.684 11.656C211.272 11.656 231.334 0.000452373 246.75 0.000452373C262.165 0.000452373 271.296 18.4547 274.22 19.4259C274.76 19.6075 278.432 19.9635 284.073 20.4299" fill="white"/>
</svg>
