<svg width="69" height="68" viewBox="0 0 69 68" fill="none" xmlns="http://www.w3.org/2000/svg">
<circle cx="34.0007" cy="33.9997" r="33.0007" stroke="#F15526" stroke-width="2"/>
<path d="M16.2831 27.2822C16.5531 27.1688 16.8717 27.2336 17.0769 27.4388L20.2737 30.6356C24.4425 26.4722 29.6211 24.188 34.9293 24.188C38.0667 24.188 41.1177 24.9602 44.0067 26.483C46.9821 28.049 49.6443 30.3494 51.9231 33.314L52.0905 33.53C52.2903 33.7946 52.2903 34.1564 52.0905 34.421L51.9231 34.637C49.6443 37.6016 46.9767 39.902 44.0067 41.468C41.1177 42.9908 38.0667 43.763 34.9293 43.763C32.2023 43.763 29.5131 43.1744 26.9535 42.008C24.5397 40.9118 22.2987 39.335 20.2791 37.31L17.0823 40.5068C16.8717 40.7174 16.5585 40.7768 16.2885 40.6634C16.0185 40.55 15.8403 40.2854 15.8403 39.9884V27.9572C15.8295 27.6602 16.0077 27.3956 16.2831 27.2822ZM40.0593 41.5328C43.9959 40.334 47.6193 37.7474 50.5893 33.9728C47.6193 30.1928 43.9959 27.6116 40.0593 26.4128C39.3681 28.832 39.0171 31.37 39.0171 33.9728C39.0117 36.5756 39.3681 39.1136 40.0593 41.5328ZM17.2875 38.228L19.7661 35.7494C19.9065 35.609 20.0955 35.5334 20.2899 35.5334C20.4843 35.5388 20.6733 35.6198 20.8083 35.7602C22.8333 37.904 25.1013 39.5564 27.5475 40.6688C29.9181 41.7488 32.4021 42.2942 34.9239 42.2942C36.1821 42.2942 37.4241 42.1592 38.6445 41.8946C37.9209 39.3566 37.5537 36.6944 37.5537 33.9674C37.5537 31.2404 37.9209 28.5782 38.6445 26.0402C37.4241 25.7756 36.1821 25.6406 34.9239 25.6406C32.4021 25.6406 29.9235 26.186 27.5475 27.266C25.0959 28.3784 22.8279 30.0308 20.8083 32.1746C20.6733 32.3204 20.4843 32.4014 20.2899 32.4014C20.0955 32.4014 19.9011 32.3258 19.7661 32.1854L17.2875 29.7068V38.228Z" fill="#F15526"/>
<path d="M43.6389 29.6582C44.9565 29.6582 46.0311 30.7328 46.0311 32.0504C46.0311 33.368 44.9565 34.4426 43.6389 34.4426C42.3213 34.4426 41.2467 33.368 41.2467 32.0504C41.2467 30.7274 42.3213 29.6582 43.6389 29.6582ZM43.6389 32.9792C44.1519 32.9792 44.5731 32.558 44.5731 32.045C44.5731 31.532 44.1519 31.1108 43.6389 31.1108C43.1259 31.1108 42.7047 31.532 42.7047 32.045C42.7047 32.5634 43.1205 32.9792 43.6389 32.9792Z" fill="#F15526"/>
</svg>
