<svg width="600" height="259" viewBox="0 0 600 259" fill="none" xmlns="http://www.w3.org/2000/svg">
<path d="M23.5029 71.7913C-37.6826 121.875 36.2882 204.197 68.0871 214.495C179.932 228.588 409.242 255.214 525.692 200.577C642.142 145.94 605.738 67.549 525.692 39.3632C422.072 2.87616 379.161 64.333 302.185 16.2004C225.21 -31.9323 182.566 40.977 158.168 56.967C120.338 96.8065 84.6884 21.7073 23.5029 71.7913Z" fill="#FF6400" fill-opacity="0.07"/>
<path d="M102.524 118.108C58.7036 153.976 111.681 212.93 134.455 220.306C214.556 230.398 378.786 249.466 462.186 210.338C545.586 171.21 519.514 115.07 462.186 94.8852C387.974 68.7551 357.242 112.767 302.113 78.2972C246.984 43.8271 216.443 96.0409 198.97 107.492C171.876 136.023 146.344 82.241 102.524 118.108Z" fill="#FF6400" fill-opacity="0.07"/>
<path d="M471.922 148.923L520.011 139.427L569.18 148.923C569.18 148.923 566.208 191.063 541.894 207.088C517.579 223.113 523.253 223.113 499.208 207.088C475.164 191.063 471.922 148.923 471.922 148.923Z" fill="#FF6400"/>
<path fill-rule="evenodd" clip-rule="evenodd" d="M469.93 147.427L520.005 137.538L571.16 147.418L571.045 149.052L569.179 148.923L520.009 139.427L471.921 148.923L470.056 149.064L469.93 147.427ZM471.921 148.923C471.921 148.923 475.163 191.063 499.207 207.088C511.201 215.082 515.801 219.088 520.416 219.107C525.053 219.126 529.707 215.119 541.893 207.088C566.207 191.063 569.179 148.923 569.179 148.923C571.045 149.052 571.045 149.053 571.045 149.054L571.044 149.056L571.044 149.064L571.042 149.091C571.041 149.103 571.04 149.119 571.038 149.137C571.037 149.153 571.036 149.17 571.034 149.19C571.027 149.275 571.017 149.4 571.003 149.562C570.974 149.886 570.929 150.359 570.863 150.964C570.732 152.173 570.517 153.91 570.183 156.042C569.515 160.303 568.367 166.157 566.446 172.527C562.628 185.182 555.645 200.25 542.928 208.631C540.406 210.294 538.177 211.804 536.197 213.146C533.481 214.987 531.233 216.511 529.332 217.678C526.03 219.705 523.322 220.96 520.448 220.96C517.571 220.96 514.879 219.702 511.609 217.673C509.727 216.506 507.502 214.981 504.816 213.139C502.859 211.798 500.656 210.288 498.163 208.626C485.588 200.245 478.606 185.181 474.756 172.531C472.818 166.164 471.645 160.311 470.956 156.051C470.611 153.92 470.387 152.183 470.248 150.974C470.179 150.37 470.131 149.897 470.101 149.573C470.085 149.412 470.074 149.287 470.067 149.201C470.063 149.158 470.061 149.125 470.059 149.102L470.057 149.076L470.056 149.065C470.056 149.065 470.056 149.064 471.921 148.923Z" fill="white"/>
<path d="M484.078 168.905L519.914 163.053L556.554 168.905C556.554 168.905 554.34 194.875 536.221 204.751C518.102 214.627 522.329 214.627 504.412 204.751C486.494 194.875 484.078 168.905 484.078 168.905Z" fill="white" fill-opacity="0.3"/>
<path d="M510.828 102.83H529.674L535.043 139.427L519.966 136.699L505.117 139.427L510.828 102.83Z" fill="#FF6400"/>
<path d="M503.18 140.031L489.691 142.669L496.157 118.58H506.525L503.18 140.031Z" fill="#FF6400"/>
<path d="M536.609 140.031L550.473 142.669L543.827 118.58H533.172L536.609 140.031Z" fill="#FF6400"/>
<path fill-rule="evenodd" clip-rule="evenodd" d="M521.482 145.912C522.774 145.912 523.82 146.949 523.82 148.228L523.82 205.209C523.82 206.488 522.774 207.525 521.482 207.525C520.191 207.525 519.144 206.488 519.144 205.209L519.144 148.228C519.144 146.949 520.191 145.912 521.482 145.912Z" fill="white"/>
<path fill-rule="evenodd" clip-rule="evenodd" d="M521.482 105.609C522.774 105.609 523.82 106.646 523.82 107.925L523.82 130.625C523.82 131.904 522.774 132.941 521.482 132.941C520.191 132.941 519.144 131.904 519.144 130.625L519.144 107.925C519.144 106.646 520.191 105.609 521.482 105.609Z" fill="white"/>
<g clip-path="url(#clip0)">
<path d="M538.312 158.362L537.895 156.242C537.878 156.155 537.817 156.08 537.732 156.044C537.647 156.007 537.548 156.013 537.469 156.059L535.544 157.173C535.432 157.238 535.38 157.369 535.42 157.489C535.459 157.609 535.58 157.688 535.711 157.679L536.463 157.629C535.745 158.554 534.665 158.934 533.426 159.032V152.969H534.044C534.144 153.04 534.267 153.084 534.401 153.084C534.732 153.084 535.001 152.826 535.001 152.508C535.001 152.19 534.732 151.932 534.401 151.932C534.267 151.932 534.144 151.976 534.044 152.047H533.426V151.215C533.778 150.99 534.011 150.606 534.011 150.171C534.011 149.481 533.425 148.918 532.706 148.918C531.986 148.918 531.4 149.481 531.4 150.171C531.4 150.606 531.633 150.99 531.986 151.215V152.047H531.367C531.267 151.976 531.145 151.932 531.01 151.932C530.679 151.932 530.41 152.19 530.41 152.508C530.41 152.826 530.679 153.084 531.01 153.084C531.144 153.084 531.267 153.04 531.367 152.969H531.986V159.032C530.747 158.934 529.666 158.554 528.949 157.629L529.7 157.679C529.831 157.688 529.952 157.609 529.991 157.489C530.031 157.369 529.98 157.238 529.867 157.173L527.943 156.059C527.863 156.013 527.764 156.007 527.679 156.044C527.594 156.08 527.533 156.155 527.516 156.242L527.099 158.362C527.074 158.486 527.142 158.61 527.262 158.661C527.381 158.713 527.523 158.679 527.603 158.58L528.052 158.024C528.93 159.388 530.31 160.53 531.902 160.827L532.504 161.405C532.616 161.511 532.795 161.511 532.907 161.405L533.509 160.827C535.101 160.53 536.481 159.388 537.359 158.024L537.808 158.58C537.888 158.679 538.03 158.713 538.15 158.661C538.27 158.61 538.337 158.486 538.312 158.362ZM532.706 149.84C532.896 149.84 533.05 149.989 533.05 150.171C533.05 150.354 532.896 150.502 532.706 150.502C532.515 150.502 532.361 150.354 532.361 150.171C532.361 149.989 532.515 149.84 532.706 149.84Z" fill="white"/>
</g>
<path d="M25.8438 217.718C25.8438 215.159 27.9372 213.085 30.5196 213.085H35.1955C37.7779 213.085 39.8714 215.159 39.8714 217.718V232.079C39.8714 234.637 37.7779 236.711 35.1955 236.711H30.5196C27.9372 236.711 25.8438 234.637 25.8438 232.079V217.718Z" fill="#FF6400"/>
<rect x="51.5547" y="98.1968" width="2.80553" height="93.5781" rx="1.40276" fill="#FF6400"/>
<rect x="45.4805" y="98.1968" width="2.80553" height="93.5781" rx="1.40276" fill="#FF6400"/>
<rect x="39.3984" y="98.1968" width="2.80553" height="93.1148" rx="1.40276" fill="#FF6400"/>
<rect x="32.8555" y="98.1968" width="2.80553" height="93.1148" rx="1.40276" fill="#FF6400"/>
<rect x="26.3086" y="98.1968" width="2.80553" height="93.1148" rx="1.40276" fill="#FF6400"/>
<rect x="19.7617" y="98.1968" width="2.80553" height="93.1148" rx="1.40276" fill="#FF6400"/>
<rect x="13.2188" y="98.1968" width="2.80553" height="96.3576" rx="1.40276" fill="#FF6400"/>
<rect x="6.67188" y="98.1968" width="2.80553" height="126.006" rx="1.40276" fill="#FF6400"/>
<rect x="288.625" y="155.178" width="6.07864" height="37.5239" rx="3.03932" fill="#FF6400"/>
<path d="M285.352 217.718C285.352 215.159 287.445 213.085 290.027 213.085H294.703C297.286 213.085 299.379 215.159 299.379 217.718V228.836C299.379 231.394 297.286 233.468 294.703 233.468H290.027C287.445 233.468 285.352 231.394 285.352 228.836V217.718Z" fill="#FF6400"/>
<rect x="16.4311" y="193.115" width="293.763" height="16.7775" rx="8.38875" fill="white" stroke="#FF6400" stroke-width="1.75281"/>
<path d="M323.227 124.577L409.232 107.462L497.169 124.577C497.169 124.577 491.854 200.528 448.369 229.41C404.883 258.292 415.03 258.292 372.027 229.41C329.025 200.528 323.227 124.577 323.227 124.577Z" fill="#FF6400"/>
<path fill-rule="evenodd" clip-rule="evenodd" d="M321.234 123.084L409.225 105.573L499.147 123.075L499.033 124.706L497.167 124.578L409.229 107.462L323.224 124.578L321.359 124.718L321.234 123.084ZM323.224 124.578C323.224 124.578 329.022 200.528 372.025 229.411C393.476 243.818 401.702 251.039 409.957 251.072C418.25 251.106 426.573 243.885 448.366 229.411C491.852 200.528 497.167 124.578 497.167 124.578C499.033 124.706 499.033 124.707 499.033 124.708L499.031 124.724L499.028 124.769C499.025 124.808 499.021 124.866 499.015 124.941C499.003 125.091 498.985 125.311 498.96 125.599C498.909 126.174 498.83 127.016 498.713 128.095C498.48 130.253 498.099 133.361 497.505 137.179C496.318 144.81 494.279 155.291 490.867 166.69C484.068 189.402 471.708 216.138 449.408 230.95C444.847 233.979 440.847 236.711 437.306 239.129C432.482 242.425 428.51 245.138 425.13 247.229C419.256 250.863 414.716 252.925 410.014 252.925C405.309 252.925 400.798 250.86 394.982 247.224C391.636 245.133 387.708 242.419 382.938 239.123C379.438 236.704 375.484 233.973 370.975 230.944C348.923 216.133 336.564 189.401 329.707 166.695C326.265 155.298 324.18 144.818 322.955 137.188C322.342 133.371 321.944 130.263 321.699 128.105C321.576 127.026 321.491 126.184 321.437 125.61C321.41 125.323 321.391 125.102 321.378 124.952C321.372 124.877 321.367 124.82 321.364 124.781L321.36 124.735L321.359 124.72C321.359 124.719 321.359 124.718 323.224 124.578Z" fill="white"/>
<path d="M344.734 160.98L409.238 150.545L475.191 160.98C475.191 160.98 471.205 207.285 438.591 224.894C405.977 242.503 413.587 242.503 381.335 224.894C349.083 207.285 344.734 160.98 344.734 160.98Z" fill="white" fill-opacity="0.3"/>
<path d="M442.929 237.151L418.745 253.851L387.593 250.632L379.805 233.931H442.929V237.151Z" fill="white"/>
<path d="M418.146 231.615C418.146 235.708 414.797 239.027 410.665 239.027C406.533 239.027 403.184 235.708 403.184 231.615C403.184 227.521 406.533 224.203 410.665 224.203C414.797 224.203 418.146 227.521 418.146 231.615Z" fill="white"/>
<path d="M490.62 231.615C490.62 235.708 487.375 239.027 483.373 239.027C479.37 239.027 476.125 235.708 476.125 231.615C476.125 227.521 479.37 224.203 483.373 224.203C487.375 224.203 490.62 227.521 490.62 231.615Z" fill="white"/>
<path d="M526.628 231.615C526.628 235.708 523.383 239.027 519.38 239.027C515.378 239.027 512.133 235.708 512.133 231.615C512.133 227.521 515.378 224.203 519.38 224.203C523.383 224.203 526.628 227.521 526.628 231.615Z" fill="white"/>
<path d="M563.568 231.615C563.568 235.708 560.219 239.027 556.087 239.027C551.955 239.027 548.605 235.708 548.605 231.615C548.605 227.521 551.955 224.203 556.087 224.203C560.219 224.203 563.568 227.521 563.568 231.615Z" fill="white"/>
<path d="M381.675 231.615C381.675 235.708 378.43 239.027 374.427 239.027C370.425 239.027 367.18 235.708 367.18 231.615C367.18 227.521 370.425 224.203 374.427 224.203C378.43 224.203 381.675 227.521 381.675 231.615Z" fill="white"/>
<path d="M345.206 231.615C345.206 235.708 341.961 239.027 337.959 239.027C333.956 239.027 330.711 235.708 330.711 231.615C330.711 227.521 333.956 224.203 337.959 224.203C341.961 224.203 345.206 227.521 345.206 231.615Z" fill="white"/>
<path d="M309.197 231.615C309.197 235.708 305.848 239.027 301.716 239.027C297.584 239.027 294.234 235.708 294.234 231.615C294.234 227.521 297.584 224.203 301.716 224.203C305.848 224.203 309.197 227.521 309.197 231.615Z" fill="white"/>
<path d="M272.725 231.615C272.725 235.708 269.375 239.027 265.243 239.027C261.111 239.027 257.762 235.708 257.762 231.615C257.762 227.521 261.111 224.203 265.243 224.203C269.375 224.203 272.725 227.521 272.725 231.615Z" fill="white"/>
<path d="M236.725 231.615C236.725 235.708 233.375 239.027 229.243 239.027C225.111 239.027 221.762 235.708 221.762 231.615C221.762 227.521 225.111 224.203 229.243 224.203C233.375 224.203 236.725 227.521 236.725 231.615Z" fill="white"/>
<path d="M200.248 231.615C200.248 235.708 196.898 239.027 192.767 239.027C188.635 239.027 185.285 235.708 185.285 231.615C185.285 227.521 188.635 224.203 192.767 224.203C196.898 224.203 200.248 227.521 200.248 231.615Z" fill="white"/>
<path d="M163.78 231.615C163.78 235.708 160.536 239.027 156.533 239.027C152.53 239.027 149.285 235.708 149.285 231.615C149.285 227.521 152.53 224.203 156.533 224.203C160.536 224.203 163.78 227.521 163.78 231.615Z" fill="white"/>
<path d="M127.775 231.615C127.775 235.708 124.426 239.027 120.294 239.027C116.162 239.027 112.812 235.708 112.812 231.615C112.812 227.521 116.162 224.203 120.294 224.203C124.426 224.203 127.775 227.521 127.775 231.615Z" fill="white"/>
<path d="M91.3027 231.615C91.3027 235.708 87.9531 239.027 83.8212 239.027C79.6894 239.027 76.3398 235.708 76.3398 231.615C76.3398 227.521 79.6894 224.203 83.8212 224.203C87.9531 224.203 91.3027 227.521 91.3027 231.615Z" fill="white"/>
<path d="M54.83 231.615C54.83 235.708 51.4805 239.027 47.3486 239.027C43.2167 239.027 39.8672 235.708 39.8672 231.615C39.8672 227.521 43.2167 224.203 47.3486 224.203C51.4805 224.203 54.83 227.521 54.83 231.615Z" fill="white"/>
<path d="M454.15 231.615C454.15 235.708 450.801 239.027 446.669 239.027C442.537 239.027 439.188 235.708 439.188 231.615C439.188 227.521 442.537 224.203 446.669 224.203C450.801 224.203 454.15 227.521 454.15 231.615Z" fill="white"/>
<path d="M392.871 42.606H426.736L436.382 108.389L409.29 103.486L382.609 108.389L392.871 42.606Z" fill="#FF6400"/>
<mask id="path-44-outside-1" maskUnits="userSpaceOnUse" x="169.598" y="40.8935" width="209" height="21" fill="black">
<rect fill="white" x="169.598" y="40.8935" width="209" height="21"/>
<path fill-rule="evenodd" clip-rule="evenodd" d="M173.879 57.2786C173.727 57.127 173.598 56.9133 173.598 56.6478L173.598 46.6314C173.598 46.3659 173.727 46.1522 173.879 46.0006C174.029 45.8509 174.222 45.7373 174.424 45.6519C174.83 45.4804 175.358 45.3856 175.917 45.3856L371.873 45.3856C372.432 45.3856 372.96 45.4804 373.366 45.6519C373.568 45.7373 373.762 45.8509 373.912 46.0006C374.064 46.1522 374.193 46.3659 374.193 46.6314L374.193 56.6478C374.193 56.9133 374.064 57.1269 373.912 57.2786C373.762 57.4283 373.568 57.5418 373.366 57.6272C372.96 57.7987 372.432 57.8935 371.873 57.8935L175.917 57.8936C175.358 57.8936 174.83 57.7987 174.424 57.6272C174.222 57.5418 174.029 57.4283 173.879 57.2786ZM174.791 56.775C175.056 56.8867 175.453 56.967 175.917 56.967L198.601 56.967L198.601 46.3121L175.917 46.3121C175.453 46.3121 175.056 46.3925 174.791 46.5042C174.658 46.5604 174.58 46.6155 174.543 46.653C174.539 46.6571 174.535 46.6606 174.533 46.6635L174.533 56.6156C174.535 56.6186 174.539 56.6221 174.543 56.6261C174.58 56.6637 174.658 56.7187 174.791 56.775ZM174.524 56.6041C174.524 56.6041 174.524 56.6044 174.524 56.605C174.524 56.6044 174.524 56.6041 174.524 56.6041ZM174.524 46.6751C174.524 46.6751 174.524 46.6747 174.524 46.6741C174.524 46.6747 174.524 46.6751 174.524 46.6751ZM199.537 46.3121L199.537 56.967L223.42 56.967L223.42 46.3121L199.537 46.3121ZM224.355 46.3121L224.355 56.967L248.239 56.967L248.239 46.3121L224.355 46.3121ZM249.174 46.3121L249.174 56.967L273.057 56.967L273.057 46.3121L249.174 46.3121ZM273.992 46.3121L273.992 56.967L297.876 56.967L297.876 46.3121L273.992 46.3121ZM298.811 46.3121L298.811 56.967L322.694 56.967L322.694 46.3121L298.811 46.3121ZM323.63 46.3121L323.63 56.967L347.513 56.967L347.513 46.3121L323.63 46.3121ZM348.448 46.3121L348.448 56.967L371.873 56.967C372.337 56.967 372.735 56.8867 372.999 56.775C373.132 56.7187 373.21 56.6637 373.248 56.6261C373.252 56.6221 373.255 56.6185 373.258 56.6156L373.258 46.6635C373.255 46.6606 373.252 46.6571 373.248 46.653C373.21 46.6155 373.132 46.5604 372.999 46.5042C372.735 46.3925 372.337 46.3121 371.873 46.3121L348.448 46.3121ZM373.267 56.6041C373.267 56.6041 373.266 56.6044 373.266 56.605C373.266 56.6044 373.267 56.6041 373.267 56.6041Z"/>
</mask>
<path fill-rule="evenodd" clip-rule="evenodd" d="M173.879 57.2786C173.727 57.127 173.598 56.9133 173.598 56.6478L173.598 46.6314C173.598 46.3659 173.727 46.1522 173.879 46.0006C174.029 45.8509 174.222 45.7373 174.424 45.6519C174.83 45.4804 175.358 45.3856 175.917 45.3856L371.873 45.3856C372.432 45.3856 372.96 45.4804 373.366 45.6519C373.568 45.7373 373.762 45.8509 373.912 46.0006C374.064 46.1522 374.193 46.3659 374.193 46.6314L374.193 56.6478C374.193 56.9133 374.064 57.1269 373.912 57.2786C373.762 57.4283 373.568 57.5418 373.366 57.6272C372.96 57.7987 372.432 57.8935 371.873 57.8935L175.917 57.8936C175.358 57.8936 174.83 57.7987 174.424 57.6272C174.222 57.5418 174.029 57.4283 173.879 57.2786ZM174.791 56.775C175.056 56.8867 175.453 56.967 175.917 56.967L198.601 56.967L198.601 46.3121L175.917 46.3121C175.453 46.3121 175.056 46.3925 174.791 46.5042C174.658 46.5604 174.58 46.6155 174.543 46.653C174.539 46.6571 174.535 46.6606 174.533 46.6635L174.533 56.6156C174.535 56.6186 174.539 56.6221 174.543 56.6261C174.58 56.6637 174.658 56.7187 174.791 56.775ZM174.524 56.6041C174.524 56.6041 174.524 56.6044 174.524 56.605C174.524 56.6044 174.524 56.6041 174.524 56.6041ZM174.524 46.6751C174.524 46.6751 174.524 46.6747 174.524 46.6741C174.524 46.6747 174.524 46.6751 174.524 46.6751ZM199.537 46.3121L199.537 56.967L223.42 56.967L223.42 46.3121L199.537 46.3121ZM224.355 46.3121L224.355 56.967L248.239 56.967L248.239 46.3121L224.355 46.3121ZM249.174 46.3121L249.174 56.967L273.057 56.967L273.057 46.3121L249.174 46.3121ZM273.992 46.3121L273.992 56.967L297.876 56.967L297.876 46.3121L273.992 46.3121ZM298.811 46.3121L298.811 56.967L322.694 56.967L322.694 46.3121L298.811 46.3121ZM323.63 46.3121L323.63 56.967L347.513 56.967L347.513 46.3121L323.63 46.3121ZM348.448 46.3121L348.448 56.967L371.873 56.967C372.337 56.967 372.735 56.8867 372.999 56.775C373.132 56.7187 373.21 56.6637 373.248 56.6261C373.252 56.6221 373.255 56.6185 373.258 56.6156L373.258 46.6635C373.255 46.6606 373.252 46.6571 373.248 46.653C373.21 46.6155 373.132 46.5604 372.999 46.5042C372.735 46.3925 372.337 46.3121 371.873 46.3121L348.448 46.3121ZM373.267 56.6041C373.267 56.6041 373.266 56.6044 373.266 56.605C373.266 56.6044 373.267 56.6041 373.267 56.6041Z" fill="#FF6400"/>
<path d="M173.879 57.2786L171.401 59.7588L173.879 57.2786ZM173.879 46.0006L176.356 48.4808L176.356 48.4808L173.879 46.0006ZM174.424 45.6519L173.06 42.4227L173.06 42.4227L174.424 45.6519ZM373.366 45.6519L372.002 48.8811L372.002 48.8812L373.366 45.6519ZM373.912 46.0006L371.434 48.4807L371.434 48.4808L373.912 46.0006ZM373.912 57.2786L371.434 54.7984L371.434 54.7985L373.912 57.2786ZM373.366 57.6272L372.002 54.398L372.002 54.398L373.366 57.6272ZM174.424 57.6272L175.789 54.398L174.424 57.6272ZM174.791 56.775L176.155 53.5458L176.155 53.5458L174.791 56.775ZM198.601 56.967L198.601 60.4726L202.107 60.4726L202.107 56.967L198.601 56.967ZM198.601 46.3121L202.107 46.3121L202.107 42.8065L198.601 42.8065L198.601 46.3121ZM174.791 46.5042L176.155 49.7334L176.155 49.7334L174.791 46.5042ZM174.543 46.653L177.02 49.1333L177.02 49.1332L174.543 46.653ZM174.533 46.6635L171.908 44.3397L171.027 45.3347L171.027 46.6635L174.533 46.6635ZM174.533 56.6156L171.027 56.6156L171.027 57.9445L171.908 58.9394L174.533 56.6156ZM174.543 56.6261L172.065 59.1063L172.065 59.1063L174.543 56.6261ZM174.524 56.6041L174.599 53.0993L174.588 53.0991L174.524 56.6041ZM174.524 56.605L171.586 58.5174L177.614 54.9482L174.524 56.605ZM174.524 46.6741L177.614 48.3313L171.587 44.7615L174.524 46.6741ZM199.537 56.967L196.031 56.967L196.031 60.4726L199.537 60.4726L199.537 56.967ZM199.537 46.3121L199.537 42.8065L196.031 42.8065L196.031 46.3121L199.537 46.3121ZM223.42 56.967L223.42 60.4726L226.926 60.4726L226.926 56.967L223.42 56.967ZM223.42 46.3121L226.926 46.3121L226.926 42.8065L223.42 42.8065L223.42 46.3121ZM224.355 56.967L220.85 56.967L220.85 60.4726L224.355 60.4726L224.355 56.967ZM224.355 46.3121L224.355 42.8065L220.85 42.8065L220.85 46.3121L224.355 46.3121ZM248.239 56.967L248.239 60.4726L251.744 60.4726L251.744 56.967L248.239 56.967ZM248.239 46.3121L251.744 46.3121L251.744 42.8065L248.239 42.8065L248.239 46.3121ZM249.174 56.967L245.668 56.967L245.668 60.4726L249.174 60.4726L249.174 56.967ZM249.174 46.3121L249.174 42.8065L245.668 42.8065L245.668 46.3121L249.174 46.3121ZM273.057 56.967L273.057 60.4726L276.563 60.4726L276.563 56.967L273.057 56.967ZM273.057 46.3121L276.563 46.3121L276.563 42.8065L273.057 42.8065L273.057 46.3121ZM273.992 56.967L270.487 56.967L270.487 60.4726L273.992 60.4726L273.992 56.967ZM273.992 46.3121L273.992 42.8065L270.487 42.8065L270.487 46.3121L273.992 46.3121ZM297.876 56.967L297.876 60.4726L301.381 60.4726L301.381 56.967L297.876 56.967ZM297.876 46.3121L301.381 46.3121L301.381 42.8065L297.876 42.8065L297.876 46.3121ZM298.811 56.967L295.305 56.967L295.305 60.4726L298.811 60.4726L298.811 56.967ZM298.811 46.3121L298.811 42.8065L295.305 42.8065L295.305 46.3121L298.811 46.3121ZM322.694 56.967L322.694 60.4726L326.2 60.4726L326.2 56.967L322.694 56.967ZM322.694 46.3121L326.2 46.3121L326.2 42.8065L322.694 42.8065L322.694 46.3121ZM323.63 56.967L320.124 56.967L320.124 60.4726L323.63 60.4726L323.63 56.967ZM323.63 46.3121L323.63 42.8065L320.124 42.8065L320.124 46.3121L323.63 46.3121ZM347.513 56.967L347.513 60.4726L351.019 60.4726L351.019 56.967L347.513 56.967ZM347.513 46.3121L351.019 46.3121L351.019 42.8065L347.513 42.8065L347.513 46.3121ZM348.448 56.967L344.943 56.967L344.943 60.4726L348.448 60.4726L348.448 56.967ZM348.448 46.3121L348.448 42.8065L344.943 42.8065L344.943 46.3121L348.448 46.3121ZM372.999 56.775L374.364 60.0042L374.364 60.0042L372.999 56.775ZM373.248 56.6261L370.77 54.1459L370.77 54.1461L373.248 56.6261ZM373.258 56.6156L375.885 58.9359L376.763 57.9418L376.763 56.6156L373.258 56.6156ZM373.258 46.6635L376.763 46.6635L376.763 45.3371L375.885 44.3429L373.258 46.6635ZM373.248 46.653L370.77 49.133L370.771 49.1337L373.248 46.653ZM372.999 46.5042L374.364 43.275L374.364 43.275L372.999 46.5042ZM373.267 56.6041L374.488 59.8902L374.504 59.884L374.521 59.8777L373.267 56.6041ZM373.266 56.605L370.186 54.9315L376.216 58.4994L373.266 56.605ZM170.092 56.6478C170.092 58.1229 170.819 59.1775 171.401 59.7588L176.356 54.7984C176.635 55.0764 177.103 55.7036 177.103 56.6478L170.092 56.6478ZM170.092 46.6314L170.092 56.6478L177.103 56.6478L177.103 46.6314L170.092 46.6314ZM171.401 43.5204C170.819 44.1017 170.092 45.1562 170.092 46.6314L177.103 46.6314C177.103 47.5755 176.635 48.2027 176.356 48.4808L171.401 43.5204ZM173.06 42.4227C172.601 42.6165 171.973 42.9488 171.401 43.5204L176.356 48.4808C176.213 48.6238 176.082 48.7174 175.991 48.7744C175.899 48.8316 175.828 48.8645 175.789 48.8811L173.06 42.4227ZM175.917 41.88C175.006 41.88 173.993 42.0284 173.06 42.4227L175.789 48.8812C175.747 48.8987 175.721 48.9064 175.715 48.9083C175.708 48.9103 175.713 48.9085 175.73 48.9054C175.767 48.8987 175.832 48.8912 175.917 48.8912L175.917 41.88ZM371.873 41.88L175.917 41.88L175.917 48.8912L371.873 48.8912L371.873 41.88ZM374.731 42.4227C373.797 42.0284 372.785 41.88 371.873 41.88L371.873 48.8912C371.958 48.8912 372.023 48.8987 372.06 48.9054C372.078 48.9085 372.083 48.9103 372.076 48.9083C372.069 48.9063 372.043 48.8987 372.002 48.8811L374.731 42.4227ZM376.389 43.5204C375.817 42.9488 375.189 42.6165 374.731 42.4227L372.002 48.8812C371.963 48.8646 371.891 48.8316 371.8 48.7744C371.709 48.7174 371.577 48.6238 371.434 48.4807L376.389 43.5204ZM377.698 46.6314C377.698 45.1562 376.971 44.1016 376.389 43.5203L371.434 48.4808C371.156 48.2028 370.687 47.5755 370.687 46.6314L377.698 46.6314ZM377.698 56.6478L377.698 46.6314L370.687 46.6314L370.687 56.6478L377.698 56.6478ZM376.389 59.7588C376.971 59.1775 377.698 58.123 377.698 56.6478L370.687 56.6478C370.687 55.7036 371.156 55.0764 371.434 54.7984L376.389 59.7588ZM374.731 60.8565C375.189 60.6626 375.817 60.3303 376.389 59.7587L371.434 54.7985C371.577 54.6554 371.709 54.5618 371.8 54.5048C371.891 54.4475 371.963 54.4146 372.002 54.398L374.731 60.8565ZM371.873 61.3992C372.785 61.3992 373.797 61.2507 374.731 60.8564L372.002 54.398C372.043 54.3805 372.069 54.3728 372.076 54.3709C372.083 54.3688 372.078 54.3706 372.06 54.3737C372.023 54.3804 371.958 54.3879 371.873 54.3879L371.873 61.3992ZM175.917 61.3992L371.873 61.3992L371.873 54.3879L175.917 54.3879L175.917 61.3992ZM173.06 60.8564C173.993 61.2507 175.006 61.3992 175.917 61.3992L175.917 54.3879C175.832 54.3879 175.767 54.3804 175.73 54.3737C175.713 54.3706 175.708 54.3688 175.715 54.3709C175.721 54.3728 175.747 54.3805 175.789 54.398L173.06 60.8564ZM171.401 59.7588C171.973 60.3303 172.601 60.6626 173.06 60.8564L175.789 54.398C175.828 54.4146 175.899 54.4475 175.991 54.5048C176.082 54.5618 176.213 54.6554 176.356 54.7984L171.401 59.7588ZM175.917 53.4614C175.884 53.4614 175.876 53.4583 175.896 53.462C175.908 53.464 175.933 53.4691 175.972 53.4802C176.01 53.4909 176.073 53.5109 176.155 53.5458L173.427 60.0042C174.218 60.3386 175.101 60.4727 175.917 60.4727L175.917 53.4614ZM198.601 53.4614L175.917 53.4614L175.917 60.4727L198.601 60.4726L198.601 53.4614ZM195.096 46.3121L195.096 56.967L202.107 56.967L202.107 46.3121L195.096 46.3121ZM175.917 49.8177L198.601 49.8177L198.601 42.8065L175.917 42.8065L175.917 49.8177ZM176.155 49.7334C176.073 49.7683 176.01 49.7882 175.972 49.799C175.933 49.8101 175.908 49.8151 175.896 49.8172C175.876 49.8209 175.884 49.8177 175.917 49.8177L175.917 42.8065C175.101 42.8065 174.218 42.9406 173.427 43.275L176.155 49.7334ZM177.02 49.1332C176.809 49.3447 176.614 49.4801 176.49 49.5579C176.354 49.6426 176.239 49.6981 176.155 49.7334L173.427 43.275C173.037 43.4396 172.525 43.7134 172.065 44.1728L177.02 49.1332ZM177.158 48.9873C177.11 49.0415 177.063 49.0901 177.02 49.1333L172.065 44.1728C172.014 44.224 171.961 44.2796 171.908 44.3397L177.158 48.9873ZM178.038 56.6156L178.038 46.6635L171.027 46.6635L171.027 56.6156L178.038 56.6156ZM177.02 54.1459C177.063 54.189 177.11 54.2376 177.158 54.2918L171.908 58.9394C171.961 58.9995 172.014 59.0551 172.065 59.1063L177.02 54.1459ZM176.155 53.5458C176.239 53.581 176.354 53.6366 176.49 53.7213C176.614 53.7991 176.809 53.9344 177.02 54.1459L172.065 59.1063C172.525 59.5658 173.037 59.8396 173.427 60.0042L176.155 53.5458ZM174.449 60.1089C173.856 60.0962 173.402 59.9361 173.155 59.8313C172.891 59.7194 172.692 59.5967 172.571 59.5154C172.334 59.3566 172.17 59.2035 172.098 59.1344C171.943 58.9861 171.837 58.8564 171.802 58.8131C171.715 58.7061 171.654 58.6175 171.634 58.589C171.583 58.5142 171.546 58.4535 171.529 58.4259C171.489 58.36 171.457 58.3034 171.435 58.2619L177.614 54.9482C177.591 54.906 177.559 54.849 177.519 54.7828C177.502 54.755 177.465 54.6942 177.414 54.6194C177.394 54.5908 177.333 54.5022 177.246 54.3952C177.211 54.3519 177.105 54.2221 176.95 54.0739C176.878 54.0048 176.714 53.8516 176.477 53.6928C176.367 53.6191 175.656 53.122 174.599 53.0993L174.449 60.1089ZM177.462 54.6926C177.485 54.7267 177.518 54.7799 177.557 54.8467C177.572 54.8723 177.612 54.9424 177.659 55.035C177.672 55.0614 177.74 55.1955 177.807 55.3747C177.822 55.4145 177.941 55.7201 177.997 56.1285C178.015 56.2579 178.114 56.9263 177.847 57.7212C177.692 58.1822 177.357 58.849 176.658 59.3854C175.925 59.9476 175.113 60.1212 174.459 60.1091L174.588 53.0991C173.935 53.087 173.123 53.2606 172.39 53.8228C171.691 54.3592 171.356 55.026 171.201 55.487C170.934 56.2819 171.033 56.9503 171.051 57.0797C171.107 57.4882 171.226 57.7938 171.241 57.8336C171.308 58.0127 171.376 58.1469 171.389 58.1733C171.435 58.266 171.476 58.3362 171.491 58.3619C171.53 58.4291 171.564 58.4827 171.586 58.5174L177.462 54.6926ZM174.524 43.1694C175.181 43.1694 175.976 43.3592 176.687 43.9163C177.364 44.4472 177.691 45.0982 177.845 45.5525C178.111 46.3392 178.017 47.0008 177.999 47.136C177.944 47.5478 177.825 47.8558 177.81 47.8972C177.742 48.079 177.673 48.215 177.66 48.2418C177.613 48.3356 177.572 48.4066 177.557 48.4322C177.518 48.4994 177.484 48.5528 177.462 48.5867L171.587 44.7615C171.564 44.7961 171.53 44.85 171.491 44.9175C171.476 44.9432 171.435 45.0144 171.388 45.1082C171.375 45.135 171.306 45.2711 171.238 45.4529C171.223 45.4942 171.103 45.8023 171.049 46.2141C171.031 46.3493 170.937 47.0109 171.203 47.7976C171.356 48.2519 171.684 48.9029 172.361 49.4338C173.071 49.9909 173.867 50.1807 174.524 50.1807L174.524 43.1694ZM171.435 45.017C171.457 44.9763 171.488 44.9203 171.528 44.8549C171.544 44.8276 171.582 44.7664 171.634 44.6911C171.653 44.6625 171.716 44.5722 171.804 44.4633C171.84 44.4194 171.949 44.2866 172.107 44.1353C172.182 44.0648 172.351 43.9081 172.596 43.747C172.722 43.6644 172.927 43.5404 173.2 43.4292C173.456 43.3244 173.921 43.1694 174.524 43.1694L174.524 50.1807C175.603 50.1807 176.334 49.6805 176.451 49.6031C176.696 49.442 176.866 49.2853 176.94 49.2148C177.099 49.0635 177.208 48.9307 177.244 48.8868C177.332 48.7779 177.394 48.6875 177.414 48.6589C177.466 48.5835 177.504 48.5222 177.52 48.4947C177.56 48.429 177.591 48.3726 177.614 48.3313L171.435 45.017ZM203.042 56.967L203.042 46.3121L196.031 46.3121L196.031 56.967L203.042 56.967ZM223.42 53.4614L199.537 53.4614L199.537 60.4726L223.42 60.4726L223.42 53.4614ZM219.914 46.3121L219.914 56.967L226.926 56.967L226.926 46.3121L219.914 46.3121ZM199.537 49.8177L223.42 49.8177L223.42 42.8065L199.537 42.8065L199.537 49.8177ZM227.861 56.967L227.861 46.3121L220.85 46.3121L220.85 56.967L227.861 56.967ZM248.239 53.4614L224.355 53.4614L224.355 60.4726L248.239 60.4726L248.239 53.4614ZM244.733 46.3121L244.733 56.967L251.744 56.967L251.744 46.3121L244.733 46.3121ZM224.355 49.8177L248.239 49.8177L248.239 42.8065L224.355 42.8065L224.355 49.8177ZM252.679 56.967L252.679 46.3121L245.668 46.3121L245.668 56.967L252.679 56.967ZM273.057 53.4614L249.174 53.4614L249.174 60.4726L273.057 60.4726L273.057 53.4614ZM269.552 46.3121L269.552 56.967L276.563 56.967L276.563 46.3121L269.552 46.3121ZM249.174 49.8177L273.057 49.8177L273.057 42.8065L249.174 42.8065L249.174 49.8177ZM277.498 56.967L277.498 46.3121L270.487 46.3121L270.487 56.967L277.498 56.967ZM297.876 53.4614L273.992 53.4614L273.992 60.4726L297.876 60.4726L297.876 53.4614ZM294.37 46.3121L294.37 56.967L301.381 56.967L301.381 46.3121L294.37 46.3121ZM273.992 49.8177L297.876 49.8177L297.876 42.8065L273.992 42.8065L273.992 49.8177ZM302.317 56.967L302.317 46.3121L295.305 46.3121L295.305 56.967L302.317 56.967ZM322.694 53.4614L298.811 53.4614L298.811 60.4726L322.694 60.4726L322.694 53.4614ZM319.189 46.3121L319.189 56.967L326.2 56.967L326.2 46.3121L319.189 46.3121ZM298.811 49.8177L322.694 49.8177L322.694 42.8065L298.811 42.8065L298.811 49.8177ZM327.135 56.967L327.135 46.3121L320.124 46.3121L320.124 56.967L327.135 56.967ZM347.513 53.4614L323.63 53.4614L323.63 60.4726L347.513 60.4726L347.513 53.4614ZM344.007 46.3121L344.007 56.967L351.019 56.967L351.019 46.3121L344.007 46.3121ZM323.63 49.8177L347.513 49.8177L347.513 42.8065L323.63 42.8065L323.63 49.8177ZM351.954 56.967L351.954 46.3121L344.943 46.3121L344.943 56.967L351.954 56.967ZM371.873 53.4614L348.448 53.4614L348.448 60.4726L371.873 60.4726L371.873 53.4614ZM371.635 53.5457C371.718 53.5109 371.78 53.4909 371.818 53.4802C371.857 53.4691 371.883 53.464 371.894 53.462C371.915 53.4583 371.906 53.4614 371.873 53.4614L371.873 60.4726C372.69 60.4726 373.572 60.3386 374.364 60.0042L371.635 53.5457ZM370.77 54.1461C370.982 53.9345 371.176 53.7991 371.301 53.7213C371.436 53.6366 371.552 53.581 371.635 53.5457L374.364 60.0042C374.753 59.8396 375.265 59.5657 375.725 59.1061L370.77 54.1461ZM370.63 54.2953C370.681 54.2373 370.729 54.1875 370.77 54.1459L375.725 59.1064C375.775 59.0566 375.829 58.9998 375.885 58.9359L370.63 54.2953ZM369.752 46.6635L369.752 56.6156L376.763 56.6156L376.763 46.6635L369.752 46.6635ZM370.771 49.1337C370.729 49.0919 370.681 49.0421 370.63 48.9841L375.885 44.3429C375.829 44.2791 375.775 44.2223 375.725 44.1724L370.771 49.1337ZM371.635 49.7334C371.552 49.6981 371.436 49.6425 371.301 49.5578C371.176 49.48 370.982 49.3446 370.77 49.133L375.725 44.173C375.265 43.7134 374.753 43.4396 374.364 43.275L371.635 49.7334ZM371.873 49.8177C371.906 49.8177 371.915 49.8209 371.894 49.8172C371.883 49.8151 371.857 49.8101 371.818 49.799C371.78 49.7882 371.718 49.7683 371.635 49.7334L374.364 43.275C373.572 42.9406 372.69 42.8065 371.873 42.8065L371.873 49.8177ZM348.448 49.8177L371.873 49.8177L371.873 42.8065L348.448 42.8065L348.448 49.8177ZM374.521 59.8777C374.212 59.996 373.019 60.4085 371.682 59.731C370.185 58.9725 369.857 57.572 369.79 57.0531C369.719 56.5054 369.798 56.0761 369.826 55.9315C369.864 55.7371 369.911 55.5856 369.939 55.5024C370.03 55.2273 370.139 55.0213 370.144 55.0112C370.197 54.9063 370.245 54.8267 370.253 54.814C370.283 54.7626 370.308 54.7234 370.316 54.7106L376.216 58.4994C376.224 58.486 376.25 58.4463 376.281 58.3946C376.288 58.3818 376.336 58.3021 376.389 58.1971C376.395 58.1869 376.504 57.9809 376.595 57.7058C376.622 57.6226 376.669 57.4712 376.707 57.2767C376.735 57.1321 376.814 56.7028 376.743 56.1551C376.676 55.6362 376.348 54.2357 374.851 53.4772C373.515 52.7997 372.321 53.2122 372.012 53.3305L374.521 59.8777ZM376.347 58.2784C376.331 58.3072 376.303 58.3583 376.265 58.4209C376.249 58.4463 376.209 58.5128 376.152 58.5949C376.129 58.6291 376.063 58.7229 375.97 58.8356C375.927 58.8881 375.83 59.0025 375.694 59.1338C375.624 59.2003 375.508 59.3067 375.352 59.4223C375.218 59.5212 374.919 59.7301 374.488 59.8902L372.046 53.318C371.317 53.5888 370.873 54.0427 370.84 54.0744C370.703 54.2058 370.606 54.3201 370.563 54.3727C370.47 54.4853 370.405 54.5792 370.381 54.6135C370.324 54.6956 370.284 54.7623 370.268 54.7878C370.23 54.8506 370.202 54.9022 370.186 54.9315L376.347 58.2784Z" fill="white" mask="url(#path-44-outside-1)"/>
<path d="M379.753 108.817L355.023 113.484L366.877 70.8647H385.884L379.753 108.817Z" fill="#FF6400"/>
<path d="M439.708 108.817L464.438 113.484L452.584 70.8647H433.577L439.708 108.817Z" fill="#FF6400"/>
<path fill-rule="evenodd" clip-rule="evenodd" d="M410.197 119.507C411.488 119.507 412.535 120.544 412.535 121.823L412.535 227.446C412.535 228.725 411.488 229.762 410.197 229.762C408.906 229.762 407.859 228.725 407.859 227.446L407.859 121.823C407.859 120.544 408.906 119.507 410.197 119.507Z" fill="white"/>
<path fill-rule="evenodd" clip-rule="evenodd" d="M410.197 47.2383C411.488 47.2383 412.535 48.2753 412.535 49.5546L412.535 94.4906C412.535 95.7698 411.488 96.8069 410.197 96.8069C408.906 96.8069 407.859 95.7698 407.859 94.4906L407.859 49.5546C407.859 48.2753 408.906 47.2383 410.197 47.2383Z" fill="white"/>
<ellipse cx="377.935" cy="51.408" rx="10.2869" ry="10.1917" fill="#FF6400"/>
<path d="M370.453 51.6392C370.453 55.0932 373.279 57.8932 376.766 57.8932C380.252 57.8932 380.252 45.3853 376.766 45.3853C373.279 45.3853 370.453 48.1853 370.453 51.6392Z" fill="white" fill-opacity="0.3"/>
<g clip-path="url(#clip1)">
<path d="M441.754 140.924L441.023 137.078C440.993 136.918 440.886 136.784 440.737 136.717C440.589 136.651 440.417 136.662 440.277 136.745L436.909 138.766C436.712 138.884 436.622 139.122 436.692 139.34C436.761 139.558 436.971 139.701 437.201 139.685L438.516 139.593C437.26 141.273 435.37 141.963 433.202 142.14V131.137H434.285C434.459 131.266 434.674 131.346 434.908 131.346C435.488 131.346 435.958 130.878 435.958 130.301C435.958 129.723 435.488 129.255 434.908 129.255C434.674 129.255 434.459 129.335 434.284 129.464H433.202V127.953C433.818 127.545 434.226 126.849 434.226 126.06C434.226 124.806 433.201 123.786 431.942 123.786C430.682 123.786 429.658 124.806 429.658 126.06C429.658 126.849 430.065 127.545 430.682 127.953V129.464H429.599C429.425 129.335 429.21 129.255 428.975 129.255C428.395 129.255 427.925 129.723 427.925 130.301C427.925 130.878 428.395 131.346 428.975 131.346C429.21 131.346 429.424 131.266 429.599 131.137H430.682V142.14C428.513 141.963 426.623 141.273 425.367 139.593L426.683 139.685C426.912 139.701 427.123 139.558 427.192 139.34C427.261 139.122 427.171 138.884 426.974 138.766L423.606 136.745C423.467 136.662 423.295 136.651 423.146 136.718C422.997 136.784 422.891 136.918 422.86 137.078L422.13 140.924C422.087 141.149 422.205 141.374 422.415 141.468C422.625 141.562 422.872 141.5 423.013 141.319L423.798 140.311C425.334 142.786 427.75 144.859 430.535 145.397L431.59 146.446C431.784 146.64 432.099 146.64 432.293 146.446L433.348 145.397C436.133 144.86 438.549 142.786 440.085 140.311L440.871 141.319C441.012 141.5 441.259 141.562 441.469 141.468C441.679 141.374 441.796 141.149 441.754 140.924ZM431.942 125.459C432.275 125.459 432.545 125.728 432.545 126.06C432.545 126.391 432.275 126.661 431.942 126.661C431.609 126.661 431.338 126.391 431.338 126.06C431.338 125.728 431.609 125.459 431.942 125.459Z" fill="white"/>
</g>
<path fill-rule="evenodd" clip-rule="evenodd" d="M37.9127 230.457C37.9127 225.209 42.2545 220.96 47.6038 220.96C52.9531 220.96 57.2949 225.209 57.2949 230.457C57.2949 235.029 61.0795 238.741 65.7547 238.741C70.43 238.741 74.2146 235.029 74.2146 230.457C74.2146 225.209 78.5564 220.96 83.9057 220.96C89.255 220.96 93.5968 225.209 93.5968 230.457C93.5968 235.029 97.3814 238.741 102.057 238.741C106.732 238.741 110.517 235.029 110.517 230.457C110.517 225.209 114.858 220.96 120.208 220.96C125.557 220.96 129.899 225.209 129.899 230.457C129.899 235.029 133.683 238.741 138.359 238.741C143.034 238.741 146.818 235.029 146.818 230.457C146.818 225.209 151.16 220.96 156.51 220.96C161.859 220.96 166.201 225.209 166.201 230.457C166.201 235.029 169.985 238.741 174.66 238.741C179.336 238.741 183.12 235.029 183.12 230.457C183.12 225.209 187.462 220.96 192.811 220.96C198.161 220.96 202.503 225.209 202.503 230.457C202.503 235.029 206.287 238.741 210.962 238.741C215.638 238.741 219.422 235.029 219.422 230.457C219.422 225.209 223.764 220.96 229.113 220.96C234.463 220.96 238.804 225.209 238.804 230.457C238.804 235.029 242.589 238.741 247.264 238.741C251.94 238.741 255.724 235.029 255.724 230.457C255.724 225.209 260.066 220.96 265.415 220.96C270.765 220.96 275.106 225.209 275.106 230.457C275.106 235.029 278.891 238.741 283.566 238.741C288.241 238.741 292.026 235.029 292.026 230.457C292.026 225.209 296.368 220.96 301.717 220.96C307.066 220.96 311.408 225.209 311.408 230.457C311.408 235.029 315.193 238.741 319.868 238.741C324.543 238.741 328.328 235.029 328.328 230.457C328.328 225.209 332.67 220.96 338.019 220.96C343.368 220.96 347.71 225.209 347.71 230.457C347.71 235.029 351.495 238.741 356.17 238.741C360.845 238.741 364.63 235.029 364.63 230.457C364.63 225.209 368.972 220.96 374.321 220.96C379.67 220.96 384.012 225.209 384.012 230.457C384.012 235.029 387.797 238.741 392.472 238.741C397.147 238.741 400.932 235.029 400.932 230.457C400.932 225.209 405.274 220.96 410.623 220.96C415.972 220.96 420.314 225.209 420.314 230.457C420.314 235.029 424.099 238.741 428.774 238.741C433.449 238.741 437.234 235.029 437.234 230.457C437.234 225.209 441.576 220.96 446.925 220.96C452.274 220.96 456.616 225.209 456.616 230.457C456.616 235.029 460.401 238.741 465.076 238.741C469.751 238.741 473.536 235.029 473.536 230.457C473.536 225.209 477.878 220.96 483.227 220.96C488.576 220.96 492.918 225.209 492.918 230.457C492.918 235.029 496.703 238.741 501.378 238.741C506.053 238.741 509.838 235.029 509.838 230.457C509.838 225.209 514.179 220.96 519.529 220.96C524.878 220.96 529.22 225.209 529.22 230.457C529.22 235.029 533.004 238.741 537.68 238.741C542.355 238.741 546.14 235.029 546.14 230.457C546.14 225.209 550.481 220.96 555.831 220.96C561.18 220.96 565.522 225.209 565.522 230.457C565.522 235.029 569.306 238.741 573.982 238.741C578.657 238.741 582.441 235.029 582.441 230.457H583.673C583.673 235.705 579.331 239.954 573.982 239.954C568.632 239.954 564.29 235.705 564.29 230.457C564.29 225.884 560.506 222.172 555.831 222.172C551.155 222.172 547.371 225.884 547.371 230.457C547.371 235.705 543.029 239.954 537.68 239.954C532.33 239.954 527.989 235.705 527.989 230.457C527.989 225.884 524.204 222.172 519.529 222.172C514.854 222.172 511.069 225.884 511.069 230.457C511.069 235.705 506.727 239.954 501.378 239.954C496.028 239.954 491.687 235.705 491.687 230.457C491.687 225.884 487.902 222.172 483.227 222.172C478.552 222.172 474.767 225.884 474.767 230.457C474.767 235.705 470.425 239.954 465.076 239.954C459.727 239.954 455.385 235.705 455.385 230.457C455.385 225.884 451.6 222.172 446.925 222.172C442.25 222.172 438.465 225.884 438.465 230.457C438.465 235.705 434.123 239.954 428.774 239.954C423.425 239.954 419.083 235.705 419.083 230.457C419.083 225.884 415.298 222.172 410.623 222.172C405.948 222.172 402.163 225.884 402.163 230.457C402.163 235.705 397.821 239.954 392.472 239.954C387.123 239.954 382.781 235.705 382.781 230.457C382.781 225.884 378.996 222.172 374.321 222.172C369.646 222.172 365.861 225.884 365.861 230.457C365.861 235.705 361.519 239.954 356.17 239.954C350.821 239.954 346.479 235.705 346.479 230.457C346.479 225.884 342.694 222.172 338.019 222.172C333.344 222.172 329.559 225.884 329.559 230.457C329.559 235.705 325.217 239.954 319.868 239.954C314.519 239.954 310.177 235.705 310.177 230.457C310.177 225.884 306.392 222.172 301.717 222.172C297.042 222.172 293.257 225.884 293.257 230.457C293.257 235.705 288.916 239.954 283.566 239.954C278.217 239.954 273.875 235.705 273.875 230.457C273.875 225.884 270.09 222.172 265.415 222.172C260.74 222.172 256.955 225.884 256.955 230.457C256.955 235.705 252.614 239.954 247.264 239.954C241.915 239.954 237.573 235.705 237.573 230.457C237.573 225.884 233.789 222.172 229.113 222.172C224.438 222.172 220.654 225.884 220.654 230.457C220.654 235.705 216.312 239.954 210.962 239.954C205.613 239.954 201.271 235.705 201.271 230.457C201.271 225.884 197.487 222.172 192.811 222.172C188.136 222.172 184.352 225.884 184.352 230.457C184.352 235.705 180.01 239.954 174.66 239.954C169.311 239.954 164.969 235.705 164.969 230.457C164.969 225.884 161.185 222.172 156.51 222.172C151.834 222.172 148.05 225.884 148.05 230.457C148.05 235.705 143.708 239.954 138.359 239.954C133.009 239.954 128.667 235.705 128.667 230.457C128.667 225.884 124.883 222.172 120.208 222.172C115.532 222.172 111.748 225.884 111.748 230.457C111.748 235.705 107.406 239.954 102.057 239.954C96.7074 239.954 92.3656 235.705 92.3656 230.457C92.3656 225.884 88.5809 222.172 83.9057 222.172C79.2305 222.172 75.4458 225.884 75.4458 230.457C75.4458 235.705 71.104 239.954 65.7547 239.954C60.4055 239.954 56.0636 235.705 56.0636 230.457C56.0636 225.884 52.279 222.172 47.6038 222.172C42.9286 222.172 39.1439 225.884 39.1439 230.457C39.1439 235.705 34.8021 239.954 29.4528 239.954C24.1035 239.954 19.7617 235.705 19.7617 230.457H20.993C20.993 235.029 24.7776 238.741 29.4528 238.741C34.128 238.741 37.9127 235.029 37.9127 230.457Z" fill="#C4C4C4"/>
<path fill-rule="evenodd" clip-rule="evenodd" d="M577.766 225.824H588.349V230.457C588.349 238.313 581.863 244.586 573.982 244.586C566.1 244.586 559.615 238.313 559.615 230.457C559.615 228.492 557.973 226.805 555.831 226.805C553.689 226.805 552.047 228.492 552.047 230.457C552.047 238.313 545.561 244.586 537.68 244.586C529.798 244.586 523.313 238.313 523.313 230.457C523.313 228.492 521.671 226.805 519.529 226.805C517.387 226.805 515.745 228.492 515.745 230.457C515.745 238.313 509.259 244.586 501.378 244.586C493.496 244.586 487.011 238.313 487.011 230.457C487.011 228.492 485.369 226.805 483.227 226.805C481.085 226.805 479.443 228.492 479.443 230.457C479.443 238.313 472.957 244.586 465.076 244.586C457.195 244.586 450.709 238.313 450.709 230.457C450.709 228.492 449.067 226.805 446.925 226.805C444.783 226.805 443.141 228.492 443.141 230.457C443.141 238.313 436.655 244.586 428.774 244.586C420.893 244.586 414.407 238.313 414.407 230.457C414.407 228.492 412.765 226.805 410.623 226.805C408.481 226.805 406.839 228.492 406.839 230.457C406.839 238.313 400.353 244.586 392.472 244.586C384.591 244.586 378.105 238.313 378.105 230.457C378.105 228.492 376.463 226.805 374.321 226.805C372.179 226.805 370.537 228.492 370.537 230.457C370.537 238.313 364.052 244.586 356.17 244.586C348.289 244.586 341.803 238.313 341.803 230.457C341.803 228.492 340.161 226.805 338.019 226.805C335.877 226.805 334.235 228.492 334.235 230.457C334.235 238.313 327.75 244.586 319.868 244.586C311.987 244.586 305.501 238.313 305.501 230.457C305.501 228.492 303.859 226.805 301.717 226.805C299.575 226.805 297.933 228.492 297.933 230.457C297.933 238.313 291.448 244.586 283.566 244.586C275.685 244.586 269.199 238.313 269.199 230.457C269.199 228.492 267.558 226.805 265.415 226.805C263.273 226.805 261.631 228.492 261.631 230.457C261.631 238.313 255.146 244.586 247.264 244.586C239.383 244.586 232.897 238.313 232.897 230.457C232.897 228.492 231.256 226.805 229.113 226.805C226.971 226.805 225.329 228.492 225.329 230.457C225.329 238.313 218.844 244.586 210.962 244.586C203.081 244.586 196.596 238.313 196.596 230.457C196.596 228.492 194.954 226.805 192.812 226.805C190.669 226.805 189.028 228.492 189.028 230.457C189.028 238.313 182.542 244.586 174.661 244.586C166.779 244.586 160.294 238.313 160.294 230.457C160.294 228.492 158.652 226.805 156.51 226.805C154.367 226.805 152.726 228.492 152.726 230.457C152.726 238.313 146.24 244.586 138.359 244.586C130.477 244.586 123.992 238.313 123.992 230.457C123.992 228.492 122.35 226.805 120.208 226.805C118.066 226.805 116.424 228.492 116.424 230.457C116.424 238.313 109.938 244.586 102.057 244.586C94.1754 244.586 87.6898 238.313 87.6898 230.457C87.6898 228.492 86.048 226.805 83.9058 226.805C81.7636 226.805 80.1218 228.492 80.1218 230.457C80.1218 238.313 73.6362 244.586 65.7548 244.586C57.8734 244.586 51.3879 238.313 51.3879 230.457C51.3879 228.492 49.746 226.805 47.6039 226.805C45.4617 226.805 43.8199 228.492 43.8199 230.457C43.8199 238.313 37.3343 244.586 29.4529 244.586C21.5715 244.586 15.0859 238.313 15.0859 230.457V225.824H25.6689V230.457C25.6689 232.422 27.3108 234.109 29.4529 234.109C31.5951 234.109 33.2369 232.422 33.2369 230.457C33.2369 222.601 39.7225 216.328 47.6039 216.328C55.4853 216.328 61.9709 222.601 61.9709 230.457C61.9709 232.422 63.6127 234.109 65.7548 234.109C67.897 234.109 69.5388 232.422 69.5388 230.457C69.5388 222.601 76.0244 216.328 83.9058 216.328C91.7872 216.328 98.2728 222.601 98.2728 230.457C98.2728 232.422 99.9146 234.109 102.057 234.109C104.199 234.109 105.841 232.422 105.841 230.457C105.841 222.601 112.326 216.328 120.208 216.328C128.089 216.328 134.575 222.601 134.575 230.457C134.575 232.422 136.217 234.109 138.359 234.109C140.501 234.109 142.143 232.422 142.143 230.457C142.143 222.601 148.628 216.328 156.51 216.328C164.391 216.328 170.877 222.601 170.877 230.457C170.877 232.422 172.518 234.109 174.661 234.109C176.803 234.109 178.445 232.422 178.445 230.457C178.445 222.601 184.93 216.328 192.812 216.328C200.693 216.328 207.179 222.601 207.179 230.457C207.179 232.422 208.82 234.109 210.962 234.109C213.105 234.109 214.746 232.422 214.746 230.457C214.746 222.601 221.232 216.328 229.113 216.328C236.995 216.328 243.48 222.601 243.48 230.457C243.48 232.422 245.122 234.109 247.264 234.109C249.407 234.109 251.048 232.422 251.048 230.457C251.048 222.601 257.534 216.328 265.415 216.328C273.297 216.328 279.782 222.601 279.782 230.457C279.782 232.422 281.424 234.109 283.566 234.109C285.708 234.109 287.35 232.422 287.35 230.457C287.35 222.601 293.836 216.328 301.717 216.328C309.599 216.328 316.084 222.601 316.084 230.457C316.084 232.422 317.726 234.109 319.868 234.109C322.01 234.109 323.652 232.422 323.652 230.457C323.652 222.601 330.138 216.328 338.019 216.328C345.901 216.328 352.386 222.601 352.386 230.457C352.386 232.422 354.028 234.109 356.17 234.109C358.312 234.109 359.954 232.422 359.954 230.457C359.954 222.601 366.44 216.328 374.321 216.328C382.203 216.328 388.688 222.601 388.688 230.457C388.688 232.422 390.33 234.109 392.472 234.109C394.614 234.109 396.256 232.422 396.256 230.457C396.256 222.601 402.742 216.328 410.623 216.328C418.504 216.328 424.99 222.601 424.99 230.457C424.99 232.422 426.632 234.109 428.774 234.109C430.916 234.109 432.558 232.422 432.558 230.457C432.558 222.601 439.044 216.328 446.925 216.328C454.806 216.328 461.292 222.601 461.292 230.457C461.292 232.422 462.934 234.109 465.076 234.109C467.218 234.109 468.86 232.422 468.86 230.457C468.86 222.601 475.345 216.328 483.227 216.328C491.108 216.328 497.594 222.601 497.594 230.457C497.594 232.422 499.236 234.109 501.378 234.109C503.52 234.109 505.162 232.422 505.162 230.457C505.162 222.601 511.647 216.328 519.529 216.328C527.41 216.328 533.896 222.601 533.896 230.457C533.896 232.422 535.538 234.109 537.68 234.109C539.822 234.109 541.464 232.422 541.464 230.457C541.464 222.601 547.949 216.328 555.831 216.328C563.712 216.328 570.198 222.601 570.198 230.457C570.198 232.422 571.839 234.109 573.982 234.109C576.124 234.109 577.766 232.422 577.766 230.457V225.824ZM20.9909 235.09C20.2082 233.719 19.7618 232.14 19.7618 230.457H20.9931C20.9931 235.029 24.7777 238.741 29.4529 238.741C34.1281 238.741 37.9128 235.029 37.9128 230.457C37.9128 225.209 42.2546 220.96 47.6039 220.96C52.9531 220.96 57.295 225.209 57.295 230.457C57.295 235.029 61.0796 238.741 65.7548 238.741C70.4301 238.741 74.2147 235.029 74.2147 230.457C74.2147 225.209 78.5565 220.96 83.9058 220.96C89.2551 220.96 93.5969 225.209 93.5969 230.457C93.5969 235.029 97.3815 238.741 102.057 238.741C106.732 238.741 110.517 235.029 110.517 230.457C110.517 225.209 114.858 220.96 120.208 220.96C125.557 220.96 129.899 225.209 129.899 230.457C129.899 235.029 133.683 238.741 138.359 238.741C143.034 238.741 146.819 235.029 146.819 230.457C146.819 225.209 151.16 220.96 156.51 220.96C161.859 220.96 166.201 225.209 166.201 230.457C166.201 235.029 169.985 238.741 174.661 238.741C179.336 238.741 183.12 235.029 183.12 230.457C183.12 225.209 187.462 220.96 192.812 220.96C198.161 220.96 202.503 225.209 202.503 230.457C202.503 235.029 206.287 238.741 210.962 238.741C215.638 238.741 219.422 235.029 219.422 230.457C219.422 225.209 223.764 220.96 229.113 220.96C234.463 220.96 238.805 225.209 238.805 230.457C238.805 235.029 242.589 238.741 247.264 238.741C251.94 238.741 255.724 235.029 255.724 230.457C255.724 225.209 260.066 220.96 265.415 220.96C270.765 220.96 275.106 225.209 275.106 230.457C275.106 235.029 278.891 238.741 283.566 238.741C288.242 238.741 292.026 235.029 292.026 230.457C292.026 225.209 296.368 220.96 301.717 220.96C307.067 220.96 311.408 225.209 311.408 230.457C311.408 235.029 315.193 238.741 319.868 238.741C324.543 238.741 328.328 235.029 328.328 230.457C328.328 225.209 332.67 220.96 338.019 220.96C343.368 220.96 347.71 225.209 347.71 230.457C347.71 235.029 351.495 238.741 356.17 238.741C360.845 238.741 364.63 235.029 364.63 230.457C364.63 225.209 368.972 220.96 374.321 220.96C379.67 220.96 384.012 225.209 384.012 230.457C384.012 235.029 387.797 238.741 392.472 238.741C397.147 238.741 400.932 235.029 400.932 230.457C400.932 225.209 405.274 220.96 410.623 220.96C415.972 220.96 420.314 225.209 420.314 230.457C420.314 235.029 424.099 238.741 428.774 238.741C433.449 238.741 437.234 235.029 437.234 230.457C437.234 225.209 441.576 220.96 446.925 220.96C452.274 220.96 456.616 225.209 456.616 230.457C456.616 235.029 460.401 238.741 465.076 238.741C469.751 238.741 473.536 235.029 473.536 230.457C473.536 225.209 477.878 220.96 483.227 220.96C488.576 220.96 492.918 225.209 492.918 230.457C492.918 235.029 496.703 238.741 501.378 238.741C506.053 238.741 509.838 235.029 509.838 230.457C509.838 225.209 514.18 220.96 519.529 220.96C524.878 220.96 529.22 225.209 529.22 230.457C529.22 235.029 533.005 238.741 537.68 238.741C542.355 238.741 546.14 235.029 546.14 230.457C546.14 225.209 550.481 220.96 555.831 220.96C561.18 220.96 565.522 225.209 565.522 230.457C565.522 235.029 569.306 238.741 573.982 238.741C578.657 238.741 582.442 235.029 582.442 230.457H583.673C583.673 232.14 583.226 233.719 582.444 235.09C580.785 237.993 577.616 239.954 573.982 239.954C568.632 239.954 564.291 235.705 564.291 230.457C564.291 225.885 560.506 222.173 555.831 222.173C551.155 222.173 547.371 225.885 547.371 230.457C547.371 235.705 543.029 239.954 537.68 239.954C532.331 239.954 527.989 235.705 527.989 230.457C527.989 225.885 524.204 222.173 519.529 222.173C514.854 222.173 511.069 225.885 511.069 230.457C511.069 235.705 506.727 239.954 501.378 239.954C496.029 239.954 491.687 235.705 491.687 230.457C491.687 225.885 487.902 222.173 483.227 222.173C478.552 222.173 474.767 225.885 474.767 230.457C474.767 235.705 470.425 239.954 465.076 239.954C459.727 239.954 455.385 235.705 455.385 230.457C455.385 225.885 451.6 222.173 446.925 222.173C442.25 222.173 438.465 225.885 438.465 230.457C438.465 235.705 434.123 239.954 428.774 239.954C423.425 239.954 419.083 235.705 419.083 230.457C419.083 225.885 415.298 222.173 410.623 222.173C405.948 222.173 402.163 225.885 402.163 230.457C402.163 235.705 397.821 239.954 392.472 239.954C387.123 239.954 382.781 235.705 382.781 230.457C382.781 225.885 378.996 222.173 374.321 222.173C369.646 222.173 365.861 225.885 365.861 230.457C365.861 235.705 361.519 239.954 356.17 239.954C350.821 239.954 346.479 235.705 346.479 230.457C346.479 225.885 342.694 222.173 338.019 222.173C333.344 222.173 329.559 225.885 329.559 230.457C329.559 235.705 325.218 239.954 319.868 239.954C314.519 239.954 310.177 235.705 310.177 230.457C310.177 225.885 306.393 222.173 301.717 222.173C297.042 222.173 293.257 225.885 293.257 230.457C293.257 235.705 288.916 239.954 283.566 239.954C278.217 239.954 273.875 235.705 273.875 230.457C273.875 225.885 270.091 222.173 265.415 222.173C260.74 222.173 256.956 225.885 256.956 230.457C256.956 235.705 252.614 239.954 247.264 239.954C241.915 239.954 237.573 235.705 237.573 230.457C237.573 225.885 233.789 222.173 229.113 222.173C224.438 222.173 220.654 225.885 220.654 230.457C220.654 235.705 216.312 239.954 210.962 239.954C205.613 239.954 201.271 235.705 201.271 230.457C201.271 225.885 197.487 222.173 192.812 222.173C188.136 222.173 184.352 225.885 184.352 230.457C184.352 235.705 180.01 239.954 174.661 239.954C169.311 239.954 164.969 235.705 164.969 230.457C164.969 225.885 161.185 222.173 156.51 222.173C151.834 222.173 148.05 225.885 148.05 230.457C148.05 235.705 143.708 239.954 138.359 239.954C133.009 239.954 128.668 235.705 128.668 230.457C128.668 225.885 124.883 222.173 120.208 222.173C115.532 222.173 111.748 225.885 111.748 230.457C111.748 235.705 107.406 239.954 102.057 239.954C96.7075 239.954 92.3657 235.705 92.3657 230.457C92.3657 225.885 88.581 222.173 83.9058 222.173C79.2306 222.173 75.4459 225.885 75.4459 230.457C75.4459 235.705 71.1041 239.954 65.7548 239.954C60.4056 239.954 56.0637 235.705 56.0637 230.457C56.0637 225.885 52.2791 222.173 47.6039 222.173C42.9287 222.173 39.144 225.885 39.144 230.457C39.144 235.705 34.8022 239.954 29.4529 239.954C25.8188 239.954 22.6496 237.993 20.9909 235.09Z" fill="white"/>
<path d="M47.3509 224.203C43.7355 224.203 40.8047 227.106 40.8047 230.688H53.8971C53.8971 227.106 50.9663 224.203 47.3509 224.203Z" fill="#B1FAFF"/>
<path d="M65.8215 236.711C69.566 236.711 72.6016 233.807 72.6016 230.225L59.0415 230.225C59.0415 233.807 62.077 236.711 65.8215 236.711Z" fill="#B1FAFF"/>
<path d="M102.055 236.711C105.671 236.711 108.602 233.807 108.602 230.225L95.5091 230.225C95.5091 233.807 98.4399 236.711 102.055 236.711Z" fill="#B1FAFF"/>
<path d="M138.528 236.711C142.143 236.711 145.074 233.807 145.074 230.225L131.982 230.225C131.982 233.807 134.913 236.711 138.528 236.711Z" fill="#B1FAFF"/>
<path d="M174.532 236.711C178.147 236.711 181.078 233.807 181.078 230.225L167.986 230.225C167.986 233.807 170.917 236.711 174.532 236.711Z" fill="#B1FAFF"/>
<path d="M211.005 236.711C214.62 236.711 217.551 233.807 217.551 230.225L204.458 230.225C204.458 233.807 207.389 236.711 211.005 236.711Z" fill="#B1FAFF"/>
<path d="M211.005 236.711C214.62 236.711 217.551 233.807 217.551 230.225L204.458 230.225C204.458 233.807 207.389 236.711 211.005 236.711Z" fill="#B1FAFF"/>
<path d="M247.247 236.711C250.992 236.711 254.027 233.807 254.027 230.225L240.467 230.225C240.467 233.807 243.503 236.711 247.247 236.711Z" fill="#B1FAFF"/>
<path d="M283.95 236.711C287.565 236.711 290.496 233.807 290.496 230.225L277.404 230.225C277.404 233.807 280.334 236.711 283.95 236.711Z" fill="#B1FAFF"/>
<path d="M319.954 236.711C323.569 236.711 326.5 233.807 326.5 230.225L313.408 230.225C313.408 233.807 316.338 236.711 319.954 236.711Z" fill="#B1FAFF"/>
<path d="M355.958 236.711C359.573 236.711 362.504 233.807 362.504 230.225L349.411 230.225C349.411 233.807 352.342 236.711 355.958 236.711Z" fill="#B1FAFF"/>
<path d="M392.426 236.711C396.042 236.711 398.973 233.807 398.973 230.225L385.88 230.225C385.88 233.807 388.811 236.711 392.426 236.711Z" fill="#B1FAFF"/>
<path d="M428.899 236.711C432.514 236.711 435.445 233.807 435.445 230.225L422.353 230.225C422.353 233.807 425.284 236.711 428.899 236.711Z" fill="#B1FAFF"/>
<path d="M465.376 236.711C468.991 236.711 471.922 233.807 471.922 230.225L458.829 230.225C458.829 233.807 461.76 236.711 465.376 236.711Z" fill="#B1FAFF"/>
<path d="M501.38 236.711C504.995 236.711 507.926 233.807 507.926 230.225L494.833 230.225C494.833 233.807 497.764 236.711 501.38 236.711Z" fill="#B1FAFF"/>
<path d="M537.383 236.711C540.999 236.711 543.93 233.807 543.93 230.225L530.837 230.225C530.837 233.807 533.768 236.711 537.383 236.711Z" fill="#B1FAFF"/>
<path d="M573.852 236.711C577.468 236.711 580.398 233.807 580.398 230.225L567.306 230.225C567.306 233.807 570.237 236.711 573.852 236.711Z" fill="#B1FAFF"/>
<path d="M83.8236 224.203C80.2082 224.203 77.2773 227.106 77.2773 230.688H90.3698C90.3698 227.106 87.439 224.203 83.8236 224.203Z" fill="#B1FAFF"/>
<path d="M120.292 224.203C116.677 224.203 113.746 227.106 113.746 230.688H126.839C126.839 227.106 123.908 224.203 120.292 224.203Z" fill="#B1FAFF"/>
<path d="M156.534 224.203C152.789 224.203 149.754 227.106 149.754 230.688H163.314C163.314 227.106 160.278 224.203 156.534 224.203Z" fill="#B1FAFF"/>
<path d="M192.769 224.203C189.154 224.203 186.223 227.106 186.223 230.688H199.315C199.315 227.106 196.384 224.203 192.769 224.203Z" fill="#B1FAFF"/>
<path d="M229.238 224.203C225.622 224.203 222.691 227.106 222.691 230.688H235.784C235.784 227.106 232.853 224.203 229.238 224.203Z" fill="#B1FAFF"/>
<path d="M265.245 224.203C261.63 224.203 258.699 227.106 258.699 230.688H271.792C271.792 227.106 268.861 224.203 265.245 224.203Z" fill="#B1FAFF"/>
<path d="M301.718 224.203C298.103 224.203 295.172 227.106 295.172 230.688H308.264C308.264 227.106 305.333 224.203 301.718 224.203Z" fill="#B1FAFF"/>
<path d="M338.191 224.203C334.575 224.203 331.645 227.106 331.645 230.688H344.737C344.737 227.106 341.806 224.203 338.191 224.203Z" fill="#B1FAFF"/>
<path d="M374.195 224.203C370.579 224.203 367.648 227.106 367.648 230.688H380.741C380.741 227.106 377.81 224.203 374.195 224.203Z" fill="#B1FAFF"/>
<path d="M410.663 224.203C407.048 224.203 404.117 227.106 404.117 230.688H417.21C417.21 227.106 414.279 224.203 410.663 224.203Z" fill="#B1FAFF"/>
<path d="M446.671 224.203C443.056 224.203 440.125 227.106 440.125 230.688H453.217C453.217 227.106 450.287 224.203 446.671 224.203Z" fill="#B1FAFF"/>
<path d="M483.14 224.203C479.525 224.203 476.594 227.106 476.594 230.688H489.686C489.686 227.106 486.755 224.203 483.14 224.203Z" fill="#B1FAFF"/>
<path d="M519.613 224.203C515.997 224.203 513.066 227.106 513.066 230.688H526.159C526.159 227.106 523.228 224.203 519.613 224.203Z" fill="#B1FAFF"/>
<path d="M556.085 224.203C552.47 224.203 549.539 227.106 549.539 230.688H562.632C562.632 227.106 559.701 224.203 556.085 224.203Z" fill="#B1FAFF"/>
<line y1="-0.876403" x2="16.6301" y2="-0.876403" transform="matrix(0.393637 -0.919266 0.921879 0.387478 20.2305 208.452)" stroke="#FF6400" stroke-width="1.75281"/>
<line y1="-0.876403" x2="19.1276" y2="-0.876403" transform="matrix(0.391132 -0.920335 0.922917 0.384998 28.6445 210.769)" stroke="#FF6400" stroke-width="1.75281"/>
<line y1="-0.876403" x2="19.1276" y2="-0.876403" transform="matrix(0.391132 -0.920335 0.922917 0.384998 38 210.769)" stroke="#FF6400" stroke-width="1.75281"/>
<line y1="-0.876403" x2="18.52" y2="-0.876403" transform="matrix(0.378715 -0.925513 0.927947 0.372711 47.3516 210.305)" stroke="#FF6400" stroke-width="1.75281"/>
<line y1="-0.876403" x2="19.1276" y2="-0.876403" transform="matrix(0.391132 -0.920335 0.922917 0.384998 56.2344 210.769)" stroke="#FF6400" stroke-width="1.75281"/>
<line y1="-0.876403" x2="19.1276" y2="-0.876403" transform="matrix(0.391132 -0.920335 0.922917 0.384998 65.5859 210.769)" stroke="#FF6400" stroke-width="1.75281"/>
<line y1="-0.876403" x2="18.7021" y2="-0.876403" transform="matrix(0.40003 -0.916502 0.919193 0.393808 74.9375 210.305)" stroke="#FF6400" stroke-width="1.75281"/>
<line y1="-0.876403" x2="19.1276" y2="-0.876403" transform="matrix(0.391132 -0.920335 0.922917 0.384998 84.2891 210.769)" stroke="#FF6400" stroke-width="1.75281"/>
<line y1="-0.876403" x2="19.1276" y2="-0.876403" transform="matrix(0.391132 -0.920335 0.922917 0.384998 93.6406 210.769)" stroke="#FF6400" stroke-width="1.75281"/>
<line y1="-0.876403" x2="18.52" y2="-0.876403" transform="matrix(0.378715 -0.925513 0.927947 0.372711 102.992 210.305)" stroke="#FF6400" stroke-width="1.75281"/>
<line y1="-0.876403" x2="19.1276" y2="-0.876403" transform="matrix(0.391132 -0.920335 0.922917 0.384998 111.879 210.769)" stroke="#FF6400" stroke-width="1.75281"/>
<line y1="-0.876403" x2="19.1276" y2="-0.876403" transform="matrix(0.391132 -0.920335 0.922917 0.384998 121.227 210.769)" stroke="#FF6400" stroke-width="1.75281"/>
<line y1="-0.876403" x2="19.1276" y2="-0.876403" transform="matrix(0.391132 -0.920335 0.922917 0.384998 129.645 210.769)" stroke="#FF6400" stroke-width="1.75281"/>
<line y1="-0.876403" x2="19.1276" y2="-0.876403" transform="matrix(0.391132 -0.920335 0.922917 0.384998 138.996 210.769)" stroke="#FF6400" stroke-width="1.75281"/>
<line y1="-0.876403" x2="18.52" y2="-0.876403" transform="matrix(0.378715 -0.925513 0.927947 0.372711 148.348 210.305)" stroke="#FF6400" stroke-width="1.75281"/>
<line y1="-0.876403" x2="19.1276" y2="-0.876403" transform="matrix(0.391132 -0.920335 0.922917 0.384998 157.234 210.769)" stroke="#FF6400" stroke-width="1.75281"/>
<line y1="-0.876403" x2="19.1276" y2="-0.876403" transform="matrix(0.391132 -0.920335 0.922917 0.384998 166.586 210.769)" stroke="#FF6400" stroke-width="1.75281"/>
<line y1="-0.876403" x2="19.1276" y2="-0.876403" transform="matrix(0.391132 -0.920335 0.922917 0.384998 175 210.769)" stroke="#FF6400" stroke-width="1.75281"/>
<line y1="-0.876403" x2="19.1276" y2="-0.876403" transform="matrix(0.391132 -0.920335 0.922917 0.384998 184.355 210.769)" stroke="#FF6400" stroke-width="1.75281"/>
<line y1="-0.876403" x2="18.52" y2="-0.876403" transform="matrix(0.378715 -0.925513 0.927947 0.372711 193.703 210.305)" stroke="#FF6400" stroke-width="1.75281"/>
<line y1="-0.876403" x2="19.1276" y2="-0.876403" transform="matrix(0.391132 -0.920335 0.922917 0.384998 202.59 210.769)" stroke="#FF6400" stroke-width="1.75281"/>
<line y1="-0.876403" x2="19.1276" y2="-0.876403" transform="matrix(0.391132 -0.920335 0.922917 0.384998 211.941 210.769)" stroke="#FF6400" stroke-width="1.75281"/>
<line y1="-0.876403" x2="19.1276" y2="-0.876403" transform="matrix(0.391132 -0.920335 0.922917 0.384998 220.824 210.769)" stroke="#FF6400" stroke-width="1.75281"/>
<line y1="-0.876403" x2="19.1276" y2="-0.876403" transform="matrix(0.391132 -0.920335 0.922917 0.384998 230.18 210.769)" stroke="#FF6400" stroke-width="1.75281"/>
<line y1="-0.876403" x2="18.52" y2="-0.876403" transform="matrix(0.378715 -0.925513 0.927947 0.372711 239.527 210.305)" stroke="#FF6400" stroke-width="1.75281"/>
<line y1="-0.876403" x2="19.1276" y2="-0.876403" transform="matrix(0.391132 -0.920335 0.922917 0.384998 248.414 210.769)" stroke="#FF6400" stroke-width="1.75281"/>
<line y1="-0.876403" x2="19.1276" y2="-0.876403" transform="matrix(0.391132 -0.920335 0.922917 0.384998 257.762 210.769)" stroke="#FF6400" stroke-width="1.75281"/>
<line y1="-0.876403" x2="19.1276" y2="-0.876403" transform="matrix(0.391132 -0.920335 0.922917 0.384998 266.652 210.769)" stroke="#FF6400" stroke-width="1.75281"/>
<line y1="-0.876403" x2="19.1276" y2="-0.876403" transform="matrix(0.391132 -0.920335 0.922917 0.384998 276 210.769)" stroke="#FF6400" stroke-width="1.75281"/>
<line y1="-0.876403" x2="18.52" y2="-0.876403" transform="matrix(0.378715 -0.925513 0.927947 0.372711 285.352 210.305)" stroke="#FF6400" stroke-width="1.75281"/>
<line y1="-0.876403" x2="19.1276" y2="-0.876403" transform="matrix(0.391132 -0.920335 0.922917 0.384998 294.234 210.769)" stroke="#FF6400" stroke-width="1.75281"/>
<line y1="-0.876403" x2="14.5295" y2="-0.876403" transform="matrix(0.450548 -0.892752 0.896081 0.443891 303.59 210.769)" stroke="#FF6400" stroke-width="1.75281"/>
<path d="M64.1797 220.034C64.1797 217.475 66.2731 215.401 68.8556 215.401H255.423C258.006 215.401 260.099 217.475 260.099 220.034V254.315C260.099 256.874 258.006 258.948 255.423 258.948H68.8556C66.2732 258.948 64.1797 256.874 64.1797 254.315V220.034Z" fill="white"/>
<path fill-rule="evenodd" clip-rule="evenodd" d="M255.423 216.328H68.8556C66.7896 216.328 65.1149 217.987 65.1149 220.034V254.315C65.1149 256.362 66.7896 258.021 68.8556 258.021H255.423C257.489 258.021 259.164 256.362 259.164 254.315V220.034C259.164 217.987 257.489 216.328 255.423 216.328ZM68.8556 215.401C66.2731 215.401 64.1797 217.475 64.1797 220.034V254.315C64.1797 256.874 66.2732 258.948 68.8556 258.948H255.423C258.006 258.948 260.099 256.874 260.099 254.315V220.034C260.099 217.475 258.006 215.401 255.423 215.401H68.8556Z" fill="#FF6400"/>
<path d="M70.2578 225.13C70.2578 222.571 72.3513 220.497 74.9337 220.497H248.876C251.459 220.497 253.552 222.571 253.552 225.13V249.219C253.552 251.778 251.459 253.852 248.876 253.852H74.9337C72.3513 253.852 70.2578 251.778 70.2578 249.219V225.13Z" fill="#FF6400"/>
<path d="M94.7877 241.344H92.9023V232.264H94.7746L97.4323 236.026L100.09 232.264H101.949V241.344H100.09V235.131L97.9822 238.049H96.9348L94.7877 235.131V241.344Z" fill="white"/>
<path d="M105.284 241.526C104.655 241.526 104.193 241.439 103.896 241.266V239.619C104.193 239.783 104.546 239.865 104.957 239.865C105.341 239.865 105.646 239.779 105.873 239.606C106.091 239.442 106.327 239.109 106.58 238.607L103.111 232.264H105.192L107.51 236.726L109.539 232.264H111.542L108.164 239.372C107.483 240.808 106.523 241.526 105.284 241.526Z" fill="white"/>
<path d="M114.541 241.344H112.656V232.264H116.662C117.649 232.264 118.426 232.519 118.993 233.029C119.569 233.531 119.857 234.188 119.857 235.001C119.857 235.823 119.569 236.484 118.993 236.986C118.426 237.496 117.649 237.751 116.662 237.751H114.541V241.344ZM114.541 233.898V236.155H116.531C116.985 236.155 117.339 236.06 117.592 235.87C117.845 235.671 117.972 235.39 117.972 235.027C117.972 234.664 117.845 234.387 117.592 234.197C117.339 233.998 116.985 233.898 116.531 233.898H114.541Z" fill="white"/>
<path d="M123.172 241.344H121.286V232.264H123.159L125.816 236.026L128.474 232.264H130.333V241.344H128.474V235.131L126.366 238.049H125.319L123.172 235.131V241.344Z" fill="white"/>
<path d="M133.537 241.344H131.56L135.488 232.212H137.295L141.222 241.344H139.219L138.316 239.243H134.44L133.537 241.344ZM136.378 234.547L135.03 237.699H137.714L136.378 234.547Z" fill="white"/>
<path d="M144.319 241.344H142.434V232.264H144.319V235.663H148.456V232.264H150.329V241.344H148.456V237.362H144.319V241.344Z" fill="white"/>
<path d="M154.241 241.344H152.355V232.264H156.362C157.348 232.264 158.125 232.519 158.692 233.029C159.268 233.531 159.556 234.188 159.556 235.001C159.556 235.823 159.268 236.484 158.692 236.986C158.125 237.496 157.348 237.751 156.362 237.751H154.241V241.344ZM154.241 233.898V236.155H156.231C156.685 236.155 157.038 236.06 157.291 235.87C157.544 235.671 157.671 235.39 157.671 235.027C157.671 234.664 157.544 234.387 157.291 234.197C157.038 233.998 156.685 233.898 156.231 233.898H154.241Z" fill="white"/>
<path d="M171.106 241.344H169.221V232.264H171.106V241.344ZM164.573 241.344H160.986V232.264H162.871V235.26H164.573C165.664 235.26 166.528 235.546 167.165 236.117C167.803 236.67 168.121 237.401 168.121 238.309C168.121 239.217 167.803 239.947 167.165 240.501C166.519 241.063 165.655 241.344 164.573 241.344ZM162.871 236.843V239.697H164.468C165.018 239.697 165.446 239.576 165.751 239.333C166.066 239.083 166.223 238.732 166.223 238.283C166.223 237.824 166.066 237.47 165.751 237.219C165.446 236.968 165.018 236.843 164.468 236.843H162.871Z" fill="white"/>
<path d="M177.086 241.344H173.132V232.264H179.783V233.937H175.017V235.39H177.086C178.16 235.39 179.002 235.667 179.613 236.22C180.241 236.782 180.555 237.5 180.555 238.374C180.555 239.247 180.246 239.965 179.626 240.527C179.006 241.072 178.16 241.344 177.086 241.344ZM175.017 236.947V239.697H176.942C177.492 239.697 177.915 239.58 178.212 239.346C178.509 239.113 178.657 238.776 178.657 238.335C178.657 237.894 178.504 237.552 178.199 237.31C177.902 237.068 177.483 236.947 176.942 236.947H175.017Z" fill="white"/>
<path d="M184.006 241.344H182.12V232.264H189.792V241.344H187.92V233.937H184.006V241.344Z" fill="white"/>
<path d="M193.71 241.344H191.825V232.264H195.831C196.817 232.264 197.594 232.519 198.161 233.029C198.737 233.531 199.025 234.188 199.025 235.001C199.025 235.823 198.737 236.484 198.161 236.986C197.594 237.496 196.817 237.751 195.831 237.751H193.71V241.344ZM193.71 233.898V236.155H195.7C196.154 236.155 196.507 236.06 196.76 235.87C197.014 235.671 197.14 235.39 197.14 235.027C197.14 234.664 197.014 234.387 196.76 234.197C196.507 233.998 196.154 233.898 195.7 233.898H193.71Z" fill="white"/>
<path d="M202.864 238.931C203.405 239.493 204.081 239.774 204.893 239.774C205.696 239.774 206.368 239.493 206.909 238.931C207.451 238.369 207.721 237.66 207.721 236.804C207.721 235.948 207.451 235.239 206.909 234.677C206.368 234.115 205.696 233.834 204.893 233.834C204.081 233.834 203.405 234.115 202.864 234.677C202.331 235.23 202.065 235.939 202.065 236.804C202.065 237.669 202.331 238.378 202.864 238.931ZM200.141 236.804C200.141 235.472 200.59 234.357 201.489 233.457C202.388 232.541 203.523 232.083 204.893 232.083C206.255 232.083 207.385 232.541 208.284 233.457C209.192 234.374 209.646 235.49 209.646 236.804C209.646 238.11 209.192 239.225 208.284 240.151C207.385 241.067 206.255 241.526 204.893 241.526C203.523 241.526 202.388 241.067 201.489 240.151C200.59 239.234 200.141 238.118 200.141 236.804Z" fill="white"/>
<path d="M213.234 241.344H211.348V232.264H213.22L215.878 236.026L218.536 232.264H220.395V241.344H218.536V235.131L216.428 238.049H215.381L213.234 235.131V241.344Z" fill="white"/>
<path d="M226.715 238.568H222.669V236.921H226.715V238.568Z" fill="white"/>
<path d="M232.017 241.344H230.171V234.262L228.233 235.235V233.406L230.38 232.264H232.017V241.344Z" fill="white"/>
<path d="M78.6743 226.056C78.6743 227.08 77.8369 227.909 76.8039 227.909C75.771 227.909 74.9336 227.08 74.9336 226.056C74.9336 225.033 75.771 224.203 76.8039 224.203C77.8369 224.203 78.6743 225.033 78.6743 226.056Z" fill="white"/>
<path d="M78.6743 247.366C78.6743 248.39 77.8369 249.219 76.8039 249.219C75.771 249.219 74.9336 248.39 74.9336 247.366C74.9336 246.343 75.771 245.513 76.8039 245.513C77.8369 245.513 78.6743 246.343 78.6743 247.366Z" fill="white"/>
<path d="M249.346 226.056C249.346 227.08 248.509 227.909 247.476 227.909C246.443 227.909 245.605 227.08 245.605 226.056C245.605 225.033 246.443 224.203 247.476 224.203C248.509 224.203 249.346 225.033 249.346 226.056Z" fill="white"/>
<path d="M249.346 247.366C249.346 248.39 248.509 249.219 247.476 249.219C246.443 249.219 245.605 248.39 245.605 247.366C245.605 246.343 246.443 245.513 247.476 245.513C248.509 245.513 249.346 246.343 249.346 247.366Z" fill="white"/>
<ellipse cx="27.0116" cy="201.272" rx="1.63656" ry="1.6214" fill="#FF6400"/>
<ellipse cx="46.1795" cy="201.271" rx="1.63656" ry="1.6214" fill="#FF6400"/>
<ellipse cx="64.4178" cy="201.272" rx="1.63656" ry="1.6214" fill="#FF6400"/>
<ellipse cx="83.117" cy="201.271" rx="1.63656" ry="1.6214" fill="#FF6400"/>
<ellipse cx="101.355" cy="201.272" rx="1.63656" ry="1.6214" fill="#FF6400"/>
<ellipse cx="120.062" cy="201.271" rx="1.63656" ry="1.6214" fill="#FF6400"/>
<ellipse cx="137.828" cy="201.272" rx="1.63656" ry="1.6214" fill="#FF6400"/>
<ellipse cx="156.066" cy="201.271" rx="1.63656" ry="1.6214" fill="#FF6400"/>
<ellipse cx="174.301" cy="201.272" rx="1.63656" ry="1.6214" fill="#FF6400"/>
<ellipse cx="192.066" cy="201.271" rx="1.63656" ry="1.6214" fill="#FF6400"/>
<ellipse cx="210.773" cy="201.272" rx="1.63656" ry="1.6214" fill="#FF6400"/>
<ellipse cx="229.004" cy="201.271" rx="1.63656" ry="1.6214" fill="#FF6400"/>
<ellipse cx="247.242" cy="201.272" rx="1.63656" ry="1.6214" fill="#FF6400"/>
<ellipse cx="265.48" cy="201.271" rx="1.63656" ry="1.6214" fill="#FF6400"/>
<ellipse cx="283.715" cy="201.271" rx="1.63656" ry="1.6214" fill="#FF6400"/>
<ellipse cx="302.422" cy="201.271" rx="1.63656" ry="1.6214" fill="#FF6400"/>
<path d="M306.544 165.078C306.354 165.136 306.047 165.187 305.606 165.181C304.571 165.168 303.142 164.848 301.62 164.149C300.098 163.449 298.929 162.575 298.25 161.801C297.961 161.471 297.801 161.206 297.723 161.025C297.913 160.967 298.22 160.916 298.661 160.922C299.696 160.935 301.125 161.255 302.647 161.954C304.17 162.653 305.339 163.528 306.018 164.302C306.307 164.632 306.466 164.897 306.544 165.078ZM300.483 166.577C302.267 167.396 304.069 167.836 305.564 167.855C306.309 167.865 307.021 167.77 307.625 167.531C308.236 167.289 308.784 166.878 309.081 166.243C309.378 165.609 309.34 164.929 309.132 164.311C308.926 163.699 308.54 163.1 308.051 162.542C307.071 161.424 305.568 160.345 303.784 159.526C302.001 158.707 300.198 158.267 298.704 158.248C297.958 158.238 297.247 158.333 296.642 158.572C296.032 158.814 295.484 159.225 295.187 159.859C294.89 160.494 294.927 161.174 295.135 161.792C295.341 162.404 295.728 163.003 296.217 163.561C297.197 164.678 298.7 165.757 300.483 166.577Z" fill="#FF6400" stroke="white" stroke-width="1.75281"/>
<path d="M315.896 169.247C315.706 169.305 315.399 169.356 314.958 169.35C313.923 169.337 312.494 169.018 310.972 168.318C309.449 167.619 308.28 166.745 307.601 165.971C307.312 165.64 307.153 165.375 307.075 165.194C307.265 165.137 307.572 165.086 308.013 165.091C309.048 165.104 310.477 165.424 311.999 166.123C313.521 166.823 314.691 167.697 315.369 168.471C315.658 168.801 315.818 169.066 315.896 169.247ZM309.835 170.746C311.619 171.566 313.421 172.006 314.915 172.025C315.661 172.034 316.372 171.939 316.977 171.7C317.587 171.458 318.135 171.048 318.432 170.413C318.73 169.778 318.692 169.098 318.484 168.481C318.278 167.869 317.891 167.27 317.402 166.712C316.422 165.594 314.919 164.515 313.136 163.695C311.352 162.876 309.55 162.436 308.056 162.417C307.31 162.408 306.598 162.502 305.994 162.742C305.384 162.983 304.835 163.394 304.538 164.029C304.241 164.664 304.279 165.344 304.487 165.961C304.693 166.573 305.079 167.172 305.568 167.73C306.548 168.848 308.052 169.927 309.835 170.746Z" fill="#FF6400" stroke="white" stroke-width="1.75281"/>
<path d="M326.358 171.583C326.24 171.424 326.024 171.203 325.667 170.948C324.828 170.347 323.488 169.76 321.844 169.423C320.201 169.085 318.736 169.097 317.725 169.318C317.295 169.412 317.008 169.53 316.837 169.629C316.955 169.788 317.17 170.009 317.527 170.265M326.358 171.583L317.527 170.265M326.358 171.583C326.186 171.682 325.899 171.8 325.47 171.894C324.458 172.115 322.993 172.127 321.35 171.79C319.706 171.452 318.366 170.865 317.527 170.265M326.358 171.583L317.527 170.265M320.802 174.413C322.726 174.807 324.582 174.829 326.041 174.51C326.769 174.35 327.44 174.097 327.973 173.728C328.512 173.355 328.951 172.83 329.095 172.144C329.238 171.458 329.045 170.804 328.7 170.25C328.359 169.701 327.844 169.204 327.24 168.772C326.029 167.905 324.317 167.194 322.393 166.8C320.468 166.405 318.612 166.384 317.153 166.703C316.425 166.862 315.755 167.115 315.221 167.484C314.683 167.857 314.243 168.382 314.099 169.068C313.956 169.754 314.15 170.408 314.494 170.963C314.836 171.512 315.35 172.008 315.954 172.44C317.165 173.307 318.877 174.018 320.802 174.413Z" fill="#FF6400" stroke="white" stroke-width="1.75281"/>
<path d="M336.178 173.899C336.06 173.741 335.844 173.519 335.488 173.264C334.648 172.663 333.308 172.076 331.665 171.739C330.021 171.402 328.556 171.413 327.545 171.635C327.116 171.728 326.829 171.847 326.657 171.946C326.775 172.104 326.991 172.326 327.347 172.581M336.178 173.899L327.347 172.581M336.178 173.899C336.006 173.998 335.719 174.117 335.29 174.21C334.279 174.431 332.814 174.443 331.17 174.106C329.527 173.769 328.187 173.182 327.347 172.581M336.178 173.899L327.347 172.581M330.622 176.729C332.547 177.124 334.402 177.145 335.861 176.826C336.589 176.667 337.26 176.414 337.793 176.044C338.332 175.671 338.772 175.147 338.915 174.461C339.059 173.774 338.865 173.12 338.52 172.566C338.179 172.017 337.665 171.521 337.06 171.088C335.849 170.222 334.138 169.511 332.213 169.116C330.288 168.721 328.432 168.7 326.974 169.019C326.246 169.178 325.575 169.431 325.042 169.801C324.503 170.174 324.063 170.698 323.92 171.384C323.776 172.071 323.97 172.725 324.315 173.279C324.656 173.828 325.17 174.324 325.775 174.757C326.985 175.623 328.697 176.334 330.622 176.729Z" fill="#FF6400" stroke="white" stroke-width="1.75281"/>
<path d="M54.3855 96.3438H9.00633C6.94039 96.3438 5.26562 94.6846 5.26562 92.6378V58.8314C5.26562 55.7754 8.78904 54.0327 11.2545 55.8694L56.6336 89.6757C59.505 91.8148 57.978 96.3438 54.3855 96.3438Z" fill="#FF6400"/>
<path d="M7.13672 59.0515V92.1744C8.44596 71.6058 15.7871 65.846 19.294 65.5372C18.0471 64.3018 14.8519 61.2752 12.0464 59.0515C9.24086 56.8279 7.60431 58.125 7.13672 59.0515Z" fill="white" fill-opacity="0.3"/>
<path d="M368.816 73.1807L362.504 96.5752C367.928 79.5273 375.986 73.8756 379.337 73.1807H368.816Z" fill="white" fill-opacity="0.3"/>
<path d="M391.549 68.6348L390.797 73.1811C391.006 71.589 391.259 70.0745 391.549 68.6348L395.473 44.9224H405.526C401.964 46.475 394.639 53.3177 391.549 68.6348Z" fill="white" fill-opacity="0.3"/>
<path d="M326.97 128.309C326.222 129.606 328.529 141.512 329.776 147.302C330.898 131.552 340.998 125.452 345.908 124.371C339.907 125.143 327.718 127.012 326.97 128.309Z" fill="white" fill-opacity="0.3"/>
<mask id="mask0" mask-type="alpha" maskUnits="userSpaceOnUse" x="157" y="91" width="121" height="73">
<rect x="158.104" y="92.6876" width="118.65" height="70.315" rx="7.88763" fill="#C4C4C4" stroke="white" stroke-width="1.75281"/>
</mask>
<g mask="url(#mask0)">
<rect x="172.539" y="93.564" width="6.54623" height="68.5621" fill="#FF6400"/>
<rect x="165.523" y="93.564" width="6.54623" height="68.5621" fill="#FF6400"/>
<rect x="158.512" y="93.564" width="6.54623" height="68.5621" fill="#FF6400"/>
<rect x="186.57" y="93.564" width="6.54623" height="68.5621" fill="#FF6400"/>
<rect x="179.555" y="93.564" width="6.54623" height="68.5621" fill="#FF6400"/>
<rect x="200.594" y="93.564" width="6.54623" height="68.5621" fill="#FF6400"/>
<rect x="193.582" y="93.564" width="6.54623" height="68.5621" fill="#FF6400"/>
<rect x="214.621" y="93.564" width="6.54623" height="68.5621" fill="#FF6400"/>
<rect x="207.605" y="93.564" width="6.54623" height="68.5621" fill="#FF6400"/>
<rect x="228.652" y="93.564" width="6.54623" height="68.5621" fill="#FF6400"/>
<rect x="221.637" y="93.564" width="6.54623" height="68.5621" fill="#FF6400"/>
<rect x="242.676" y="93.564" width="6.54623" height="68.5621" fill="#FF6400"/>
<rect x="235.664" y="93.564" width="6.54623" height="68.5621" fill="#FF6400"/>
<rect x="256.707" y="93.564" width="6.54623" height="68.5621" fill="#FF6400"/>
<rect x="249.691" y="93.564" width="6.54623" height="68.5621" fill="#FF6400"/>
<rect x="270.734" y="93.564" width="6.54623" height="68.5621" fill="#FF6400"/>
<rect x="263.719" y="93.564" width="6.54623" height="68.5621" fill="#FF6400"/>
</g>
<path d="M161.337 100.745V125.066C165.968 104.497 188.503 97.0385 199.191 95.8804H165.345C161.782 95.8804 161.188 99.1232 161.337 100.745Z" fill="white" fill-opacity="0.3"/>
<ellipse cx="217.427" cy="118.117" rx="16.8332" ry="16.6773" fill="white"/>
<path fill-rule="evenodd" clip-rule="evenodd" d="M224.492 124.146C225.081 123.136 225.786 122.812 226.849 122.666C227.634 122.559 228.063 122.629 228.592 122.716C228.78 122.747 228.98 122.779 229.214 122.807C229.148 122.839 229.062 122.877 228.961 122.921C228.29 123.213 226.993 123.779 226.927 124.865C226.851 126.115 228.051 127.214 228.566 127.419C227.824 127.531 224.754 127.245 224.406 124.8C214.504 125.645 209.473 120.854 209.284 113.158C209.727 113.289 210.101 113.415 210.436 113.529C211.943 114.041 212.678 114.29 215.488 113.474C215.015 119.421 220.643 122.877 224.48 124.231L224.492 124.146Z" fill="#FF6400"/>
<path fill-rule="evenodd" clip-rule="evenodd" d="M215.254 112.938C212.59 114.243 210.493 113.177 209.43 112.435C209.608 111.819 210.111 110.427 210.698 109.793C211.285 109.16 212.132 109.043 212.482 109.064C212.538 109.067 212.597 109.074 212.661 109.086C212.919 109.56 213.235 110.268 213.176 110.673C213.121 111.051 213.591 110.456 214.007 109.862C214.574 110.448 215.088 111.413 215.254 112.938ZM211.63 110.998C211.855 111.127 212.143 111.05 212.273 110.827C212.403 110.604 212.326 110.319 212.101 110.19C211.876 110.061 211.588 110.138 211.458 110.361C211.327 110.584 211.405 110.869 211.63 110.998Z" fill="#FF6400"/>
<path d="M207.987 118.881C208.025 118.256 208.733 116.435 209.082 115.602C209.257 118.288 210.986 120.731 211.829 121.617C210.533 120.965 207.949 119.506 207.987 118.881Z" fill="#FF6400"/>
<path d="M218.37 115.527C217.953 114.75 216.544 114.617 215.892 114.648C215.48 115.355 216.2 116.171 216.354 115.721C216.547 115.157 218.891 116.498 218.37 115.527Z" fill="#FF6400"/>
<path d="M212.35 114.5C212.115 114.681 210.331 114.475 209.6 113.774C210.326 118.406 212.035 121.092 215.812 123.22L218.292 124.161C217.53 123.75 215.538 122.366 213.66 120.113C211.313 117.296 212.644 114.274 212.35 114.5Z" fill="white" fill-opacity="0.3"/>
<path d="M225.65 123.327C225.217 123.511 224.952 123.826 224.874 123.96C225.109 123.556 228.09 123.107 227.784 122.932C227.478 122.757 226.192 123.098 225.65 123.327Z" fill="white" fill-opacity="0.3"/>
<rect x="195.449" y="138.963" width="43.0181" height="12.9712" fill="#FF6400"/>
<path d="M200.167 150.082H198.281V141.002H202.288C203.274 141.002 204.051 141.257 204.618 141.767C205.194 142.269 205.482 142.926 205.482 143.739C205.482 144.561 205.194 145.222 204.618 145.724C204.051 146.234 203.274 146.489 202.288 146.489H200.167V150.082ZM200.167 142.636V144.893H202.157C202.61 144.893 202.964 144.798 203.217 144.608C203.47 144.409 203.597 144.128 203.597 143.765C203.597 143.402 203.47 143.125 203.217 142.935C202.964 142.736 202.61 142.636 202.157 142.636H200.167Z" fill="white"/>
<path d="M217.032 150.082H215.147V141.002H217.032V150.082ZM210.499 150.082H206.912V141.002H208.797V143.998H210.499C211.59 143.998 212.454 144.284 213.091 144.855C213.728 145.408 214.047 146.139 214.047 147.047C214.047 147.955 213.728 148.685 213.091 149.239C212.445 149.801 211.581 150.082 210.499 150.082ZM208.797 145.581V148.435H210.394C210.944 148.435 211.372 148.314 211.677 148.071C211.991 147.821 212.149 147.47 212.149 147.021C212.149 146.562 211.991 146.208 211.677 145.957C211.372 145.706 210.944 145.581 210.394 145.581H208.797Z" fill="white"/>
<path d="M223.012 150.082H219.058V141.002H225.709V142.675H220.943V144.128H223.012C224.085 144.128 224.928 144.405 225.539 144.958C226.167 145.52 226.481 146.238 226.481 147.112C226.481 147.985 226.171 148.703 225.552 149.265C224.932 149.81 224.085 150.082 223.012 150.082ZM220.943 145.685V148.435H222.868C223.418 148.435 223.841 148.318 224.138 148.084C224.435 147.851 224.583 147.514 224.583 147.073C224.583 146.632 224.43 146.29 224.125 146.048C223.828 145.806 223.409 145.685 222.868 145.685H220.943Z" fill="white"/>
<path d="M229.224 150.082H227.248L231.175 140.95H232.982L236.91 150.082H234.907L234.003 147.981H230.128L229.224 150.082ZM232.066 143.285L230.717 146.437H233.401L232.066 143.285Z" fill="white"/>
<rect x="156.176" y="98.1968" width="12.1573" height="4.63258" rx="2.31629" fill="#C4C4C4"/>
<rect x="156.176" y="151.008" width="12.1573" height="4.63258" rx="2.31629" fill="#C4C4C4"/>
<rect x="266.992" y="98.1968" width="12.1573" height="4.63258" rx="2.31629" fill="#C4C4C4"/>
<rect x="266.992" y="151.008" width="12.1573" height="4.63258" rx="2.31629" fill="#C4C4C4"/>
<path d="M168.801 92.1745L213.214 64.0968C216.075 62.2886 219.72 62.2886 222.581 64.0968L266.994 92.1745" stroke="#C4C4C4" stroke-width="2.62921" stroke-linecap="round"/>
<ellipse cx="217.897" cy="66.6952" rx="2.33794" ry="2.31629" fill="#FF6400"/>
<defs>
<clipPath id="clip0">
<rect width="13.0925" height="12.508" fill="white" transform="translate(526.16 148.229)"/>
</clipPath>
<clipPath id="clip1">
<rect width="22.9118" height="22.6996" fill="white" transform="translate(420.488 123.212)"/>
</clipPath>
</defs>
</svg>
