<svg width="69" height="68" viewBox="0 0 69 68" fill="none" xmlns="http://www.w3.org/2000/svg">
<circle r="33.0007" transform="matrix(-1 0 0 1 33.9993 33.9997)" stroke="#F15526" stroke-width="2"/>
<path d="M27.3465 34.0076V32.6533C27.0033 32.4255 26.7228 32.1197 26.5292 31.7624C26.3356 31.4052 26.2349 31.0074 26.2359 30.6037V26.4134C26.0886 26.4134 25.9474 26.3566 25.8433 26.2554C25.7391 26.1543 25.6806 26.0171 25.6806 25.874V24.7953C25.6806 23.5079 26.2071 22.2732 27.1444 21.3628C28.0816 20.4525 29.3527 19.9411 30.6782 19.9411C32.0036 19.9411 33.2747 20.4525 34.2119 21.3628C35.1492 22.2732 35.6757 23.5079 35.6757 24.7953V25.3347H38.4521C38.5994 25.3347 38.7406 25.3915 38.8447 25.4927C38.9489 25.5938 39.0074 25.731 39.0074 25.874C39.0074 26.0171 38.9489 26.1543 38.8447 26.2554C38.7406 26.3566 38.5994 26.4134 38.4521 26.4134H35.1204V29.1102C35.1192 30.0178 34.782 30.8948 34.1704 31.5809C33.5587 32.267 32.7134 32.7166 31.7887 32.8475V33.9645H32.344C33.3745 33.9656 34.3625 34.3638 35.0912 35.0716C35.8199 35.7794 36.2298 36.739 36.231 37.74V41.5156H37.3415V30.189C37.3415 30.0459 37.4 29.9087 37.5042 29.8076C37.6083 29.7064 37.7496 29.6496 37.8968 29.6496H53.4447C53.592 29.6496 53.7332 29.7064 53.8374 29.8076C53.9415 29.9087 54 30.0459 54 30.189V43.1337C54 43.2767 53.9415 43.4139 53.8374 43.5151C53.7332 43.6162 53.592 43.673 53.4447 43.673H48.3917C48.2628 44.2817 47.9218 44.8287 47.4262 45.2217C46.9305 45.6147 46.3106 45.8297 45.6708 45.8305H44.0049V47.4486C44.0049 47.5916 43.9464 47.7288 43.8423 47.83C43.7382 47.9311 43.5969 47.9879 43.4496 47.9879H40.118C39.9707 47.9879 39.8294 47.9311 39.7253 47.83C39.6212 47.7288 39.5627 47.5916 39.5627 47.4486V46.9092H36.231V51.7635C36.231 51.9065 36.1725 52.0437 36.0683 52.1449C35.9642 52.246 35.823 52.3028 35.6757 52.3028H24.5701C24.4228 52.3028 24.2815 52.246 24.1774 52.1449C24.0733 52.0437 24.0148 51.9065 24.0148 51.7635V37.74C24.0166 36.8331 24.3541 35.957 24.9658 35.2718C25.5774 34.5866 26.4224 34.1379 27.3465 34.0076ZM34.5651 24.7953C34.5651 23.794 34.1556 22.8337 33.4267 22.1256C32.6977 21.4176 31.709 21.0198 30.6782 21.0198C29.6473 21.0198 28.6586 21.4176 27.9296 22.1256C27.2007 22.8337 26.7912 23.794 26.7912 24.7953V25.3347H34.5651V24.7953ZM30.1229 31.807H31.2334C31.9695 31.8062 32.6752 31.5218 33.1957 31.0162C33.7162 30.5107 34.009 29.8252 34.0098 29.1102V26.4134H27.3465V30.601C27.3454 30.8634 27.4201 31.1209 27.5621 31.3441C27.7042 31.5673 27.9078 31.7473 28.15 31.8637C28.2423 31.9085 28.3199 31.9774 28.3741 32.0626C28.4284 32.1479 28.4571 32.2462 28.457 32.3464V33.9645H30.6782V32.8858H30.1229C29.9756 32.8858 29.8344 32.8289 29.7302 32.7278C29.6261 32.6266 29.5676 32.4895 29.5676 32.3464C29.5676 32.2034 29.6261 32.0662 29.7302 31.965C29.8344 31.8639 29.9756 31.807 30.1229 31.807ZM44.5602 30.7283V34.5745L45.3626 34.0551C45.4538 33.996 45.5611 33.9644 45.6708 33.9644C45.7805 33.9644 45.8877 33.996 45.979 34.0551L46.7813 34.5745V30.7283H44.5602ZM52.8894 30.7283H47.8919V35.5826C47.8919 35.6802 47.8646 35.776 47.813 35.8598C47.7613 35.9436 47.6872 36.0122 47.5986 36.0582C47.5099 36.1043 47.4101 36.1261 47.3097 36.1214C47.2093 36.1167 47.1121 36.0855 47.0284 36.0313L45.6708 35.1511L44.3131 36.0303C44.2296 36.0844 44.1325 36.1155 44.0321 36.1203C43.9318 36.1251 43.8321 36.1033 43.7435 36.0574C43.6548 36.0115 43.5807 35.9431 43.529 35.8594C43.4773 35.7758 43.4498 35.6801 43.4496 35.5826V30.7283H38.4521V41.5156H39.5627V40.9762C39.5627 40.8332 39.6212 40.696 39.7253 40.5948C39.8294 40.4937 39.9707 40.4368 40.118 40.4368H43.4496C43.5969 40.4368 43.7382 40.4937 43.8423 40.5948C43.9464 40.696 44.0049 40.8332 44.0049 40.9762V42.5943H52.8894V30.7283ZM45.6708 44.7518C46.0152 44.7513 46.3511 44.6475 46.6323 44.4543C46.9135 44.2612 47.1264 43.9883 47.2417 43.673H44.0049V44.7518H45.6708ZM40.6732 46.9092H42.8944V41.5156H40.6732V46.9092ZM39.5627 42.5943H33.4546C33.0128 42.5943 32.589 42.4238 32.2766 42.1204C31.9642 41.8169 31.7887 41.4054 31.7887 40.9762V38.8188C31.7887 38.3896 31.6132 37.9781 31.3008 37.6746C30.9884 37.3711 30.5647 37.2007 30.1229 37.2007C29.6811 37.2007 29.2574 37.3711 28.9449 37.6746C28.6325 37.9781 28.457 38.3896 28.457 38.8188V42.0549C28.4582 43.0559 28.8681 44.0156 29.5968 44.7234C30.3255 45.4312 31.3135 45.8293 32.344 45.8305H39.5627V42.5943ZM32.344 46.9092C31.019 46.9078 29.7487 46.3959 28.8118 45.4858C27.8749 44.5758 27.3479 43.3419 27.3465 42.0549V38.8188C27.3465 38.1035 27.639 37.4176 28.1597 36.9118C28.6803 36.4061 29.3865 36.1219 30.1229 36.1219C30.8592 36.1219 31.5654 36.4061 32.0861 36.9118C32.6068 37.4176 32.8993 38.1035 32.8993 38.8188V40.9762C32.8993 41.1193 32.9578 41.2564 33.0619 41.3576C33.1661 41.4587 33.3073 41.5156 33.4546 41.5156H35.1204V37.74C35.1195 37.0251 34.8267 36.3396 34.3062 35.834C33.7858 35.3285 33.0801 35.0441 32.344 35.0432H27.9017C27.1657 35.0441 26.46 35.3285 25.9395 35.834C25.419 36.3396 25.1262 37.0251 25.1253 37.74V49.0667H35.1204V46.9092H32.344ZM25.1253 51.2241H35.1204V50.1454H25.1253V51.2241Z" fill="#F15526"/>
<path fill-rule="evenodd" clip-rule="evenodd" d="M22.2166 41.6874H23.0018C23.2361 41.6874 23.4248 41.8713 23.4248 42.0975V51.4951C23.4248 51.6037 23.3814 51.7083 23.3011 51.7851C23.2231 51.862 23.1146 51.9051 23.004 51.9053L20.5833 51.9049C20.3512 51.9044 20.1625 51.7209 20.1625 51.4943V42.0971C20.1625 41.8794 20.3599 41.6869 20.5855 41.6871H21.3728L21.3707 41.1219C21.1711 41.2165 20.952 41.2716 20.7221 41.2716L20.2406 41.272C19.4163 41.2712 18.7439 40.6188 18.7439 39.817V38.9646H17.8438V40.5257H17V38.5543C17 38.3279 17.1887 38.1444 17.423 38.1444L18.7439 38.144V37.293C18.7439 37.1849 18.7569 37.0787 18.7808 36.9756C18.8394 36.7083 18.9782 36.4629 19.1821 36.2645C19.4662 35.9896 19.8415 35.8382 20.2428 35.8386L20.7221 35.8382C20.952 35.8382 21.1711 35.8937 21.3707 35.9885V33.1094H20.2905V32.2892L21.3707 32.2894V26.8448H20.2905V26.0248H21.3707V20.5798H20.2905V19.7598H21.3707V14.3148H20.2905V13.4948H21.3707V9.69678L22.2144 10.5373L22.2166 41.6874ZM21.3728 37.2668L21.3707 39.8435C21.3555 40.1714 21.0605 40.4519 20.72 40.4519H20.2406C20.0302 40.4519 19.8437 40.3553 19.7243 40.2057C19.6376 40.0982 19.5877 39.9633 19.5877 39.8172V37.2934C19.5877 37.1234 19.6571 36.9644 19.7786 36.8448C19.9022 36.7248 20.0671 36.6588 20.2406 36.659H20.7221C20.8956 36.6587 21.0605 36.7248 21.182 36.8448C21.2991 36.958 21.3642 37.1073 21.3728 37.2668ZM22.581 42.5071V51.0847L21.0063 51.0843V42.5071H22.581Z" fill="#F15526"/>
<path d="M38.4521 25.874C38.4521 25.5762 38.2035 25.3347 37.8968 25.3347H24.0148C23.7081 25.3347 23.4595 25.5762 23.4595 25.874C23.4595 26.1719 23.7081 26.4134 24.0148 26.4134H37.8968C38.2035 26.4134 38.4521 26.1719 38.4521 25.874Z" fill="#F15526"/>
</svg>
