<svg width="69" height="68" viewBox="0 0 69 68" fill="none" xmlns="http://www.w3.org/2000/svg">
<path d="M34.0007 67.0004C52.2265 67.0004 67.0014 52.2255 67.0014 33.9997C67.0014 15.7739 52.2265 0.999023 34.0007 0.999023C15.7749 0.999023 1 15.7739 1 33.9997C1 52.2255 15.7749 67.0004 34.0007 67.0004Z" stroke="#F15526" stroke-width="2"/>
<path d="M18.75 30.152C18.746 25.4847 22.601 21.6707 27.3919 21.6657C29.7634 21.6629 31.909 22.5955 33.4726 24.103L33.9947 24.6065L34.5153 24.1015C36.075 22.5887 38.2192 21.651 40.5874 21.6494C45.3804 21.6441 49.2444 25.4461 49.2504 30.1131C49.2586 35.6067 45.5048 39.9091 41.5649 42.8995C39.6108 44.3826 37.6517 45.511 36.1789 46.269C35.4435 46.6475 34.8317 46.9324 34.4056 47.1219C34.253 47.1898 34.1242 47.2455 34.0223 47.2887C33.9203 47.2457 33.7914 47.1904 33.6386 47.1228C33.2121 46.9343 32.5997 46.6508 31.8633 46.2741C30.3888 45.5196 28.4269 44.3959 26.4692 42.9176C22.5219 39.9369 18.7571 35.644 18.75 30.152ZM18.75 30.152L18 30.1529" stroke="#F15526" stroke-width="1.5"/>
</svg>
