<svg width="69" height="68" viewBox="0 0 69 68" fill="none" xmlns="http://www.w3.org/2000/svg">
<circle cx="34.0007" cy="33.9997" r="33.0007" stroke="#F15526" stroke-width="2"/>
<path d="M46.2974 38.1996C46.4831 38.1931 46.6586 38.1131 46.7852 37.9773C46.9119 37.8414 46.9794 37.6608 46.9729 37.4751C46.9664 37.2895 46.8865 37.114 46.7506 36.9873C46.6147 36.8606 46.4341 36.7931 46.2484 36.7996L41.2434 36.9746C40.7899 36.9669 40.3442 36.8543 39.9414 36.6456L36.0144 34.3496C35.9419 34.3241 35.8792 34.2768 35.8348 34.2141C35.7903 34.1514 35.7665 34.0764 35.7665 33.9996C35.7665 33.9228 35.7903 33.8478 35.8348 33.7851C35.8792 33.7225 35.9419 33.6751 36.0144 33.6496L39.9414 31.3816C40.3442 31.173 40.7899 31.0604 41.2434 31.0526L46.2484 31.2276C46.4341 31.2341 46.6147 31.1666 46.7506 31.0399C46.8865 30.9132 46.9664 30.7378 46.9729 30.5521C46.9794 30.3665 46.9119 30.1858 46.7852 30.05C46.6586 29.9141 46.4831 29.8341 46.2974 29.8276L43.4974 29.7296C43.1124 29.7296 43.0704 29.5476 43.4064 29.3516L47.0534 27.2516C47.1351 27.2083 47.2073 27.1491 47.266 27.0777C47.3247 27.0063 47.3687 26.9239 47.3953 26.8354C47.422 26.7469 47.4309 26.654 47.4215 26.562C47.4121 26.4701 47.3845 26.3809 47.3404 26.2996C47.2481 26.1395 47.0962 26.0224 46.9178 25.9739C46.7395 25.9254 46.5492 25.9493 46.3884 26.0406L42.7414 28.1406C42.4054 28.3366 42.2794 28.2106 42.4614 27.8746L43.7564 25.4316C43.8432 25.2681 43.8618 25.077 43.808 24.8999C43.7542 24.7228 43.6325 24.5742 43.4694 24.4866C43.306 24.3998 43.1148 24.3813 42.9377 24.435C42.7606 24.4888 42.612 24.6106 42.5244 24.7736L40.1724 29.1906C39.9459 29.5859 39.6263 29.9198 39.2414 30.1636L35.3144 32.4316C34.9784 32.6206 34.7054 32.4316 34.7054 32.0816V27.5526C34.7262 27.0979 34.8532 26.6543 35.0764 26.2576L37.7294 22.0156C37.7783 21.9375 37.8113 21.8505 37.8265 21.7597C37.8417 21.6688 37.8388 21.5759 37.818 21.4861C37.7972 21.3964 37.7589 21.3116 37.7052 21.2367C37.6516 21.1618 37.5837 21.0982 37.5054 21.0496C37.4273 21.0007 37.3404 20.9678 37.2495 20.9526C37.1586 20.9374 37.0657 20.9403 36.9759 20.9611C36.8862 20.9819 36.8014 21.0202 36.7265 21.0738C36.6516 21.1275 36.588 21.1954 36.5394 21.2736L35.0764 23.6186C34.8734 23.9406 34.7054 23.8916 34.7054 23.5066V19.2996C34.7054 19.114 34.6317 18.9359 34.5004 18.8046C34.3691 18.6734 34.1911 18.5996 34.0054 18.5996C33.8198 18.5996 33.6417 18.6734 33.5105 18.8046C33.3792 18.9359 33.3054 19.114 33.3054 19.2996V23.4996C33.3054 23.8846 33.1374 23.9336 32.9344 23.6116L31.4714 21.2666C31.4223 21.1889 31.3583 21.1217 31.2831 21.0687C31.2079 21.0158 31.1231 20.9782 31.0334 20.958C30.9437 20.9379 30.8509 20.9356 30.7603 20.9513C30.6697 20.967 30.5831 21.0004 30.5054 21.0496C30.4272 21.0982 30.3593 21.1618 30.3056 21.2367C30.252 21.3116 30.2137 21.3964 30.1929 21.4861C30.1721 21.5759 30.1692 21.6688 30.1844 21.7597C30.1996 21.8505 30.2326 21.9375 30.2814 22.0156L32.9344 26.2576C33.1576 26.6543 33.2847 27.0979 33.3054 27.5526V32.0886C33.3054 32.4736 33.0324 32.6276 32.6964 32.4386L28.7694 30.1706C28.3846 29.9268 28.065 29.5929 27.8384 29.1976L25.4864 24.7806C25.3989 24.6176 25.2503 24.4958 25.0732 24.442C24.8961 24.3883 24.7049 24.4068 24.5414 24.4936C24.3784 24.5812 24.2566 24.7298 24.2029 24.9069C24.1491 25.084 24.1676 25.2751 24.2544 25.4386L25.5494 27.8816C25.7314 28.2176 25.6054 28.3436 25.2694 28.1476L21.6224 26.0476C21.4659 25.9664 21.2846 25.9473 21.1146 25.994C20.9446 26.0407 20.7985 26.1498 20.7054 26.2996C20.6589 26.3791 20.6284 26.467 20.6159 26.5582C20.6034 26.6495 20.6089 26.7423 20.6324 26.8314C20.6558 26.9205 20.6965 27.0041 20.7523 27.0774C20.8081 27.1507 20.8778 27.2123 20.9574 27.2586L24.6044 29.3586C24.9404 29.5546 24.8984 29.7226 24.5134 29.7366L21.7134 29.8346C21.6215 29.8378 21.5311 29.8591 21.4474 29.8973C21.3637 29.9354 21.2884 29.9897 21.2256 30.057C21.099 30.1928 21.0314 30.3735 21.0379 30.5591C21.0444 30.7448 21.1244 30.9202 21.2603 31.0469C21.3962 31.1736 21.5768 31.2411 21.7624 31.2346L26.7674 31.0596C27.221 31.0674 27.6666 31.18 28.0694 31.3886L31.9964 33.6566C32.0689 33.6821 32.1317 33.7295 32.1761 33.7921C32.2205 33.8548 32.2444 33.9298 32.2444 34.0066C32.2444 34.0834 32.2205 34.1584 32.1761 34.2211C32.1317 34.2838 32.0689 34.3311 31.9964 34.3566L28.0694 36.6246C27.6666 36.8333 27.221 36.9459 26.7674 36.9536L21.7624 36.7996C21.6705 36.7964 21.5788 36.8113 21.4927 36.8435C21.4065 36.8757 21.3276 36.9246 21.2603 36.9873C21.193 37.05 21.1387 37.1254 21.1006 37.2091C21.0624 37.2928 21.0411 37.3832 21.0379 37.4751C21.0347 37.567 21.0496 37.6587 21.0818 37.7449C21.114 37.831 21.1629 37.91 21.2256 37.9773C21.2884 38.0445 21.3637 38.0988 21.4474 38.1369C21.5311 38.1751 21.6215 38.1964 21.7134 38.1996L24.5134 38.2976C24.8984 38.2976 24.9404 38.4796 24.6044 38.6756L20.9574 40.7756C20.8059 40.8688 20.6955 41.0161 20.6487 41.1878C20.6019 41.3594 20.6222 41.5424 20.7054 41.6996C20.7978 41.8597 20.9497 41.9768 21.128 42.0253C21.3064 42.0739 21.4967 42.0499 21.6574 41.9586L25.3044 39.8586C25.6404 39.6626 25.7664 39.7886 25.5844 40.1246L24.2894 42.5676C24.2026 42.7311 24.1841 42.9223 24.2379 43.0994C24.2916 43.2764 24.4134 43.425 24.5764 43.5126C24.7399 43.5994 24.9311 43.618 25.1082 43.5642C25.2853 43.5104 25.4339 43.3887 25.5214 43.2256L27.8734 38.8086C28.1 38.4134 28.4196 38.0794 28.8044 37.8356L32.7314 35.5676C33.0674 35.3786 33.3404 35.5676 33.3404 35.9176V40.4536C33.3197 40.9083 33.1926 41.3519 32.9694 41.7486L30.3164 45.9906C30.2166 46.1435 30.1805 46.3294 30.2158 46.5086C30.2511 46.6877 30.3551 46.846 30.5054 46.9496C30.5835 46.9985 30.6705 47.0315 30.7614 47.0467C30.8522 47.0619 30.9452 47.059 31.0349 47.0382C31.1247 47.0173 31.2094 46.979 31.2843 46.9254C31.3592 46.8718 31.4228 46.8039 31.4714 46.7256L32.9344 44.3806C33.1374 44.0586 33.3054 44.1076 33.3054 44.4926V48.6926C33.3054 48.8783 33.3792 49.0563 33.5105 49.1876C33.6417 49.3189 33.8198 49.3926 34.0054 49.3926C34.1911 49.3926 34.3691 49.3189 34.5004 49.1876C34.6317 49.0563 34.7054 48.8783 34.7054 48.6926V44.4996C34.7054 44.1146 34.8734 44.0656 35.0764 44.3876L36.5394 46.7326C36.5886 46.8103 36.6526 46.8775 36.7278 46.9305C36.8029 46.9834 36.8878 47.0211 36.9775 47.0412C37.0672 47.0614 37.16 47.0636 37.2506 47.0479C37.3412 47.0322 37.4278 46.9988 37.5054 46.9496C37.5837 46.901 37.6516 46.8374 37.7052 46.7625C37.7589 46.6876 37.7972 46.6029 37.818 46.5131C37.8388 46.4234 37.8417 46.3304 37.8265 46.2395C37.8113 46.1487 37.7783 46.0617 37.7294 45.9836L35.0764 41.7416C34.8532 41.3449 34.7262 40.9013 34.7054 40.4466V35.9106C34.7054 35.5256 34.9784 35.3716 35.3144 35.5606L39.2414 37.8286C39.6263 38.0724 39.9459 38.4064 40.1724 38.8016L42.5244 43.2186C42.612 43.3817 42.7606 43.5034 42.9377 43.5572C43.1148 43.611 43.306 43.5924 43.4694 43.5056C43.6325 43.418 43.7542 43.2694 43.808 43.0924C43.8618 42.9153 43.8432 42.7241 43.7564 42.5606L42.4614 40.1176C42.2794 39.7816 42.4054 39.6556 42.7414 39.8516L46.3884 41.9516C46.5483 42.0435 46.738 42.0685 46.9162 42.0213C47.0945 41.9741 47.2469 41.8585 47.3404 41.6996C47.387 41.6201 47.4174 41.5322 47.43 41.441C47.4425 41.3497 47.4369 41.2569 47.4135 41.1678C47.3901 41.0787 47.3493 40.9951 47.2935 40.9218C47.2378 40.8485 47.1681 40.7869 47.0884 40.7406L43.4414 38.6406C43.1054 38.4446 43.1474 38.2766 43.5324 38.2626L46.2974 38.1996Z" fill="#F15526"/>
</svg>
