<svg width="72" height="72" viewBox="0 0 72 72" fill="none" xmlns="http://www.w3.org/2000/svg">
<path opacity="0.08" d="M66.9375 27.675L67.3875 19.2375C67.3875 18.3375 66.9375 17.55 66.15 17.1L58.6125 13.275L54.7875 5.7375C54.3375 4.95 53.55 4.3875 52.65 4.5L44.2125 4.95L37.125 0.3375C36.3375 -0.1125 35.4375 -0.1125 34.65 0.3375L27.5625 4.95L19.2375 4.5C18.3375 4.3875 17.55 4.95 17.1 5.7375L13.275 13.275L5.7375 17.1C4.95 17.55 4.5 18.3375 4.5 19.2375L4.95 27.675L0.3375 34.7625C-0.1125 35.55 -0.1125 36.45 0.3375 37.2375L4.95 44.325L4.5 52.7625C4.5 53.6625 4.95 54.45 5.7375 54.9L13.275 58.725L17.1 66.2625C17.55 67.05 18.3375 67.6125 19.2375 67.5L27.675 67.05L34.7625 71.6625C35.1 71.8875 35.55 72 36 72C36.45 72 36.9 71.8875 37.2375 71.6625L44.325 67.05L52.7625 67.5C53.6625 67.6125 54.45 67.05 54.9 66.2625L58.725 58.725L66.2625 54.9C67.05 54.45 67.5 53.6625 67.5 52.7625L67.05 44.325L71.6625 37.2375C72.1125 36.45 72.1125 35.55 71.6625 34.7625L66.9375 27.675Z" fill="#F15526"/>
<path d="M53.4159 24H45.2249H37.2433H29.0524C28.8103 24 28.5933 24.1469 28.507 24.3686L27.4255 27.1571H23.435C23.113 27.1571 22.8517 27.4131 22.8517 27.7286C22.8517 28.044 23.113 28.3 23.435 28.3H26.9822L25.5239 32.0594H19.5833C19.2613 32.0594 19 32.3154 19 32.6309C19 32.9463 19.2613 33.2023 19.5833 33.2023H25.0799L24.2166 35.4286H22.0817C21.7597 35.4286 21.4984 35.6846 21.4984 36C21.4984 36.3154 21.7597 36.5714 22.0817 36.5714H23.7727L19.6399 47.2257C19.5717 47.4017 19.5962 47.5989 19.7047 47.7531C19.8131 47.9074 19.9934 48 20.1853 48H44.5488C44.7909 48 45.0079 47.8531 45.0943 47.6314L53.9619 24.7743C54.0301 24.5983 54.0056 24.4011 53.8971 24.2469C53.7886 24.0926 53.6078 24 53.4159 24ZM44.5 25L42.0178 31.2303L39.334 29.7223C39.2447 29.672 39.1444 29.6463 39.0435 29.6463C38.9706 29.6463 38.8971 29.6594 38.8271 29.6869L35.3557 31.0451L38 25H44.5ZM40.1179 38.1846C40.0689 38.1646 40.017 38.1514 39.9645 38.1451L37.003 37.7966C36.7364 37.7669 36.4827 37.916 36.3882 38.1617C36.2931 38.4074 36.3812 38.6851 36.6023 38.8343L41.7227 42.2737C41.7262 42.296 41.7092 42.4194 41.5599 42.5697C41.3931 42.7366 41.1866 42.812 41.0553 42.812C41.0186 42.812 40.9982 42.8057 40.9958 42.8051L40.129 42.2189L40.1279 42.2183L37.2527 40.2886C36.9879 40.1109 36.6239 40.1766 36.4419 40.4371C36.2599 40.6977 36.3275 41.0531 36.5935 41.2314L39.4325 43.1366C39.4279 43.1811 39.397 43.284 39.2721 43.4097C39.1047 43.5771 38.8976 43.652 38.7664 43.652C38.7296 43.652 38.7092 43.6457 38.7069 43.6451L37.8401 43.0594L35.2636 41.3166C34.9981 41.1371 34.6342 41.2023 34.4522 41.4617C34.269 41.7217 34.3355 42.0771 34.6003 42.2566L37.1442 43.9783C37.1378 44.0251 37.1033 44.1291 36.9814 44.2514C36.8152 44.4183 36.6087 44.4931 36.4774 44.4931C36.4407 44.4931 36.4203 44.4869 36.4179 44.4863L35.8889 44.128L35.8877 44.1274L33.2633 42.3531C32.9985 42.1737 32.6351 42.2389 32.452 42.4989C32.2688 42.7583 32.3353 43.1143 32.6007 43.2937L35.193 45.0469C35.1866 45.0937 35.1527 45.1983 35.0314 45.32C34.8646 45.4869 34.6575 45.5617 34.5262 45.5617C34.4895 45.5617 34.4685 45.5554 34.437 45.536C32.8964 44.6229 30.3059 42.844 29.9116 41.9566C29.7098 41.5011 29.4082 40.5811 29.2524 40.0931L32.6958 36.6383L33.7411 35.5897C34.0712 35.5737 34.7164 35.5469 35.3248 35.5469C36.1455 35.5469 36.4308 35.5954 36.5148 35.6166C37.6698 35.9034 40.2002 37.2497 41.4532 37.9389C40.7246 38.3731 40.1209 38.1846 40.1179 38.1846ZM33.0674 34.6291L31.5921 36.1097L27.9236 39.7903L24.636 37.5669L25.0216 36.5714H29.785C30.107 36.5714 30.3683 36.3154 30.3683 36C30.3683 35.6846 30.107 35.4286 29.785 35.4286H25.4649L26.3288 33.2023H28.5939C28.9159 33.2023 29.1772 32.9463 29.1772 32.6309C29.1772 32.3154 28.9159 32.0594 28.5939 32.0594H26.7716L27.3216 30.6417L33.1496 34.5463L33.0674 34.6291ZM44 47H21L24.2079 38.6663L27.6652 41.004C27.7656 41.072 27.8811 41.1051 27.996 41.1051C28.1126 41.1051 28.2235 41.0606 28.3226 40.9937C28.4848 41.4817 28.6855 42.056 28.8424 42.4103C29.5126 43.9189 33.3934 46.2509 33.8041 46.4931C34.0065 46.6303 34.2567 46.7029 34.5268 46.7029C34.9987 46.7029 35.4992 46.484 35.8667 46.1166C36.0207 45.9617 36.1415 45.7909 36.2249 45.6131C36.7534 45.7086 37.3845 45.4834 37.8162 45.0491C37.9439 44.9211 38.0483 44.7823 38.1282 44.6377C38.6894 44.9486 39.558 44.7571 40.1063 44.208C40.2329 44.0806 40.3373 43.9417 40.4172 43.7971C40.6027 43.9006 40.8214 43.9549 41.0548 43.9549C41.5278 43.9549 42.0283 43.7354 42.3941 43.368C42.7458 43.0149 42.9243 42.576 42.8829 42.1646C42.8508 41.8394 42.6851 41.5606 42.4162 41.3789L39.2062 39.2074L39.7621 39.2731C40.1232 39.3863 41.4584 39.6977 42.8981 38.252C43.0235 38.1263 43.0824 37.9509 43.0585 37.776C43.0345 37.6017 42.9296 37.448 42.7744 37.3594C42.6017 37.2606 38.5208 34.9343 36.8024 34.5074C36.6209 34.4623 36.2709 34.4023 35.326 34.4023C35.0915 34.4023 34.8552 34.4063 34.6318 34.4114C34.6318 34.4086 34.633 34.4057 34.633 34.4023C34.6161 34.2343 34.5239 34.0823 34.3816 33.9869L27.7475 29.5423L28.2293 28.3H32.2828C32.6048 28.3 32.8661 28.044 32.8661 27.7286C32.8661 27.4131 32.6048 27.1571 32.2828 27.1571H28.6726L29.5 25H36.5L33.7936 31.856C33.7113 32.068 33.765 32.308 33.9295 32.4663C34.0409 32.5737 34.1885 32.6303 34.3384 32.6303C34.4113 32.6303 34.4848 32.6171 34.5548 32.5897L38.998 30.8509L42.0295 32.5543C42.1776 32.6377 42.3561 32.6526 42.516 32.5966C42.6764 32.5406 42.8041 32.4177 42.8648 32.2617L46 25H52.5L44 47Z" fill="#F15526"/>
</svg>
