<svg width="72" height="72" viewBox="0 0 72 72" fill="none" xmlns="http://www.w3.org/2000/svg">
<rect width="72" height="72" rx="36" transform="matrix(-1 0 0 1 72 -0.000732422)" fill="#FBFDFF"/>
<path d="M42.077 33.6399H29.357C29.117 33.6399 28.957 33.7999 28.957 34.0399C28.957 34.2799 29.117 34.4399 29.357 34.4399H42.077C42.317 34.4399 42.477 34.2799 42.477 34.0399C42.477 33.7999 42.317 33.6399 42.077 33.6399Z" fill="#F15526"/>
<path d="M42.077 37.48H29.357C29.117 37.48 28.957 37.64 28.957 37.88C28.957 38.12 29.117 38.28 29.357 38.28H42.077C42.317 38.28 42.477 38.12 42.477 37.88C42.477 37.64 42.317 37.48 42.077 37.48Z" fill="#F15526"/>
<path d="M42.077 41.2798H29.357C29.117 41.2798 28.957 41.4398 28.957 41.6798C28.957 41.9198 29.117 42.0798 29.357 42.0798H42.077C42.317 42.0798 42.477 41.9198 42.477 41.6798C42.477 41.4398 42.317 41.2798 42.077 41.2798Z" fill="#F15526"/>
<path d="M49.9145 30.9998C49.8745 30.9998 49.8345 30.9998 49.7945 30.9998C49.7145 30.9598 49.6345 30.9598 49.5545 30.9998C49.5145 30.9998 45.2745 31.6798 42.3945 29.0798C40.0345 26.9198 37.5945 26.4398 36.5545 26.3198C36.5145 26.2798 36.4345 26.2798 36.3945 26.2798C36.3945 26.2798 36.2745 26.2798 36.1545 26.2798C35.9945 26.2798 35.8745 26.2798 35.8745 26.2798C35.7945 26.2798 35.7545 26.3198 35.7145 26.3198C34.6345 26.4398 32.2345 26.9198 29.8345 29.0798C26.9945 31.6798 22.7145 30.9998 22.6745 30.9998C22.5545 30.9598 22.4745 30.9998 22.3945 31.0398C22.3145 30.9998 22.2745 30.9998 22.1945 30.9998C18.8345 31.5998 16.3945 34.2398 16.3945 37.2398C16.3945 40.7598 19.6745 43.6398 23.6745 43.6398C24.1945 43.6398 24.7545 43.5998 25.3145 43.4798C25.3945 43.4798 25.4745 43.4398 25.5145 43.3598C27.8745 45.9998 31.2745 47.3998 35.7145 47.5198C35.7945 47.5198 35.9145 47.5198 35.9945 47.5198H36.0745H36.1545C36.1945 47.5198 36.2745 47.5198 36.3145 47.5198C36.3545 47.5198 36.3945 47.5198 36.4345 47.5198C40.8345 47.3998 44.1945 46.0398 46.6345 43.4398C46.6745 43.4798 46.7145 43.5198 46.7945 43.5198C47.3145 43.6398 47.8745 43.6798 48.4345 43.6798C52.4745 43.6798 55.7145 40.7998 55.7145 37.2798C55.7145 34.2398 53.2745 31.5998 49.9145 30.9998ZM17.1945 37.2398C17.1945 34.6798 19.1945 32.4798 22.0345 31.8798C21.9145 33.3998 21.8745 38.6798 24.9545 42.7198C24.5545 42.7998 24.1145 42.8398 23.6745 42.8398C20.1145 42.8398 17.1945 40.3198 17.1945 37.2398ZM45.9945 42.5998C43.8345 45.0798 40.5545 46.3998 36.2745 46.5198C36.2745 46.5198 36.2345 46.5198 36.1945 46.5198C36.1545 46.5198 36.1145 46.5198 36.0745 46.5198C36.0345 46.5198 35.9945 46.5198 35.9145 46.5198C35.9145 46.5198 35.8745 46.5198 35.8345 46.5198C31.5545 46.4398 28.3145 45.1198 26.1145 42.5998C22.9145 38.9598 22.9145 33.7198 22.9945 32.0798C24.3545 32.1998 27.8745 32.1998 30.4745 29.8398C32.7545 27.7598 34.9945 27.3998 35.8745 27.3198C35.9145 27.3198 35.9145 27.3198 35.9545 27.3198C35.9945 27.3198 36.0345 27.3198 36.0745 27.3198C36.1145 27.3198 36.1145 27.3198 36.1545 27.3198C36.1545 27.3198 36.1945 27.3198 36.2345 27.3198C37.1145 27.3998 39.3545 27.7998 41.6345 29.8398C44.2745 32.2398 47.7945 32.1998 49.1145 32.0798C49.1945 33.6798 49.1945 38.9198 45.9945 42.5998ZM48.4345 42.8798C48.0345 42.8798 47.6345 42.8398 47.2345 42.7598C50.3545 38.7198 50.3145 33.4798 50.1945 31.8798C52.9545 32.5598 54.9145 34.7598 54.9145 37.2798C54.9145 40.3598 51.9945 42.8798 48.4345 42.8798Z" fill="#F15526"/>
</svg>
