<svg width="72" height="72" viewBox="0 0 72 72" fill="none" xmlns="http://www.w3.org/2000/svg">
<path opacity="0.08" d="M66.9375 27.675L67.3875 19.2375C67.3875 18.3375 66.9375 17.55 66.15 17.1L58.6125 13.275L54.7875 5.7375C54.3375 4.95 53.55 4.3875 52.65 4.5L44.2125 4.95L37.125 0.3375C36.3375 -0.1125 35.4375 -0.1125 34.65 0.3375L27.5625 4.95L19.2375 4.5C18.3375 4.3875 17.55 4.95 17.1 5.7375L13.275 13.275L5.7375 17.1C4.95 17.55 4.5 18.3375 4.5 19.2375L4.95 27.675L0.3375 34.7625C-0.1125 35.55 -0.1125 36.45 0.3375 37.2375L4.95 44.325L4.5 52.7625C4.5 53.6625 4.95 54.45 5.7375 54.9L13.275 58.725L17.1 66.2625C17.55 67.05 18.3375 67.6125 19.2375 67.5L27.675 67.05L34.7625 71.6625C35.1 71.8875 35.55 72 36 72C36.45 72 36.9 71.8875 37.2375 71.6625L44.325 67.05L52.7625 67.5C53.6625 67.6125 54.45 67.05 54.9 66.2625L58.725 58.725L66.2625 54.9C67.05 54.45 67.5 53.6625 67.5 52.7625L67.05 44.325L71.6625 37.2375C72.1125 36.45 72.1125 35.55 71.6625 34.7625L66.9375 27.675Z" fill="#F15526"/>
<path d="M50 37C50 36.5 49.5 36 49 36L46 35L42 31H37V29C37 28.3036 36.6936 28 36 28H26C25.5 28 25 28.5 25 29V31H24V32H33V31H26V29H36V31H35V32H36V40H37V32H41.5L45.5 36L49 37V41H47C47 40 46 39 44.5 39C43 39 42 40 42 41.5C42 43 43 44 44.5 44C46 44 47 43 47 42H49C49.5 42 50 41.5 50 41V37ZM44.5 43C43.5 43 43 42.5 43 41.5C43 40.5 43.5 40 44.5 40C45.5 40 46 40.5 46 41.5C46 42.5 45.5 43 44.5 43Z" fill="#F15526"/>
<path d="M41 41H32C32 40 31 39 29.5 39C28 39 27 40 27 41H26V39H25V41C25 41.5 25.5 42 26 42H27C27 43 28 44 29.5 44C31 44 32 43 32 42H41V41ZM29.5 43C28.5501 43 28 42.4454 28 41.5C28 40.5546 28.5501 40 29.5 40C30.4499 40 31 40.5546 31 41.5C31 42.4454 30.4499 43 29.5 43Z" fill="#F15526"/>
<path d="M35 35V34H27V35H35Z" fill="#F15526"/>
<path d="M31 38V37H26V33H25V37H24V38H31Z" fill="#F15526"/>
<path d="M43 36V35L41 33H38V36H43ZM39 34H41L42 35H39V34Z" fill="#F15526"/>
</svg>
