<svg width="72" height="72" viewBox="0 0 72 72" fill="none" xmlns="http://www.w3.org/2000/svg">
<rect width="72" height="72" rx="36" transform="matrix(-1 0 0 1 72 0)" fill="#FBFDFF"/>
<path d="M36.9438 47.0892C40.3171 46.8901 43.0079 43.504 43.0079 39.3434C43.0079 35.0777 40.1506 31.5976 36.6332 31.5976C33.1157 31.5976 30.264 35.0721 30.264 39.3434C30.264 43.4266 32.8716 46.7739 36.1727 47.0892C35.8897 48.5056 35.1352 53.0148 36.4334 56.0799C37.8204 59.3498 36.5277 61.3028 36.4723 61.3803C36.44 61.422 36.4167 61.47 36.4039 61.5212C36.3911 61.5723 36.389 61.6256 36.3979 61.6775C36.4068 61.7295 36.4263 61.7791 36.4554 61.8232C36.4844 61.8672 36.5223 61.9048 36.5666 61.9336C36.6306 61.9763 36.7059 61.9994 36.783 62C36.844 62.0007 36.9042 61.9865 36.9584 61.9585C37.0126 61.9305 37.059 61.8896 37.0936 61.8395C37.1602 61.7455 38.6915 59.4881 37.1325 55.8144C35.8897 52.8322 36.7053 48.2456 36.9438 47.0892ZM31.0185 39.3434C31.0185 35.4705 33.5373 32.3555 36.6332 32.3555C39.729 32.3555 42.2534 35.4926 42.2534 39.3434C42.2534 43.1942 39.7345 46.3478 36.6332 46.3478C33.5318 46.3478 31.0185 43.2163 31.0185 39.36V39.3434ZM36.6332 33.866C36.5331 33.866 36.4371 33.8263 36.3664 33.7558C36.2956 33.6852 36.2559 33.5895 36.2559 33.4898C36.2559 33.39 36.2956 33.2943 36.3664 33.2237C36.4371 33.1532 36.5331 33.1135 36.6332 33.1135C38.4418 33.1135 40.0896 34.3861 40.9329 36.4332C40.9701 36.5265 40.9695 36.6306 40.9312 36.7235C40.8929 36.8164 40.8199 36.8909 40.7276 36.9311C40.6813 36.9478 40.6326 36.9571 40.5834 36.9588C40.508 36.9585 40.4343 36.9357 40.372 36.8933C40.3097 36.8509 40.2616 36.7908 40.2339 36.7209C39.5071 34.9781 38.1311 33.8826 36.6332 33.8826V33.866ZM29.2542 36.1676C29.3471 36.1788 29.4326 36.2236 29.4947 36.2934C29.5568 36.3632 29.591 36.4533 29.591 36.5466C29.591 36.6399 29.5568 36.73 29.4947 36.7998C29.4326 36.8696 29.3471 36.9144 29.2542 36.9256C28.7225 36.9514 28.2058 37.1104 27.752 37.3879C27.2982 37.6655 26.9218 38.0526 26.6577 38.5135C26.6226 38.5665 26.5748 38.61 26.5186 38.6399C26.4624 38.6699 26.3996 38.6854 26.3359 38.685C26.2633 38.6829 26.1926 38.6619 26.1306 38.6241C26.0856 38.5962 26.0469 38.5593 26.0167 38.5159C25.9866 38.4724 25.9656 38.4233 25.9552 38.3714C25.9448 38.3196 25.9452 38.2662 25.9563 38.2145C25.9674 38.1628 25.9889 38.1139 26.0197 38.0709C26.3586 37.5126 26.8319 37.0476 27.3968 36.7181C27.9617 36.3886 28.6001 36.2051 29.2542 36.1842V36.1676ZM29.7369 56.3123C31.135 59.632 29.7369 61.668 29.698 61.751C29.6696 61.7917 29.6335 61.8264 29.5916 61.8531C29.5497 61.8799 29.503 61.8981 29.454 61.9069C29.4051 61.9156 29.3549 61.9146 29.3063 61.904C29.2578 61.8934 29.2118 61.8734 29.171 61.8451C29.1302 61.8167 29.0954 61.7806 29.0686 61.7389C29.0417 61.6971 29.0234 61.6505 29.0147 61.6017C29.0059 61.5529 29.0069 61.5029 29.0175 61.4544C29.0281 61.406 29.0482 61.3601 29.0767 61.3194C29.121 61.2475 30.2695 59.5158 29.0378 56.6111C27.8838 53.8834 28.5274 49.8999 28.7937 48.5775C25.8366 48.2898 23.5064 45.2911 23.5064 41.6339C23.5064 37.761 26.0862 34.6572 29.2542 34.6572C29.771 34.6584 30.2843 34.7424 30.7744 34.9061C30.6519 35.1282 30.5426 35.3573 30.447 35.5922C30.0606 35.4732 29.6587 35.4117 29.2542 35.4096C26.4802 35.4096 24.2609 38.2037 24.2609 41.6339C24.2609 45.0642 26.519 47.8915 29.2542 47.8915C29.9146 47.8753 30.5635 47.7148 31.1549 47.4213C31.7464 47.1278 32.2661 46.7085 32.6774 46.1929C32.8669 46.3554 33.0671 46.5051 33.2766 46.6411C32.8269 47.2076 32.2656 47.6762 31.6272 48.0178C30.9888 48.3595 30.2869 48.5669 29.5649 48.6273C29.343 49.6786 28.6328 53.7285 29.7369 56.3289V56.3123ZM44.2396 56.3123C45.6432 59.632 44.2396 61.668 44.2007 61.751C44.1661 61.8011 44.1197 61.842 44.0655 61.87C44.0113 61.8979 43.9511 61.9122 43.89 61.9114C43.813 61.9109 43.7377 61.8878 43.6737 61.8451C43.6293 61.8163 43.5915 61.7787 43.5625 61.7346C43.5334 61.6906 43.5139 61.641 43.505 61.589C43.4961 61.537 43.4982 61.4838 43.511 61.4326C43.5238 61.3815 43.547 61.3335 43.5794 61.2918C43.6293 61.2199 44.7722 59.4881 43.5405 56.5779C42.3921 53.8613 43.0356 49.8722 43.2964 48.5499C41.9522 48.4085 40.7134 47.7591 39.8344 46.7351C40.0506 46.6027 40.2582 46.4567 40.4558 46.2981C40.8655 46.7823 41.3748 47.1732 41.9491 47.4443C42.5234 47.7153 43.1493 47.8603 43.7846 47.8694C46.5587 47.8694 48.7779 45.103 48.7779 41.6505C48.7779 38.1981 46.5587 35.4262 43.7846 35.4262C43.4627 35.4275 43.1422 35.4684 42.8304 35.5479C42.7299 35.3116 42.6169 35.0808 42.4919 34.8563C42.9119 34.7342 43.3472 34.6727 43.7846 34.6738C46.9526 34.6738 49.5324 37.7998 49.5324 41.6505C49.5324 45.3686 47.119 48.406 44.0953 48.6052C43.8512 49.6786 43.1632 53.7285 44.2396 56.3289V56.3123ZM47.2355 41.6339C47.256 40.9074 47.1268 40.1843 46.8557 39.5096C46.5847 38.8349 46.1777 38.2228 45.6599 37.7112C45.6193 37.6784 45.5861 37.6374 45.5623 37.5911C45.5384 37.5447 45.5245 37.4939 45.5213 37.4419C45.5182 37.3899 45.526 37.3378 45.5441 37.2889C45.5622 37.24 45.5903 37.1954 45.6266 37.158C45.6624 37.1205 45.7054 37.0906 45.7531 37.0702C45.8008 37.0498 45.8521 37.0393 45.904 37.0393C45.9559 37.0393 46.0072 37.0498 46.0549 37.0702C46.1026 37.0906 46.1456 37.1205 46.1814 37.158C46.7787 37.7428 47.249 38.4439 47.563 39.2178C47.8771 39.9916 48.0281 40.8216 48.0067 41.6561C48.0067 41.7559 47.967 41.8516 47.8962 41.9221C47.8255 41.9927 47.7295 42.0323 47.6295 42.0323C47.5294 42.0323 47.4334 41.9927 47.3627 41.9221C47.2919 41.8516 47.2522 41.7559 47.2522 41.6561L47.2355 41.6339ZM47.6683 17.1626H44.639V15.7684C44.613 15.2907 44.4043 14.8412 44.056 14.5123C43.7077 14.1833 43.2463 14 42.7666 14C42.2869 14 41.8254 14.1833 41.4771 14.5123C41.1288 14.8412 40.9202 15.2907 40.8941 15.7684V17.1792H32.117V15.7684C32.0909 15.2907 31.8823 14.8412 31.534 14.5123C31.1857 14.1833 30.7242 14 30.2445 14C29.7648 14 29.3034 14.1833 28.9551 14.5123C28.6068 14.8412 28.3981 15.2907 28.3721 15.7684V17.1792H25.3428C23.9263 17.1807 22.5681 17.7425 21.5665 18.7414C20.5648 19.7403 20.0015 21.0946 20 22.5073V42.8401C20.0015 44.2522 20.565 45.606 21.5668 46.604C22.5686 47.602 23.9268 48.1626 25.3428 48.1626H26.1195C25.6548 47.8501 25.2332 47.4781 24.8657 47.056C23.8333 46.9393 22.88 46.4479 22.1874 45.6756C21.4948 44.9033 21.1112 43.9039 21.1096 42.8678V27.4203H51.9015V42.8401C51.9001 43.8739 51.5178 44.8712 50.8274 45.6423C50.1369 46.4135 49.1864 46.9048 48.1565 47.0228C47.7915 47.4549 47.3719 47.838 46.9082 48.1626H47.6572C49.0732 48.1626 50.4314 47.602 51.4332 46.604C52.435 45.606 52.9985 44.2522 53 42.8401V22.5073C52.9985 21.0965 52.4367 19.7439 51.4374 18.7453C50.4382 17.7467 49.0829 17.1836 47.6683 17.1792V17.1626ZM42.0037 15.7684C42.02 15.5778 42.1074 15.4003 42.2487 15.2709C42.39 15.1416 42.5748 15.0698 42.7666 15.0698C42.9583 15.0698 43.1432 15.1416 43.2844 15.2709C43.4257 15.4003 43.5131 15.5778 43.5294 15.7684V19.6413C43.5384 19.7467 43.5254 19.8527 43.4912 19.9528C43.4569 20.0529 43.4022 20.1448 43.3305 20.2227C43.2588 20.3005 43.1716 20.3627 43.0745 20.4053C42.9775 20.4478 42.8726 20.4698 42.7666 20.4698C42.6605 20.4698 42.5556 20.4478 42.4586 20.4053C42.3615 20.3627 42.2743 20.3005 42.2026 20.2227C42.1309 20.1448 42.0762 20.0529 42.0419 19.9528C42.0077 19.8527 41.9947 19.7467 42.0037 19.6413V15.7684ZM29.4817 15.7684C29.498 15.5778 29.5854 15.4003 29.7267 15.2709C29.8679 15.1416 30.0527 15.0698 30.2445 15.0698C30.4363 15.0698 30.6211 15.1416 30.7624 15.2709C30.9037 15.4003 30.9911 15.5778 31.0074 15.7684V19.6413C31.0164 19.7467 31.0034 19.8527 30.9691 19.9528C30.9349 20.0529 30.8802 20.1448 30.8085 20.2227C30.7368 20.3005 30.6496 20.3627 30.5525 20.4053C30.4554 20.4478 30.3506 20.4698 30.2445 20.4698C30.1385 20.4698 30.0336 20.4478 29.9365 20.4053C29.8395 20.3627 29.7523 20.3005 29.6806 20.2227C29.6089 20.1448 29.5542 20.0529 29.5199 19.9528C29.4857 19.8527 29.4727 19.7467 29.4817 19.6413V15.7684ZM51.9015 26.3138H21.1096V22.5073C21.1111 21.3881 21.5576 20.3152 22.3511 19.5238C23.1447 18.7325 24.2205 18.2872 25.3428 18.2858H28.3721V19.6358C28.3582 19.8895 28.3964 20.1435 28.4842 20.382C28.572 20.6206 28.7077 20.8388 28.883 21.0233C29.0582 21.2079 29.2693 21.3548 29.5034 21.4553C29.7375 21.5557 29.9897 21.6075 30.2445 21.6075C30.4994 21.6075 30.7516 21.5557 30.9857 21.4553C31.2198 21.3548 31.4309 21.2079 31.6061 21.0233C31.7813 20.8388 31.917 20.6206 32.0049 20.382C32.0927 20.1435 32.1309 19.8895 32.117 19.6358V18.2858H40.8941V19.6358C40.8802 19.8895 40.9184 20.1435 41.0062 20.382C41.0941 20.6206 41.2297 20.8388 41.405 21.0233C41.5802 21.2079 41.7913 21.3548 42.0254 21.4553C42.2595 21.5557 42.5117 21.6075 42.7666 21.6075C43.0214 21.6075 43.2736 21.5557 43.5077 21.4553C43.7418 21.3548 43.9529 21.2079 44.1281 21.0233C44.3034 20.8388 44.4391 20.6206 44.5269 20.382C44.6147 20.1435 44.6529 19.8895 44.639 19.6358V18.2858H47.6683C48.7906 18.2872 49.8664 18.7325 50.66 19.5238C51.4535 20.3152 51.9 21.3881 51.9015 22.5073V26.3138ZM40.6111 48.1626H37.3156C37.3489 47.9468 37.3821 47.7587 37.4099 47.6093C38.0385 47.5224 38.6492 47.3356 39.2186 47.056H39.3739L39.4127 47.1003C39.7643 47.5047 40.1671 47.8618 40.6111 48.1626ZM34.0644 47.056C34.5251 47.2832 35.0138 47.4488 35.518 47.5485C35.4847 47.7366 35.4514 47.9413 35.4181 48.1626H32.4111C32.8661 47.8482 33.2782 47.4762 33.6372 47.056H34.0644Z" fill="#F15526"/>
</svg>
