<svg width="72" height="72" viewBox="0 0 72 72" fill="none" xmlns="http://www.w3.org/2000/svg">
<rect width="72" height="72" rx="36" transform="matrix(-1 0 0 1 72 0)" fill="#FBFDFF"/>
<path d="M50.3737 25.8876H43.6885C43.8399 25.4741 43.9233 25.0297 43.9256 24.5772C43.9306 23.6523 43.6158 22.7778 43.0406 22.115C42.447 21.4313 41.6495 21.0527 40.7951 21.0485C40.7897 21.0485 40.7851 21.0485 40.7801 21.0485C39.6549 21.0485 37.738 21.6956 36.5722 22.6544C36.4142 22.6259 36.2509 22.6097 36.083 22.609C36.0776 22.609 36.0734 22.609 36.0685 22.609C35.8635 22.609 35.6657 22.6328 35.476 22.6736C34.3175 21.6833 32.3841 21.0058 31.2401 21C31.2348 21 31.2302 21 31.2252 21C30.3761 21 29.581 21.3701 28.9843 22.0438C28.4026 22.7009 28.0794 23.5723 28.0744 24.4972C28.0721 24.9801 28.1612 25.4517 28.3272 25.888H21.6263C20.7294 25.888 20 26.6221 20 27.5243V31.0511C20 31.7844 20.4854 32.3992 21.1474 32.6066V48.2368C21.1474 49.209 21.9338 50 22.9003 50H32.749H39.251H49.0997C50.0662 50 50.8526 49.209 50.8526 48.2368V32.6058C51.5146 32.3989 52 31.7837 52 31.0504V27.5235C52 26.6213 51.2706 25.8876 50.3737 25.8876ZM40.7805 22.2019C40.7836 22.2019 40.7863 22.2019 40.7889 22.2019C41.3099 22.2046 41.8021 22.4427 42.1762 22.8736C42.5674 23.3246 42.7816 23.9274 42.7782 24.5711C42.7759 25.0447 42.6462 25.5002 42.4202 25.8876H39.2506H37.7548C38.1763 25.5333 38.4191 25.0524 38.4214 24.5492C38.4241 24.0309 38.1747 23.5592 37.7697 23.2103C38.7641 22.5878 40.1093 22.2019 40.7805 22.2019ZM36.0769 23.7628C36.7168 23.7662 37.2767 24.131 37.2744 24.5434C37.2733 24.7808 37.0893 24.9547 36.9795 25.0374C36.7458 25.2136 36.4154 25.3005 36.0696 25.3117C35.7246 25.3102 35.3938 25.2067 35.162 25.0282C35.0534 24.9447 34.8709 24.7688 34.8721 24.5311C34.874 24.1206 35.4324 23.7628 36.0685 23.7628C36.0711 23.7628 36.0742 23.7628 36.0769 23.7628ZM29.2214 24.5022C29.2249 23.8586 29.4444 23.258 29.8407 22.8109C30.2162 22.3866 30.7077 22.1534 31.2252 22.1534C31.2279 22.1534 31.2309 22.1534 31.2336 22.1534C31.9293 22.1569 33.3319 22.5797 34.3286 23.2468C33.9564 23.5862 33.7266 24.0328 33.7243 24.5249C33.722 25.0362 33.9675 25.5272 34.3974 25.8873H32.7486H29.6062C29.3587 25.4841 29.2191 25.0051 29.2214 24.5022ZM21.1474 27.5235C21.1474 27.2577 21.3624 27.0415 21.6263 27.0415H32.749V31.5301H21.6171C21.3574 31.5247 21.1474 31.3124 21.1474 31.05V27.5235ZM22.9003 48.845C22.5664 48.845 22.2948 48.5719 22.2948 48.236V32.6863H32.749V48.845H22.9003ZM33.8964 48.845V27.0418H38.1036V48.8454H33.8964V48.845ZM49.0997 48.845H39.251V32.6863H49.7052V48.236C49.7052 48.5719 49.4336 48.845 49.0997 48.845ZM50.8526 31.0504C50.8526 31.3158 50.6376 31.5321 50.3737 31.5321H39.251V27.0418H50.3737C50.6376 27.0418 50.8526 27.2581 50.8526 27.5239V31.0504Z" fill="#F15526"/>
</svg>
