<svg width="72" height="72" viewBox="0 0 72 72" fill="none" xmlns="http://www.w3.org/2000/svg">
<path opacity="0.08" d="M66.9375 27.675L67.3875 19.2375C67.3875 18.3375 66.9375 17.55 66.15 17.1L58.6125 13.275L54.7875 5.7375C54.3375 4.95 53.55 4.3875 52.65 4.5L44.2125 4.95L37.125 0.3375C36.3375 -0.1125 35.4375 -0.1125 34.65 0.3375L27.5625 4.95L19.2375 4.5C18.3375 4.3875 17.55 4.95 17.1 5.7375L13.275 13.275L5.7375 17.1C4.95 17.55 4.5 18.3375 4.5 19.2375L4.95 27.675L0.3375 34.7625C-0.1125 35.55 -0.1125 36.45 0.3375 37.2375L4.95 44.325L4.5 52.7625C4.5 53.6625 4.95 54.45 5.7375 54.9L13.275 58.725L17.1 66.2625C17.55 67.05 18.3375 67.6125 19.2375 67.5L27.675 67.05L34.7625 71.6625C35.1 71.8875 35.55 72 36 72C36.45 72 36.9 71.8875 37.2375 71.6625L44.325 67.05L52.7625 67.5C53.6625 67.6125 54.45 67.05 54.9 66.2625L58.725 58.725L66.2625 54.9C67.05 54.45 67.5 53.6625 67.5 52.7625L67.05 44.325L71.6625 37.2375C72.1125 36.45 72.1125 35.55 71.6625 34.7625L66.9375 27.675Z" fill="#F15526"/>
<path d="M37 28V33C37 34.0879 37.8873 35 39 35H40V38H41L43 35H48C49.0834 35 50 34.1173 50 33V28C50 26.9121 49.1127 26 48 26H39C37.9459 26.0294 37 26.9121 37 28ZM49 28V33C49 33.4998 48.4685 34 48 34H42.5L41 36V35C41 34.706 40.3221 34 40 34H39C38.5022 34 38 33.4704 38 33V28C38 27.5002 38.5315 27 39 27H48C48.4685 27 49 27.5296 49 28ZM40 30V29H47V30H40ZM40 32V31H47V32H40ZM28 47V24C28 23.0298 29.0337 22 30 22H43C43.9663 22 45 23.0298 45 24V25H44V23H29V48H44V37H45V47C45 47.9702 43.9663 49 43 49H30C29.0337 49 28 47.9702 28 47ZM38 46H35V45H38V46Z" fill="#F15526"/>
</svg>
