<svg width="104" height="104" viewBox="0 0 104 104" fill="none" xmlns="http://www.w3.org/2000/svg">
<path d="M5.82193 35.7239C8.32433 36.3114 10.7397 37.2036 12.981 38.3786C15.4834 39.6842 17.9423 41.5338 20.3141 43.3182C21.0104 43.8404 21.6632 44.3191 22.316 44.7978C23.5563 45.7118 25.1231 45.9946 26.6027 45.6247C27.9083 45.2983 29.1922 44.9284 30.4543 44.5585C31.4335 42.4695 32.8696 40.6199 34.6322 39.0967C34.8063 38.9444 35.1544 38.6615 35.6114 38.5092C36.6123 38.2046 37.4392 38.7268 37.9615 39.0532C39.093 39.7713 40.3333 40.3153 41.6171 40.707L41.6824 40.7287C41.7477 40.7505 41.8347 40.7722 41.9218 40.794C43.5755 40.2282 45.2293 39.6842 46.8613 39.162L46.7525 37.5735C46.7525 37.5518 46.7525 37.5082 46.7525 37.4865C46.7525 35.2452 48.5803 33.4174 50.8216 33.4174C50.8651 33.4174 50.8869 33.4174 50.9304 33.4174C51.3874 33.4391 51.8226 33.2215 52.149 32.8516C52.9323 31.9812 54.0421 31.459 55.2171 31.459C55.2607 31.459 55.3042 31.459 55.3259 31.459C55.8482 31.4807 56.3269 31.3066 56.6098 30.9802C57.3714 30.1751 58.4594 29.6964 59.5691 29.6964C59.9391 29.6964 60.2872 29.7399 60.6354 29.8487C61.1141 29.9793 61.5928 29.8922 61.9192 29.5876C62.6591 28.9566 63.5947 28.6084 64.5739 28.6084C65.1615 28.6084 65.749 28.739 66.2712 28.9783C66.7064 29.1742 67.1852 29.1742 67.6203 28.9783C68.1643 28.739 68.7301 28.6084 69.3176 28.6084C71.5154 28.6084 73.3215 30.371 73.3868 32.547L74.1266 36.2679C78.0434 36.9207 82.156 38.0958 86.5733 39.9671C90.9906 41.8385 94.2764 44.1015 96.2565 45.69C98.0844 47.1479 100.239 49.1281 100.239 50.3684C100.239 51.0865 100.108 51.8046 99.9557 52.4356C100.913 53.0666 101.087 54.5463 100.391 56.4177C99.6293 58.5284 96.126 63.1415 87.9224 66.906C85.9423 67.8199 83.8316 68.4945 81.6556 68.995C81.3727 69.8871 81.0245 70.801 80.5893 71.6497C79.7407 73.347 78.4568 75.3924 76.4114 75.3924C75.8892 75.3924 75.3016 75.2618 74.6706 74.9354C72.4293 73.8257 72.3858 71.9108 72.9298 70.1265C71.8853 70.17 70.8626 70.1918 69.8399 70.1918C66.0971 70.1918 62.5067 69.8871 59.3951 69.4954C54.1291 68.8209 49.0591 67.2106 44.4677 64.7518C43.1186 65.2305 41.7912 65.4916 40.5291 65.4916C37.8309 65.4916 35.3285 64.4036 33.2831 62.2494C33.2395 62.2058 33.2178 62.1841 33.2178 62.1841C32.021 61.1178 30.6066 60.2692 29.0834 59.7034L29.0399 59.6817C28.6917 59.5511 28.1912 59.377 27.7995 58.9418C27.3426 58.4414 27.212 57.8321 27.1467 57.3316C27.0379 56.57 27.0597 55.7866 27.1467 55.0033C26.6245 54.851 26.0805 54.6986 25.5583 54.5681C25.0795 54.4593 24.5573 54.5898 24.1874 54.9162C23.404 55.5908 22.5989 56.3742 21.7285 57.201C20.1183 58.746 18.3122 60.5086 16.1579 62.0535C13.0027 64.3383 9.7605 65.2958 7.62801 65.6874C6.64882 65.8615 5.69138 65.3828 5.23441 64.4906C4.77746 63.5985 4.97329 62.5322 5.71313 61.8577C7.19281 60.5086 8.2373 59.377 8.71602 58.5719C8.93362 58.2238 9.19474 57.8103 9.47762 57.3751C10.4786 55.7866 13.1115 51.6087 13.1986 50.5207C12.8069 49.0628 6.84465 42.0126 4.62513 40.1847C4.38577 39.9889 4.14641 39.793 3.86353 39.5972C3.01489 38.9662 2.73202 37.8346 3.18898 36.8772C3.75474 35.9633 4.79921 35.4846 5.82193 35.7239ZM36.6776 41.0986C36.5906 41.0334 36.4165 40.9246 36.2859 40.881C36.2642 40.9028 36.2424 40.9246 36.2207 40.9246C35.3503 41.6644 34.5887 42.5348 33.9141 43.4705C35.3938 42.9918 36.8735 42.4913 38.3096 42.0126C37.7656 41.7514 37.1999 41.4468 36.6776 41.0986ZM71.0584 32.9169C71.0367 32.8298 71.0367 32.7646 71.0367 32.6775C71.0367 31.7636 70.2968 31.0455 69.3829 31.0455C69.1436 31.0455 68.9042 31.089 68.6866 31.1978C67.5986 31.6983 66.3583 31.6983 65.292 31.1978C64.7263 30.9367 64.0082 31.0238 63.5295 31.4372C62.572 32.2641 61.2664 32.5252 60.0043 32.1988C59.8738 32.1553 59.7215 32.1335 59.5691 32.1335C59.1122 32.1335 58.677 32.3076 58.3723 32.6558C57.589 33.4826 56.4357 33.9396 55.2389 33.8961H55.1954C54.7167 33.8961 54.2815 34.0919 53.9551 34.4618C53.1499 35.3758 52.0184 35.8762 50.8434 35.8545H50.7999C49.9077 35.8545 49.1679 36.5726 49.1679 37.4647L49.2331 38.4657C56.3051 36.3985 63.5295 35.0711 71.6242 35.9633L71.0584 32.9169ZM29.6491 57.0705C29.6709 57.201 29.6927 57.2881 29.6927 57.3316C29.7579 57.3751 29.8885 57.3969 29.9538 57.4404H30.0191C31.8251 58.0932 33.5224 59.1159 34.9368 60.378C34.9803 60.4215 35.0456 60.4868 35.1327 60.5738C36.9823 62.5105 39.1583 63.3156 41.6171 63.011C40.6815 62.4234 39.7893 61.7924 38.9189 61.1178C38.4837 60.7914 38.0703 60.4868 37.7003 60.2039C35.0239 58.3326 32.3691 56.8746 29.6274 55.8084C29.6056 56.2654 29.6056 56.6788 29.6491 57.0705ZM6.27889 38.3569C7.38866 39.249 9.67345 41.6862 11.7189 44.145C15.7445 48.9758 15.7445 50.0638 15.7445 50.5207C15.7445 52.131 13.9602 55.0686 11.6536 58.7242C11.3707 59.1594 11.1314 59.5729 10.9138 59.8993C10.3698 60.7914 9.41234 61.8794 8.04146 63.1633C9.91282 62.7281 12.3935 61.8577 14.8306 60.0951C16.8325 58.659 18.5733 56.9617 20.1183 55.482C21.0104 54.6334 21.8373 53.8282 22.6642 53.1102C23.6434 52.2615 24.9707 51.9351 26.2111 52.2398C30.6719 53.3278 34.8933 55.2862 39.0712 58.2455C39.4847 58.5284 39.9199 58.8548 40.3768 59.203C45.9474 63.4679 52.6712 66.2097 59.7867 67.1018C63.9647 67.6241 69.0347 67.9722 74.1048 67.6458C74.5618 66.7972 75.084 65.9921 75.6498 65.2958C76.0632 64.7735 76.8248 64.6865 77.3688 65.0999C77.8911 65.5134 77.9781 66.275 77.5647 66.7972C76.9989 67.5153 76.4549 68.3857 75.9762 69.3214C74.5836 72.1284 75.3016 72.4983 75.8239 72.7594C76.3461 73.0206 77.086 73.3905 78.4786 70.5617C80.0018 67.4935 79.9365 65.3828 79.6319 65.0129C79.0444 64.7082 78.8268 63.9902 79.1096 63.4026C79.4143 62.7934 80.1324 62.554 80.7416 62.8586C81.9167 63.4462 82.3084 64.7735 82.2213 66.3838C83.8751 65.9486 85.4636 65.4046 86.965 64.7082C93.9282 61.5095 97.4751 57.5057 98.1714 55.5908C98.2584 55.3297 98.3237 55.1121 98.3672 54.9162C98.1496 54.8945 97.9756 54.8074 97.8885 54.7639C97.0181 54.2417 97.2575 53.3278 97.4751 52.5226C97.6274 51.9569 97.8232 51.217 97.845 50.5642C97.1704 49.4327 92.5791 45.146 85.6594 42.2084C67.5986 34.5706 54.4338 39.0532 40.5074 43.8186C36.2424 45.2766 31.8034 46.7998 27.1685 47.9748C24.9707 48.5406 22.6642 48.1054 20.8363 46.7562C20.1835 46.2775 19.509 45.777 18.8127 45.2548C16.5061 43.5358 14.1343 41.7514 11.8059 40.5329C10.0434 39.5972 8.17202 38.8574 6.21362 38.3351C6.25713 38.3351 6.25713 38.3569 6.27889 38.3569Z" fill="#BDD5F2"/>
<path d="M89.5117 47.7131C91.383 47.7131 92.9062 49.541 92.9062 51.7823C92.9062 54.0235 91.383 55.8514 89.4899 55.8514C87.5968 55.8514 86.0736 54.0235 86.0736 51.7823C86.0954 49.541 87.6186 47.7131 89.5117 47.7131ZM89.5117 53.4143C89.9686 53.4143 90.4909 52.7179 90.4909 51.7823C90.4909 50.8466 89.9686 50.1503 89.5117 50.1503C89.0547 50.1503 88.5325 50.8466 88.5325 51.7823C88.5325 52.7179 89.033 53.4143 89.5117 53.4143Z" fill="#BDD5F2"/>
<path d="M34.2434 49.6495C36.2671 49.6495 39.6834 49.0403 43.622 48.3439C53.7404 46.5596 67.5798 44.1225 77.894 47.7564C78.525 47.974 78.8514 48.6703 78.6338 49.3014C78.4162 49.9324 77.7199 50.2588 77.0889 50.0412C67.3839 46.6031 53.8927 48.9967 44.0572 50.7158C39.8358 51.4556 36.5065 52.0431 34.2652 52.0431C33.5906 52.0431 33.0466 51.4991 33.0466 50.8246C33.0466 50.15 33.5906 49.6495 34.2434 49.6495Z" fill="#BDD5F2"/>
</svg>
