<svg width="1268" height="520" xmlns="http://www.w3.org/2000/svg">

 <g>
  <title>background</title>
  <rect fill="none" id="canvas_background" height="522" width="1270" y="-1" x="-1"/>
 </g>
 <g>
  <title>Layer 1</title>
  <path id="svg_1" stroke-miterlimit="10" stroke-width="20" stroke="#FF6400" fill="#FF6400" d="m716.190002,11.5c-256.929993,0 -473.699997,105.279999 -541.600006,249.23999c67.900009,144 284.670013,249.240021 541.600006,249.240021c256.929993,0 473.700012,-105.279999 541.600037,-249.240021c-67.900024,-143.959991 -284.700012,-249.23999 -541.600037,-249.23999z"/>
  <path id="svg_2" stroke-miterlimit="10" stroke-width="20" stroke="#FF6400" fill="#FF6400" d="m15,103c9.1959,52.078995 13.787001,104.865997 13.719999,157.75c0.067202,52.884003 -4.523899,105.67099 -13.719999,157.75c74.629997,-42.109985 130.649994,-96.399994 159.580002,-157.75c-28.930008,-61.350006 -84.950005,-115.649994 -159.580002,-157.75z"/>
  <path id="svg_21" fill="white" d="m419.343994,289.875c3.158997,0 5.720001,-2.563995 5.720001,-5.722992c0,-11.934998 0,-20.899017 0,-32.487015c0,-3.159988 -2.561005,-5.722 -5.720001,-5.722l-50.334991,0c-3.158997,0 -5.720001,-2.560989 -5.720001,-5.720993l0,-30.569c0,-3.160004 2.561005,-5.720993 5.720001,-5.720993l58.296997,0c3.158997,0 5.720001,-2.562012 5.720001,-5.722c0,-11.652008 0,-21.006012 0,-32.489014c0,-3.158997 -2.55899,-5.720993 -5.717987,-5.720993c-35.618011,0 -72.651001,0 -108.269012,0c-3.158997,0 -5.718994,2.561005 -5.718994,5.720001l0,180.764008c0,3.158997 2.561005,5.720001 5.720001,5.720001c12.903992,0 25.789001,0 38.529999,0c3.158997,0 5.718994,-2.561005 5.718994,-5.720001l0,-50.889008c0,-3.158997 2.561005,-5.720001 5.720001,-5.720001l50.334991,0z"/>
  <path id="svg_22" fill="white" d="m842.723999,165.720001c0,-3.158997 -2.539978,-5.720001 -5.672974,-5.720001c-12.829041,0 -25.657043,0 -38.486023,0c-3.132996,0 -5.672974,2.561005 -5.672974,5.720001l0,58.302002c0,3.160004 -2.540039,5.720993 -5.673035,5.720993l-47.473022,0c-3.132996,0 -5.672974,-2.560989 -5.672974,-5.720993l0,-58.302002c0,-3.158997 -2.539978,-5.720001 -5.672974,-5.720001c-12.847046,0 -25.801025,0 -38.487,0c-3.132996,0 -5.673035,2.561005 -5.673035,5.720001l0,180.764008c0,3.158997 2.540039,5.720001 5.673035,5.720001c12.685974,0 25.639954,0 38.487,0c3.132996,0 5.672974,-2.561005 5.672974,-5.720001l0,-65.716003c0,-3.158997 2.539978,-5.720001 5.672974,-5.720001l47.473022,0c3.132996,0 5.673035,2.561005 5.673035,5.720001l0,65.716003c0,3.158997 2.539978,5.720001 5.672974,5.720001c12.828979,0 25.656982,0 38.486023,0c3.132996,0 5.672974,-2.561005 5.672974,-5.720001l0,-180.764008z"/>
  <path id="svg_23" fill="white" d="m515.211975,320.579987c-3.164001,0 -5.727966,-2.587982 -5.727966,-5.780975l0,-71.094009c0,-3.192001 2.563965,-5.779999 5.727966,-5.779999l5.877014,0c3.163025,0 5.728027,-2.589005 5.728027,-5.781998c0,-7.809006 0,-14.056 0,-21.755005c0,-3.192993 -2.565002,-5.781998 -5.728027,-5.781998c-20.25,0 -40.373993,0 -60.623993,0c-3.162994,0 -5.727997,2.589005 -5.727997,5.781998c0,7.699005 0,13.945999 0,21.755005c0,3.192993 2.565002,5.781998 5.727997,5.781998l5.877014,0c3.164001,0 5.727997,2.587997 5.727997,5.779999l0,71.094009c0,3.192993 -2.563995,5.780975 -5.727997,5.780975l-7.356018,0c-3.164001,0 -5.727997,2.58902 -5.727997,5.782013c0,7.730988 0,14.015991 0,21.968994c0,3.192017 2.563995,5.781006 5.727997,5.781006c21.279999,0 42.302002,0 63.582001,0c3.164001,0 5.728027,-2.588989 5.728027,-5.781006c0,-7.953003 0,-14.238007 0,-21.968994c0,-3.192993 -2.564026,-5.782013 -5.728027,-5.782013l-7.356018,0z"/>
  <path id="svg_24" fill="white" d="m580.767029,313.90799c-1.647034,-2.725983 -4.081055,-5.501984 -7.244019,-5.501984c-8.650024,0 -16.639038,0 -25.186035,0c-3.133972,0 -5.72699,2.561005 -5.411987,5.708008c5.996033,59.917999 119.397034,56.491974 119.397034,-4.427002c0,-37.376007 -28.747009,-41.221008 -58.129028,-44.424011c-13.315979,-1.494995 -24.307983,-3.845001 -23.461975,-15.164001c1.133972,-15.847992 33.013,-18.893997 39.76001,-5.169998c1.405945,2.860001 3.811951,5.597 6.974976,5.597c8.455994,0 15.867004,0 24.551025,0c3.133972,0 5.727966,-2.557007 5.416992,-5.703995c-5.801025,-58.738007 -113.867004,-56.836014 -112.637024,5.703995c0.422974,32.463989 21.559998,43.570007 53.689026,45.919006c14.796997,0.85498 27.055969,2.562988 27.055969,13.028992c0,15.614014 -36.794006,17.647003 -44.774963,4.43399z"/>
  <path id="svg_25" fill="white" d="m1060.219971,305.451996c27.25,0 49.349976,-22.095001 49.349976,-49.350006c0,-27.25499 -22.099976,-49.349991 -49.349976,-49.349991c-27.26001,0 -49.349976,22.095001 -49.349976,49.349991c0,27.255005 22.089966,49.350006 49.349976,49.350006zm0,46.752014c53.070068,0 96.099976,-43.026001 96.099976,-96.10202c0,-53.075989 -43.029907,-96.10199 -96.099976,-96.10199c-53.079956,0 -96.103943,43.026001 -96.103943,96.10199c0,53.076019 43.023987,96.10202 96.103943,96.10202z" clip-rule="evenodd" fill-rule="evenodd"/>
  <path id="svg_26" fill="#9EE2FF" d="m913.426025,336.437988l-49.781006,72.029022c-0.449036,0.649994 -0.689026,1.417999 -0.689026,2.204987c0,2.161011 1.778015,3.914001 3.970032,3.914001l84.664978,0c3.192993,0 5.781006,-2.553986 5.781006,-5.700989c0,-6.71701 0,-12.229004 0,-18.947021c0,-3.147003 -2.588013,-5.700989 -5.781006,-5.700989l-22.872009,0c-4.70697,0 -7.440979,-5.251007 -4.695984,-9.022003l20.492004,-28.154999c19.95697,-30.539001 3.070007,-68.285004 -35.502014,-67.335999c-22.182983,0.529999 -40.697021,12.763 -42.794006,37.622009c-0.262024,3.106995 2.351013,5.625 5.513,5.625c6.241028,0 11.362976,0 17.682007,0c3.192017,0 5.588013,-2.641998 6.648987,-5.611023c1.848999,-5.17099 6.492004,-7.287994 12.374023,-7.287994c16.886963,0 11.705994,17.451019 4.989014,26.365997z"/>
 </g>
</svg>