<svg width="88" height="80" viewBox="0 0 88 80" fill="none" xmlns="http://www.w3.org/2000/svg">
<path d="M22.6 32.1322L44 0.0991211L65.4 32.1322H60.4L44 7.83466L27.6 32.1322H22.6Z" fill="#B7C6E7" fill-opacity="0.24"/>
<path d="M15.3 43.0413L22 33.1239H30.5L36 40.6611H30.9L35.2 46.9091L38.3 42.2479L31.7 33.1239H37.1L40.9 38.4793L44.5 33.1239H49.6L39.7 48H12L14.7 44.033H28.5L24.1 37.7851H29.1L28.4 36.7933H24.5L20.1 43.0413H15.3Z" fill="#B7C6E7" fill-opacity="0.24"/>
<path d="M50.8 33.1239H55.9L54 36H57V39.9669H51.3L48.6 44.033H57.2V48H40.8L50.8 33.1239Z" fill="#B7C6E7" fill-opacity="0.24"/>
<path d="M58.2 33.1239H66L68.5 36.7933H62.3V37.7851H69.1L71.7 41.6529H62.3V44.0328H73.3L76 48H58.2V33.1239Z" fill="#B7C6E7" fill-opacity="0.24"/>
<path d="M40.2527 13.895L25.4209 35.4609M32.4214 14.2011C35.3533 12.2116 49.9228 7.51045 51.1315 9.30397C53.1103 12.2402 38.1811 23.0949 33.7257 23.7221M43.3389 21.1259C41.5525 22.4412 39.0953 25.8318 39.763 26.6615C40.1254 27.112 43.9531 24.4439 45.063 23.4239M49.6478 19.2764C44.8434 22.6563 39.5197 29.9255 39.5197 31.5706C41.7958 30.6141 59.7729 25.7935 73.6667 27.2065M53.0219 19.213C52.3302 20.0068 47.7785 25.436 46.8494 27.0943M50.6217 21.3572C51.8794 20.0368 55.8736 18.0379 56.5022 19.1382C56.9151 20.4517 51.0977 23.5277 50.1285 22.9241C51.2464 23.9537 54.588 25.4277 55.9923 25.9848M63.8671 18.6515C61.6316 17.378 56.8843 23.6091 57.8826 25.1814C58.2128 25.7014 65.9068 20.8581 63.8671 18.6515Z" stroke="white" stroke-width="1.5" stroke-linejoin="round"/>
<path d="M1.81095 73V75.59H0.522949V71.838H1.54495C2.02095 71.2967 2.38495 70.6993 2.63695 70.046C2.89828 69.3833 3.08495 68.688 3.19695 67.96C3.31828 67.2227 3.38828 66.462 3.40695 65.678C3.43495 64.894 3.45362 64.1007 3.46295 63.298H8.95095V71.838H10.169V75.59H8.88095V73H1.81095ZM4.79295 64.46C4.76495 65.076 4.73228 65.706 4.69495 66.35C4.66695 66.9847 4.59695 67.6193 4.48495 68.254C4.38228 68.8793 4.22828 69.4953 4.02295 70.102C3.81762 70.7087 3.52828 71.2873 3.15495 71.838H7.59295V64.46H4.79295Z" fill="white" fill-opacity="0.32"/>
<path d="M17.6541 65.72V73H16.3941V67.456C16.1141 67.8107 15.8061 68.226 15.4701 68.702C15.1341 69.178 14.7981 69.6727 14.4621 70.186C14.1261 70.69 13.8041 71.1893 13.4961 71.684C13.1881 72.1787 12.9221 72.6173 12.6981 73H11.5361V65.72H12.7961V70.956C13.0388 70.5547 13.3141 70.116 13.6221 69.64C13.9301 69.1547 14.2475 68.6787 14.5741 68.212C14.9101 67.736 15.2415 67.2833 15.5681 66.854C15.9041 66.4153 16.2168 66.0373 16.5061 65.72H17.6541Z" fill="white" fill-opacity="0.32"/>
<path d="M21.7377 65.538C22.1577 65.538 22.5497 65.58 22.9137 65.664C23.2777 65.748 23.5903 65.874 23.8517 66.042C24.113 66.21 24.3183 66.42 24.4677 66.672C24.617 66.924 24.6917 67.218 24.6917 67.554C24.6917 67.7687 24.6543 67.9647 24.5797 68.142C24.505 68.3193 24.4117 68.478 24.2997 68.618C24.1877 68.758 24.0617 68.8793 23.9217 68.982C23.791 69.0753 23.665 69.1407 23.5437 69.178C23.973 69.3087 24.309 69.542 24.5517 69.878C24.8037 70.2047 24.9297 70.62 24.9297 71.124C24.9297 71.8147 24.6497 72.328 24.0897 72.664C23.5297 73 22.769 73.168 21.8077 73.168C21.2197 73.168 20.711 73.1213 20.2817 73.028C19.8617 72.9347 19.563 72.846 19.3857 72.762L19.6097 71.656C19.759 71.712 20.025 71.7913 20.4077 71.894C20.7997 71.9873 21.2663 72.034 21.8077 72.034C22.3957 72.034 22.8437 71.9453 23.1517 71.768C23.4597 71.5813 23.6137 71.306 23.6137 70.942C23.6137 70.6807 23.553 70.4707 23.4317 70.312C23.3197 70.144 23.175 70.018 22.9977 69.934C22.8203 69.85 22.629 69.794 22.4237 69.766C22.2183 69.738 22.027 69.724 21.8497 69.724H20.6317V68.688H21.8077C21.9757 68.688 22.1483 68.6787 22.3257 68.66C22.5123 68.632 22.6803 68.5807 22.8297 68.506C22.9883 68.4313 23.119 68.3287 23.2217 68.198C23.3243 68.058 23.3757 67.876 23.3757 67.652C23.3757 67.4747 23.329 67.3253 23.2357 67.204C23.1517 67.0733 23.035 66.966 22.8857 66.882C22.7363 66.798 22.559 66.7373 22.3537 66.7C22.1577 66.6533 21.9523 66.63 21.7377 66.63C21.5697 66.63 21.3877 66.644 21.1917 66.672C20.9957 66.7 20.8043 66.7373 20.6177 66.784C20.431 66.8213 20.263 66.8633 20.1137 66.91C19.9643 66.9567 19.857 66.9987 19.7917 67.036L19.5537 65.916C19.6283 65.888 19.745 65.8507 19.9037 65.804C20.0623 65.7573 20.2397 65.7153 20.4357 65.678C20.641 65.6407 20.8557 65.608 21.0797 65.58C21.3037 65.552 21.523 65.538 21.7377 65.538Z" fill="white" fill-opacity="0.32"/>
<path d="M29.2033 72.062C29.5113 72.062 29.7819 72.0573 30.0153 72.048C30.2579 72.0293 30.4586 72.0013 30.6173 71.964V69.794C30.5239 69.7473 30.3699 69.71 30.1553 69.682C29.9499 69.6447 29.6979 69.626 29.3993 69.626C29.2033 69.626 28.9933 69.64 28.7693 69.668C28.5546 69.696 28.3539 69.7567 28.1673 69.85C27.9899 69.934 27.8406 70.0553 27.7193 70.214C27.5979 70.3633 27.5373 70.564 27.5373 70.816C27.5373 71.2827 27.6866 71.6093 27.9853 71.796C28.2839 71.9733 28.6899 72.062 29.2033 72.062ZM29.0913 65.538C29.6139 65.538 30.0526 65.608 30.4073 65.748C30.7713 65.8787 31.0606 66.07 31.2753 66.322C31.4993 66.5647 31.6579 66.8587 31.7513 67.204C31.8446 67.54 31.8913 67.9133 31.8913 68.324V72.874C31.7793 72.8927 31.6206 72.9207 31.4153 72.958C31.2193 72.986 30.9953 73.014 30.7433 73.042C30.4913 73.07 30.2159 73.0933 29.9173 73.112C29.6279 73.14 29.3386 73.154 29.0493 73.154C28.6386 73.154 28.2606 73.112 27.9153 73.028C27.5699 72.944 27.2713 72.8133 27.0193 72.636C26.7673 72.4493 26.5713 72.2067 26.4313 71.908C26.2913 71.6093 26.2213 71.25 26.2213 70.83C26.2213 70.4287 26.3006 70.0833 26.4593 69.794C26.6273 69.5047 26.8513 69.2713 27.1313 69.094C27.4113 68.9167 27.7379 68.786 28.1113 68.702C28.4846 68.618 28.8766 68.576 29.2873 68.576C29.4179 68.576 29.5533 68.5853 29.6933 68.604C29.8333 68.6133 29.9639 68.632 30.0853 68.66C30.2159 68.6787 30.3279 68.6973 30.4213 68.716C30.5146 68.7347 30.5799 68.7487 30.6173 68.758V68.394C30.6173 68.1793 30.5939 67.9693 30.5473 67.764C30.5006 67.5493 30.4166 67.3627 30.2953 67.204C30.1739 67.036 30.0059 66.9053 29.7913 66.812C29.5859 66.7093 29.3153 66.658 28.9793 66.658C28.5499 66.658 28.1719 66.6907 27.8453 66.756C27.5279 66.812 27.2899 66.8727 27.1313 66.938L26.9773 65.86C27.1453 65.7853 27.4253 65.7153 27.8173 65.65C28.2093 65.5753 28.6339 65.538 29.0913 65.538Z" fill="white" fill-opacity="0.32"/>
<path d="M40.1717 65.72V73H38.9117V67.456C38.6317 67.8107 38.3237 68.226 37.9877 68.702C37.6517 69.178 37.3157 69.6727 36.9797 70.186C36.6437 70.69 36.3217 71.1893 36.0137 71.684C35.7057 72.1787 35.4397 72.6173 35.2157 73H34.0537V65.72H35.3137V70.956C35.5564 70.5547 35.8317 70.116 36.1397 69.64C36.4477 69.1547 36.7651 68.6787 37.0917 68.212C37.4277 67.736 37.759 67.2833 38.0857 66.854C38.4217 66.4153 38.7344 66.0373 39.0237 65.72H40.1717ZM37.1197 64.544C36.5317 64.544 36.051 64.3947 35.6777 64.096C35.3137 63.7973 35.0944 63.382 35.0197 62.85L36.0137 62.584C36.0884 62.8827 36.2144 63.1253 36.3917 63.312C36.569 63.4987 36.8117 63.592 37.1197 63.592C37.4277 63.592 37.6704 63.4987 37.8477 63.312C38.0251 63.1253 38.151 62.8827 38.2257 62.584L39.2057 62.85C39.131 63.382 38.9117 63.7973 38.5477 64.096C38.1837 64.3947 37.7077 64.544 37.1197 64.544Z" fill="white" fill-opacity="0.32"/>
<path d="M48.3712 73H47.0692V69.78H43.7092V73H42.4072V65.72H43.7092V68.688H47.0692V65.72H48.3712V73Z" fill="white" fill-opacity="0.32"/>
<path d="M57.0146 73.168C56.4266 73.168 55.9086 73.0747 55.4606 72.888C55.0219 72.7013 54.6486 72.44 54.3406 72.104C54.0419 71.768 53.8179 71.3713 53.6686 70.914C53.5193 70.4473 53.4446 69.934 53.4446 69.374C53.4446 68.814 53.5239 68.3007 53.6826 67.834C53.8506 67.3673 54.0839 66.966 54.3826 66.63C54.6813 66.2847 55.0453 66.0187 55.4746 65.832C55.9133 65.636 56.3986 65.538 56.9306 65.538C57.2573 65.538 57.5839 65.566 57.9106 65.622C58.2373 65.678 58.5499 65.7667 58.8486 65.888L58.5546 66.994C58.3586 66.9007 58.1299 66.826 57.8686 66.77C57.6166 66.714 57.3459 66.686 57.0566 66.686C56.3286 66.686 55.7686 66.9147 55.3766 67.372C54.9939 67.8293 54.8026 68.4967 54.8026 69.374C54.8026 69.766 54.8446 70.1253 54.9286 70.452C55.0219 70.7787 55.1619 71.0587 55.3486 71.292C55.5446 71.5253 55.7919 71.7073 56.0906 71.838C56.3893 71.9593 56.7533 72.02 57.1826 72.02C57.5279 72.02 57.8406 71.9873 58.1206 71.922C58.4006 71.8567 58.6199 71.7867 58.7786 71.712L58.9606 72.804C58.8859 72.8507 58.7786 72.8973 58.6386 72.944C58.4986 72.9813 58.3399 73.014 58.1626 73.042C57.9853 73.0793 57.7939 73.1073 57.5886 73.126C57.3926 73.154 57.2013 73.168 57.0146 73.168Z" fill="white" fill-opacity="0.32"/>
<path d="M62.8224 72.062C63.1304 72.062 63.4011 72.0573 63.6344 72.048C63.8771 72.0293 64.0777 72.0013 64.2364 71.964V69.794C64.1431 69.7473 63.9891 69.71 63.7744 69.682C63.5691 69.6447 63.3171 69.626 63.0184 69.626C62.8224 69.626 62.6124 69.64 62.3884 69.668C62.1737 69.696 61.9731 69.7567 61.7864 69.85C61.6091 69.934 61.4597 70.0553 61.3384 70.214C61.2171 70.3633 61.1564 70.564 61.1564 70.816C61.1564 71.2827 61.3057 71.6093 61.6044 71.796C61.9031 71.9733 62.3091 72.062 62.8224 72.062ZM62.7104 65.538C63.2331 65.538 63.6717 65.608 64.0264 65.748C64.3904 65.8787 64.6797 66.07 64.8944 66.322C65.1184 66.5647 65.2771 66.8587 65.3704 67.204C65.4637 67.54 65.5104 67.9133 65.5104 68.324V72.874C65.3984 72.8927 65.2397 72.9207 65.0344 72.958C64.8384 72.986 64.6144 73.014 64.3624 73.042C64.1104 73.07 63.8351 73.0933 63.5364 73.112C63.2471 73.14 62.9577 73.154 62.6684 73.154C62.2577 73.154 61.8797 73.112 61.5344 73.028C61.1891 72.944 60.8904 72.8133 60.6384 72.636C60.3864 72.4493 60.1904 72.2067 60.0504 71.908C59.9104 71.6093 59.8404 71.25 59.8404 70.83C59.8404 70.4287 59.9197 70.0833 60.0784 69.794C60.2464 69.5047 60.4704 69.2713 60.7504 69.094C61.0304 68.9167 61.3571 68.786 61.7304 68.702C62.1037 68.618 62.4957 68.576 62.9064 68.576C63.0371 68.576 63.1724 68.5853 63.3124 68.604C63.4524 68.6133 63.5831 68.632 63.7044 68.66C63.8351 68.6787 63.9471 68.6973 64.0404 68.716C64.1337 68.7347 64.1991 68.7487 64.2364 68.758V68.394C64.2364 68.1793 64.2131 67.9693 64.1664 67.764C64.1197 67.5493 64.0357 67.3627 63.9144 67.204C63.7931 67.036 63.6251 66.9053 63.4104 66.812C63.2051 66.7093 62.9344 66.658 62.5984 66.658C62.1691 66.658 61.7911 66.6907 61.4644 66.756C61.1471 66.812 60.9091 66.8727 60.7504 66.938L60.5964 65.86C60.7644 65.7853 61.0444 65.7153 61.4364 65.65C61.8284 65.5753 62.2531 65.538 62.7104 65.538Z" fill="white" fill-opacity="0.32"/>
<path d="M73.7909 65.72V73H72.5309V67.456C72.2509 67.8107 71.9429 68.226 71.6069 68.702C71.2709 69.178 70.9349 69.6727 70.5989 70.186C70.2629 70.69 69.9409 71.1893 69.6329 71.684C69.3249 72.1787 69.0589 72.6173 68.8349 73H67.6729V65.72H68.9329V70.956C69.1755 70.5547 69.4509 70.116 69.7589 69.64C70.0669 69.1547 70.3842 68.6787 70.7109 68.212C71.0469 67.736 71.3782 67.2833 71.7049 66.854C72.0409 66.4153 72.3535 66.0373 72.6429 65.72H73.7909ZM70.7389 64.544C70.1509 64.544 69.6702 64.3947 69.2969 64.096C68.9329 63.7973 68.7135 63.382 68.6389 62.85L69.6329 62.584C69.7075 62.8827 69.8335 63.1253 70.0109 63.312C70.1882 63.4987 70.4309 63.592 70.7389 63.592C71.0469 63.592 71.2895 63.4987 71.4669 63.312C71.6442 63.1253 71.7702 62.8827 71.8449 62.584L72.8249 62.85C72.7502 63.382 72.5309 63.7973 72.1669 64.096C71.8029 64.3947 71.3269 64.544 70.7389 64.544Z" fill="white" fill-opacity="0.32"/>
<path d="M81.1644 65.72V66.812H78.7984V73H77.4964V66.812H75.1304V65.72H81.1644Z" fill="white" fill-opacity="0.32"/>
<path d="M84.9708 72.062C85.2788 72.062 85.5495 72.0573 85.7828 72.048C86.0255 72.0293 86.2262 72.0013 86.3848 71.964V69.794C86.2915 69.7473 86.1375 69.71 85.9228 69.682C85.7175 69.6447 85.4655 69.626 85.1668 69.626C84.9708 69.626 84.7608 69.64 84.5368 69.668C84.3222 69.696 84.1215 69.7567 83.9348 69.85C83.7575 69.934 83.6082 70.0553 83.4868 70.214C83.3655 70.3633 83.3048 70.564 83.3048 70.816C83.3048 71.2827 83.4542 71.6093 83.7528 71.796C84.0515 71.9733 84.4575 72.062 84.9708 72.062ZM84.8588 65.538C85.3815 65.538 85.8202 65.608 86.1748 65.748C86.5388 65.8787 86.8282 66.07 87.0428 66.322C87.2668 66.5647 87.4255 66.8587 87.5188 67.204C87.6122 67.54 87.6588 67.9133 87.6588 68.324V72.874C87.5468 72.8927 87.3882 72.9207 87.1828 72.958C86.9868 72.986 86.7628 73.014 86.5108 73.042C86.2588 73.07 85.9835 73.0933 85.6848 73.112C85.3955 73.14 85.1062 73.154 84.8168 73.154C84.4062 73.154 84.0282 73.112 83.6828 73.028C83.3375 72.944 83.0388 72.8133 82.7868 72.636C82.5348 72.4493 82.3388 72.2067 82.1988 71.908C82.0588 71.6093 81.9888 71.25 81.9888 70.83C81.9888 70.4287 82.0682 70.0833 82.2268 69.794C82.3948 69.5047 82.6188 69.2713 82.8988 69.094C83.1788 68.9167 83.5055 68.786 83.8788 68.702C84.2522 68.618 84.6442 68.576 85.0548 68.576C85.1855 68.576 85.3208 68.5853 85.4608 68.604C85.6008 68.6133 85.7315 68.632 85.8528 68.66C85.9835 68.6787 86.0955 68.6973 86.1888 68.716C86.2822 68.7347 86.3475 68.7487 86.3848 68.758V68.394C86.3848 68.1793 86.3615 67.9693 86.3148 67.764C86.2682 67.5493 86.1842 67.3627 86.0628 67.204C85.9415 67.036 85.7735 66.9053 85.5588 66.812C85.3535 66.7093 85.0828 66.658 84.7468 66.658C84.3175 66.658 83.9395 66.6907 83.6128 66.756C83.2955 66.812 83.0575 66.8727 82.8988 66.938L82.7448 65.86C82.9128 65.7853 83.1928 65.7153 83.5848 65.65C83.9768 65.5753 84.4015 65.538 84.8588 65.538Z" fill="white" fill-opacity="0.32"/>
</svg>
