<svg width="40" height="40" viewBox="0 0 40 40" fill="none" xmlns="http://www.w3.org/2000/svg">
<path fill-rule="evenodd" clip-rule="evenodd" d="M20.8988 24.9582C20.8988 24.9582 21.2296 24.9231 21.3991 24.749C21.5542 24.5896 21.5489 24.2886 21.5489 24.2886C21.5489 24.2886 21.5282 22.8835 22.2106 22.676C22.8831 22.472 23.7466 24.0349 24.663 24.6359C25.3553 25.0902 25.8807 24.9908 25.8807 24.9908L28.3296 24.9582C28.3296 24.9582 29.6101 24.8828 29.003 23.92C28.9528 23.8411 28.6488 23.2076 27.1827 21.9061C25.6467 20.5439 25.8529 20.7642 27.7019 18.4074C28.8281 16.9723 29.2783 16.0961 29.1375 15.7214C29.0039 15.3631 28.1754 15.4582 28.1754 15.4582L25.419 15.4745C25.419 15.4745 25.2145 15.448 25.063 15.5345C24.915 15.6194 24.8191 15.8175 24.8191 15.8175C24.8191 15.8175 24.3833 16.9277 23.8013 17.8725C22.5738 19.8649 22.0833 19.9703 21.8824 19.8469C21.4153 19.5579 21.5318 18.6878 21.5318 18.0696C21.5318 16.1381 21.8385 15.3331 20.9355 15.1247C20.636 15.0553 20.4155 15.0099 19.6488 15.0021C18.6651 14.9927 17.833 15.0056 17.3614 15.2259C17.0475 15.3725 16.8054 15.7 16.9534 15.7189C17.1354 15.742 17.5479 15.8252 17.7667 16.1098C18.0491 16.4776 18.0392 17.3023 18.0392 17.3023C18.0392 17.3023 18.2015 19.5759 17.6599 19.858C17.2887 20.0518 16.7794 19.6565 15.6846 17.8484C15.1241 16.9225 14.7009 15.8989 14.7009 15.8989C14.7009 15.8989 14.6193 15.7077 14.4731 15.6048C14.2965 15.4805 14.0499 15.442 14.0499 15.442L11.4307 15.4582C11.4307 15.4582 11.037 15.4685 10.8927 15.6323C10.7644 15.7772 10.8828 16.0781 10.8828 16.0781C10.8828 16.0781 12.9335 20.6656 15.2559 22.9778C17.3856 25.0971 19.803 24.9582 19.803 24.9582H20.8988Z" fill="currentcolor"/>
<rect x="0.5" y="0.5" width="39" height="39" rx="19.5" stroke="currentcolor"/>
</svg>
