<svg width="48" height="48" viewBox="0 0 48 48" fill="none" xmlns="http://www.w3.org/2000/svg">
<rect width="48" height="47.5966" rx="23.7983" fill="#F70000"/>
<path fill-rule="evenodd" clip-rule="evenodd" d="M32.5951 16.3394C33.5418 16.6 34.2873 17.368 34.5402 18.3432C35 20.1107 35 23.7985 35 23.7985C35 23.7985 35 27.4862 34.5402 29.2538C34.2873 30.229 33.5418 30.997 32.5951 31.2577C30.8796 31.7313 24 31.7313 24 31.7313C24 31.7313 17.1204 31.7313 15.4048 31.2577C14.4581 30.997 13.7126 30.229 13.4596 29.2538C13 27.4862 13 23.7985 13 23.7985C13 23.7985 13 20.1107 13.4596 18.3432C13.7126 17.368 14.4581 16.6 15.4048 16.3394C17.1204 15.8657 24 15.8657 24 15.8657C24 15.8657 30.8796 15.8657 32.5951 16.3394ZM21.9375 20.6944V27.5924L27.4375 24.1435L21.9375 20.6944Z" fill="white"/>
</svg>
