<svg width="40" height="40" viewBox="0 0 40 40" fill="none" xmlns="http://www.w3.org/2000/svg">
<path fill-rule="evenodd" clip-rule="evenodd" d="M27.1623 13.7313C27.9511 13.9503 28.5724 14.5957 28.7832 15.4153C29.1663 16.9007 29.1663 19.9999 29.1663 19.9999C29.1663 19.9999 29.1663 23.0991 28.7832 24.5845C28.5724 25.4041 27.9511 26.0495 27.1623 26.2686C25.7327 26.6666 19.9997 26.6666 19.9997 26.6666C19.9997 26.6666 14.2667 26.6666 12.837 26.2686C12.0481 26.0495 11.4269 25.4041 11.216 24.5845C10.833 23.0991 10.833 19.9999 10.833 19.9999C10.833 19.9999 10.833 16.9007 11.216 15.4153C11.4269 14.5957 12.0481 13.9503 12.837 13.7313C14.2667 13.3333 19.9997 13.3333 19.9997 13.3333C19.9997 13.3333 25.7327 13.3333 27.1623 13.7313ZM18.281 17.3912V23.1883L22.8643 20.2899L18.281 17.3912Z" fill="currentcolor"/>
<rect x="0.5" y="0.5" width="39" height="39" rx="19.5" stroke="currentcolor"/>
</svg>
