<svg width="40" height="40" viewBox="0 0 40 40" fill="none" xmlns="http://www.w3.org/2000/svg">
<path fill-rule="evenodd" clip-rule="evenodd" d="M16.2208 10.8889C17.1986 10.8444 17.511 10.8335 20.0005 10.8335H19.9977C22.488 10.8335 22.7993 10.8444 23.777 10.8889C24.7529 10.9336 25.4194 11.0881 26.0038 11.3147C26.6073 11.5487 27.1172 11.8619 27.6271 12.3718C28.137 12.8813 28.4502 13.3927 28.6851 13.9956C28.9104 14.5785 29.0651 15.2446 29.111 16.2204C29.1549 17.1982 29.1663 17.5106 29.1663 20.0002C29.1663 22.4897 29.1549 22.8013 29.111 23.7791C29.0651 24.7546 28.9104 25.4209 28.6851 26.0039C28.4502 26.6067 28.137 27.1181 27.6271 27.6276C27.1178 28.1375 26.6071 28.4514 26.0044 28.6856C25.4211 28.9123 24.7543 29.0668 23.7784 29.1114C22.8006 29.1559 22.4891 29.1668 19.9994 29.1668C17.51 29.1668 17.1978 29.1559 16.22 29.1114C15.2443 29.0668 14.578 28.9123 13.9948 28.6856C13.3923 28.4514 12.8808 28.1375 12.3715 27.6276C11.8618 27.1181 11.5486 26.6067 11.3143 26.0038C11.0878 25.4209 10.9333 24.7548 10.8884 23.7789C10.8441 22.8012 10.833 22.4897 10.833 20.0002C10.833 17.5106 10.8445 17.198 10.8882 16.2203C10.9321 15.2448 11.0868 14.5785 11.3141 13.9954C11.549 13.3927 11.8622 12.8813 12.3721 12.3718C12.8816 11.8621 13.393 11.5489 13.9959 11.3147C14.5788 11.0881 15.2449 10.9336 16.2208 10.8889ZM19.6949 12.4853C19.5095 12.4852 19.3378 12.4851 19.1781 12.4854V12.4831C17.4696 12.485 17.1419 12.4965 16.2963 12.5347C15.4025 12.5757 14.9173 12.7247 14.5941 12.8507C14.1664 13.0173 13.8608 13.2159 13.54 13.5367C13.2191 13.8575 13.0201 14.1631 12.854 14.5909C12.7285 14.914 12.5792 15.3991 12.5383 16.2928C12.4944 17.2591 12.4856 17.5479 12.4856 19.9958C12.4856 22.4436 12.4944 22.7339 12.5383 23.7002C12.579 24.594 12.7285 25.0791 12.854 25.4018C13.0205 25.8298 13.2191 26.1346 13.54 26.4554C13.8608 26.7762 14.1664 26.9748 14.5941 27.141C14.9175 27.2665 15.4025 27.4158 16.2963 27.4571C17.2626 27.501 17.5527 27.5105 20.0004 27.5105C22.448 27.5105 22.7382 27.501 23.7046 27.4571C24.5983 27.4162 25.0838 27.2672 25.4065 27.1412C25.8345 26.975 26.1391 26.7764 26.4599 26.4556C26.7808 26.1349 26.9798 25.8303 27.1459 25.4026C27.2714 25.0798 27.4207 24.5948 27.4616 23.701C27.5055 22.7347 27.5151 22.4444 27.5151 19.9981C27.5151 17.5517 27.5055 17.2614 27.4616 16.2951C27.4209 15.4014 27.2714 14.9163 27.1459 14.5935C26.9794 14.1658 26.7808 13.8602 26.4599 13.5394C26.1393 13.2185 25.8343 13.0199 25.4065 12.8538C25.0834 12.7283 24.5983 12.579 23.7046 12.5381C22.7381 12.4942 22.448 12.4854 20.0004 12.4854C19.8946 12.4854 19.7929 12.4854 19.6949 12.4853Z" fill="white"/>
<path fill-rule="evenodd" clip-rule="evenodd" d="M24.8937 14.0074C24.2864 14.0074 23.7937 14.4996 23.7937 15.1071C23.7937 15.7144 24.2864 16.2071 24.8937 16.2071C25.501 16.2071 25.9937 15.7144 25.9937 15.1071C25.9937 14.4998 25.501 14.0074 24.8937 14.0074Z" fill="white"/>
<path fill-rule="evenodd" clip-rule="evenodd" d="M15.293 20.0002C15.293 17.4005 17.4008 15.2927 20.0005 15.2927C22.6003 15.2927 24.7073 17.4005 24.7073 20.0002C24.7073 22.5999 22.6003 24.7067 20.0005 24.7067C17.4008 24.7067 15.293 22.5999 15.293 20.0002ZM23.0562 20.0002C23.0562 18.3125 21.6881 16.9446 20.0006 16.9446C18.313 16.9446 16.945 18.3125 16.945 20.0002C16.945 21.6876 18.313 23.0557 20.0006 23.0557C21.6881 23.0557 23.0562 21.6876 23.0562 20.0002Z" fill="white"/>
<rect x="0.5" y="0.5" width="39" height="39" rx="19.5" stroke="white"/>
</svg>
