<svg width="40" height="40" viewBox="0 0 40 40" fill="none" xmlns="http://www.w3.org/2000/svg">
<path fill-rule="evenodd" clip-rule="evenodd" d="M16.2208 10.8886C17.1986 10.8441 17.511 10.8333 20.0005 10.8333H19.9977C22.488 10.8333 22.7993 10.8441 23.777 10.8886C24.7529 10.9333 25.4194 11.0878 26.0038 11.3145C26.6073 11.5484 27.1172 11.8616 27.6271 12.3715C28.137 12.881 28.4502 13.3925 28.6851 13.9954C28.9104 14.5782 29.0651 15.2443 29.111 16.2202C29.1549 17.198 29.1663 17.5104 29.1663 19.9999C29.1663 22.4894 29.1549 22.8011 29.111 23.7789C29.0651 24.7544 28.9104 25.4207 28.6851 26.0037C28.4502 26.6064 28.137 27.1178 27.6271 27.6273C27.1178 28.1372 26.6071 28.4512 26.0044 28.6853C25.4211 28.912 24.7543 29.0665 23.7784 29.1112C22.8006 29.1557 22.4891 29.1666 19.9994 29.1666C17.51 29.1666 17.1978 29.1557 16.22 29.1112C15.2443 29.0665 14.578 28.912 13.9948 28.6853C13.3923 28.4512 12.8808 28.1372 12.3715 27.6273C11.8618 27.1178 11.5486 26.6064 11.3143 26.0035C11.0878 25.4207 10.9333 24.7546 10.8884 23.7787C10.8441 22.8009 10.833 22.4894 10.833 19.9999C10.833 17.5104 10.8445 17.1978 10.8882 16.22C10.9321 15.2445 11.0868 14.5782 11.3141 13.9952C11.549 13.3925 11.8622 12.881 12.3721 12.3715C12.8816 11.8618 13.393 11.5486 13.9959 11.3145C14.5788 11.0878 15.2449 10.9333 16.2208 10.8886ZM19.6949 12.4851C19.5095 12.485 19.3378 12.4849 19.1781 12.4852V12.4829C17.4696 12.4848 17.1419 12.4962 16.2963 12.5344C15.4025 12.5755 14.9173 12.7244 14.5941 12.8505C14.1664 13.017 13.8608 13.2156 13.54 13.5365C13.2191 13.8573 13.0201 14.1628 12.854 14.5906C12.7285 14.9137 12.5792 15.3988 12.5383 16.2926C12.4944 17.2589 12.4856 17.5476 12.4856 19.9955C12.4856 22.4434 12.4944 22.7337 12.5383 23.7C12.579 24.5937 12.7285 25.0788 12.854 25.4016C13.0205 25.8295 13.2191 26.1343 13.54 26.4552C13.8608 26.776 14.1664 26.9746 14.5941 27.1407C14.9175 27.2662 15.4025 27.4156 16.2963 27.4568C17.2626 27.5007 17.5527 27.5103 20.0004 27.5103C22.448 27.5103 22.7382 27.5007 23.7046 27.4568C24.5983 27.4159 25.0838 27.267 25.4065 27.1409C25.8345 26.9748 26.1391 26.7762 26.4599 26.4553C26.7808 26.1347 26.9798 25.8301 27.1459 25.4023C27.2714 25.0796 27.4207 24.5945 27.4616 23.7008C27.5055 22.7344 27.5151 22.4442 27.5151 19.9978C27.5151 17.5515 27.5055 17.2612 27.4616 16.2949C27.4209 15.4011 27.2714 14.916 27.1459 14.5933C26.9794 14.1655 26.7808 13.86 26.4599 13.5391C26.1393 13.2183 25.8343 13.0197 25.4065 12.8535C25.0834 12.7281 24.5983 12.5787 23.7046 12.5379C22.7381 12.4939 22.448 12.4852 20.0004 12.4852C19.8946 12.4852 19.7929 12.4851 19.6949 12.4851Z" fill="currentcolor"/>
<path fill-rule="evenodd" clip-rule="evenodd" d="M24.8937 14.0072C24.2864 14.0072 23.7937 14.4993 23.7937 15.1068C23.7937 15.7141 24.2864 16.2068 24.8937 16.2068C25.501 16.2068 25.9937 15.7141 25.9937 15.1068C25.9937 14.4995 25.501 14.0072 24.8937 14.0072Z" fill="currentcolor"/>
<path fill-rule="evenodd" clip-rule="evenodd" d="M15.293 19.9999C15.293 17.4002 17.4008 15.2924 20.0005 15.2924C22.6003 15.2924 24.7073 17.4002 24.7073 19.9999C24.7073 22.5996 22.6003 24.7064 20.0005 24.7064C17.4008 24.7064 15.293 22.5996 15.293 19.9999ZM23.0562 19.9999C23.0562 18.3123 21.6881 16.9444 20.0006 16.9444C18.313 16.9444 16.945 18.3123 16.945 19.9999C16.945 21.6874 18.313 23.0555 20.0006 23.0555C21.6881 23.0555 23.0562 21.6874 23.0562 19.9999Z" fill="currentcolor"/>
<rect x="0.5" y="0.5" width="39" height="39" rx="19.5" stroke="currentcolor"/>
</svg>
