<svg width="48" height="48" viewBox="0 0 48 48" fill="none" xmlns="http://www.w3.org/2000/svg">
<rect width="48" height="47.5966" rx="23.7983" fill="#4F76A8"/>
<path fill-rule="evenodd" clip-rule="evenodd" d="M25.0789 29.6981C25.0789 29.6981 25.476 29.6562 25.6793 29.4491C25.8655 29.2594 25.859 28.9013 25.859 28.9013C25.859 28.9013 25.8343 27.2293 26.6531 26.9825C27.4601 26.7397 28.4964 28.5994 29.596 29.3145C30.4267 29.8552 31.0573 29.7368 31.0573 29.7368L33.9959 29.6981C33.9959 29.6981 35.5325 29.6083 34.804 28.4627C34.7437 28.3688 34.379 27.6149 32.6197 26.0664C30.7764 24.4454 31.0239 24.7075 33.2427 21.9032C34.5942 20.1955 35.1343 19.1529 34.9654 18.7071C34.8051 18.2807 33.8108 18.3939 33.8108 18.3939L30.5031 18.4133C30.5031 18.4133 30.2578 18.3817 30.076 18.4847C29.8984 18.5857 29.7833 18.8213 29.7833 18.8213C29.7833 18.8213 29.2603 20.1424 28.562 21.2666C27.0889 23.6374 26.5003 23.7629 26.2593 23.616C25.6987 23.2722 25.8386 22.2368 25.8386 21.5012C25.8386 19.2029 26.2066 18.245 25.123 17.9971C24.7636 17.9144 24.4989 17.8604 23.5789 17.8512C22.3985 17.84 21.4 17.8553 20.834 18.1174C20.4574 18.2919 20.1669 18.6816 20.3444 18.704C20.5629 18.7316 21.0578 18.8305 21.3204 19.1692C21.6593 19.6068 21.6475 20.5882 21.6475 20.5882C21.6475 20.5882 21.8422 23.2936 21.1923 23.6293C20.7469 23.8598 20.1357 23.3895 18.8219 21.238C18.1493 20.1363 17.6415 18.9183 17.6415 18.9183C17.6415 18.9183 17.5435 18.6908 17.3681 18.5683C17.1562 18.4204 16.8603 18.3745 16.8603 18.3745L13.7172 18.3939C13.7172 18.3939 13.2448 18.4061 13.0716 18.601C12.9177 18.7734 13.0598 19.1315 13.0598 19.1315C13.0598 19.1315 15.5206 24.5902 18.3075 27.3415C20.8631 29.8633 23.764 29.6981 23.764 29.6981H25.0789Z" fill="white"/>
</svg>
