<svg width="40" height="40" viewBox="0 0 40 40" fill="none" xmlns="http://www.w3.org/2000/svg">
<path fill-rule="evenodd" clip-rule="evenodd" d="M27.1623 13.7316C27.9511 13.9506 28.5724 14.596 28.7832 15.4155C29.1663 16.9009 29.1663 20.0002 29.1663 20.0002C29.1663 20.0002 29.1663 23.0993 28.7832 24.5848C28.5724 25.4044 27.9511 26.0497 27.1623 26.2689C25.7327 26.6668 19.9997 26.6668 19.9997 26.6668C19.9997 26.6668 14.2667 26.6668 12.837 26.2689C12.0481 26.0497 11.4269 25.4044 11.216 24.5848C10.833 23.0993 10.833 20.0002 10.833 20.0002C10.833 20.0002 10.833 16.9009 11.216 15.4155C11.4269 14.596 12.0481 13.9506 12.837 13.7316C14.2667 13.3335 19.9997 13.3335 19.9997 13.3335C19.9997 13.3335 25.7327 13.3335 27.1623 13.7316ZM18.281 17.3915V23.1886L22.8643 20.2901L18.281 17.3915Z" fill="white"/>
<rect x="0.5" y="0.5" width="39" height="39" rx="19.5" stroke="white"/>
</svg>
