<svg width="48" height="48" viewBox="0 0 48 48" fill="none" xmlns="http://www.w3.org/2000/svg">
<rect width="48" height="47.5966" rx="23.7983" fill="url(#paint0_linear)"/>
<path fill-rule="evenodd" clip-rule="evenodd" d="M19.4653 12.9565C20.6387 12.9036 21.0136 12.8906 24.001 12.8906H23.9976C26.986 12.8906 27.3595 12.9036 28.5328 12.9565C29.7039 13.0097 30.5037 13.1935 31.205 13.4633C31.9291 13.7416 32.541 14.1143 33.1529 14.7211C33.7648 15.3273 34.1406 15.9359 34.4225 16.6533C34.6929 17.3468 34.8785 18.1394 34.9335 19.3006C34.9862 20.4641 35 20.8359 35 23.7982C35 26.7605 34.9862 27.1314 34.9335 28.2948C34.8785 29.4556 34.6929 30.2484 34.4225 30.9422C34.1406 31.6594 33.7648 32.2679 33.1529 32.8742C32.5417 33.4809 31.9289 33.8545 31.2056 34.1331C30.5058 34.4029 29.7055 34.5867 28.5345 34.6399C27.3611 34.6928 26.9873 34.7058 23.9997 34.7058C21.0124 34.7058 20.6377 34.6928 19.4644 34.6399C18.2936 34.5867 17.494 34.4029 16.7941 34.1331C16.0711 33.8545 15.4574 33.4809 14.8462 32.8742C14.2345 32.2679 13.8587 31.6594 13.5775 30.942C13.3057 30.2484 13.1203 29.4558 13.0665 28.2946C13.0133 27.1311 13 26.7605 13 23.7982C13 20.8359 13.0138 20.4639 13.0662 19.3004C13.1189 18.1397 13.3046 17.3468 13.5773 16.6531C13.8592 15.9359 14.235 15.3273 14.8469 14.7211C15.4583 14.1145 16.072 13.7419 16.7955 13.4633C17.4949 13.1935 18.2943 13.0097 19.4653 12.9565ZM23.6343 14.8561C23.4118 14.856 23.2057 14.856 23.0141 14.8563V14.8535C20.964 14.8558 20.5707 14.8694 19.5559 14.9149C18.4834 14.9637 17.9011 15.141 17.5134 15.291C17 15.4891 16.6334 15.7254 16.2484 16.1072C15.8633 16.489 15.6246 16.8526 15.4252 17.3616C15.2746 17.7461 15.0954 18.3233 15.0464 19.3868C14.9937 20.5366 14.9831 20.8802 14.9831 23.793C14.9831 26.7057 14.9937 27.0511 15.0464 28.201C15.0952 29.2645 15.2746 29.8417 15.4252 30.2257C15.625 30.7349 15.8633 31.0976 16.2484 31.4794C16.6334 31.8612 17 32.0975 17.5134 32.2952C17.9013 32.4445 18.4834 32.6222 19.5559 32.6713C20.7155 32.7235 21.0637 32.7349 24.0009 32.7349C26.9379 32.7349 27.2863 32.7235 28.4459 32.6713C29.5184 32.6226 30.1009 32.4454 30.4882 32.2954C31.0018 32.0977 31.3673 31.8614 31.7523 31.4796C32.1373 31.0981 32.3761 30.7356 32.5755 30.2266C32.7261 29.8426 32.9053 29.2654 32.9543 28.2019C33.007 27.0521 33.0185 26.7066 33.0185 23.7957C33.0185 20.8847 33.007 20.5393 32.9543 19.3895C32.9055 18.326 32.7261 17.7488 32.5755 17.3648C32.3757 16.8557 32.1373 16.4922 31.7523 16.1104C31.3676 15.7286 31.0016 15.4923 30.4882 15.2946C30.1005 15.1453 29.5184 14.9676 28.4459 14.919C27.2861 14.8667 26.9379 14.8563 24.0009 14.8563C23.874 14.8563 23.7518 14.8562 23.6343 14.8561Z" fill="white"/>
<path fill-rule="evenodd" clip-rule="evenodd" d="M29.8728 16.6674C29.1441 16.6674 28.5528 17.253 28.5528 17.9758C28.5528 18.6984 29.1441 19.2847 29.8728 19.2847C30.6016 19.2847 31.1929 18.6984 31.1929 17.9758C31.1929 17.2532 30.6016 16.6674 29.8728 16.6674Z" fill="white"/>
<path fill-rule="evenodd" clip-rule="evenodd" d="M18.352 23.7982C18.352 20.7048 20.8814 18.1967 24.001 18.1967C27.1207 18.1967 29.6491 20.7048 29.6491 23.7982C29.6491 26.8916 27.1207 29.3985 24.001 29.3985C20.8814 29.3985 18.352 26.8916 18.352 23.7982ZM27.6678 23.7982C27.6678 21.7901 26.0261 20.1623 24.0011 20.1623C21.9759 20.1623 20.3344 21.7901 20.3344 23.7982C20.3344 25.8061 21.9759 27.4341 24.0011 27.4341C26.0261 27.4341 27.6678 25.8061 27.6678 23.7982Z" fill="white"/>
<defs>
<linearGradient id="paint0_linear" x1="48" y1="0" x2="0.405045" y2="47.9983" gradientUnits="userSpaceOnUse">
<stop stop-color="#4264C8"/>
<stop offset="0.5" stop-color="#D73F8C"/>
<stop offset="0.875" stop-color="#FBCE50"/>
</linearGradient>
</defs>
</svg>
