<svg width="60" height="8" viewBox="0 0 60 8" fill="none" xmlns="http://www.w3.org/2000/svg">
<path d="M2.30765 3.20002C3.91668 3.20002 4.60364 2.7239 5.64325 2.00319C6.93032 1.11089 8.53199 0.000203873 11.5383 0.000203873C14.5447 0.000203873 16.1464 1.11079 17.4334 2.00319C18.4727 2.7239 19.1596 3.19982 20.7681 3.19982C22.377 3.19982 23.0637 2.72369 24.1033 2.00319C25.3906 1.11068 26.9922 0.000203873 29.9989 0.000203873C33.0051 0.000203873 34.6072 1.11079 35.8944 2.00319C36.9337 2.72379 37.6206 3.19982 39.2295 3.19982C40.8388 3.19982 41.5258 2.72369 42.5654 2.00298C43.8527 1.11068 45.4546 7.75975e-08 48.4611 7.75975e-08C51.4675 7.75975e-08 53.0693 1.11058 54.3565 2.00298C55.3963 2.72369 56.0831 3.19982 57.6923 3.19982C58.9669 3.19982 60 4.27431 60 5.5996C60 6.925 58.9669 7.99959 57.6923 7.99959C54.6855 7.99959 53.0836 6.88901 51.7963 5.99661C50.7567 5.2759 50.0699 4.79998 48.4611 4.79998C46.8519 4.79998 46.1652 5.2761 45.1255 5.99681C43.8383 6.88911 42.2363 7.9998 39.2295 7.9998C36.2232 7.9998 34.6213 6.88922 33.334 5.99681C32.2946 5.2761 31.6078 4.79998 29.9989 4.79998C28.3897 4.79998 27.7029 5.2761 26.6633 5.99681C25.3763 6.88911 23.7742 7.9998 20.768 7.9998C17.7616 7.9998 16.1599 6.88922 14.8729 5.99681C13.8336 5.2761 13.1467 4.80018 11.5382 4.80018C9.92964 4.80018 9.24268 5.27631 8.20346 5.99681C6.9162 6.88932 5.31433 8 2.30765 8C1.03314 7.99969 0 6.9252 0 5.59981C0 4.27441 1.03314 3.20002 2.30765 3.20002Z" fill="#BDD5F2"/>
</svg>
